# This file uses centimeters as units for non-parametric coordinates.

mtllib BulWork.mtl
g default
v -0.500000 -0.808917 0.700599
v 0.911361 -0.808917 0.700599
v -0.500000 1.270147 -0.700599
v -0.500000 -0.808917 -0.700599
v 0.911361 -0.808917 -0.700599
v -0.500000 4.510908 -0.700599
v -0.500000 6.234978 0.700599
v 0.911361 6.234978 0.700599
v 0.911361 6.234978 -0.700599
v -0.500000 6.234978 -0.700599
v -1.350486 0.188593 0.700599
v -1.350486 0.188593 -0.657575
v -1.350486 5.313108 0.700599
v -1.350486 5.313108 -0.657575
v -0.500000 1.270147 -1.299485
v 0.911361 1.270147 -1.299485
v -0.500000 4.510908 -1.299485
v 0.911361 4.510908 -1.299485
v 1.241770 1.270147 -0.700599
v 1.241770 1.270147 0.700599
v 1.241770 1.270147 -1.299485
v 1.241770 4.510908 0.700599
v 1.241770 4.510908 -0.700599
v 1.241770 4.510908 -1.299485
v -0.500000 6.234978 -0.174426
v -1.350486 5.313108 -0.141640
v -0.937410 4.891373 -0.174426
v -0.937410 0.739335 -0.174426
v -1.350486 0.188593 -0.141640
v -0.500000 -0.808917 -0.174426
v 0.911361 -0.808917 -0.174426
v 1.241770 1.270147 -0.174426
v 0.911361 1.270147 -0.174426
v 0.911361 4.510908 -0.174426
v 1.241770 4.510908 -0.174426
v 0.911361 6.234978 -0.174426
v -1.350486 0.188593 0.858346
v 1.241770 1.270147 0.858346
v -1.350486 5.313108 0.858346
v 1.241770 4.510908 0.858346
v -1.279238 -0.808917 -0.622086
v -1.350486 -0.737670 -0.657575
v -1.350486 -0.737643 -0.141640
v -1.279265 -0.808917 -0.144386
v -1.279238 6.234978 0.700599
v -1.350486 6.163731 0.700599
v -1.279265 6.234978 -0.144386
v -1.350486 6.163704 -0.141640
v 0.911361 -0.808917 -1.228238
v 0.911361 -0.737670 -1.299485
v -0.500000 -0.737670 -1.299485
v -0.476131 -0.808917 -1.228238
v -0.476131 6.234978 -1.228238
v -0.500000 6.163731 -1.299485
v 0.911361 6.163731 -1.299485
v 0.911361 6.234978 -1.228238
v -1.279238 6.234978 -0.622086
v -1.350486 6.163731 -0.657575
v 1.241770 -0.737670 -0.700599
v 1.170523 -0.808917 -0.700599
v 1.170523 -0.808917 -0.174426
v 1.241770 -0.737670 -0.174426
v 1.170523 -0.808917 -1.228238
v 1.241770 -0.737670 -1.299485
v 1.241770 6.163731 0.700599
v 1.170523 6.234978 0.700599
v 1.241770 6.163731 -0.174426
v 1.170523 6.234978 -0.174426
v 1.241770 6.163731 -1.299485
v 1.170523 6.234978 -1.228238
v 1.241770 6.163731 -0.700599
v 1.170523 6.234978 -0.700599
v -1.350486 -0.737670 0.700599
v -1.279238 -0.808917 0.700599
v 1.170523 -0.808917 0.700599
v 1.241770 -0.737670 0.700599
v -0.500000 -0.808917 0.785745
v -0.519739 -0.739050 0.858346
v 0.911361 -0.737670 0.858346
v 0.911361 -0.808917 0.787099
v -1.350486 -0.737670 0.858346
v -1.279238 -0.808917 0.787099
v 1.170523 -0.808917 0.787099
v 1.241770 -0.737670 0.858346
v 0.911361 6.234978 0.787099
v 0.911361 6.163731 0.858346
v -0.522603 6.165546 0.858346
v -0.500000 6.234978 0.785329
v -1.279238 6.234978 0.787099
v -1.350486 6.163731 0.858346
v 1.241770 6.163731 0.858346
v 1.170523 6.234978 0.787099
v -0.872913 0.757853 0.700599
v -0.937410 0.739335 0.623094
v -0.971430 0.693977 0.700599
v -0.976736 4.931524 0.700599
v -0.937410 4.891373 0.623800
v -0.872274 4.877968 0.700599
v 0.965642 1.270147 0.700599
v 0.911361 1.270147 0.623094
v 0.848027 1.251963 0.700599
v 0.847289 4.524094 0.700599
v 0.911361 4.510908 0.623800
v 0.965390 4.510908 0.700599
v 0.911361 1.270147 -0.624584
v 0.976245 1.270147 -0.700599
v 0.911361 1.270147 -0.765483
v 0.835345 1.270147 -0.700599
v 0.911361 4.510908 -0.624584
v 0.835345 4.510908 -0.700599
v 0.911361 4.510908 -0.765483
v 0.976245 4.510908 -0.700599
v 0.911361 1.216396 0.858346
v 0.965642 1.270147 0.858346
v 0.859188 1.255167 0.858346
v -0.922796 0.687608 0.858346
v -0.882913 0.754982 0.858346
v -0.971430 0.693977 0.858346
v -0.920771 4.942484 0.858346
v -0.976736 4.931524 0.858346
v -0.882361 4.880044 0.858346
v 0.911361 4.564659 0.858346
v 0.858441 4.521799 0.858346
v 0.965390 4.510908 0.858346
vt 0.361667 0.265470
vt 0.361728 0.003462
vt 0.431503 0.003462
vt 0.431503 0.265470
vt 0.354947 0.001992
vt 0.354947 0.266537
vt 0.470887 0.003462
vt 0.470887 0.265470
vt 0.477538 0.003462
vt 0.477538 0.265470
vt 0.100423 0.127165
vt 0.170198 0.127165
vt 0.170260 0.462848
vt 0.100423 0.462848
vt 0.176979 0.123498
vt 0.103292 0.082638
vt 0.176979 0.082638
vt 0.176979 0.128662
vt 0.176979 0.461764
vt 0.176979 0.466094
vt 0.176979 0.496944
vt 0.103292 0.496944
vt 0.054388 0.170080
vt 0.054388 0.432088
vt 0.058153 0.082638
vt 0.103292 0.007754
vt 0.176979 0.007752
vt 0.190780 0.123498
vt 0.190780 0.082638
vt 0.190780 0.466094
vt 0.190780 0.496944
vt 0.176979 0.565715
vt 0.103292 0.565713
vt 0.001992 0.170080
vt 0.058153 0.007752
vt 0.103051 0.001992
vt 0.176979 0.001992
vt 0.190780 0.007752
vt 0.190780 0.565715
vt 0.176979 0.571475
vt 0.103051 0.571475
vt 0.058153 0.496944
vt 0.058153 0.565715
vt 0.061258 0.001992
vt 0.061258 0.571475
vt 0.356896 0.643008
vt 0.363130 0.643008
vt 0.363130 0.713752
vt 0.356896 0.713752
vt 0.538793 0.643008
vt 0.538793 0.713752
vt 0.363130 0.600468
vt 0.538793 0.600468
vt 0.538793 0.726505
vt 0.363130 0.726505
vt 0.363130 0.552049
vt 0.538793 0.552049
vt 0.696783 0.645194
vt 0.690550 0.645194
vt 0.690550 0.574450
vt 0.696783 0.574450
vt 0.545945 0.645194
vt 0.545945 0.574450
vt 0.545945 0.531910
vt 0.690550 0.531910
vt 0.690550 0.657947
vt 0.545945 0.657947
vt 0.545945 0.483492
vt 0.690550 0.483492
vt 0.624061 0.142810
vt 0.624061 0.028705
vt 0.700617 0.028705
vt 0.700617 0.142810
vt 0.616648 0.142810
vt 0.616494 0.028705
vt 0.624061 0.007752
vt 0.700617 0.007752
vt 0.746652 0.028705
vt 0.746652 0.142810
vt 0.697989 0.205812
vt 0.624061 0.205810
vt 0.616494 0.205810
vt 0.610260 0.028705
vt 0.610260 0.144638
vt 0.616494 0.007752
vt 0.746652 0.007752
vt 0.792815 0.028705
vt 0.792815 0.140880
vt 0.739783 0.205810
vt 0.624061 0.211570
vt 0.610260 0.211570
vt 0.624061 0.001992
vt 0.610260 0.001992
vt 0.700617 0.001992
vt 0.746652 0.001992
vt 0.792815 0.007752
vt 0.799048 0.142810
vt 0.799048 0.028705
vt 0.799048 0.001992
vt 0.742888 0.211570
vt 0.907651 0.142810
vt 0.907651 0.028705
vt 0.984207 0.028705
vt 0.984207 0.142810
vt 0.861616 0.142810
vt 0.861616 0.028705
vt 0.907651 0.007752
vt 0.984207 0.007752
vt 0.991775 0.028705
vt 0.991656 0.142810
vt 0.984207 0.205810
vt 0.910279 0.205812
vt 0.815453 0.140880
vt 0.815453 0.028705
vt 0.861616 0.007752
vt 0.868485 0.205810
vt 0.991775 0.007752
vt 0.998008 0.144406
vt 0.998008 0.028705
vt 0.991775 0.205810
vt 0.815453 0.007752
vt 0.861616 0.001992
vt 0.907651 0.001992
vt 0.984207 0.001992
vt 0.998008 0.001992
vt 0.998008 0.211570
vt 0.984207 0.211570
vt 0.865381 0.211570
vt 0.809220 0.142810
vt 0.809220 0.001992
vt 0.296444 0.929248
vt 0.296444 0.821289
vt 0.302121 0.815143
vt 0.348840 0.815143
vt 0.348840 0.929248
vt 0.296444 0.809897
vt 0.296444 0.788430
vt 0.348840 0.788430
vt 0.289793 0.815143
vt 0.250409 0.815143
vt 0.250409 0.788430
vt 0.180634 0.815143
vt 0.173853 0.810754
vt 0.173853 0.788430
vt 0.173853 0.820263
vt 0.160052 0.810754
vt 0.160052 0.788430
vt 0.160052 0.819361
vt 0.173853 0.959397
vt 0.160052 0.960206
vt 0.173853 0.967362
vt 0.160052 0.967362
vt 0.180634 0.964612
vt 0.666693 0.356077
vt 0.670457 0.424837
vt 0.614296 0.356077
vt 0.712728 0.391440
vt 0.715596 0.424837
vt 0.661016 0.241971
vt 0.666693 0.248117
vt 0.614296 0.241971
vt 0.666693 0.236726
vt 0.614296 0.215259
vt 0.666693 0.215259
vt 0.712728 0.215259
vt 0.712728 0.241971
vt 0.673343 0.241971
vt 0.789283 0.237603
vt 0.782564 0.241971
vt 0.789283 0.215259
vt 0.789283 0.247152
vt 0.803085 0.237603
vt 0.803085 0.215259
vt 0.803085 0.246250
vt 0.803085 0.386990
vt 0.789283 0.386174
vt 0.789283 0.394620
vt 0.803085 0.394620
vt 0.782564 0.391440
vt 0.703810 0.433771
vt 0.710460 0.428525
vt 0.716137 0.433771
vt 0.710460 0.439916
vt 0.735627 0.433771
vt 0.728976 0.439916
vt 0.723299 0.433771
vt 0.728976 0.428525
vt 0.742789 0.433771
vt 0.749439 0.428525
vt 0.755116 0.433771
vt 0.749439 0.439916
vt 0.767955 0.439916
vt 0.762278 0.433771
vt 0.767955 0.428525
vt 0.774606 0.433771
vt 0.197138 0.335094
vt 0.197082 0.001992
vt 0.347647 0.041940
vt 0.347582 0.306484
vt 0.602356 0.001992
vt 0.602356 0.264000
vt 0.485527 0.264000
vt 0.485527 0.001992
vt 0.608161 0.296938
vt 0.601928 0.296938
vt 0.601928 0.270225
vt 0.608161 0.275985
vt 0.608161 0.409113
vt 0.601928 0.411043
vt 0.426265 0.296938
vt 0.426265 0.270225
vt 0.426265 0.411043
vt 0.601928 0.479803
vt 0.520889 0.479803
vt 0.275524 0.365495
vt 0.269291 0.365495
vt 0.269291 0.344543
vt 0.275524 0.338783
vt 0.420129 0.365495
vt 0.420129 0.338783
vt 0.420129 0.479601
vt 0.275524 0.479601
vt 0.349945 0.548361
vt 0.275524 0.548361
vt 0.087492 0.601876
vt 0.081259 0.601876
vt 0.081259 0.580924
vt 0.087492 0.575164
vt 0.263155 0.597488
vt 0.258453 0.601876
vt 0.263155 0.575164
vt 0.261845 0.606094
vt 0.087371 0.717578
vt 0.218084 0.746939
vt 0.212189 0.750164
vt 0.212746 0.754096
vt 0.168531 0.784742
vt 0.087492 0.784742
vt 0.152830 0.815143
vt 0.146597 0.815143
vt 0.146597 0.788430
vt 0.152830 0.794190
vt 0.006695 0.815143
vt 0.001992 0.810775
vt 0.001992 0.788430
vt 0.039751 0.963267
vt 0.034288 0.960161
vt 0.002945 0.819421
vt 0.146756 0.931076
vt 0.038792 0.967791
vt 0.146597 0.998008
vt 0.072176 0.998008
vn 0.000000 1.000000 0.000000
vn 0.000000 1.000000 0.000000
vn 0.000000 1.000000 0.000000
vn 0.000000 1.000000 0.000000
vn 0.000000 -1.000000 0.000000
vn 0.000000 -1.000000 0.000000
vn 0.000000 -1.000000 0.000000
vn 0.000000 -1.000000 0.000000
vn -0.000000 0.000000 1.000000
vn -0.000000 0.000000 1.000000
vn -0.000000 0.000000 1.000000
vn -0.000000 0.000000 1.000000
vn 1.000000 0.000000 0.000000
vn 1.000000 0.000000 0.000000
vn 1.000000 0.000000 0.000000
vn 1.000000 0.000000 0.000000
vn 0.000000 0.000000 -1.000000
vn 0.000000 0.000000 -1.000000
vn 0.000000 0.000000 -1.000000
vn 0.000000 0.000000 -1.000000
vn -0.978425 0.000000 -0.206602
vn -1.000000 0.000000 0.000000
vn -1.000000 0.000000 0.000000
vn -0.973172 0.000000 -0.230080
vn -0.703903 -0.710068 -0.017997
vn -0.713400 -0.700757 0.001048
vn -0.708955 -0.705254 0.000600
vn -0.714403 -0.699734 0.000000
vn -0.706383 -0.707696 -0.013806
vn 0.000000 1.000000 0.000000
vn 0.000000 1.000000 0.000000
vn 0.000000 1.000000 0.000000
vn 0.000000 1.000000 0.000000
vn 0.000000 1.000000 0.000000
vn -0.786074 0.618133 0.000000
vn -0.786074 0.618133 0.000000
vn -0.786074 0.618133 0.000000
vn -0.686155 -0.727456 0.000000
vn -0.686155 -0.727456 0.000000
vn -0.686155 -0.727456 0.000000
vn 0.000000 1.000000 -0.000000
vn -0.001252 0.999999 0.000877
vn -0.006592 0.999978 0.000469
vn 0.000000 1.000000 -0.000000
vn 0.000000 1.000000 -0.000000
vn 0.000000 1.000000 0.000000
vn 0.000000 1.000000 0.000000
vn 0.000000 1.000000 0.000000
vn -0.696374 -0.717030 -0.030511
vn -0.696374 -0.717030 -0.030511
vn -0.768988 0.000000 -0.639263
vn -0.768988 0.000000 -0.639263
vn -0.795975 0.605257 -0.009402
vn -0.794712 0.606861 -0.012310
vn -0.791054 0.611398 -0.020609
vn -0.791054 0.611398 -0.020609
vn 0.000000 -1.000000 0.000000
vn 0.000000 -1.000000 0.000000
vn 1.000000 0.000000 0.000000
vn 1.000000 0.000000 0.000000
vn 0.000000 -1.000000 -0.000000
vn 0.000000 -1.000000 -0.000000
vn 0.000000 -1.000000 -0.000001
vn 0.000000 -1.000000 0.000000
vn 0.000000 -1.000000 0.000000
vn 0.000000 1.000000 -0.000000
vn 0.000000 1.000000 0.000000
vn -0.267746 0.963490 -0.000315
vn -0.268145 0.963378 0.000604
vn -0.294034 0.955794 0.001532
vn -0.294518 0.955646 -0.000638
vn -0.768630 0.639692 -0.001527
vn -0.795600 0.605822 0.000572
vn -0.799987 0.600018 0.000000
vn -0.799987 0.600018 0.000000
vn 0.000000 1.000000 0.000000
vn -0.042680 0.999088 -0.001419
vn 0.000000 1.000000 0.000000
vn -0.219245 -0.975670 -0.000592
vn -0.218768 -0.975776 0.001406
vn -0.195672 -0.980669 0.000442
vn -0.195380 -0.980728 -0.000229
vn -0.714403 -0.699735 0.000000
vn -0.676032 -0.736870 -0.001596
vn -0.714403 -0.699735 0.000000
vn -0.030939 -0.999521 -0.001010
vn -0.004769 -0.999989 0.000337
vn 0.000000 -1.000000 0.000000
vn 0.000000 -1.000000 0.000000
vn -0.153692 -0.981595 -0.113363
vn -0.602044 -0.035689 -0.797665
vn -0.226160 -0.034126 -0.973492
vn -0.046834 -0.984830 -0.167080
vn -0.998496 -0.054821 0.000000
vn -0.081481 -0.996675 0.000000
vn -0.997501 -0.070659 0.000000
vn -0.085087 -0.996374 0.000000
vn -0.997619 -0.068974 0.000000
vn -0.085104 0.996372 0.000000
vn -0.997212 0.074618 0.000000
vn -0.999281 0.037913 0.000000
vn -0.152035 0.988375 0.000000
vn -0.081481 0.996675 0.000000
vn -0.997075 0.076428 0.000000
vn -0.153692 0.981595 -0.113362
vn -0.998235 0.059390 0.000000
vn 0.000000 -0.992734 -0.120331
vn 0.000000 -0.033346 -0.999444
vn 0.000000 -0.018887 -0.999822
vn 0.000000 -0.984842 -0.173452
vn -0.046834 0.984830 -0.167079
vn -0.231512 0.040672 -0.971982
vn -0.601907 0.041563 -0.797484
vn 0.000000 0.992734 -0.120331
vn 0.000000 0.040209 -0.999191
vn 0.000000 0.984842 -0.173452
vn 0.000000 0.022849 -0.999739
vn 0.999449 -0.033202 0.000000
vn 0.707107 -0.707107 0.000000
vn 0.707107 -0.707107 0.000000
vn 0.999802 -0.019890 0.000000
vn 0.999413 -0.034249 0.000000
vn 0.707107 -0.707107 0.000000
vn 0.999452 -0.033108 0.000000
vn 0.707107 -0.707107 0.000000
vn 0.999203 0.039925 0.000000
vn 0.707107 0.707107 0.000000
vn 0.707107 0.707107 0.000000
vn 0.999802 0.019888 0.000000
vn 0.999147 0.041290 0.000000
vn 0.707107 0.707107 0.000000
vn 0.999198 0.040037 0.000000
vn 0.707107 0.707107 0.000000
vn 0.999711 0.024056 0.000000
vn 0.707106 0.707107 0.000000
vn -0.151688 -0.988429 0.000000
vn -0.999390 -0.034929 0.000000
vn 0.999865 -0.016431 0.000000
vn 0.707107 -0.707107 0.000000
vn 0.000002 -0.713862 0.700287
vn -0.000000 -0.036521 0.999333
vn -0.000001 -0.041848 0.999124
vn -0.000023 -0.713867 0.700281
vn 0.000011 -0.712704 0.701465
vn 0.000000 -0.033309 0.999445
vn 0.000000 -0.707107 0.707107
vn 0.000000 -0.018928 0.999821
vn 0.000019 0.714440 0.699697
vn 0.000001 0.039748 0.999210
vn 0.000000 0.022909 0.999738
vn 0.000000 0.707106 0.707108
vn 0.000004 0.715954 0.698148
vn -0.000000 0.042422 0.999100
vn -0.000040 0.715965 0.698137
vn -0.000003 0.047686 0.998862
vn -0.000000 0.000000 1.000000
vn -0.000000 0.000000 1.000000
vn -0.000000 0.000000 1.000000
vn -0.000000 0.000000 1.000000
vn -0.133901 0.000000 -0.990995
vn 0.000000 0.000000 -1.000000
vn 1.000000 0.000000 0.000000
vn 1.000000 0.000000 0.000000
vn -1.000000 0.000000 0.000000
vn -1.000000 0.000000 0.000000
vn 1.000000 0.000000 0.000000
vn 1.000000 0.000000 0.000000
vn 0.000000 0.000000 -1.000000
vn -0.157927 0.000000 -0.987451
vn -1.000000 0.000000 0.000000
vn -1.000000 0.000000 0.000000
vn -0.000000 0.000000 1.000000
vn -0.000000 0.000000 1.000000
vn -0.602428 0.000000 -0.798173
vn -0.602428 0.000000 -0.798174
vn 1.000000 0.000000 0.000000
vn 1.000000 0.000000 0.000000
vn 1.000000 0.000000 0.000000
vn 1.000000 0.000000 0.000000
vn 0.000000 -1.000000 0.000000
vn 0.000000 -1.000000 0.000000
vn 0.000000 -1.000000 0.000000
vn 0.000000 0.000000 -1.000000
vn 0.000000 1.000000 0.000000
vn 0.000000 1.000000 0.000000
vn 0.000000 0.000000 1.000000
vn 0.000000 0.000000 1.000000
vn 0.000000 0.000000 1.000000
vn 0.000000 0.000000 -1.000000
vn 0.000000 1.000000 0.000000
vn -1.000000 0.000000 0.000000
vn -1.000000 0.000000 0.000000
vn 0.000000 -1.000000 0.000000
vn 0.000000 -1.000000 0.000000
vn -1.000000 0.000000 0.000000
vn 0.000000 -1.000000 0.000000
vn 1.000000 0.000000 0.000000
vn 0.000000 1.000000 0.000000
vn 0.000000 1.000000 0.000000
vn -1.000000 0.000000 0.000000
vn 1.000000 0.000000 0.000000
vn 0.000000 1.000000 0.000000
vn -0.799184 0.601086 0.000978
vn -0.799987 0.600018 0.000000
vn -0.000907 -0.999999 0.000638
vn 0.000000 -1.000000 0.000000
vn 0.000000 1.000000 0.000000
vn 0.000000 -1.000000 0.000000
vn 0.000000 -1.000000 0.000000
vn 0.000000 -1.000000 0.000000
vn 0.000000 -1.000000 0.000000
vn 0.000000 -1.000000 0.000000
vn 0.000000 -1.000000 0.000001
vn 0.000000 0.000000 1.000000
vn 0.000000 0.000000 1.000000
vn 0.000000 0.000000 1.000000
vn 0.000000 0.000000 1.000000
vn 0.000000 0.000000 1.000000
vn -0.000000 0.000000 1.000000
vn -0.000000 0.000000 1.000000
vn -0.765667 0.000004 0.643238
vn -0.765667 0.000004 0.643238
vn -0.765667 0.000004 0.643238
vn -0.765667 0.000004 0.643237
vn 0.771118 0.000018 0.636693
vn 0.771118 0.000018 0.636693
vn 0.771118 0.000018 0.636693
vn 0.771118 0.000018 0.636693
vn 0.707107 0.000000 -0.707107
vn 0.707107 0.000000 -0.707107
vn 0.707107 0.000000 -0.707107
vn 0.707107 0.000000 -0.707107
vn 0.000000 1.000000 0.000000
vn 0.000000 1.000000 0.000000
vn 0.000000 1.000000 0.000000
vn 0.000000 1.000000 0.000000
vn 0.000000 -1.000000 0.000000
vn 0.000000 -1.000000 0.000000
vn 0.000000 -1.000000 0.000000
vn 0.000000 -1.000000 0.000000
vn 0.000000 1.000000 0.000000
vn 0.000000 1.000000 0.000000
vn 0.000000 1.000000 0.000000
vn 0.000000 1.000000 0.000000
vn 0.000000 -1.000000 0.000000
vn 0.000000 -1.000000 0.000000
vn 0.000000 -1.000000 0.000000
vn 0.000000 -1.000000 0.000000
s 1
g pCube6
usemtl initialShadingGroup
f 7/70/1 8/71/2 36/72/3 25/73/4
s 2
f 30/101/5 31/102/6 2/103/7 1/104/8
s off
f 98/196/9 93/197/10 101/198/11 102/199/12
s 3
f 103/1/13 100/2/14 33/3/15 34/4/16
s off
f 110/200/17 108/201/18 3/202/19 6/203/20
s 4
f 28/11/21 94/12/22 97/13/23 27/14/24
s 5
f 27/14/25 97/13/26 96/20/27 13/21/28 26/22/29
s 6
f 3/131/30 108/132/31 107/133/32 16/134/33 15/135/34
s off
f 12/25/35 3/23/36 15/34/37
f 6/154/38 14/155/39 17/156/40
s 6
f 33/140/41 100/142/42 99/143/43 20/144/44 32/141/45
f 16/134/33 107/133/32 106/136/46 19/137/47 21/138/48
s 5
f 6/154/49 27/157/25 26/158/29 14/155/50
s 4
f 3/23/51 28/11/21 27/14/24 6/24/52
s 6
f 29/16/53 28/11/54 3/23/55 12/25/56
s 2
f 4/105/57 5/106/58 31/102/6 30/101/5
s 3
f 34/4/16 33/3/15 105/7/59 109/8/60
s 5
f 35/165/61 34/166/62 109/167/63 112/162/64 23/164/65
s 1
f 25/73/4 36/72/3 9/78/66 10/79/67
s 6
f 115/148/68 101/145/69 93/149/70 117/150/71
f 118/28/72 95/15/73 11/17/74 37/29/75
f 20/144/76 99/143/43 114/146/77 38/147/78
s 5
f 121/175/79 98/176/80 102/171/81 123/174/82
f 13/21/83 96/20/27 120/30/84 39/31/85
f 124/172/86 104/168/87 22/170/88 40/173/89
s 2
f 41/116/90 42/128/91 51/129/92 52/113/93
f 42/35/94 41/44/90 44/36/95 43/26/96
f 43/26/96 44/36/95 74/37/97 73/27/98
s 1
f 45/81/99 46/90/100 90/91/101 89/82/102
f 46/32/100 45/40/99 47/41/103 48/33/104
f 48/33/104 47/41/103 57/45/105 58/43/106
s 2
f 49/204/107 50/205/108 64/206/109 63/207/110
f 50/205/108 49/204/107 52/208/93 51/209/92
s 1
f 53/88/111 54/97/112 58/100/113 57/89/105
f 54/97/112 53/88/111 56/87/114 55/98/115
f 55/215/115 56/216/114 70/217/116 69/218/117
s 15
f 59/122/118 60/115/119 63/121/120 64/130/121
f 60/115/119 59/122/118 62/123/122 61/107/123
f 61/46/123 62/47/122 76/48/124 75/49/125
s 16
f 65/92/126 66/76/127 92/85/128 91/93/129
f 66/58/127 65/59/126 67/60/130 68/61/131
f 68/77/131 67/94/130 71/95/132 72/86/133
f 69/99/134 70/96/135 72/86/133 71/95/132
s 2
f 73/127/98 74/111/97 82/120/136 81/126/137
s 15
f 75/108/125 76/124/124 84/125/138 83/117/139
s 17
f 77/110/140 78/118/141 81/126/142 82/120/143
f 78/118/141 77/110/140 80/109/144 79/119/145
f 79/225/145 80/226/144 83/227/146 84/228/147
s 18
f 85/239/148 86/240/149 91/241/150 92/242/151
f 86/83/149 85/75/148 88/74/152 87/84/153
f 87/84/153 88/74/152 89/82/154 90/91/155
s 17
f 78/233/141 79/225/145 113/230/156 115/232/157 117/234/158 116/235/159
s 2
f 15/212/160 16/210/161 50/205/108 51/209/92
s 15
f 76/48/124 62/47/122 32/50/162 20/51/163
s 2
f 43/26/96 73/27/98 11/17/164 29/16/165
s 16
f 22/62/166 35/63/167 67/60/130 65/59/126
s 1
f 18/219/168 17/221/169 54/222/112 55/215/115
f 26/22/170 13/21/171 46/32/100 48/33/104
s 2
f 30/101/5 1/104/8 74/111/97 44/112/95
s 17
f 78/233/141 116/235/159 118/236/172 37/237/173 81/238/142
s 2
f 15/212/160 51/209/92 42/213/91 12/214/174
s 1
f 7/70/1 25/73/4 47/80/103 45/81/99
f 54/222/112 17/221/169 14/223/175 58/224/113
s 15
f 19/53/176 59/52/118 64/56/121 21/57/177
s 2
f 5/106/58 4/105/57 52/113/93 49/114/107
f 4/105/57 41/116/90 52/113/93
s 1
f 10/79/67 9/78/66 56/87/114 53/88/111
s 16
f 71/65/132 23/64/178 24/68/179 69/69/134
s 1
f 57/89/105 10/79/67 53/88/111
s 2
f 2/103/7 31/102/6 61/107/180 75/108/181
f 5/106/58 49/114/107 63/121/110 60/115/182
f 50/205/108 16/210/161 21/211/183 64/206/109
s 1
f 36/72/3 8/71/2 66/76/184 68/77/185
s 18
f 86/240/149 122/243/186 124/244/187 40/245/188 91/241/150
s 1
f 18/219/168 55/215/115 69/218/117 24/220/189
f 56/87/114 9/78/66 72/86/190 70/96/116
f 25/73/4 10/79/67 57/89/105 47/80/103
f 14/42/191 26/22/170 48/33/104 58/43/106
s 2
f 42/35/94 43/26/96 29/16/165 12/25/192
f 4/105/57 30/101/5 44/112/95 41/116/90
f 61/107/180 31/102/6 5/106/58 60/115/182
s 15
f 32/50/162 62/47/122 59/52/118 19/53/176
s 16
f 67/60/130 35/63/167 23/64/178 71/65/132
s 1
f 9/78/66 36/72/3 68/77/185 72/86/190
s 2
f 1/104/8 2/103/7 80/109/193 77/110/194
f 11/17/164 73/27/98 81/38/137 37/29/195
f 74/111/97 1/104/8 77/110/194 82/120/136
f 2/103/7 75/108/181 83/117/196 80/109/193
s 15
f 76/48/124 20/51/163 38/54/197 84/55/138
s 1
f 8/71/2 7/70/1 88/74/198 85/75/199
f 7/70/1 45/81/99 89/82/102 88/74/198
f 46/32/100 13/21/171 39/31/200 90/39/101
s 16
f 22/62/166 65/59/126 91/66/129 40/67/201
s 1
f 66/76/184 8/71/2 85/75/199 92/85/202
s 6
f 95/15/73 94/12/203 28/11/54 29/16/53 11/17/204
s 5
f 104/168/87 103/169/205 34/166/62 35/165/61 22/170/206
s 6
f 106/136/46 105/139/207 33/140/41 32/141/45 19/137/47
s 5
f 111/159/208 110/160/209 6/154/210 17/156/211 18/161/212
f 112/162/64 111/159/208 18/161/212 24/163/213 23/164/65
s 17
f 114/229/214 113/230/156 79/225/145 84/228/147 38/231/215
s 18
f 119/246/216 121/247/217 123/248/218 122/243/186 86/240/149 87/249/153
f 120/250/219 119/246/216 87/249/153 90/251/155 39/252/220
s 6
f 93/149/70 95/151/73 118/152/72 117/150/71
s off
f 94/12/221 93/18/222 98/19/223 97/13/224
s 5
f 96/177/27 98/176/80 121/175/79 120/178/84
s 6
f 99/143/43 101/145/69 115/148/68 114/146/77
s off
f 101/5/225 100/2/226 103/1/227 102/6/228
s 5
f 102/171/81 104/168/87 124/172/86 123/174/82
s off
f 105/7/229 108/9/230 110/10/231 109/8/232
s 6
f 93/149/70 94/153/203 95/151/73
s 5
f 96/177/27 97/179/26 98/176/80
s 6
f 99/143/43 100/142/42 101/145/69
s 5
f 102/171/81 103/169/205 104/168/87
s off
f 105/180/233 106/181/234 107/182/235 108/183/236
f 109/184/237 110/185/238 111/186/239 112/187/240
s 17
f 113/230/156 114/229/214 115/232/157
f 116/235/159 117/234/158 118/236/172
s 18
f 119/246/216 120/250/219 121/247/217
f 122/243/186 123/248/218 124/244/187
s off
f 105/188/241 106/189/242 107/190/243 108/191/244
f 110/192/245 111/193/246 112/194/247 109/195/248
