# This file uses centimeters as units for non-parametric coordinates.

mtllib ChimneyA.mtl
g default
v 0.682700 1.429404 0.000000
v 0.615091 1.429404 -0.296212
v 0.425656 1.429404 -0.533756
v 0.151915 1.429404 -0.665583
v -0.151915 1.429404 -0.665583
v -0.425656 1.429404 -0.533756
v -0.615091 1.429404 -0.296212
v -0.682700 1.429404 0.000000
v -0.615091 1.429404 0.296212
v -0.425656 1.429404 0.533756
v -0.151915 1.429404 0.665583
v 0.151915 1.429404 0.665583
v 0.425656 1.429404 0.533756
v 0.615091 1.429404 0.296212
v 1.000000 1.410842 0.000000
v 0.900969 1.410842 -0.433884
v 0.623490 1.410842 -0.781832
v 0.222521 1.410842 -0.974928
v -0.222521 1.410842 -0.974928
v -0.623490 1.410842 -0.781831
v -0.900969 1.410842 -0.433884
v -1.000000 1.410842 0.000000
v -0.900969 1.410842 0.433884
v -0.623490 1.410842 0.781832
v -0.222521 1.410842 0.974928
v 0.222521 1.410842 0.974928
v 0.623490 1.410842 0.781831
v 0.900969 1.410842 0.433883
v 1.000000 -0.500000 -0.000000
v 0.900969 -0.500000 -0.433884
v 0.623490 -0.500000 -0.781832
v 0.222521 -0.500000 -0.974928
v -0.222521 -0.500000 -0.974928
v -0.623490 -0.500000 -0.781831
v -0.900969 -0.500000 -0.433884
v -1.000000 -0.500000 0.000000
v -0.900969 -0.500000 0.433884
v -0.623490 -0.500000 0.781832
v -0.222521 -0.500000 0.974928
v 0.222521 -0.500000 0.974928
v 0.623490 -0.500000 0.781831
v 0.900969 -0.500000 0.433883
v 1.403843 -0.500000 0.000000
v 1.264819 -0.500000 -0.609105
v 0.875282 -0.500000 -1.097569
v 0.312384 -0.500000 -1.368646
v -0.312385 -0.500000 -1.368646
v -0.875282 -0.500000 -1.097569
v -1.264819 -0.500000 -0.609105
v -1.403843 -0.500000 0.000000
v -1.264819 -0.500000 0.609105
v -0.875282 -0.500000 1.097569
v -0.312384 -0.500000 1.368646
v 0.312385 -0.500000 1.368646
v 0.875282 -0.500000 1.097569
v 1.264819 -0.500000 0.609104
v 0.682700 -1.883934 -0.000000
v 0.795237 -1.954176 0.000000
v 0.615091 -1.883934 -0.296212
v 0.716484 -1.954176 -0.345040
v 0.425656 -1.883934 -0.533756
v 0.495822 -1.954176 -0.621741
v 0.151915 -1.883934 -0.665583
v 0.176957 -1.954176 -0.775299
v -0.151915 -1.883934 -0.665583
v -0.176957 -1.954176 -0.775298
v -0.425656 -1.883934 -0.533756
v -0.495822 -1.954176 -0.621741
v -0.615091 -1.883934 -0.296212
v -0.716484 -1.954176 -0.345040
v -0.682700 -1.883934 0.000000
v -0.795237 -1.954176 0.000000
v -0.615091 -1.883934 0.296212
v -0.716484 -1.954176 0.345040
v -0.425656 -1.883934 0.533756
v -0.495822 -1.954176 0.621741
v -0.151915 -1.883934 0.665583
v -0.176957 -1.954176 0.775298
v 0.151915 -1.883934 0.665583
v 0.176957 -1.954176 0.775299
v 0.425656 -1.883934 0.533756
v 0.495822 -1.954176 0.621741
v 0.615091 -1.883934 0.296212
v 0.716484 -1.954176 0.345040
v 1.329219 -1.752042 -0.000000
v 1.403843 -1.674133 0.000000
v 1.264819 -1.674133 -0.609105
v 1.197585 -1.752042 -0.576727
v 0.875282 -1.674133 -1.097569
v 0.828755 -1.752042 -1.039226
v 0.312384 -1.674133 -1.368646
v 0.295779 -1.752042 -1.295893
v -0.312385 -1.674133 -1.368646
v -0.295779 -1.752042 -1.295893
v -0.875282 -1.674133 -1.097569
v -0.828755 -1.752042 -1.039225
v -1.264819 -1.674133 -0.609104
v -1.197585 -1.752042 -0.576726
v -1.403843 -1.674133 0.000000
v -1.329219 -1.752042 0.000000
v -1.264819 -1.674133 0.609105
v -1.197585 -1.752042 0.576727
v -0.875282 -1.674133 1.097569
v -0.828755 -1.752042 1.039226
v -0.312384 -1.674133 1.368646
v -0.295779 -1.752042 1.295893
v 0.312385 -1.674133 1.368646
v 0.295779 -1.752042 1.295893
v 0.875282 -1.674133 1.097569
v 0.828755 -1.752042 1.039225
v 1.264819 -1.674133 0.609104
v 1.197585 -1.752042 0.576726
vt 0.148557 0.795979
vt 0.096249 0.795979
vt 0.096249 0.587872
vt 0.148557 0.587872
vt 0.043940 0.795979
vt 0.043940 0.587872
vt 0.190505 0.795979
vt 0.190505 0.587872
vt 0.001992 0.795979
vt 0.001992 0.587872
vt 0.396896 0.817231
vt 0.354947 0.817231
vt 0.354947 0.609124
vt 0.396896 0.609124
vt 0.449204 0.817231
vt 0.449204 0.609124
vt 0.501513 0.817231
vt 0.501513 0.609124
vt 0.543461 0.817231
vt 0.543461 0.609124
vt 0.520430 0.430914
vt 0.529822 0.430914
vt 0.529822 0.497250
vt 0.520430 0.493724
vt 0.520430 0.368103
vt 0.529822 0.364577
vt 0.671374 0.430914
vt 0.671374 0.497251
vt 0.671374 0.364577
vt 0.671374 0.550448
vt 0.529822 0.550448
vt 0.671374 0.311379
vt 0.529822 0.311379
vt 0.372742 0.552320
vt 0.363349 0.548794
vt 0.363349 0.485984
vt 0.372742 0.485984
vt 0.363349 0.423173
vt 0.372742 0.419647
vt 0.514294 0.485984
vt 0.514294 0.552320
vt 0.514294 0.419647
vt 0.514294 0.605518
vt 0.372742 0.605518
vt 0.514294 0.366449
vt 0.372742 0.366449
vt 0.030630 0.362843
vt 0.030630 0.001992
vt 0.066341 0.001992
vt 0.066341 0.362843
vt 0.001992 0.362843
vt 0.001992 0.001992
vt 0.102052 0.001992
vt 0.102052 0.362843
vt 0.130690 0.001992
vt 0.130690 0.362843
vt 0.347815 0.362843
vt 0.347815 0.001992
vt 0.376453 0.001992
vt 0.376453 0.362843
vt 0.312104 0.362843
vt 0.312104 0.001992
vt 0.276393 0.362843
vt 0.276393 0.001992
vt 0.247755 0.362843
vt 0.247755 0.001992
vt 0.275389 0.408369
vt 0.239678 0.401006
vt 0.239678 0.366449
vt 0.291986 0.377234
vt 0.203967 0.408369
vt 0.187369 0.377234
vt 0.304027 0.429000
vt 0.333935 0.407454
vt 0.175329 0.429000
vt 0.145421 0.407454
vt 0.319920 0.458813
vt 0.357214 0.451123
vt 0.159436 0.458813
vt 0.122142 0.451123
vt 0.319920 0.491902
vt 0.357214 0.499592
vt 0.159436 0.491902
vt 0.122142 0.499592
vt 0.304027 0.521715
vt 0.333935 0.543261
vt 0.175329 0.521715
vt 0.145421 0.543261
vt 0.275389 0.542346
vt 0.291986 0.573481
vt 0.203967 0.542346
vt 0.187369 0.573481
vt 0.239678 0.549709
vt 0.239678 0.584266
vt 0.710634 0.056759
vt 0.658325 0.045974
vt 0.658325 0.001992
vt 0.731758 0.017133
vt 0.606017 0.056759
vt 0.584892 0.017133
vt 0.752582 0.086979
vt 0.790647 0.059557
vt 0.564069 0.086979
vt 0.526004 0.059557
vt 0.775862 0.130648
vt 0.823328 0.120861
vt 0.540789 0.130648
vt 0.493323 0.120861
vt 0.775862 0.179117
vt 0.823328 0.188904
vt 0.540789 0.179117
vt 0.493323 0.188904
vt 0.752582 0.222786
vt 0.790647 0.250208
vt 0.564069 0.222786
vt 0.526004 0.250208
vt 0.710634 0.253006
vt 0.731758 0.292632
vt 0.606017 0.253006
vt 0.584892 0.292632
vt 0.658325 0.263791
vt 0.658325 0.307773
vt 0.920064 0.460436
vt 0.933632 0.460436
vt 0.924137 0.498014
vt 0.911914 0.492696
vt 0.911914 0.428176
vt 0.924137 0.422859
vt 0.998008 0.460436
vt 0.982138 0.523247
vt 0.897535 0.528149
vt 0.889075 0.518567
vt 0.889075 0.402306
vt 0.897535 0.392723
vt 0.982138 0.397626
vt 0.937673 0.573617
vt 0.859093 0.544873
vt 0.856074 0.532924
vt 0.856073 0.387949
vt 0.859093 0.376000
vt 0.937673 0.347256
vt 0.943282 0.579971
vt 0.990244 0.526773
vt 0.873418 0.601570
vt 0.816425 0.544873
vt 0.819444 0.532924
vt 0.819444 0.387949
vt 0.816425 0.376000
vt 0.873418 0.319302
vt 0.990244 0.394100
vt 0.943282 0.340902
vt 0.875420 0.609494
vt 0.802100 0.601570
vt 0.777983 0.528149
vt 0.786442 0.518567
vt 0.786442 0.402306
vt 0.777983 0.392723
vt 0.802100 0.319302
vt 0.875420 0.311379
vt 0.737845 0.573617
vt 0.751380 0.498014
vt 0.763604 0.492696
vt 0.763604 0.428176
vt 0.751380 0.422859
vt 0.737845 0.347256
vt 0.732236 0.579971
vt 0.800098 0.609494
vt 0.693379 0.523247
vt 0.741886 0.460436
vt 0.755453 0.460436
vt 0.693379 0.397626
vt 0.800098 0.311379
vt 0.732236 0.340902
vt 0.685274 0.526773
vt 0.677510 0.460436
vt 0.685274 0.394100
vt 0.299076 0.587872
vt 0.347417 0.587872
vt 0.347417 0.795979
vt 0.299076 0.795979
vt 0.245423 0.587872
vt 0.245423 0.795979
vt 0.197082 0.587872
vt 0.197082 0.795979
vt 0.598183 0.821207
vt 0.549843 0.821207
vt 0.549843 0.613100
vt 0.598183 0.613100
vt 0.651837 0.821207
vt 0.651837 0.613100
vt 0.700177 0.821207
vt 0.700177 0.613100
vt 0.849260 0.674404
vt 0.858652 0.676212
vt 0.858652 0.740638
vt 0.849260 0.742447
vt 0.707708 0.742447
vt 0.707708 0.674404
vt 0.707708 0.613099
vt 0.849260 0.613099
vt 0.707708 0.803751
vt 0.849260 0.803751
vt 0.856456 0.936704
vt 0.847063 0.934895
vt 0.847063 0.870469
vt 0.856456 0.868661
vt 0.998008 0.868661
vt 0.998008 0.936704
vt 0.998008 0.998008
vt 0.856456 0.998008
vt 0.998008 0.807357
vt 0.856456 0.807357
vt 0.208245 0.362843
vt 0.208245 0.001992
vt 0.241247 0.001992
vt 0.241247 0.362843
vt 0.171616 0.362843
vt 0.171616 0.001992
vt 0.138614 0.362843
vt 0.138614 0.001992
vt 0.417184 0.001992
vt 0.417184 0.362843
vt 0.384182 0.362843
vt 0.384182 0.001992
vt 0.453813 0.001992
vt 0.453813 0.362843
vt 0.486815 0.001992
vt 0.486815 0.362843
vn 0.052615 0.998293 -0.025338
vn 0.058399 0.998293 0.000000
vn 0.058399 0.998293 0.000000
vn 0.052615 0.998293 -0.025338
vn 0.036411 0.998293 -0.045658
vn 0.036411 0.998293 -0.045658
vn 0.012995 0.998293 -0.056934
vn 0.012995 0.998293 -0.056934
vn -0.012995 0.998293 -0.056934
vn -0.012995 0.998293 -0.056934
vn -0.036411 0.998293 -0.045658
vn -0.036411 0.998293 -0.045658
vn -0.052615 0.998293 -0.025338
vn -0.052615 0.998293 -0.025338
vn -0.058399 0.998293 -0.000000
vn -0.058399 0.998293 -0.000000
vn -0.052615 0.998293 0.025338
vn -0.052615 0.998293 0.025338
vn -0.036411 0.998293 0.045658
vn -0.036411 0.998293 0.045658
vn -0.012995 0.998293 0.056935
vn -0.012995 0.998293 0.056935
vn 0.012995 0.998293 0.056935
vn 0.012995 0.998293 0.056935
vn 0.036411 0.998293 0.045658
vn 0.036411 0.998293 0.045658
vn 0.052615 0.998293 0.025338
vn 0.052615 0.998293 0.025338
vn 0.900969 0.000000 -0.433884
vn 1.000000 -0.000000 -0.000000
vn 1.000000 -0.000000 -0.000000
vn 0.900969 0.000000 -0.433884
vn 0.623490 0.000000 -0.781832
vn 0.623490 0.000000 -0.781832
vn 0.222521 0.000000 -0.974928
vn 0.222521 0.000000 -0.974928
vn -0.222521 0.000000 -0.974928
vn -0.222521 0.000000 -0.974928
vn -0.623490 0.000000 -0.781831
vn -0.623490 0.000000 -0.781831
vn -0.900969 0.000000 -0.433884
vn -0.900969 0.000000 -0.433884
vn -1.000000 0.000000 0.000000
vn -1.000000 0.000000 0.000000
vn -0.900969 0.000000 0.433884
vn -0.900969 0.000000 0.433884
vn -0.623490 0.000000 0.781832
vn -0.623490 0.000000 0.781832
vn -0.222521 0.000000 0.974928
vn -0.222521 0.000000 0.974928
vn 0.222521 0.000000 0.974928
vn 0.222521 0.000000 0.974928
vn 0.623490 0.000000 0.781831
vn 0.623490 0.000000 0.781831
vn 0.900969 -0.000000 0.433884
vn 0.900969 -0.000000 0.433884
vn 0.000000 1.000000 0.000000
vn 0.000000 1.000000 0.000000
vn 0.000000 1.000000 0.000000
vn 0.000000 1.000000 0.000000
vn 0.000000 1.000000 0.000000
vn 0.000000 1.000000 0.000000
vn 0.000000 1.000000 0.000000
vn 0.000000 1.000000 0.000000
vn 0.000000 1.000000 0.000000
vn 0.000000 1.000000 0.000000
vn 0.000000 1.000000 0.000000
vn 0.000000 1.000000 0.000000
vn 0.000000 1.000000 0.000000
vn 0.000000 1.000000 0.000000
vn 0.000000 1.000000 0.000000
vn 0.000000 1.000000 0.000000
vn 0.000000 1.000000 0.000000
vn 0.000000 1.000000 0.000000
vn 0.000000 1.000000 0.000000
vn 0.000000 1.000000 0.000000
vn 0.000000 1.000000 -0.000000
vn 0.000000 1.000000 -0.000000
vn 0.000000 1.000000 -0.000000
vn 0.000000 1.000000 -0.000000
vn 0.000000 1.000000 0.000000
vn 0.000000 1.000000 0.000000
vn 0.000000 1.000000 0.000000
vn 0.000000 1.000000 0.000000
vn -0.999194 -0.040143 0.000000
vn 0.266198 -0.963919 0.000000
vn 0.239836 -0.963919 0.115499
vn -0.900243 -0.040143 -0.433534
vn -0.900243 -0.040143 0.433534
vn 0.239836 -0.963919 -0.115499
vn -0.622987 -0.040143 0.781201
vn 0.165971 -0.963919 -0.208122
vn -0.222342 -0.040143 0.974142
vn 0.059234 -0.963919 -0.259523
vn 0.222342 -0.040143 0.974142
vn -0.059235 -0.963919 -0.259523
vn 0.622987 -0.040143 0.781201
vn -0.165971 -0.963918 -0.208122
vn 0.900243 -0.040143 0.433534
vn -0.239836 -0.963919 -0.115499
vn 0.999194 -0.040143 -0.000000
vn -0.266198 -0.963919 -0.000000
vn 0.900242 -0.040143 -0.433534
vn -0.239836 -0.963919 0.115499
vn 0.622987 -0.040143 -0.781201
vn -0.165971 -0.963919 0.208121
vn 0.222342 -0.040143 -0.974142
vn -0.059234 -0.963919 0.259523
vn -0.222342 -0.040143 -0.974142
vn 0.059235 -0.963919 0.259523
vn -0.622988 -0.040143 -0.781201
vn 0.165971 -0.963919 0.208122
vn 0.448677 -0.893694 0.000000
vn 0.998614 -0.052638 0.000000
vn 0.899720 -0.052638 0.433282
vn 0.404244 -0.893694 0.194674
vn 0.404244 -0.893694 -0.194674
vn 0.899720 -0.052638 -0.433282
vn 0.279746 -0.893694 -0.350790
vn 0.622625 -0.052638 -0.780748
vn 0.099840 -0.893694 -0.437428
vn 0.222212 -0.052638 -0.973576
vn -0.099840 -0.893694 -0.437428
vn -0.222213 -0.052638 -0.973576
vn -0.279746 -0.893694 -0.350790
vn -0.622626 -0.052638 -0.780748
vn -0.404244 -0.893694 -0.194674
vn -0.899720 -0.052638 -0.433282
vn -0.448677 -0.893694 0.000000
vn -0.998614 -0.052638 0.000000
vn -0.404244 -0.893694 0.194674
vn -0.899720 -0.052638 0.433282
vn -0.279746 -0.893694 0.350790
vn -0.622625 -0.052638 0.780748
vn -0.099840 -0.893694 0.437428
vn -0.222212 -0.052638 0.973576
vn 0.099840 -0.893694 0.437428
vn 0.222213 -0.052638 0.973576
vn 0.279746 -0.893694 0.350790
vn 0.622626 -0.052638 0.780747
vn 0.900969 0.000000 -0.433884
vn 1.000000 -0.000000 -0.000000
vn -0.900969 0.000000 0.433884
vn -1.000000 0.000000 0.000000
vn 0.623490 0.000000 -0.781832
vn -0.623490 0.000000 0.781832
vn 0.222521 0.000000 -0.974928
vn -0.222521 0.000000 0.974928
vn -0.222521 0.000000 -0.974928
vn 0.222521 0.000000 0.974928
vn -0.623490 0.000000 -0.781831
vn 0.623490 0.000000 0.781831
vn -0.900969 0.000000 -0.433884
vn 0.900969 -0.000000 0.433884
vn -1.000000 -0.000000 0.000000
vn 1.000000 -0.000000 -0.000000
vn -0.900969 -0.000000 0.433884
vn 0.900969 0.000000 -0.433884
vn -0.623490 0.000000 0.781832
vn 0.623490 0.000000 -0.781832
vn -0.222521 0.000000 0.974928
vn 0.222521 -0.000000 -0.974928
vn 0.222521 0.000000 0.974928
vn -0.222521 -0.000000 -0.974928
vn 0.623490 0.000000 0.781831
vn -0.623490 -0.000000 -0.781831
vn 0.900969 -0.000000 0.433884
vn -0.900969 0.000000 -0.433884
s 1
g pPipe3
usemtl initialShadingGroup
f 2/67/1 1/68/2 15/69/3 16/70/4
f 3/73/5 2/67/1 16/70/4 17/74/6
f 4/77/7 3/73/5 17/74/6 18/78/8
f 5/81/9 4/77/7 18/78/8 19/82/10
f 6/85/11 5/81/9 19/82/10 20/86/12
f 7/89/13 6/85/11 20/86/12 21/90/14
f 8/93/15 7/89/13 21/90/14 22/94/16
f 9/91/17 8/93/15 22/94/16 23/92/18
f 10/87/19 9/91/17 23/92/18 24/88/20
f 11/83/21 10/87/19 24/88/20 25/84/22
f 12/79/23 11/83/21 25/84/22 26/80/24
f 13/75/25 12/79/23 26/80/24 27/76/26
f 14/71/27 13/75/25 27/76/26 28/72/28
f 1/68/2 14/71/27 28/72/28 15/69/3
s 2
f 16/1/29 15/2/30 29/3/31 30/4/32
f 17/7/33 16/1/29 30/4/32 31/8/34
f 18/177/35 17/178/33 31/179/34 32/180/36
f 19/181/37 18/177/35 32/180/36 33/182/38
f 20/183/39 19/181/37 33/182/38 34/184/40
f 21/11/41 20/12/39 34/13/40 35/14/42
f 22/15/43 21/11/41 35/14/42 36/16/44
f 23/17/45 22/15/43 36/16/44 37/18/46
f 24/19/47 23/17/45 37/18/46 38/20/48
f 25/185/49 24/186/47 38/187/48 39/188/50
f 26/189/51 25/185/49 39/188/50 40/190/52
f 27/191/53 26/189/51 40/190/52 41/192/54
f 28/5/55 27/9/53 41/10/54 42/6/56
f 15/2/30 28/5/55 42/6/56 29/3/31
s 3
f 30/95/57 29/96/58 43/97/59 44/98/60
f 31/101/61 30/95/57 44/98/60 45/102/62
f 32/105/63 31/101/61 45/102/62 46/106/64
f 33/109/65 32/105/63 46/106/64 47/110/66
f 34/113/67 33/109/65 47/110/66 48/114/68
f 35/117/69 34/113/67 48/114/68 49/118/70
f 36/121/71 35/117/69 49/118/70 50/122/72
f 37/119/73 36/121/71 50/122/72 51/120/74
f 38/115/75 37/119/73 51/120/74 52/116/76
f 39/111/77 38/115/75 52/116/76 53/112/78
f 40/107/79 39/111/77 53/112/78 54/108/80
f 41/103/81 40/107/79 54/108/80 55/104/82
f 42/99/83 41/103/81 55/104/82 56/100/84
f 29/96/58 42/99/83 56/100/84 43/97/59
s 4
f 57/123/85 58/124/86 84/125/87 83/126/88
f 58/124/86 57/123/85 59/127/89 60/128/90
f 60/128/90 59/127/89 61/133/91 62/134/92
f 62/134/92 61/133/91 63/139/93 64/140/94
f 64/140/94 63/139/93 65/147/95 66/148/96
f 66/148/96 65/147/95 67/156/97 68/157/98
f 68/157/98 67/156/97 69/163/99 70/164/100
f 70/164/100 69/163/99 71/170/101 72/169/102
f 72/169/102 71/170/101 73/162/103 74/161/104
f 74/161/104 73/162/103 75/155/105 76/154/106
f 76/154/106 75/155/105 77/146/107 78/145/108
f 78/145/108 77/146/107 79/138/109 80/137/110
f 80/137/110 79/138/109 81/132/111 82/131/112
f 82/131/112 81/132/111 83/126/88 84/125/87
f 85/21/113 86/22/114 111/23/115 112/24/116
f 86/22/114 85/21/113 88/25/117 87/26/118
f 87/150/118 88/135/117 90/141/119 89/151/120
f 89/151/120 90/141/119 92/149/121 91/159/122
f 91/193/122 92/194/121 94/195/123 93/196/124
f 93/172/124 94/158/123 96/165/125 95/173/126
f 95/173/126 96/165/125 98/171/127 97/176/128
f 97/34/128 98/35/127 100/36/129 99/37/130
f 99/37/130 100/36/129 102/38/131 101/39/132
f 101/174/132 102/168/131 104/160/133 103/166/134
f 103/166/134 104/160/133 106/153/135 105/167/136
f 105/203/136 106/204/135 108/205/137 107/206/138
f 107/152/138 108/144/137 110/136/139 109/142/140
f 109/142/140 110/136/139 112/130/116 111/143/115
f 44/29/141 43/27/142 86/22/114 87/26/118
f 2/47/143 59/48/89 57/49/85 1/50/144
f 45/32/145 44/29/141 87/26/118 89/33/120
f 3/51/146 61/52/91 59/48/89 2/47/143
f 46/198/147 45/199/145 89/200/120 91/193/122
f 4/213/148 63/214/93 61/215/91 3/216/146
f 47/197/149 46/198/147 91/193/122 93/196/124
f 5/217/150 65/218/95 63/214/93 4/213/148
f 48/201/151 47/197/149 93/196/124 95/202/126
f 6/219/152 67/220/97 65/218/95 5/217/150
f 49/41/153 48/43/151 95/44/126 97/34/128
f 7/57/154 69/58/99 67/59/97 6/60/152
f 50/40/155 49/41/153 97/34/128 99/37/130
f 8/61/156 71/62/101 69/58/99 7/57/154
f 51/42/157 50/40/155 99/37/130 101/39/132
f 9/63/158 73/64/103 71/62/101 8/61/156
f 52/45/159 51/42/157 101/39/132 103/46/134
f 10/65/160 75/66/105 73/64/103 9/63/158
f 53/208/161 52/209/159 103/210/134 105/203/136
f 11/221/162 77/222/107 75/223/105 10/224/160
f 54/207/163 53/208/161 105/203/136 107/206/138
f 12/225/164 79/226/109 77/222/107 11/221/162
f 55/211/165 54/207/163 107/206/138 109/212/140
f 13/227/166 81/228/111 79/226/109 12/225/164
f 56/28/167 55/30/165 109/31/140 111/23/115
f 14/54/168 83/53/88 81/55/111 13/56/166
f 43/27/142 56/28/167 111/23/115 86/22/114
f 1/50/144 57/49/85 83/53/88 14/54/168
f 60/128/90 88/135/117 85/129/113 58/124/86
f 62/134/92 90/141/119 88/135/117 60/128/90
f 64/140/94 92/149/121 90/141/119 62/134/92
f 66/148/96 94/158/123 92/149/121 64/140/94
f 68/157/98 96/165/125 94/158/123 66/148/96
f 70/164/100 98/171/127 96/165/125 68/157/98
f 72/169/102 100/175/129 98/171/127 70/164/100
f 74/161/104 102/168/131 100/175/129 72/169/102
f 76/154/106 104/160/133 102/168/131 74/161/104
f 78/145/108 106/153/135 104/160/133 76/154/106
f 80/137/110 108/144/137 106/153/135 78/145/108
f 82/131/112 110/136/139 108/144/137 80/137/110
f 84/125/87 112/130/116 110/136/139 82/131/112
f 58/124/86 85/129/113 112/130/116 84/125/87
