# This file uses centimeters as units for non-parametric coordinates.

mtllib CircleCapA.mtl
g default
v 0.902323 -0.106831 -0.373754
v 0.690608 -0.106831 -0.690607
v 0.373755 -0.106831 -0.902322
v 0.000000 -0.106831 -0.976667
v -0.373754 -0.106831 -0.902323
v -0.690607 -0.106831 -0.690608
v -0.902322 -0.106831 -0.373755
v -0.976667 -0.106831 -0.000000
v -0.902323 -0.106831 0.373754
v -0.690608 -0.106831 0.690608
v -0.373754 -0.106831 0.902322
v -0.000000 -0.106831 0.976667
v 0.373754 -0.106831 0.902323
v 0.690608 -0.106831 0.690608
v 0.902322 -0.106831 0.373754
v 0.976667 -0.106831 0.000000
v 0.923880 0.026439 -0.382683
v 0.707107 0.026439 -0.707106
v 0.382684 0.026439 -0.923879
v 0.000001 0.026439 -1.000000
v -0.382683 0.026439 -0.923880
v -0.707106 0.026439 -0.707107
v -0.923879 0.026439 -0.382684
v -1.000000 0.026439 -0.000000
v -0.923880 0.026439 0.382683
v -0.707107 0.026439 0.707107
v -0.382684 0.026439 0.923879
v -0.000000 0.026439 1.000000
v 0.382683 0.026439 0.923880
v 0.707107 0.026439 0.707107
v 0.923880 0.026439 0.382683
v 1.000000 0.026439 0.000000
v 0.806192 -0.206167 -0.333935
v 0.617033 -0.206167 -0.617032
v 0.333936 -0.206167 -0.806192
v 0.000000 -0.206167 -0.872616
v -0.333935 -0.206167 -0.806192
v -0.617032 -0.206167 -0.617033
v -0.806192 -0.206167 -0.333936
v -0.872616 -0.206167 -0.000000
v -0.806192 -0.206167 0.333935
v -0.617033 -0.206167 0.617032
v -0.333936 -0.206167 0.806192
v -0.000000 -0.206167 0.872616
v 0.333935 -0.206167 0.806192
v 0.617032 -0.206167 0.617033
v 0.806192 -0.206167 0.333936
v 0.872616 -0.206167 0.000000
v 0.660470 -0.071772 -0.273575
v 0.505502 -0.071772 -0.505502
v 0.273576 -0.071772 -0.660470
v 0.000000 -0.071772 -0.714888
v -0.273575 -0.071772 -0.660470
v -0.505502 -0.071772 -0.505502
v -0.660470 -0.071772 -0.273576
v -0.714888 -0.071772 -0.000000
v -0.660470 -0.071772 0.273575
v -0.505502 -0.071772 0.505502
v -0.273576 -0.071772 0.660470
v -0.000000 -0.071772 0.714888
v 0.273576 -0.071772 0.660470
v 0.505502 -0.071772 0.505502
v 0.660470 -0.071772 0.273576
v 0.714888 -0.071772 0.000000
v 0.448579 -0.100573 -0.185807
v 0.343328 -0.100573 -0.343327
v 0.185808 -0.100573 -0.448579
v 0.000000 -0.100573 -0.485538
v -0.185807 -0.100573 -0.448579
v -0.343327 -0.100573 -0.343327
v -0.448579 -0.100573 -0.185808
v -0.485538 -0.100573 -0.000000
v -0.448579 -0.100573 0.185807
v -0.343327 -0.100573 0.343327
v -0.185807 -0.100573 0.448579
v -0.000000 -0.100573 0.485538
v 0.185807 -0.100573 0.448579
v 0.343327 -0.100573 0.343327
v 0.448579 -0.100573 0.185807
v 0.485538 -0.100573 0.000000
v 0.422120 -0.194542 -0.174847
v 0.323077 -0.194542 -0.323076
v 0.174848 -0.194542 -0.422120
v 0.000000 -0.194542 -0.456899
v -0.174847 -0.194542 -0.422120
v -0.323076 -0.194542 -0.323077
v -0.422120 -0.194542 -0.174848
v -0.456899 -0.194542 -0.000000
v -0.422120 -0.194542 0.174848
v -0.323077 -0.194542 0.323076
v -0.174848 -0.194542 0.422120
v -0.000000 -0.194542 0.456899
v 0.174848 -0.194542 0.422120
v 0.323077 -0.194542 0.323077
v 0.422120 -0.194542 0.174848
v 0.456899 -0.194542 0.000000
v 0.364993 -0.239341 -0.151185
v 0.279354 -0.239341 -0.279354
v 0.151185 -0.239341 -0.364993
v 0.000000 -0.239341 -0.395066
v -0.151185 -0.239341 -0.364993
v -0.279354 -0.239341 -0.279354
v -0.364993 -0.239341 -0.151185
v -0.395066 -0.239341 -0.000000
v -0.364993 -0.239341 0.151185
v -0.279354 -0.239341 0.279354
v -0.151185 -0.239341 0.364993
v -0.000000 -0.239341 0.395066
v 0.151185 -0.239341 0.364993
v 0.279354 -0.239341 0.279354
v 0.364993 -0.239341 0.151185
v 0.395066 -0.239341 0.000000
v 0.272720 -0.133262 -0.112964
v 0.208731 -0.133262 -0.208731
v -0.000000 -0.184331 0.000000
v 0.112965 -0.133262 -0.272720
v 0.000000 -0.133262 -0.295190
v -0.112964 -0.133262 -0.272720
v -0.208731 -0.133262 -0.208731
v -0.272720 -0.133262 -0.112965
v -0.295190 -0.133262 -0.000000
v -0.272720 -0.133262 0.112964
v -0.208731 -0.133262 0.208731
v -0.112964 -0.133262 0.272720
v -0.000000 -0.133262 0.295190
v 0.112964 -0.133262 0.272720
v 0.208731 -0.133262 0.208731
v 0.272720 -0.133262 0.112964
v 0.295190 -0.133262 0.000000
vt 0.748636 0.117372
vt 0.748636 0.007703
vt 0.799095 0.001992
vt 0.799095 0.114281
vt 0.748636 0.246735
vt 0.799095 0.246735
vt 0.748636 0.376098
vt 0.799095 0.379188
vt 0.748636 0.485767
vt 0.799095 0.491477
vt 0.865573 0.485767
vt 0.865573 0.376098
vt 0.916032 0.379189
vt 0.916032 0.491477
vt 0.865573 0.246735
vt 0.916032 0.246735
vt 0.865573 0.117372
vt 0.916032 0.114281
vt 0.865573 0.007703
vt 0.916032 0.001992
vt 0.645886 0.681725
vt 0.645886 0.736246
vt 0.610307 0.740039
vt 0.610307 0.688735
vt 0.645886 0.800557
vt 0.610307 0.800557
vt 0.645886 0.864869
vt 0.610307 0.861075
vt 0.645886 0.919389
vt 0.610307 0.912380
vt 0.562458 0.864869
vt 0.562458 0.919389
vt 0.526879 0.912380
vt 0.526879 0.861075
vt 0.562458 0.800557
vt 0.526879 0.800557
vt 0.562458 0.736246
vt 0.526879 0.740039
vt 0.562458 0.681726
vt 0.526879 0.688735
vt 0.392566 0.734053
vt 0.392566 0.681725
vt 0.432730 0.694954
vt 0.432730 0.734053
vt 0.392566 0.786381
vt 0.432730 0.773152
vt 0.299968 0.734053
vt 0.299968 0.681726
vt 0.340131 0.694954
vt 0.340131 0.734053
vt 0.299968 0.786381
vt 0.340131 0.773152
vt 0.110301 0.101002
vt 0.230270 0.027724
vt 0.245346 0.060996
vt 0.138159 0.126468
vt 0.371782 0.001992
vt 0.371782 0.038006
vt 0.268200 0.111433
vt 0.180387 0.165071
vt 0.030141 0.210671
vt 0.066538 0.224453
vt 0.513295 0.027724
vt 0.498218 0.060996
vt 0.371782 0.092599
vt 0.301431 0.184773
vt 0.241790 0.221202
vt 0.121712 0.245345
vt 0.001992 0.340034
vt 0.041388 0.340034
vt 0.633263 0.101002
vt 0.605406 0.126468
vt 0.475365 0.111434
vt 0.371782 0.171981
vt 0.201939 0.275723
vt 0.101108 0.340034
vt 0.030141 0.469397
vt 0.066538 0.455615
vt 0.713424 0.210671
vt 0.677026 0.224453
vt 0.563178 0.165071
vt 0.442133 0.184773
vt 0.187945 0.340034
vt 0.121712 0.434724
vt 0.110301 0.579066
vt 0.138158 0.553601
vt 0.741572 0.340034
vt 0.702176 0.340034
vt 0.621853 0.245345
vt 0.501774 0.221202
vt 0.201939 0.404346
vt 0.180387 0.514998
vt 0.230270 0.652345
vt 0.245346 0.619072
vt 0.713424 0.469398
vt 0.677026 0.455616
vt 0.642456 0.340034
vt 0.541625 0.275723
vt 0.241790 0.458866
vt 0.268200 0.568635
vt 0.371782 0.678077
vt 0.371782 0.642063
vt 0.633263 0.579066
vt 0.605406 0.553601
vt 0.621852 0.434724
vt 0.555619 0.340034
vt 0.301431 0.495296
vt 0.371782 0.587470
vt 0.513295 0.652345
vt 0.498218 0.619072
vt 0.563178 0.514998
vt 0.541625 0.404346
vt 0.371782 0.508088
vt 0.475365 0.568635
vt 0.501774 0.458866
vt 0.442133 0.495296
vt 0.947340 0.728044
vt 0.984840 0.779349
vt 0.963210 0.787539
vt 0.930785 0.743177
vt 0.998008 0.839867
vt 0.974596 0.839867
vt 0.928273 0.800768
vt 0.904045 0.767621
vt 0.891217 0.693763
vt 0.882257 0.713536
vt 0.984840 0.900385
vt 0.963210 0.892195
vt 0.825015 0.839867
vt 0.867786 0.745473
vt 0.825015 0.681726
vt 0.825015 0.703127
vt 0.947339 0.951689
vt 0.930785 0.936556
vt 0.936781 0.839867
vt 0.758813 0.693763
vt 0.767772 0.713536
vt 0.891216 0.985970
vt 0.882257 0.966198
vt 0.904045 0.912112
vt 0.928273 0.878966
vt 0.825015 0.737696
vt 0.702690 0.728044
vt 0.719244 0.743177
vt 0.825015 0.998008
vt 0.825015 0.976606
vt 0.867786 0.934260
vt 0.782244 0.745473
vt 0.745984 0.767621
vt 0.665190 0.779349
vt 0.686819 0.787539
vt 0.758813 0.985970
vt 0.767772 0.966198
vt 0.721756 0.800768
vt 0.652021 0.839867
vt 0.675433 0.839867
vt 0.702690 0.951689
vt 0.719244 0.936556
vt 0.825015 0.942038
vt 0.665190 0.900385
vt 0.686819 0.892195
vt 0.745984 0.912112
vt 0.782244 0.934260
vt 0.713248 0.839867
vt 0.721756 0.878966
vt 0.857564 0.007703
vt 0.857564 0.117372
vt 0.807104 0.114281
vt 0.807104 0.001992
vt 0.857564 0.246735
vt 0.807104 0.246735
vt 0.857564 0.376098
vt 0.807104 0.379188
vt 0.857564 0.485767
vt 0.807104 0.491477
vt 0.924041 0.485767
vt 0.924041 0.376098
vt 0.974501 0.379189
vt 0.974501 0.491477
vt 0.924041 0.246735
vt 0.974501 0.246735
vt 0.924041 0.117372
vt 0.974501 0.114281
vt 0.924041 0.007703
vt 0.974501 0.001992
vt 0.568593 0.736246
vt 0.568593 0.681726
vt 0.604172 0.688735
vt 0.604172 0.740039
vt 0.568593 0.800557
vt 0.604172 0.800557
vt 0.568593 0.864869
vt 0.604172 0.861075
vt 0.568593 0.919389
vt 0.604172 0.912380
vt 0.520743 0.864869
vt 0.520743 0.919389
vt 0.485165 0.912380
vt 0.485165 0.861075
vt 0.520743 0.800557
vt 0.485165 0.800557
vt 0.520743 0.736246
vt 0.485165 0.740039
vt 0.520743 0.681725
vt 0.485165 0.688735
vt 0.438865 0.734053
vt 0.438865 0.681726
vt 0.479029 0.694954
vt 0.479029 0.734053
vt 0.438865 0.786381
vt 0.479029 0.773152
vt 0.386431 0.734053
vt 0.386431 0.786381
vt 0.346267 0.773153
vt 0.346267 0.734053
vt 0.386431 0.681726
vt 0.346267 0.694954
vn 0.823242 -0.453865 -0.340998
vn 0.630082 -0.453865 -0.630082
vn 0.696512 -0.172458 -0.696512
vn 0.910037 -0.172458 -0.376949
vn 0.340998 -0.453865 -0.823242
vn 0.376950 -0.172458 -0.910037
vn 0.000000 -0.453865 -0.891071
vn 0.000001 -0.172458 -0.985017
vn -0.340998 -0.453865 -0.823242
vn -0.376949 -0.172458 -0.910037
vn -0.630082 -0.453865 -0.630082
vn -0.696512 -0.172458 -0.696512
vn -0.823242 -0.453865 -0.340998
vn -0.910037 -0.172458 -0.376950
vn -0.891071 -0.453865 -0.000000
vn -0.985017 -0.172458 -0.000000
vn -0.823242 -0.453865 0.340998
vn -0.910037 -0.172458 0.376949
vn -0.630082 -0.453865 0.630082
vn -0.696512 -0.172458 0.696512
vn -0.340998 -0.453865 0.823242
vn -0.376950 -0.172458 0.910037
vn -0.000000 -0.453865 0.891071
vn -0.000000 -0.172458 0.985017
vn 0.340998 -0.453865 0.823242
vn 0.376950 -0.172458 0.910037
vn 0.630082 -0.453865 0.630082
vn 0.696512 -0.172459 0.696512
vn 0.823242 -0.453865 0.340998
vn 0.910037 -0.172459 0.376950
vn 0.891071 -0.453865 0.000000
vn 0.985017 -0.172459 0.000000
vn 0.015135 -0.999866 -0.006269
vn 0.011584 -0.999866 -0.011584
vn 0.006269 -0.999866 -0.015135
vn -0.000000 -0.999866 -0.016382
vn -0.006269 -0.999866 -0.015135
vn -0.011583 -0.999866 -0.011584
vn -0.015135 -0.999866 -0.006269
vn -0.016382 -0.999866 -0.000000
vn -0.015135 -0.999866 0.006269
vn -0.011583 -0.999866 0.011583
vn -0.006269 -0.999866 0.015135
vn 0.000000 -0.999866 0.016381
vn 0.006269 -0.999866 0.015135
vn 0.011583 -0.999866 0.011584
vn 0.015135 -0.999866 0.006269
vn 0.016382 -0.999866 0.000000
vn -0.339062 -0.930222 0.140444
vn -0.259507 -0.930222 0.259506
vn -0.140444 -0.930222 0.339062
vn -0.000000 -0.930222 0.366998
vn 0.140444 -0.930222 0.339062
vn 0.259506 -0.930222 0.259507
vn 0.339062 -0.930222 0.140444
vn 0.366998 -0.930222 0.000000
vn 0.339062 -0.930222 -0.140444
vn 0.259507 -0.930222 -0.259506
vn 0.140444 -0.930222 -0.339062
vn 0.000000 -0.930222 -0.366998
vn -0.140444 -0.930222 -0.339062
vn -0.259506 -0.930222 -0.259507
vn -0.339062 -0.930222 -0.140444
vn -0.366998 -0.930222 -0.000000
vn 0.320794 -0.937782 -0.132877
vn 0.245525 -0.937782 -0.245525
vn 0.132877 -0.937782 -0.320794
vn 0.000000 -0.937782 -0.347225
vn -0.132877 -0.937782 -0.320794
vn -0.245525 -0.937782 -0.245525
vn -0.320794 -0.937782 -0.132877
vn -0.347224 -0.937782 -0.000000
vn -0.320794 -0.937782 0.132877
vn -0.245525 -0.937782 0.245525
vn -0.132877 -0.937782 0.320794
vn -0.000000 -0.937782 0.347225
vn 0.132877 -0.937782 0.320794
vn 0.245525 -0.937782 0.245525
vn 0.320794 -0.937782 0.132877
vn 0.347225 -0.937782 0.000000
vn 0.793109 -0.512889 -0.328516
vn 0.607020 -0.512889 -0.607019
vn 0.328517 -0.512889 -0.793109
vn 0.000000 -0.512889 -0.858455
vn -0.328516 -0.512889 -0.793109
vn -0.607019 -0.512889 -0.607020
vn -0.793108 -0.512890 -0.328517
vn -0.858455 -0.512890 -0.000000
vn -0.793109 -0.512889 0.328516
vn -0.607019 -0.512890 0.607019
vn -0.328517 -0.512890 0.793109
vn -0.000000 -0.512889 0.858455
vn 0.328516 -0.512889 0.793109
vn 0.607019 -0.512889 0.607019
vn 0.793109 -0.512890 0.328517
vn 0.858455 -0.512890 0.000000
vn -0.186478 -0.979418 0.077241
vn -0.142724 -0.979418 0.142723
vn -0.077241 -0.979418 0.186477
vn -0.000000 -0.979418 0.201841
vn 0.077241 -0.979418 0.186478
vn 0.142723 -0.979418 0.142723
vn 0.186477 -0.979418 0.077241
vn 0.201841 -0.979418 0.000000
vn 0.186477 -0.979418 -0.077241
vn 0.142724 -0.979418 -0.142723
vn 0.077241 -0.979418 -0.186477
vn 0.000000 -0.979418 -0.201841
vn -0.077241 -0.979418 -0.186477
vn -0.142724 -0.979418 -0.142724
vn -0.186477 -0.979418 -0.077241
vn -0.201841 -0.979418 -0.000000
vn -0.283748 -0.915955 0.283748
vn -0.370735 -0.915955 0.153563
vn -0.000000 -1.000000 0.000000
vn -0.153564 -0.915955 0.370735
vn -0.000000 -0.915955 0.401280
vn 0.153563 -0.915955 0.370735
vn 0.283748 -0.915955 0.283748
vn 0.370735 -0.915955 0.153563
vn 0.401280 -0.915955 0.000000
vn 0.370735 -0.915955 -0.153563
vn 0.283748 -0.915955 -0.283748
vn 0.153564 -0.915955 -0.370735
vn 0.000000 -0.915955 -0.401281
vn -0.153563 -0.915955 -0.370735
vn -0.283748 -0.915955 -0.283748
vn -0.370735 -0.915955 -0.153563
vn -0.401280 -0.915955 -0.000000
s 1
g pCylinder3
usemtl initialShadingGroup
f 1/1/1 2/2/2 18/3/3 17/4/4
f 2/166/2 3/167/5 19/168/6 18/169/3
f 3/167/5 4/170/7 20/171/8 19/168/6
f 4/170/7 5/172/9 21/173/10 20/171/8
f 5/172/9 6/174/11 22/175/12 21/173/10
f 6/11/11 7/12/13 23/13/14 22/14/12
f 7/12/13 8/15/15 24/16/16 23/13/14
f 8/15/15 9/17/17 25/18/18 24/16/16
f 9/17/17 10/19/19 26/20/20 25/18/18
f 10/176/19 11/177/21 27/178/22 26/179/20
f 11/177/21 12/180/23 28/181/24 27/178/22
f 12/180/23 13/182/25 29/183/26 28/181/24
f 13/182/25 14/184/27 30/185/28 29/183/26
f 14/9/27 15/7/29 31/8/30 30/10/28
f 15/7/29 16/5/31 32/6/32 31/8/30
f 16/5/31 1/1/1 17/4/4 32/6/32
f 2/53/2 1/54/1 33/55/33 34/56/34
f 3/61/5 2/53/2 34/56/34 35/62/35
f 4/69/7 3/61/5 35/62/35 36/70/36
f 5/77/9 4/69/7 36/70/36 37/78/37
f 6/85/11 5/77/9 37/78/37 38/86/38
f 7/93/13 6/85/11 38/86/38 39/94/39
f 8/101/15 7/93/13 39/94/39 40/102/40
f 9/109/17 8/101/15 40/102/40 41/110/41
f 10/103/19 9/109/17 41/110/41 42/104/42
f 11/95/21 10/103/19 42/104/42 43/96/43
f 12/87/23 11/95/21 43/96/43 44/88/44
f 13/79/25 12/87/23 44/88/44 45/80/45
f 14/71/27 13/79/25 45/80/45 46/72/46
f 15/63/29 14/71/27 46/72/46 47/64/47
f 16/57/31 15/63/29 47/64/47 48/58/48
f 1/54/1 16/57/31 48/58/48 33/55/33
f 34/56/34 33/55/33 49/59/49 50/60/50
f 35/62/35 34/56/34 50/60/50 51/68/51
f 36/70/36 35/62/35 51/68/51 52/76/52
f 37/78/37 36/70/36 52/76/52 53/84/53
f 38/86/38 37/78/37 53/84/53 54/92/54
f 39/94/39 38/86/38 54/92/54 55/100/55
f 40/102/40 39/94/39 55/100/55 56/108/56
f 41/110/41 40/102/40 56/108/56 57/114/57
f 42/104/42 41/110/41 57/114/57 58/111/58
f 43/96/43 42/104/42 58/111/58 59/105/59
f 44/88/44 43/96/43 59/105/59 60/97/60
f 45/80/45 44/88/44 60/97/60 61/89/61
f 46/72/46 45/80/45 61/89/61 62/81/62
f 47/64/47 46/72/46 62/81/62 63/73/63
f 48/58/48 47/64/47 63/73/63 64/65/64
f 33/55/33 48/58/48 64/65/64 49/59/49
f 50/60/50 49/59/49 65/66/65 66/67/66
f 51/68/51 50/60/50 66/67/66 67/75/67
f 52/76/52 51/68/51 67/75/67 68/83/68
f 53/84/53 52/76/52 68/83/68 69/91/69
f 54/92/54 53/84/53 69/91/69 70/99/70
f 55/100/55 54/92/54 70/99/70 71/107/71
f 56/108/56 55/100/55 71/107/71 72/113/72
f 57/114/57 56/108/56 72/113/72 73/116/73
f 58/111/58 57/114/57 73/116/73 74/115/74
f 59/105/59 58/111/58 74/115/74 75/112/75
f 60/97/60 59/105/59 75/112/75 76/106/76
f 61/89/61 60/97/60 76/106/76 77/98/77
f 62/81/62 61/89/61 77/98/77 78/90/78
f 63/73/63 62/81/62 78/90/78 79/82/79
f 64/65/64 63/73/63 79/82/79 80/74/80
f 49/59/49 64/65/64 80/74/80 65/66/65
f 66/21/66 65/22/65 81/23/81 82/24/82
f 67/186/67 66/187/66 82/188/82 83/189/83
f 68/190/68 67/186/67 83/189/83 84/191/84
f 69/192/69 68/190/68 84/191/84 85/193/85
f 70/194/70 69/192/69 85/193/85 86/195/86
f 71/31/71 70/32/70 86/33/86 87/34/87
f 72/35/72 71/31/71 87/34/87 88/36/88
f 73/37/73 72/35/72 88/36/88 89/38/89
f 74/39/74 73/37/73 89/38/89 90/40/90
f 75/196/75 74/197/74 90/198/90 91/199/91
f 76/200/76 75/196/75 91/199/91 92/201/92
f 77/202/77 76/200/76 92/201/92 93/203/93
f 78/204/78 77/202/77 93/203/93 94/205/94
f 79/27/79 78/29/78 94/30/94 95/28/95
f 80/25/80 79/27/79 95/28/95 96/26/96
f 65/22/65 80/25/80 96/26/96 81/23/81
f 82/117/82 81/118/81 97/119/97 98/120/98
f 83/125/83 82/117/82 98/120/98 99/126/99
f 84/131/84 83/125/83 99/126/99 100/132/100
f 85/136/85 84/131/84 100/132/100 101/137/101
f 86/143/86 85/136/85 101/137/101 102/144/102
f 87/150/87 86/143/86 102/144/102 103/151/103
f 88/155/88 87/150/87 103/151/103 104/156/104
f 89/160/89 88/155/88 104/156/104 105/161/105
f 90/157/90 89/160/89 105/161/105 106/158/106
f 91/152/91 90/157/90 106/158/106 107/153/107
f 92/145/92 91/152/91 107/153/107 108/146/108
f 93/138/93 92/145/92 108/146/108 109/139/109
f 94/133/94 93/138/93 109/139/109 110/134/110
f 95/127/95 94/133/94 110/134/110 111/128/111
f 96/121/96 95/127/95 111/128/111 112/122/112
f 81/118/81 96/121/96 112/122/112 97/119/97
f 114/124/113 113/123/114 115/129/115
f 116/130/116 114/124/113 115/129/115
f 117/142/117 116/130/116 115/129/115
f 118/148/118 117/142/117 115/129/115
f 119/149/119 118/148/118 115/129/115
f 120/154/120 119/149/119 115/129/115
f 121/164/121 120/154/120 115/129/115
f 122/165/122 121/164/121 115/129/115
f 123/162/123 122/165/122 115/129/115
f 124/163/124 123/162/123 115/129/115
f 125/159/125 124/163/124 115/129/115
f 126/147/126 125/159/125 115/129/115
f 127/140/127 126/147/126 115/129/115
f 128/141/128 127/140/127 115/129/115
f 129/135/129 128/141/128 115/129/115
f 113/123/114 129/135/129 115/129/115
f 98/120/98 97/119/97 113/123/114 114/124/113
f 99/126/99 98/120/98 114/124/113 116/130/116
f 100/206/100 99/207/99 116/208/116 117/209/117
f 101/210/101 100/206/100 117/209/117 118/211/118
f 102/144/102 101/137/101 118/148/118 119/149/119
f 103/151/103 102/144/102 119/149/119 120/154/120
f 104/41/104 103/42/103 120/43/120 121/44/121
f 105/45/105 104/41/104 121/44/121 122/46/122
f 106/158/106 105/161/105 122/165/122 123/162/123
f 107/153/107 106/158/106 123/162/123 124/163/124
f 108/212/108 107/213/107 124/214/124 125/215/125
f 109/216/109 108/212/108 125/215/125 126/217/126
f 110/134/110 109/139/109 126/147/126 127/140/127
f 111/128/111 110/134/110 127/140/127 128/141/128
f 112/47/112 111/48/111 128/49/128 129/50/129
f 97/51/97 112/47/112 129/50/129 113/52/114
