# This file uses centimeters as units for non-parametric coordinates.

mtllib CorssBaseANS.mtl
g default
v -0.676890 0.077221 0.675222
v -0.412262 0.072975 0.707157
v 0.408927 0.072975 0.707157
v 0.673554 0.077221 0.675222
v -0.708825 0.072975 0.398282
v 0.705490 0.072975 0.398282
v -0.708825 0.072975 -0.398282
v 0.705490 0.072975 -0.398282
v -0.676890 0.077221 -0.675222
v -0.412262 0.072975 -0.707157
v 0.408927 0.072975 -0.707157
v 0.673554 0.077221 -0.675222
v -0.412262 -0.227650 -0.398282
v 0.408927 -0.227650 -0.398282
v -0.412262 -0.227650 0.398282
v 0.408927 -0.227650 0.398282
v 0.285119 0.072975 1.489204
v -0.288454 0.072975 1.489204
v -0.288454 0.072975 -1.489204
v 0.285119 0.072975 -1.489204
v 1.487537 0.072975 -0.316102
v 1.487537 0.072975 0.316102
v -1.490872 0.072975 0.316102
v -1.490872 0.072975 -0.316102
v -0.636703 -0.298251 0.635246
v -0.676890 -0.251961 0.675222
v -0.412262 -0.246150 0.707157
v -0.367219 -0.290924 0.662050
v 0.363884 -0.290924 0.662050
v 0.408927 -0.246150 0.707157
v 0.673554 -0.251961 0.675222
v 0.633367 -0.298251 0.635246
v -0.676890 -0.251961 -0.675222
v -0.636703 -0.298251 -0.635246
v -0.367219 -0.290924 -0.662050
v -0.412262 -0.246150 -0.707157
v 0.408927 -0.246150 -0.707157
v 0.363884 -0.290924 -0.662050
v 0.633367 -0.298251 -0.635246
v 0.673554 -0.251961 -0.675222
v -0.708825 -0.245510 -0.398282
v -0.663659 -0.290460 -0.351004
v 0.660324 -0.290460 -0.351004
v 0.705490 -0.245510 -0.398282
v -0.663659 -0.290460 0.351004
v -0.708825 -0.245510 0.398282
v 0.705490 -0.245510 0.398282
v 0.660324 -0.290460 0.351004
v -0.249127 -0.084120 1.451104
v -0.288454 -0.030910 1.489204
v 0.245792 -0.084120 1.451104
v 0.285119 -0.030275 1.489204
v 0.285119 -0.030275 -1.489204
v 0.245792 -0.084120 -1.451104
v -0.249127 -0.084120 -1.451104
v -0.288454 -0.030275 -1.489204
v 1.449445 -0.084118 -0.274715
v 1.487537 -0.030097 -0.316102
v 1.449445 -0.084118 0.274715
v 1.487537 -0.030772 0.316102
v -1.452780 -0.084118 -0.274715
v -1.490872 -0.030772 -0.316102
v -1.452780 -0.084118 0.274715
v -1.490872 -0.030097 0.316102
vt 0.414876 0.763403
vt 0.429138 0.753019
vt 0.428960 0.911629
vt 0.414876 0.901245
vt 0.456351 0.753019
vt 0.456351 0.911629
vt 0.381350 0.911629
vt 0.367266 0.901245
vt 0.367266 0.763403
vt 0.381528 0.753019
vt 0.408741 0.753019
vt 0.408741 0.911629
vt 0.078196 0.841017
vt 0.151312 0.839399
vt 0.151312 0.921985
vt 0.078196 0.920920
vt 0.158103 0.839398
vt 0.231219 0.841017
vt 0.231219 0.920919
vt 0.158103 0.921985
vt 0.238010 0.900712
vt 0.311126 0.902331
vt 0.311126 0.982233
vt 0.238010 0.983299
vt 0.317917 0.917040
vt 0.391033 0.915422
vt 0.391033 0.998008
vt 0.317917 0.996943
vt 0.795410 0.001992
vt 0.879664 0.001992
vt 0.879664 0.198195
vt 0.852404 0.198195
vt 0.971265 0.198195
vt 0.887011 0.198195
vt 0.943838 0.001992
vt 0.971265 0.001992
vt 0.998008 0.398191
vt 0.913754 0.398191
vt 0.970748 0.201988
vt 0.998008 0.201988
vt 0.823366 0.201988
vt 0.907619 0.201988
vt 0.907619 0.398191
vt 0.880360 0.398191
vt 0.286760 0.275687
vt 0.503566 0.275687
vt 0.503566 0.475532
vt 0.286760 0.475532
vt 0.298652 0.209512
vt 0.491674 0.209512
vt 0.569938 0.287548
vt 0.569938 0.463670
vt 0.491674 0.541707
vt 0.298652 0.541707
vt 0.220388 0.287548
vt 0.220388 0.463670
vt 0.329830 0.011551
vt 0.460496 0.011551
vt 0.562821 0.216236
vt 0.227505 0.216236
vt 0.778277 0.306688
vt 0.778277 0.444530
vt 0.562821 0.534982
vt 0.460496 0.739667
vt 0.329830 0.739667
vt 0.227505 0.534982
vt 0.012049 0.444530
vt 0.012049 0.306688
vt 0.286760 0.198195
vt 0.319447 0.001992
vt 0.503566 0.198195
vt 0.470879 0.001992
vt 0.573431 0.206207
vt 0.581863 0.275687
vt 0.216895 0.206207
vt 0.208464 0.275687
vt 0.788334 0.296304
vt 0.581863 0.475532
vt 0.788334 0.454914
vt 0.573431 0.545011
vt 0.503566 0.553023
vt 0.470879 0.749226
vt 0.286760 0.553023
vt 0.319447 0.749226
vt 0.216895 0.545011
vt 0.208464 0.475532
vt 0.001992 0.454914
vt 0.001992 0.296304
vt 0.333704 0.896919
vt 0.319655 0.887053
vt 0.319655 0.762886
vt 0.333871 0.753019
vt 0.361131 0.753019
vt 0.361131 0.896919
vt 0.299304 0.753019
vt 0.313520 0.762886
vt 0.313520 0.887053
vt 0.299304 0.896919
vt 0.272045 0.896919
vt 0.272045 0.753019
vt 0.196044 0.753019
vt 0.265909 0.754477
vt 0.265909 0.834540
vt 0.196044 0.835605
vt 0.120043 0.754477
vt 0.189909 0.753019
vt 0.189909 0.835605
vt 0.120043 0.834540
vt 0.044043 0.753019
vt 0.113908 0.754085
vt 0.113908 0.834148
vt 0.044043 0.835606
vt 0.001992 0.840464
vt 0.071857 0.839399
vt 0.071857 0.921985
vt 0.001992 0.920527
vt 0.817230 0.949222
vt 0.733146 0.949222
vt 0.733146 0.753019
vt 0.760358 0.753019
vt 0.727011 0.949222
vt 0.642926 0.949222
vt 0.699620 0.753019
vt 0.727011 0.753019
vt 0.552706 0.753019
vt 0.636791 0.753019
vt 0.636791 0.949222
vt 0.609578 0.949222
vt 0.462486 0.753019
vt 0.546571 0.753019
vt 0.489877 0.949222
vt 0.462486 0.949222
vn 0.050038 -0.997407 0.051717
vn -0.050038 -0.997407 0.051717
vn -0.050038 -0.997407 -0.051717
vn 0.050038 -0.997407 -0.051717
vn -0.702033 -0.709966 0.055656
vn -0.989466 -0.093193 0.110780
vn -0.981112 -0.160885 0.107404
vn -0.702033 -0.709966 0.055656
vn -0.116089 -0.092552 0.988917
vn -0.059605 -0.710711 0.700955
vn -0.059605 -0.710711 0.700955
vn -0.112792 -0.158698 0.980863
vn -0.933281 -0.281903 0.222524
vn -0.587205 -0.754511 0.293094
vn -0.587205 -0.754511 0.293094
vn -0.977274 -0.106881 0.183064
vn 0.590074 -0.752218 0.293224
vn 0.933272 -0.281859 0.222617
vn 0.977247 -0.107009 0.183134
vn 0.590074 -0.752218 0.293224
vn 0.112792 -0.158698 0.980863
vn 0.059605 -0.710710 0.700955
vn 0.059605 -0.710710 0.700955
vn 0.116089 -0.092552 0.988917
vn 0.989466 -0.093193 0.110780
vn 0.702033 -0.709966 0.055655
vn 0.702033 -0.709966 0.055655
vn 0.981112 -0.160885 0.107404
vn -0.989466 -0.093193 -0.110780
vn -0.702033 -0.709966 -0.055655
vn -0.702033 -0.709966 -0.055655
vn -0.981112 -0.160885 -0.107404
vn -0.059605 -0.710711 -0.700955
vn -0.116089 -0.092552 -0.988917
vn -0.112792 -0.158698 -0.980863
vn -0.059605 -0.710711 -0.700955
vn -0.590074 -0.752218 -0.293224
vn -0.933272 -0.281859 -0.222617
vn -0.977247 -0.107009 -0.183134
vn -0.590074 -0.752218 -0.293224
vn 0.933272 -0.281859 -0.222617
vn 0.590074 -0.752218 -0.293224
vn 0.590074 -0.752218 -0.293224
vn 0.977247 -0.107009 -0.183134
vn 0.059605 -0.710710 -0.700955
vn 0.112792 -0.158698 -0.980863
vn 0.116089 -0.092552 -0.988917
vn 0.059605 -0.710710 -0.700955
vn 0.702033 -0.709966 -0.055655
vn 0.989466 -0.093193 -0.110780
vn 0.981112 -0.160885 -0.107404
vn 0.702033 -0.709966 -0.055655
vn -0.174918 -0.286907 -0.941854
vn -0.263548 -0.759590 -0.594614
vn -0.263548 -0.759590 -0.594614
vn -0.131485 -0.105418 -0.985697
vn 0.263534 -0.757167 -0.597702
vn 0.175019 -0.286855 -0.941851
vn 0.131563 -0.105565 -0.985671
vn 0.263534 -0.757167 -0.597702
vn -0.263535 -0.757167 0.597702
vn -0.175019 -0.286855 0.941851
vn -0.131563 -0.105564 0.985671
vn -0.263535 -0.757167 0.597702
vn 0.174918 -0.286907 0.941854
vn 0.263547 -0.759590 0.594614
vn 0.263547 -0.759590 0.594614
vn 0.131485 -0.105418 0.985697
vn 0.000100 -0.168503 0.985701
vn 0.000344 -0.579891 0.814694
vn 0.000344 -0.579891 0.814694
vn 0.000100 -0.168528 0.985697
vn 0.000000 -0.168873 -0.985638
vn 0.000000 -0.577616 -0.816309
vn 0.000000 -0.577616 -0.816309
vn 0.000000 -0.168873 -0.985638
vn 0.815549 -0.578687 -0.000330
vn 0.986068 -0.166344 -0.000095
vn 0.986081 -0.166264 -0.000095
vn 0.815549 -0.578687 -0.000330
vn -0.986081 -0.166264 0.000095
vn -0.815549 -0.578687 0.000330
vn -0.815549 -0.578687 0.000330
vn -0.986068 -0.166344 0.000095
vn -0.119811 0.000000 0.992797
vn -0.119811 0.000000 0.992797
vn 0.000000 0.000000 1.000000
vn 0.000000 0.000000 1.000000
vn 0.119811 0.000000 0.992797
vn 0.119811 0.000000 0.992797
vn -0.119811 0.000000 -0.992797
vn -0.119811 0.000000 -0.992797
vn 0.000000 0.000000 -1.000000
vn 0.000000 0.000000 -1.000000
vn 0.119811 0.000000 -0.992797
vn 0.119811 0.000000 -0.992797
vn 0.152476 -0.977348 0.146773
vn 0.012608 -0.997343 -0.071744
vn -0.081474 -0.996604 0.011889
vn -0.012608 -0.997343 -0.071744
vn -0.152476 -0.977348 0.146774
vn 0.081474 -0.996605 0.011889
vn -0.081474 -0.996604 -0.011889
vn 0.081474 -0.996605 -0.011889
vn 0.012608 -0.997343 0.071744
vn 0.152476 -0.977348 -0.146773
vn -0.012608 -0.997343 0.071744
vn -0.152476 -0.977348 -0.146774
vn 0.993417 0.000000 -0.114556
vn 0.993417 0.000000 -0.114556
vn 1.000000 0.000000 0.000000
vn 1.000000 0.000000 0.000000
vn 0.993417 0.000000 0.114556
vn 0.993417 0.000000 0.114556
vn -0.993417 0.000000 -0.114556
vn -0.993417 0.000000 -0.114556
vn -1.000000 0.000000 0.000000
vn -1.000000 0.000000 0.000000
vn -0.993417 0.000000 0.114556
vn -0.993417 0.000000 0.114556
vn 0.000000 -0.967328 0.253527
vn 0.000000 -0.967328 0.253527
vn 0.987699 0.000000 0.156365
vn 0.987699 0.000000 0.156365
vn -0.987699 0.000000 0.156365
vn -0.987699 0.000000 0.156365
vn 0.987699 0.000000 -0.156365
vn 0.987699 0.000000 -0.156365
vn 0.000000 -0.967328 -0.253527
vn 0.000000 -0.967328 -0.253527
vn -0.987699 0.000000 -0.156365
vn -0.987699 0.000000 -0.156365
vn 0.252977 -0.967472 0.000000
vn 0.252977 -0.967472 0.000000
vn 0.104508 -0.000000 -0.994524
vn 0.104508 -0.000000 -0.994524
vn 0.104508 0.000000 0.994524
vn 0.104508 0.000000 0.994524
vn -0.252978 -0.967472 0.000000
vn -0.252978 -0.967472 0.000000
vn -0.104508 0.000000 0.994524
vn -0.104508 0.000000 0.994524
vn -0.104508 -0.000000 -0.994524
vn -0.104508 -0.000000 -0.994524
s 1
g pCube15
usemtl initialShadingGroup
f 13/45/1 14/46/2 16/47/3 15/48/4
s 2
f 25/66/5 26/85/6 46/86/7 45/56/8
s 3
f 26/85/9 25/66/10 28/54/11 27/83/12
s 4
f 27/83/13 28/54/14 49/65/15 50/84/16
s 5
f 29/53/17 30/81/18 52/82/19 51/64/20
s 6
f 30/81/21 29/53/22 32/63/23 31/80/24
s 7
f 31/80/25 32/63/26 48/52/27 47/78/28
s 8
f 33/75/29 34/60/30 42/55/31 41/76/32
s 9
f 34/60/33 33/75/34 36/69/35 35/49/36
s 10
f 35/49/37 36/69/38 56/70/39 55/57/40
s 11
f 37/71/41 38/50/42 54/58/43 53/72/44
s 12
f 38/50/45 37/71/46 40/73/47 39/59/48
s 13
f 39/59/49 40/73/50 44/74/51 43/51/52
s 14
f 41/76/53 42/55/54 61/68/55 62/88/56
s 15
f 43/51/57 44/74/58 58/77/59 57/61/60
s 16
f 45/56/61 46/86/62 64/87/63 63/67/64
s 17
f 47/78/65 48/52/66 59/62/67 60/79/68
s 18
f 50/89/69 49/90/70 51/91/71 52/92/72
s 19
f 53/95/73 54/96/74 55/97/75 56/98/76
s 20
f 57/1/77 58/2/78 60/3/79 59/4/80
s 21
f 62/7/81 61/8/82 63/9/83 64/10/84
s 3
f 26/101/9 27/102/12 2/103/85 1/104/86
s 18
f 50/89/69 52/92/72 17/93/87 18/94/88
s 6
f 30/105/21 31/106/24 4/107/89 3/108/90
s 9
f 9/109/91 10/110/92 36/111/35 33/112/34
s 19
f 19/99/93 20/100/94 53/95/73 56/98/76
s 12
f 11/113/95 12/114/96 40/115/47 37/116/46
s 1
f 34/60/97 35/49/98 13/45/1 42/55/99
f 35/49/98 38/50/100 14/46/2 13/45/1
f 38/50/100 39/59/101 43/51/102 14/46/2
f 42/55/99 13/45/1 15/48/4 45/56/103
f 14/46/2 43/51/102 48/52/104 16/47/3
f 45/56/103 15/48/4 28/54/105 25/66/106
f 15/48/4 16/47/3 29/53/107 28/54/105
f 16/47/3 48/52/104 32/63/108 29/53/107
s 13
f 44/13/51 40/14/50 12/15/109 8/16/110
s 20
f 60/3/79 58/2/78 21/5/111 22/6/112
s 7
f 31/17/25 47/18/28 6/19/113 4/20/114
s 8
f 33/21/29 41/22/32 7/23/115 9/24/116
s 21
f 62/7/81 64/10/84 23/11/117 24/12/118
s 2
f 46/25/7 26/26/6 1/27/119 5/28/120
s 1
f 28/54/105 29/53/107 51/64/121 49/65/122
s 5
f 30/29/18 3/30/123 17/31/124 52/32/19
s 4
f 2/33/125 27/34/13 50/35/16 18/36/126
s 11
f 11/37/127 37/38/41 53/39/44 20/40/128
s 1
f 38/50/100 35/49/98 55/57/129 54/58/130
s 10
f 36/41/38 10/42/131 19/43/132 56/44/39
s 1
f 48/52/104 43/51/102 57/61/133 59/62/134
s 15
f 44/117/58 8/118/135 21/119/136 58/120/59
s 17
f 6/121/137 47/122/65 60/123/68 22/124/138
s 1
f 42/55/99 45/56/103 63/67/139 61/68/140
s 16
f 46/125/62 5/126/141 23/127/142 64/128/63
s 14
f 7/129/143 41/130/53 62/131/56 24/132/144
