# This file uses centimeters as units for non-parametric coordinates.

mtllib CrissCross.mtl
g default
v -0.117734 -0.117734 0.117734
v 0.117734 -0.117734 0.117734
v -0.117734 0.117734 0.117734
v 0.117734 0.117734 0.117734
v -0.117734 0.117734 -0.117734
v 0.117734 0.117734 -0.117734
v -0.117734 -0.117734 -0.117734
v 0.117734 -0.117734 -0.117734
v 2.746214 -0.117734 -0.117734
v 2.746214 -0.117734 0.117734
v 2.808319 0.117734 -0.117734
v 2.808319 0.117734 0.117734
v -2.746214 -0.117734 -0.117734
v -2.746214 -0.117734 0.117734
v -2.808319 0.117734 0.117734
v -2.808319 0.117734 -0.117734
v -0.117734 -0.117734 2.705295
v 0.117734 -0.117734 2.705295
v 0.117734 0.117734 2.760831
v -0.117734 0.117734 2.760831
v -0.117734 0.117734 -2.760831
v 0.117734 0.117734 -2.760831
v 0.117734 -0.117734 -2.705295
v -0.117734 -0.117734 -2.705295
v -0.117734 -0.117734 2.961653
v 0.117734 -0.117734 2.961653
v 0.117734 -0.117734 -2.961653
v -0.117734 -0.117734 -2.961653
v 3.002571 -0.117734 -0.117734
v 3.002571 -0.117734 0.117734
v -3.002571 -0.117734 -0.117734
v -3.002571 -0.117734 0.117734
v -0.117928 -0.589366 2.709754
v 0.117928 -0.589366 2.709754
v 0.124747 -0.596683 3.138069
v -0.124747 -0.596683 3.138069
v -0.117928 -0.589366 -2.709754
v 0.117928 -0.589366 -2.709754
v -0.124747 -0.596683 -3.138069
v 0.124747 -0.596683 -3.138069
v 2.750740 -0.589366 -0.117928
v 2.750740 -0.589366 0.117928
v 3.181425 -0.596683 -0.124747
v 3.181425 -0.596683 0.124747
v -2.750740 -0.589366 -0.117928
v -2.750740 -0.589366 0.117928
v -3.181425 -0.596683 0.124747
v -3.181425 -0.596683 -0.124747
v 0.502412 -0.112102 2.705295
v 0.502412 -0.112102 2.961653
v 0.509425 -0.591050 3.138069
v 0.481579 -0.584042 2.709754
v -0.502412 -0.112102 2.705295
v -0.502412 -0.112102 2.961653
v -0.481579 -0.584042 2.709754
v -0.509425 -0.591050 3.138069
v -0.502412 -0.112102 -2.705295
v -0.502412 -0.112102 -2.961653
v -0.509425 -0.591050 -3.138069
v -0.481579 -0.584042 -2.709754
v 0.502412 -0.112102 -2.705295
v 0.502412 -0.112102 -2.961653
v 0.481579 -0.584042 -2.709754
v 0.509425 -0.591050 -3.138069
v 2.746214 -0.112102 -0.502412
v 3.002571 -0.112102 -0.502412
v 3.181425 -0.591050 -0.509425
v 2.750740 -0.584042 -0.481579
v 2.746214 -0.112102 0.502412
v 3.002571 -0.112102 0.502412
v 2.750740 -0.584042 0.481579
v 3.181425 -0.591050 0.509425
v -2.746214 -0.112102 0.502412
v -3.002571 -0.112102 0.502412
v -3.181425 -0.591050 0.509425
v -2.750740 -0.584042 0.481579
v -2.746214 -0.112102 -0.502412
v -3.002571 -0.112102 -0.502412
v -2.750740 -0.584042 -0.481579
v -3.181425 -0.591050 -0.509425
v -0.065872 0.220413 0.065872
v 0.065872 0.220413 0.065872
v 0.065872 0.220413 -0.065872
v -0.065872 0.220413 -0.065872
vt 0.632551 0.811830
vt 0.632551 0.780830
vt 0.662244 0.780830
vt 0.662244 0.811830
vt 0.572155 0.812753
vt 0.572155 0.779906
vt 0.633262 0.862475
vt 0.572865 0.863398
vt 0.572865 0.729262
vt 0.633262 0.730185
vt 0.536326 0.811830
vt 0.536326 0.780830
vt 0.566020 0.780830
vt 0.566020 0.811830
vt 0.475930 0.812753
vt 0.475930 0.779906
vt 0.537037 0.862475
vt 0.476640 0.863398
vt 0.476640 0.729262
vt 0.537037 0.730185
vt 0.840236 0.001992
vt 0.869929 0.001992
vt 0.869929 0.349967
vt 0.840236 0.342656
vt 0.840236 0.376407
vt 0.906960 0.376406
vt 0.877267 0.376406
vt 0.877267 0.035743
vt 0.906960 0.028431
vt 0.877267 0.001992
vt 0.943990 0.376407
vt 0.914297 0.376407
vt 0.914297 0.035743
vt 0.943990 0.028431
vt 0.914297 0.001992
vt 0.951327 0.001992
vt 0.981020 0.001992
vt 0.981020 0.349967
vt 0.951327 0.342656
vt 0.951327 0.376407
vt 0.123025 0.928774
vt 0.090698 0.928774
vt 0.068451 0.865718
vt 0.122463 0.866641
vt 0.163145 0.928774
vt 0.130818 0.928774
vt 0.131380 0.866641
vt 0.185391 0.865718
vt 0.247758 0.930621
vt 0.215431 0.930621
vt 0.193184 0.867565
vt 0.247196 0.868488
vt 0.287878 0.930621
vt 0.255551 0.930621
vt 0.256113 0.868488
vt 0.310124 0.867565
vt 0.095261 0.779906
vt 0.095261 0.810907
vt 0.035787 0.810932
vt 0.035787 0.779881
vt 0.095971 0.861551
vt 0.036459 0.858808
vt 0.036459 0.732005
vt 0.095971 0.729262
vt 0.061466 0.916363
vt 0.061466 0.947364
vt 0.001992 0.947389
vt 0.001992 0.916338
vt 0.062176 0.998008
vt 0.002663 0.995265
vt 0.002663 0.868461
vt 0.062176 0.865719
vt 0.898705 0.763717
vt 0.898705 0.732716
vt 0.911653 0.739544
vt 0.911653 0.756889
vt 0.937684 0.769969
vt 0.937684 0.738968
vt 0.950632 0.745796
vt 0.950632 0.763141
vt 0.957173 0.756313
vt 0.957173 0.738968
vt 0.973787 0.738968
vt 0.973787 0.756313
vt 0.328289 0.379044
vt 0.328289 0.348043
vt 0.357982 0.348043
vt 0.357982 0.379044
vt 0.001992 0.379044
vt 0.001992 0.348043
vt 0.328289 0.001992
vt 0.357982 0.001992
vt 0.684280 0.348043
vt 0.684280 0.379044
vt 0.357982 0.725094
vt 0.328289 0.725094
vt 0.998008 0.734801
vt 0.968315 0.734801
vt 0.968315 0.380574
vt 0.998008 0.380574
vt 0.932486 0.380574
vt 0.962179 0.380574
vt 0.962179 0.734801
vt 0.932486 0.734801
vt 0.926351 0.728549
vt 0.896658 0.728549
vt 0.896658 0.380574
vt 0.926351 0.380574
vt 0.860829 0.380574
vt 0.890523 0.380574
vt 0.890523 0.728549
vt 0.860829 0.728549
vt 0.415783 0.811856
vt 0.415783 0.780804
vt 0.469795 0.779906
vt 0.469795 0.812753
vt 0.415783 0.732928
vt 0.469795 0.729262
vt 0.469795 0.863398
vt 0.415783 0.859732
vt 0.409648 0.780804
vt 0.409648 0.811856
vt 0.355637 0.812753
vt 0.355637 0.779906
vt 0.409648 0.859732
vt 0.355637 0.863398
vt 0.355637 0.729262
vt 0.409648 0.732928
vt 0.295191 0.811856
vt 0.295191 0.780804
vt 0.349501 0.779906
vt 0.349501 0.812753
vt 0.295191 0.732928
vt 0.349501 0.729262
vt 0.349501 0.863398
vt 0.295191 0.859732
vt 0.289056 0.780804
vt 0.289056 0.811856
vt 0.234745 0.812753
vt 0.234745 0.779906
vt 0.289056 0.859732
vt 0.234745 0.863398
vt 0.234745 0.729262
vt 0.289056 0.732928
vt 0.599710 0.918210
vt 0.567383 0.918210
vt 0.567383 0.867565
vt 0.599710 0.867565
vt 0.606362 0.867565
vt 0.638689 0.867565
vt 0.638689 0.918210
vt 0.606362 0.918210
vt 0.645341 0.867565
vt 0.677668 0.867565
vt 0.677668 0.918210
vt 0.645341 0.918210
vt 0.716647 0.918210
vt 0.684320 0.918210
vt 0.684320 0.867565
vt 0.716647 0.867565
vt 0.723299 0.867565
vt 0.755626 0.867565
vt 0.755626 0.918210
vt 0.723299 0.918210
vt 0.794606 0.918210
vt 0.762278 0.918210
vt 0.762278 0.867565
vt 0.794606 0.867565
vt 0.833585 0.574909
vt 0.801257 0.574909
vt 0.801257 0.524264
vt 0.833585 0.524264
vt 0.840236 0.732716
vt 0.872564 0.732716
vt 0.872564 0.783361
vt 0.840236 0.783361
vt 0.825001 0.468529
vt 0.825001 0.437529
vt 0.854694 0.437529
vt 0.854694 0.468529
vt 0.764605 0.469453
vt 0.764605 0.436605
vt 0.825711 0.519174
vt 0.765315 0.520097
vt 0.765315 0.385961
vt 0.825711 0.386884
vt 0.668380 0.811830
vt 0.668380 0.780830
vt 0.698073 0.780830
vt 0.698073 0.811830
vt 0.758469 0.779906
vt 0.758469 0.812753
vt 0.697363 0.730185
vt 0.757759 0.729262
vt 0.757759 0.863398
vt 0.697363 0.862475
vt 0.721809 0.381794
vt 0.692116 0.381794
vt 0.692116 0.027566
vt 0.721809 0.035743
vt 0.721809 0.001992
vt 0.758839 0.381794
vt 0.729146 0.381794
vt 0.729146 0.035743
vt 0.758839 0.027566
vt 0.729146 0.001992
vt 0.766176 0.001992
vt 0.795869 0.001992
vt 0.795869 0.356219
vt 0.766176 0.348043
vt 0.766176 0.381794
vt 0.803206 0.001992
vt 0.832899 0.001992
vt 0.832899 0.348043
vt 0.803206 0.356219
vt 0.832899 0.381794
vt 0.169136 0.810907
vt 0.169136 0.779906
vt 0.228610 0.779881
vt 0.228610 0.810932
vt 0.168426 0.729262
vt 0.227939 0.732004
vt 0.227939 0.858808
vt 0.168426 0.861551
vt 0.161580 0.779906
vt 0.161580 0.810907
vt 0.102107 0.810932
vt 0.102107 0.779881
vt 0.162291 0.861551
vt 0.102778 0.858808
vt 0.102778 0.732005
vt 0.162291 0.729262
vt 0.317917 0.867565
vt 0.350244 0.867565
vt 0.372798 0.930621
vt 0.318488 0.929698
vt 0.412611 0.930621
vt 0.380284 0.930621
vt 0.380854 0.868488
vt 0.435165 0.867565
vt 0.497531 0.930621
vt 0.465204 0.930621
vt 0.442650 0.867565
vt 0.496960 0.868488
vt 0.527570 0.867565
vt 0.559898 0.867565
vt 0.559327 0.929698
vt 0.505017 0.930621
vt 0.879215 0.763717
vt 0.879215 0.732716
vt 0.892163 0.739544
vt 0.892163 0.756889
vt 0.931142 0.738968
vt 0.931142 0.769969
vt 0.918194 0.763141
vt 0.918194 0.745796
vn 0.000000 0.648911 0.760864
vn 0.000000 0.648911 0.760864
vn 0.000000 0.648911 0.760864
vn 0.000000 0.648911 0.760864
vn 0.000000 1.000000 0.000000
vn 0.000000 1.000000 0.000000
vn 0.000000 1.000000 0.000000
vn 0.000000 1.000000 0.000000
vn 0.000000 0.648911 -0.760864
vn 0.000000 0.648911 -0.760864
vn 0.000000 0.648911 -0.760864
vn 0.000000 0.648911 -0.760864
vn 0.000000 -1.000000 0.000000
vn 0.000000 -1.000000 0.000000
vn 0.000000 -1.000000 0.000000
vn 0.000000 -1.000000 0.000000
vn 0.771389 0.636364 0.000000
vn 0.771389 0.636364 0.000000
vn 0.771389 0.636364 0.000000
vn 0.771389 0.636364 0.000000
vn -0.771389 0.636364 0.000000
vn -0.771389 0.636364 0.000000
vn -0.771389 0.636364 0.000000
vn -0.771389 0.636364 0.000000
vn 0.000000 -1.000000 0.000000
vn 0.000000 -1.000000 0.000000
vn 0.000000 -1.000000 0.000000
vn 0.000000 -1.000000 0.000000
vn 0.000000 0.000000 -1.000000
vn 0.000000 0.000000 -1.000000
vn 0.000000 0.000000 -1.000000
vn 0.000000 0.000000 -1.000000
vn 0.000000 1.000000 0.000000
vn 0.000000 1.000000 0.000000
vn 0.000000 1.000000 0.000000
vn 0.000000 1.000000 0.000000
vn 0.000000 0.000000 1.000000
vn 0.000000 0.000000 1.000000
vn 0.000000 0.000000 1.000000
vn 0.000000 0.000000 1.000000
vn 0.000000 -1.000000 0.000000
vn 0.000000 -1.000000 0.000000
vn 0.000000 -1.000000 0.000000
vn 0.000000 -1.000000 0.000000
vn 0.000000 0.000000 1.000000
vn 0.000000 0.000000 1.000000
vn 0.000000 0.000000 1.000000
vn 0.000000 0.000000 1.000000
vn 0.000000 1.000000 0.000000
vn 0.000000 1.000000 0.000000
vn 0.000000 1.000000 0.000000
vn 0.000000 1.000000 0.000000
vn 0.000000 0.000000 -1.000000
vn 0.000000 0.000000 -1.000000
vn 0.000000 0.000000 -1.000000
vn 0.000000 0.000000 -1.000000
vn 0.000000 -1.000000 0.000000
vn 0.000000 -1.000000 0.000000
vn 0.000000 -1.000000 0.000000
vn 0.000000 -1.000000 0.000000
vn 1.000000 0.000000 0.000000
vn 1.000000 0.000000 0.000000
vn 1.000000 0.000000 0.000000
vn 1.000000 0.000000 0.000000
vn 0.000000 1.000000 0.000000
vn 0.000000 1.000000 0.000000
vn 0.000000 1.000000 0.000000
vn 0.000000 1.000000 0.000000
vn -1.000000 0.000000 0.000000
vn -1.000000 0.000000 0.000000
vn -1.000000 0.000000 0.000000
vn -1.000000 0.000000 0.000000
vn 0.000000 1.000000 0.000000
vn 0.000000 1.000000 0.000000
vn 0.000000 1.000000 0.000000
vn 0.000000 1.000000 0.000000
vn 1.000000 0.000000 0.000000
vn 1.000000 0.000000 0.000000
vn 1.000000 0.000000 0.000000
vn 1.000000 0.000000 0.000000
vn 0.000000 -1.000000 0.000000
vn 0.000000 -1.000000 0.000000
vn 0.000000 -1.000000 0.000000
vn 0.000000 -1.000000 0.000000
vn -1.000000 0.000000 0.000000
vn -1.000000 0.000000 0.000000
vn -1.000000 0.000000 0.000000
vn -1.000000 0.000000 0.000000
vn 0.000000 -0.999854 -0.017079
vn 0.000000 -0.999854 -0.017079
vn 0.000000 -0.999854 -0.017079
vn 0.000000 -0.999854 -0.017079
vn 1.000000 0.000000 0.000000
vn 1.000000 0.000000 0.000000
vn 1.000000 0.000000 0.000000
vn -1.000000 0.000000 0.000000
vn -1.000000 0.000000 0.000000
vn -1.000000 0.000000 0.000000
vn 1.000000 0.000000 0.000000
vn 1.000000 0.000000 0.000000
vn 1.000000 0.000000 0.000000
vn 0.000000 -0.999854 0.017079
vn 0.000000 -0.999854 0.017079
vn 0.000000 -0.999854 0.017079
vn 0.000000 -0.999854 0.017079
vn -1.000000 0.000000 0.000000
vn -1.000000 0.000000 0.000000
vn -1.000000 0.000000 0.000000
vn -0.016985 -0.999856 0.000000
vn -0.016985 -0.999856 0.000000
vn -0.016985 -0.999856 0.000000
vn -0.016985 -0.999856 0.000000
vn 0.000000 0.000000 -1.000000
vn 0.000000 0.000000 -1.000000
vn 0.000000 0.000000 -1.000000
vn 0.000000 0.000000 1.000000
vn 0.000000 0.000000 1.000000
vn 0.000000 0.000000 1.000000
vn 0.016985 -0.999856 0.000000
vn 0.016985 -0.999856 0.000000
vn 0.016985 -0.999856 0.000000
vn 0.016985 -0.999856 0.000000
vn 0.000000 0.000000 1.000000
vn 0.000000 0.000000 1.000000
vn 0.000000 0.000000 1.000000
vn 0.000000 0.000000 -1.000000
vn 0.000000 0.000000 -1.000000
vn 0.000000 0.000000 -1.000000
vn 0.000000 -0.009453 -0.999955
vn 0.000000 -0.009453 -0.999955
vn 0.000000 -0.009453 -0.999955
vn 0.000000 -0.009453 -0.999955
vn 0.998916 -0.022290 -0.040855
vn 0.998916 -0.022290 -0.040855
vn 0.998916 -0.022290 -0.040855
vn 0.998916 -0.022290 -0.040855
vn 0.000000 0.345638 0.938368
vn 0.000000 0.345638 0.938368
vn 0.000000 0.345638 0.938368
vn 0.000000 0.345638 0.938368
vn -0.998916 -0.022290 -0.040855
vn -0.998916 -0.022290 -0.040855
vn -0.998916 -0.022290 -0.040855
vn -0.998916 -0.022290 -0.040855
vn 0.000000 -0.009453 0.999955
vn 0.000000 -0.009453 0.999955
vn 0.000000 -0.009453 0.999955
vn 0.000000 -0.009453 0.999955
vn -0.998916 -0.022290 0.040855
vn -0.998916 -0.022290 0.040855
vn -0.998916 -0.022290 0.040855
vn -0.998916 -0.022290 0.040855
vn 0.000000 0.345638 -0.938368
vn 0.000000 0.345638 -0.938368
vn 0.000000 0.345638 -0.938368
vn 0.000000 0.345638 -0.938368
vn 0.998916 -0.022290 0.040855
vn 0.998916 -0.022290 0.040855
vn 0.998916 -0.022290 0.040855
vn 0.998916 -0.022290 0.040855
vn -0.999954 -0.009597 0.000000
vn -0.999954 -0.009597 0.000000
vn -0.999954 -0.009597 0.000000
vn -0.999954 -0.009597 0.000000
vn -0.040715 -0.022370 -0.998920
vn -0.040715 -0.022370 -0.998920
vn -0.040715 -0.022370 -0.998920
vn -0.040715 -0.022370 -0.998920
vn 0.936812 0.349834 0.000000
vn 0.936812 0.349834 0.000000
vn 0.936812 0.349833 0.000000
vn 0.936812 0.349833 0.000000
vn -0.040715 -0.022370 0.998920
vn -0.040715 -0.022370 0.998920
vn -0.040715 -0.022370 0.998920
vn -0.040715 -0.022370 0.998920
vn 0.999954 -0.009597 0.000000
vn 0.999954 -0.009597 0.000000
vn 0.999954 -0.009597 0.000000
vn 0.999954 -0.009597 0.000000
vn 0.040715 -0.022370 0.998920
vn 0.040715 -0.022370 0.998920
vn 0.040715 -0.022370 0.998920
vn 0.040715 -0.022370 0.998920
vn -0.936812 0.349834 0.000000
vn -0.936812 0.349834 0.000000
vn -0.936812 0.349833 0.000000
vn -0.936812 0.349833 0.000000
vn 0.040715 -0.022370 -0.998920
vn 0.040715 -0.022370 -0.998920
vn 0.040715 -0.022370 -0.998920
vn 0.040715 -0.022370 -0.998920
vn -0.014641 0.999893 0.000000
vn -0.014641 0.999893 0.000000
vn -0.014641 0.999893 0.000000
vn -0.014641 0.999893 0.000000
vn -0.005060 0.345569 0.938380
vn -0.005060 0.345568 0.938380
vn -0.005060 0.345568 0.938380
vn -0.005060 0.345569 0.938380
vn 0.014639 -0.999743 -0.017311
vn 0.014639 -0.999743 -0.017311
vn 0.014639 -0.999743 -0.017311
vn 0.014639 -0.999743 -0.017311
vn 0.000139 -0.009453 -0.999955
vn 0.000139 -0.009453 -0.999955
vn 0.000139 -0.009453 -0.999955
vn 0.000139 -0.009453 -0.999955
vn 0.014641 0.999893 0.000000
vn 0.014641 0.999893 0.000000
vn 0.014641 0.999893 0.000000
vn 0.014641 0.999893 0.000000
vn -0.000139 -0.009453 -0.999955
vn -0.000139 -0.009453 -0.999955
vn -0.000139 -0.009453 -0.999955
vn -0.000139 -0.009453 -0.999955
vn -0.014639 -0.999743 -0.017310
vn -0.014639 -0.999743 -0.017310
vn -0.014639 -0.999743 -0.017310
vn -0.014639 -0.999743 -0.017310
vn 0.005060 0.345569 0.938380
vn 0.005060 0.345569 0.938380
vn 0.005060 0.345569 0.938380
vn 0.005060 0.345568 0.938380
vn 0.014641 0.999893 0.000000
vn 0.014641 0.999893 0.000000
vn 0.014641 0.999893 0.000000
vn 0.014641 0.999893 0.000000
vn 0.005060 0.345569 -0.938380
vn 0.005060 0.345568 -0.938380
vn 0.005060 0.345568 -0.938380
vn 0.005060 0.345569 -0.938380
vn -0.014639 -0.999743 0.017311
vn -0.014639 -0.999743 0.017311
vn -0.014639 -0.999743 0.017311
vn -0.014639 -0.999743 0.017311
vn -0.000139 -0.009453 0.999955
vn -0.000139 -0.009453 0.999955
vn -0.000139 -0.009453 0.999955
vn -0.000139 -0.009453 0.999955
vn -0.014641 0.999893 0.000000
vn -0.014641 0.999893 0.000000
vn -0.014641 0.999893 0.000000
vn -0.014641 0.999893 0.000000
vn 0.000139 -0.009453 0.999955
vn 0.000139 -0.009453 0.999955
vn 0.000139 -0.009453 0.999955
vn 0.000139 -0.009453 0.999955
vn 0.014639 -0.999743 0.017310
vn 0.014639 -0.999743 0.017310
vn 0.014639 -0.999743 0.017310
vn 0.014639 -0.999743 0.017310
vn -0.005060 0.345569 -0.938380
vn -0.005060 0.345569 -0.938380
vn -0.005060 0.345569 -0.938380
vn -0.005060 0.345568 -0.938380
vn 0.000000 0.999893 0.014641
vn 0.000000 0.999893 0.014641
vn 0.000000 0.999893 0.014641
vn 0.000000 0.999893 0.014641
vn 0.936824 0.349764 0.005121
vn 0.936824 0.349764 0.005121
vn 0.936824 0.349764 0.005121
vn 0.936824 0.349764 0.005121
vn -0.017215 -0.999745 -0.014639
vn -0.017215 -0.999745 -0.014639
vn -0.017215 -0.999745 -0.014639
vn -0.017215 -0.999745 -0.014639
vn -0.999954 -0.009597 -0.000141
vn -0.999954 -0.009597 -0.000141
vn -0.999954 -0.009597 -0.000141
vn -0.999954 -0.009597 -0.000141
vn 0.000000 0.999893 -0.014641
vn 0.000000 0.999893 -0.014641
vn 0.000000 0.999893 -0.014641
vn 0.000000 0.999893 -0.014641
vn -0.999954 -0.009597 0.000141
vn -0.999954 -0.009597 0.000141
vn -0.999954 -0.009597 0.000141
vn -0.999954 -0.009597 0.000141
vn -0.017215 -0.999745 0.014639
vn -0.017215 -0.999745 0.014639
vn -0.017215 -0.999745 0.014639
vn -0.017215 -0.999745 0.014639
vn 0.936824 0.349764 -0.005121
vn 0.936824 0.349764 -0.005121
vn 0.936824 0.349764 -0.005121
vn 0.936824 0.349764 -0.005121
vn 0.000000 0.999893 -0.014641
vn 0.000000 0.999893 -0.014641
vn 0.000000 0.999893 -0.014641
vn 0.000000 0.999893 -0.014641
vn -0.936824 0.349764 -0.005121
vn -0.936824 0.349764 -0.005121
vn -0.936824 0.349764 -0.005121
vn -0.936824 0.349764 -0.005121
vn 0.017215 -0.999745 0.014639
vn 0.017215 -0.999745 0.014639
vn 0.017215 -0.999745 0.014639
vn 0.017215 -0.999745 0.014639
vn 0.999954 -0.009597 0.000141
vn 0.999954 -0.009597 0.000141
vn 0.999954 -0.009597 0.000141
vn 0.999954 -0.009597 0.000141
vn 0.000000 0.999893 0.014641
vn 0.000000 0.999893 0.014641
vn 0.000000 0.999893 0.014641
vn 0.000000 0.999893 0.014641
vn 0.999954 -0.009597 -0.000141
vn 0.999954 -0.009597 -0.000141
vn 0.999954 -0.009597 -0.000141
vn 0.999954 -0.009597 -0.000141
vn 0.017215 -0.999745 -0.014639
vn 0.017215 -0.999745 -0.014639
vn 0.017215 -0.999745 -0.014639
vn 0.017215 -0.999745 -0.014639
vn -0.936824 0.349764 0.005121
vn -0.936824 0.349764 0.005121
vn -0.936824 0.349764 0.005121
vn -0.936824 0.349764 0.005121
vn 0.000000 0.450849 0.892600
vn 0.000000 0.450849 0.892600
vn 0.000000 0.450849 0.892600
vn 0.000000 0.450849 0.892600
vn 0.892600 0.450849 0.000000
vn 0.892600 0.450849 0.000000
vn 0.892600 0.450849 0.000000
vn 0.892600 0.450849 0.000000
vn 0.000000 0.450849 -0.892600
vn 0.000000 0.450849 -0.892600
vn 0.000000 0.450849 -0.892600
vn 0.000000 0.450849 -0.892600
vn -0.892600 0.450849 0.000000
vn -0.892600 0.450849 0.000000
vn -0.892600 0.450849 0.000000
vn -0.892600 0.450849 0.000000
s off
g pCube5
usemtl initialShadingGroup
f 25/177/1 26/178/2 19/179/3 20/180/4
f 81/81/5 82/82/6 83/83/7 84/84/8
f 21/187/9 22/188/10 27/189/11 28/190/12
f 7/85/13 8/86/14 2/87/15 1/88/16
f 30/1/17 29/2/18 11/3/19 12/4/20
f 31/11/21 32/12/22 15/13/23 16/14/24
f 2/87/25 8/86/26 9/91/27 10/92/28
f 8/197/29 6/198/30 11/199/31 9/200/32
f 6/97/33 4/98/34 12/99/35 11/100/36
f 4/202/37 2/203/38 10/204/39 12/205/40
f 7/85/41 1/88/42 14/95/43 13/96/44
f 1/207/45 3/208/46 15/209/47 14/210/48
f 3/101/49 5/102/50 16/103/51 15/104/52
f 5/212/53 7/213/54 13/214/55 16/215/56
f 1/88/57 2/87/58 18/93/59 17/94/60
f 2/21/61 4/22/62 19/23/63 18/24/64
f 4/105/65 3/106/66 20/107/67 19/108/68
f 3/26/69 1/27/70 17/28/71 20/29/72
f 5/109/73 6/110/74 22/111/75 21/112/76
f 6/31/77 8/32/78 23/33/79 22/34/80
f 8/86/81 7/85/82 24/89/83 23/90/84
f 7/36/85 5/37/86 21/38/87 24/39/88
f 33/113/89 34/114/90 35/115/91 36/116/92
f 18/24/93 19/23/94 26/25/95
f 20/29/96 17/28/97 25/30/98
f 22/34/99 23/33/100 27/35/101
f 38/121/102 37/122/103 39/123/104 40/124/105
f 24/39/106 21/38/107 28/40/108
f 42/129/109 41/130/110 43/131/111 44/132/112
f 9/200/113 11/199/114 29/201/115
f 12/205/116 10/204/117 30/206/118
f 45/137/119 46/138/120 47/139/121 48/140/122
f 14/210/123 15/209/124 32/211/125
f 16/215/126 13/214/127 31/216/128
f 17/217/129 18/218/130 34/219/131 33/220/132
f 49/41/133 50/42/134 51/43/135 52/44/136
f 26/178/137 25/177/138 36/181/139 35/182/140
f 54/45/141 53/46/142 55/47/143 56/48/144
f 23/225/145 24/226/146 37/227/147 38/228/148
f 57/49/149 58/50/150 59/51/151 60/52/152
f 28/190/153 27/189/154 40/191/155 39/192/156
f 62/53/157 61/54/158 63/55/159 64/56/160
f 10/57/161 9/58/162 41/59/163 42/60/164
f 65/233/165 66/234/166 67/235/167 68/236/168
f 29/2/169 30/1/170 44/5/171 43/6/172
f 70/237/173 69/238/174 71/239/175 72/240/176
f 13/65/177 14/66/178 46/67/179 45/68/180
f 73/241/181 74/242/182 75/243/183 76/244/184
f 32/12/185 31/11/186 48/15/187 47/16/188
f 78/245/189 77/246/190 79/247/191 80/248/192
f 18/145/193 26/146/194 50/147/195 49/148/196
f 26/178/197 35/182/198 51/185/199 50/186/200
f 35/115/201 34/114/202 52/117/203 51/118/204
f 34/219/205 18/218/206 49/221/207 52/222/208
f 25/149/209 17/150/210 53/151/211 54/152/212
f 17/217/213 33/220/214 55/223/215 53/224/216
f 33/113/217 36/116/218 56/119/219 55/120/220
f 36/181/221 25/177/222 54/183/223 56/184/224
f 24/153/225 28/154/226 58/155/227 57/156/228
f 28/190/229 39/192/230 59/195/231 58/196/232
f 39/123/233 37/122/234 60/125/235 59/126/236
f 37/227/237 24/226/238 57/229/239 60/230/240
f 27/157/241 23/158/242 61/159/243 62/160/244
f 23/225/245 38/228/246 63/231/247 61/232/248
f 38/121/249 40/124/250 64/127/251 63/128/252
f 40/191/253 27/189/254 62/193/255 64/194/256
f 9/161/257 29/162/258 66/163/259 65/164/260
f 29/2/261 43/6/262 67/9/263 66/10/264
f 43/131/265 41/130/266 68/133/267 67/134/268
f 41/59/269 9/58/270 65/61/271 68/62/272
f 30/165/273 10/166/274 69/167/275 70/168/276
f 10/57/277 42/60/278 71/63/279 69/64/280
f 42/129/281 44/132/282 72/135/283 71/136/284
f 44/5/285 30/1/286 70/7/287 72/8/288
f 14/169/289 32/170/290 74/171/291 73/172/292
f 32/12/293 47/16/294 75/19/295 74/20/296
f 47/139/297 46/138/298 76/141/299 75/142/300
f 46/67/301 14/66/302 73/69/303 76/70/304
f 31/173/305 13/174/306 77/175/307 78/176/308
f 13/65/309 45/68/310 79/71/311 77/72/312
f 45/137/313 48/140/314 80/143/315 79/144/316
f 48/15/317 31/11/318 78/17/319 80/18/320
f 3/249/321 4/250/322 82/251/323 81/252/324
f 4/73/325 6/74/326 83/75/327 82/76/328
f 6/253/329 5/254/330 84/255/331 83/256/332
f 5/77/333 3/78/334 81/79/335 84/80/336
