# This file uses centimeters as units for non-parametric coordinates.

mtllib CrossBaseA.mtl
g default
v -0.675222 0.077221 0.675222
v -0.410594 0.072975 0.707157
v 0.410594 0.072975 0.707157
v 0.675222 0.077221 0.675222
v -0.707157 0.072975 0.398282
v 0.000000 0.072975 -0.000000
v 0.707157 0.072975 0.398282
v -0.707157 0.072975 -0.398282
v 0.707157 0.072975 -0.398282
v -0.675222 0.077221 -0.675222
v -0.410594 0.072975 -0.707157
v 0.410594 0.072975 -0.707157
v 0.675222 0.077221 -0.675222
v -0.410594 -0.227650 -0.398282
v 0.410594 -0.227650 -0.398282
v -0.410594 -0.227650 0.398282
v 0.410594 -0.227650 0.398282
v 0.286787 0.072975 1.489204
v -0.286787 0.072975 1.489204
v -0.286787 0.072975 -1.489204
v 0.286787 0.072975 -1.489204
v 1.489204 0.072975 -0.316102
v 1.489204 0.072975 0.316102
v -1.489204 0.072975 0.316102
v -1.489204 0.072975 -0.316102
v -0.635035 -0.298251 0.635246
v -0.675222 -0.251961 0.675222
v -0.410594 -0.246150 0.707157
v -0.365552 -0.290924 0.662050
v 0.365552 -0.290924 0.662050
v 0.410594 -0.246150 0.707157
v 0.675222 -0.251961 0.675222
v 0.635035 -0.298251 0.635246
v -0.675222 -0.251961 -0.675222
v -0.635035 -0.298251 -0.635246
v -0.365552 -0.290924 -0.662050
v -0.410594 -0.246150 -0.707157
v 0.410594 -0.246150 -0.707157
v 0.365552 -0.290924 -0.662050
v 0.635035 -0.298251 -0.635246
v 0.675222 -0.251961 -0.675222
v -0.707157 -0.245510 -0.398282
v -0.661991 -0.290460 -0.351004
v 0.661991 -0.290460 -0.351004
v 0.707157 -0.245510 -0.398282
v -0.661991 -0.290460 0.351004
v -0.707157 -0.245510 0.398282
v 0.707157 -0.245510 0.398282
v 0.661991 -0.290460 0.351004
v -0.247460 -0.084120 1.451104
v -0.286787 -0.030910 1.489204
v 0.247460 -0.084120 1.451104
v 0.286787 -0.030275 1.489204
v 0.286787 -0.030275 -1.489204
v 0.247460 -0.084120 -1.451104
v -0.247460 -0.084120 -1.451104
v -0.286787 -0.030275 -1.489204
v 1.451112 -0.084118 -0.274715
v 1.489204 -0.030097 -0.316102
v 1.451112 -0.084118 0.274715
v 1.489204 -0.030772 0.316102
v -1.451112 -0.084118 -0.274715
v -1.489204 -0.030772 -0.316102
v -1.451112 -0.084118 0.274715
v -1.489204 -0.030097 0.316102
vt 0.001992 0.607334
vt 0.011107 0.600825
vt 0.010993 0.700250
vt 0.001992 0.693741
vt 0.028497 0.600825
vt 0.028497 0.700250
vt 0.044320 0.700250
vt 0.035319 0.693741
vt 0.035319 0.607334
vt 0.044434 0.600825
vt 0.061825 0.600825
vt 0.061825 0.700250
vt 0.345203 0.601840
vt 0.391929 0.600825
vt 0.391929 0.652595
vt 0.345203 0.651927
vt 0.399773 0.600825
vt 0.446500 0.601840
vt 0.446500 0.651927
vt 0.399773 0.652595
vt 0.454344 0.946239
vt 0.501070 0.947253
vt 0.501070 0.997340
vt 0.454344 0.998008
vt 0.508915 0.947253
vt 0.555641 0.946239
vt 0.555641 0.998008
vt 0.508914 0.997340
vt 0.435499 0.474115
vt 0.489343 0.474115
vt 0.489343 0.597105
vt 0.471922 0.597105
vt 0.429363 0.597105
vt 0.375519 0.597105
vt 0.411836 0.474115
vt 0.429363 0.474115
vt 0.369384 0.597105
vt 0.315540 0.597105
vt 0.351963 0.474115
vt 0.369384 0.474115
vt 0.255560 0.474115
vt 0.309405 0.474115
vt 0.309405 0.597105
vt 0.291984 0.597105
vt 0.139331 0.130004
vt 0.183980 0.124982
vt 0.253257 0.236194
vt 0.133942 0.173557
vt 0.322534 0.124982
vt 0.133942 0.298830
vt 0.204869 0.001992
vt 0.301645 0.001992
vt 0.367183 0.130004
vt 0.372572 0.173557
vt 0.183980 0.347405
vt 0.139331 0.342383
vt 0.001992 0.285906
vt 0.001992 0.186481
vt 0.372572 0.298830
vt 0.322534 0.347405
vt 0.504522 0.186481
vt 0.504522 0.285906
vt 0.367183 0.342383
vt 0.301645 0.470395
vt 0.204869 0.470395
vt 0.677466 0.645681
vt 0.816020 0.645681
vt 0.816020 0.770953
vt 0.677466 0.770953
vt 0.685066 0.604199
vt 0.808420 0.604199
vt 0.858437 0.653116
vt 0.858437 0.763518
vt 0.808420 0.812435
vt 0.685066 0.812435
vt 0.635049 0.653116
vt 0.635049 0.763518
vt 0.704991 0.480107
vt 0.788496 0.480107
vt 0.853889 0.608414
vt 0.639597 0.608414
vt 0.991581 0.665114
vt 0.991581 0.751520
vt 0.853889 0.808220
vt 0.788496 0.936527
vt 0.704991 0.936527
vt 0.639597 0.808220
vt 0.501905 0.751520
vt 0.501905 0.665114
vt 0.677466 0.597105
vt 0.698355 0.474115
vt 0.816020 0.597105
vt 0.795131 0.474115
vt 0.860669 0.602127
vt 0.866058 0.645681
vt 0.632817 0.602127
vt 0.627428 0.645681
vt 0.998008 0.658605
vt 0.866058 0.770953
vt 0.998008 0.758029
vt 0.860669 0.814507
vt 0.816020 0.819529
vt 0.795131 0.942519
vt 0.677466 0.819529
vt 0.698355 0.942519
vt 0.632817 0.814507
vt 0.627428 0.770953
vt 0.495478 0.758029
vt 0.495478 0.658605
vt 0.077429 0.691029
vt 0.068451 0.684844
vt 0.068451 0.607010
vt 0.077536 0.600825
vt 0.094957 0.600825
vt 0.094957 0.691029
vt 0.119004 0.600825
vt 0.128089 0.607010
vt 0.128089 0.684844
vt 0.119004 0.691029
vt 0.101583 0.691029
vt 0.101583 0.600825
vt 0.134716 0.600825
vt 0.179365 0.601739
vt 0.179365 0.651927
vt 0.134716 0.652595
vt 0.187337 0.601739
vt 0.231987 0.600826
vt 0.231987 0.652595
vt 0.187337 0.651927
vt 0.239959 0.600826
vt 0.284608 0.601493
vt 0.284608 0.651681
vt 0.239959 0.652595
vt 0.292581 0.601493
vt 0.337230 0.600825
vt 0.337230 0.652595
vt 0.292581 0.651681
vt 0.249425 0.597105
vt 0.195689 0.597105
vt 0.195689 0.474116
vt 0.213080 0.474116
vt 0.189554 0.597105
vt 0.135818 0.597105
vt 0.172049 0.474115
vt 0.189554 0.474115
vt 0.075946 0.474115
vt 0.129682 0.474115
vt 0.129682 0.597105
vt 0.112292 0.597105
vt 0.016075 0.474115
vt 0.069811 0.474115
vt 0.033579 0.597105
vt 0.016075 0.597105
vn 0.003208 0.999990 -0.003080
vn 0.000877 0.999999 -0.000842
vn -0.000000 1.000000 0.000000
vn 0.000850 0.999999 -0.000816
vn -0.000877 0.999999 -0.000842
vn -0.003208 0.999990 -0.003080
vn -0.000849 0.999999 -0.000816
vn 0.000850 0.999999 0.000816
vn -0.000849 0.999999 0.000816
vn 0.000877 0.999999 0.000842
vn 0.003208 0.999990 0.003080
vn -0.000877 0.999999 0.000842
vn -0.003208 0.999990 0.003080
vn 0.050038 -0.997407 0.051717
vn -0.050038 -0.997407 0.051717
vn -0.050038 -0.997407 -0.051717
vn 0.050038 -0.997407 -0.051717
vn 0.000000 1.000000 -0.000000
vn 0.000000 1.000000 -0.000000
vn 0.000000 1.000000 0.000000
vn 0.000000 1.000000 0.000000
vn 0.000000 1.000000 0.000000
vn 0.000000 1.000000 0.000000
vn 0.000000 1.000000 0.000000
vn 0.000000 1.000000 0.000000
vn -0.702033 -0.709966 0.055656
vn -0.989466 -0.093193 0.110780
vn -0.981112 -0.160885 0.107404
vn -0.702033 -0.709966 0.055656
vn -0.116089 -0.092552 0.988917
vn -0.059605 -0.710711 0.700955
vn -0.059605 -0.710711 0.700955
vn -0.112792 -0.158698 0.980863
vn -0.933281 -0.281903 0.222524
vn -0.587205 -0.754511 0.293094
vn -0.587205 -0.754511 0.293094
vn -0.977274 -0.106881 0.183064
vn 0.590074 -0.752218 0.293224
vn 0.933272 -0.281859 0.222617
vn 0.977247 -0.107009 0.183134
vn 0.590074 -0.752218 0.293224
vn 0.112792 -0.158698 0.980863
vn 0.059605 -0.710710 0.700955
vn 0.059605 -0.710710 0.700955
vn 0.116089 -0.092552 0.988917
vn 0.989466 -0.093193 0.110780
vn 0.702033 -0.709966 0.055655
vn 0.702033 -0.709966 0.055655
vn 0.981112 -0.160885 0.107404
vn -0.989466 -0.093193 -0.110780
vn -0.702033 -0.709966 -0.055655
vn -0.702033 -0.709966 -0.055655
vn -0.981112 -0.160885 -0.107404
vn -0.059605 -0.710711 -0.700955
vn -0.116089 -0.092552 -0.988917
vn -0.112792 -0.158698 -0.980863
vn -0.059605 -0.710711 -0.700955
vn -0.590074 -0.752218 -0.293224
vn -0.933272 -0.281859 -0.222617
vn -0.977247 -0.107009 -0.183134
vn -0.590074 -0.752218 -0.293224
vn 0.933272 -0.281859 -0.222617
vn 0.590074 -0.752218 -0.293224
vn 0.590074 -0.752218 -0.293224
vn 0.977247 -0.107009 -0.183134
vn 0.059605 -0.710710 -0.700955
vn 0.112792 -0.158698 -0.980863
vn 0.116089 -0.092552 -0.988917
vn 0.059605 -0.710710 -0.700955
vn 0.702033 -0.709966 -0.055655
vn 0.989466 -0.093193 -0.110780
vn 0.981112 -0.160885 -0.107404
vn 0.702033 -0.709966 -0.055655
vn -0.174918 -0.286907 -0.941854
vn -0.263548 -0.759590 -0.594614
vn -0.263548 -0.759590 -0.594614
vn -0.131485 -0.105418 -0.985697
vn 0.263534 -0.757167 -0.597702
vn 0.175019 -0.286855 -0.941851
vn 0.131563 -0.105565 -0.985671
vn 0.263534 -0.757167 -0.597702
vn -0.263535 -0.757167 0.597702
vn -0.175019 -0.286855 0.941851
vn -0.131563 -0.105564 0.985671
vn -0.263535 -0.757167 0.597702
vn 0.174918 -0.286907 0.941854
vn 0.263547 -0.759590 0.594614
vn 0.263547 -0.759590 0.594614
vn 0.131485 -0.105418 0.985697
vn 0.000100 -0.168503 0.985701
vn 0.000344 -0.579891 0.814694
vn 0.000344 -0.579891 0.814694
vn 0.000100 -0.168528 0.985697
vn 0.000000 -0.168873 -0.985638
vn 0.000000 -0.577616 -0.816309
vn 0.000000 -0.577616 -0.816309
vn 0.000000 -0.168873 -0.985638
vn 0.815549 -0.578687 -0.000330
vn 0.986068 -0.166344 -0.000095
vn 0.986081 -0.166264 -0.000095
vn 0.815549 -0.578687 -0.000330
vn -0.986081 -0.166264 0.000095
vn -0.815549 -0.578687 0.000330
vn -0.815549 -0.578687 0.000330
vn -0.986068 -0.166344 0.000095
vn -0.119811 0.000000 0.992797
vn -0.119811 0.000000 0.992797
vn 0.000000 0.000000 1.000000
vn 0.000000 0.000000 1.000000
vn 0.119811 0.000000 0.992797
vn 0.119811 0.000000 0.992797
vn -0.119811 0.000000 -0.992797
vn -0.119811 0.000000 -0.992797
vn 0.000000 0.000000 -1.000000
vn 0.000000 0.000000 -1.000000
vn 0.119811 0.000000 -0.992797
vn 0.119811 0.000000 -0.992797
vn 0.152476 -0.977348 0.146773
vn 0.012608 -0.997343 -0.071744
vn -0.081474 -0.996604 0.011889
vn -0.012608 -0.997343 -0.071744
vn -0.152476 -0.977348 0.146774
vn 0.081474 -0.996605 0.011889
vn -0.081474 -0.996604 -0.011889
vn 0.081474 -0.996605 -0.011889
vn 0.012608 -0.997343 0.071744
vn 0.152476 -0.977348 -0.146773
vn -0.012608 -0.997343 0.071744
vn -0.152476 -0.977348 -0.146774
vn 0.993417 0.000000 -0.114556
vn 0.993417 0.000000 -0.114556
vn 1.000000 0.000000 0.000000
vn 1.000000 0.000000 0.000000
vn 0.993417 0.000000 0.114556
vn 0.993417 0.000000 0.114556
vn -0.993417 0.000000 -0.114556
vn -0.993417 0.000000 -0.114556
vn -1.000000 0.000000 0.000000
vn -1.000000 0.000000 0.000000
vn -0.993417 0.000000 0.114556
vn -0.993417 0.000000 0.114556
vn 0.000000 -0.967328 0.253527
vn 0.000000 -0.967328 0.253527
vn 0.987699 0.000000 0.156365
vn 0.987699 0.000000 0.156365
vn -0.987699 0.000000 0.156365
vn -0.987699 0.000000 0.156365
vn 0.987699 0.000000 -0.156365
vn 0.987699 0.000000 -0.156365
vn 0.000000 -0.967328 -0.253527
vn 0.000000 -0.967328 -0.253527
vn -0.987699 0.000000 -0.156365
vn -0.987699 0.000000 -0.156365
vn 0.252977 -0.967472 0.000000
vn 0.252977 -0.967472 0.000000
vn 0.104508 -0.000000 -0.994524
vn 0.104508 -0.000000 -0.994524
vn 0.104508 0.000000 0.994524
vn 0.104508 0.000000 0.994524
vn -0.252978 -0.967472 0.000000
vn -0.252978 -0.967472 0.000000
vn -0.104508 0.000000 0.994524
vn -0.104508 0.000000 0.994524
vn -0.104508 -0.000000 -0.994524
vn -0.104508 -0.000000 -0.994524
s 1
g pCube14
usemtl initialShadingGroup
f 1/45/1 2/46/2 6/47/3 5/48/4
f 2/46/2 3/49/5 6/47/3
f 3/49/5 4/53/6 7/54/7 6/47/3
f 5/48/4 6/47/3 8/50/8
f 6/47/3 7/54/7 9/59/9
f 8/50/8 6/47/3 11/55/10 10/56/11
f 6/47/3 12/60/12 11/55/10
f 6/47/3 9/59/9 13/63/13 12/60/12
s 2
f 14/66/14 15/67/15 17/68/16 16/69/17
s 1
f 3/49/5 2/46/2 19/51/18 18/52/19
f 11/55/10 12/60/12 21/64/20 20/65/21
f 9/59/9 7/54/7 23/61/22 22/62/23
f 5/48/4 8/50/8 25/57/24 24/58/25
s 3
f 26/87/26 27/106/27 47/107/28 46/77/29
s 4
f 27/106/30 26/87/31 29/75/32 28/104/33
s 5
f 28/104/34 29/75/35 50/86/36 51/105/37
s 6
f 30/74/38 31/102/39 53/103/40 52/85/41
s 7
f 31/102/42 30/74/43 33/84/44 32/101/45
s 8
f 32/101/46 33/84/47 49/73/48 48/99/49
s 9
f 34/96/50 35/81/51 43/76/52 42/97/53
s 10
f 35/81/54 34/96/55 37/90/56 36/70/57
s 11
f 36/70/58 37/90/59 57/91/60 56/78/61
s 12
f 38/92/62 39/71/63 55/79/64 54/93/65
s 13
f 39/71/66 38/92/67 41/94/68 40/80/69
s 14
f 40/80/70 41/94/71 45/95/72 44/72/73
s 15
f 42/97/74 43/76/75 62/89/76 63/109/77
s 16
f 44/72/78 45/95/79 59/98/80 58/82/81
s 17
f 46/77/82 47/107/83 65/108/84 64/88/85
s 18
f 48/99/86 49/73/87 60/83/88 61/100/89
s 19
f 51/110/90 50/111/91 52/112/92 53/113/93
s 20
f 54/116/94 55/117/95 56/118/96 57/119/97
s 21
f 58/1/98 59/2/99 61/3/100 60/4/101
s 22
f 63/7/102 62/8/103 64/9/104 65/10/105
s 4
f 27/122/30 28/123/33 2/124/106 1/125/107
s 19
f 51/110/90 53/113/93 18/114/108 19/115/109
s 7
f 31/126/42 32/127/45 4/128/110 3/129/111
s 10
f 10/130/112 11/131/113 37/132/56 34/133/55
s 20
f 20/120/114 21/121/115 54/116/94 57/119/97
s 13
f 12/134/116 13/135/117 41/136/68 38/137/67
s 2
f 35/81/118 36/70/119 14/66/14 43/76/120
f 36/70/119 39/71/121 15/67/15 14/66/14
f 39/71/121 40/80/122 44/72/123 15/67/15
f 43/76/120 14/66/14 16/69/17 46/77/124
f 15/67/15 44/72/123 49/73/125 17/68/16
f 46/77/124 16/69/17 29/75/126 26/87/127
f 16/69/17 17/68/16 30/74/128 29/75/126
f 17/68/16 49/73/125 33/84/129 30/74/128
s 14
f 45/13/72 41/14/71 13/15/130 9/16/131
s 21
f 61/3/100 59/2/99 22/5/132 23/6/133
s 8
f 32/17/46 48/18/49 7/19/134 4/20/135
s 9
f 34/21/50 42/22/53 8/23/136 10/24/137
s 22
f 63/7/102 65/10/105 24/11/138 25/12/139
s 3
f 47/25/28 27/26/27 1/27/140 5/28/141
s 2
f 29/75/126 30/74/128 52/85/142 50/86/143
s 6
f 31/29/39 3/30/144 18/31/145 53/32/40
s 5
f 2/33/146 28/34/34 51/35/37 19/36/147
s 12
f 12/37/148 38/38/62 54/39/65 21/40/149
s 2
f 39/71/121 36/70/119 56/78/150 55/79/151
s 11
f 37/41/59 11/42/152 20/43/153 57/44/60
s 2
f 49/73/125 44/72/123 58/82/154 60/83/155
s 16
f 45/138/79 9/139/156 22/140/157 59/141/80
s 18
f 7/142/158 48/143/86 61/144/89 23/145/159
s 2
f 43/76/120 46/77/124 64/88/160 62/89/161
s 17
f 47/146/83 5/147/162 24/148/163 65/149/84
s 15
f 8/150/164 42/151/74 63/152/77 25/153/165
