# This file uses centimeters as units for non-parametric coordinates.

mtllib HexTubeA.mtl
g default
v 0.399277 -1.641724 -0.691567
v -0.399276 -1.641724 -0.691568
v -0.798553 -1.641724 -0.000000
v -0.399277 -1.641724 0.691567
v 0.399277 -1.641724 0.691567
v 0.798553 -1.641724 0.000000
v 0.500000 -1.262591 -0.866025
v -0.500000 -1.262591 -0.866026
v -1.000000 -1.262591 -0.000000
v -0.500000 -1.262591 0.866025
v 0.500000 -1.262591 0.866025
v 1.000000 -1.262591 0.000000
v 0.000000 -1.840672 0.000000
v 0.399277 1.641724 -0.691567
v -0.399276 1.641724 -0.691568
v -0.798553 1.641724 -0.000000
v -0.399277 1.641724 0.691567
v 0.399277 1.641724 0.691567
v 0.798553 1.641724 0.000000
v 0.500000 1.262591 -0.866025
v -0.500000 1.262591 -0.866026
v -1.000000 1.262591 -0.000000
v -0.500000 1.262591 0.866025
v 0.500000 1.262591 0.866025
v 1.000000 1.262591 0.000000
v -0.000000 1.840672 0.000000
vt 0.218488 0.001992
vt 0.341974 0.001992
vt 0.341974 0.079012
vt 0.187337 0.079012
vt 0.465459 0.001992
vt 0.496610 0.079012
vt 0.341974 0.591998
vt 0.187337 0.591998
vt 0.496610 0.591998
vt 0.218488 0.669018
vt 0.341974 0.669018
vt 0.465459 0.669018
vt 0.719887 0.001992
vt 0.843372 0.001992
vt 0.843372 0.079012
vt 0.688736 0.079012
vt 0.966857 0.001992
vt 0.998008 0.079012
vt 0.843372 0.591998
vt 0.688736 0.591998
vt 0.998008 0.591998
vt 0.719887 0.669018
vt 0.843372 0.669018
vt 0.966857 0.669018
vt 0.435630 0.916896
vt 0.435630 0.754671
vt 0.559116 0.835783
vt 0.559116 0.673559
vt 0.559115 0.998008
vt 0.682601 0.754671
vt 0.682601 0.916896
vt 0.429495 0.916896
vt 0.306010 0.835783
vt 0.429495 0.754671
vt 0.306010 0.998008
vt 0.306010 0.673559
vt 0.182525 0.916896
vt 0.182525 0.754671
vt 0.162565 0.669018
vt 0.019977 0.669018
vt 0.001992 0.591998
vt 0.180550 0.591998
vt 0.001992 0.079012
vt 0.180550 0.079012
vt 0.162565 0.001992
vt 0.019977 0.001992
vt 0.521053 0.001992
vt 0.663641 0.001992
vt 0.681626 0.079012
vt 0.503068 0.079012
vt 0.681626 0.591998
vt 0.503068 0.591998
vt 0.521053 0.669018
vt 0.663641 0.669018
vn 0.441542 -0.469214 -0.764774
vn -0.441542 -0.469214 -0.764774
vn -0.441542 -0.469214 -0.764774
vn 0.441542 -0.469214 -0.764774
vn -0.883085 -0.469214 -0.000000
vn -0.883085 -0.469214 -0.000000
vn -0.441542 -0.469214 0.764774
vn -0.441543 -0.469214 0.764774
vn 0.441542 -0.469214 0.764774
vn 0.441542 -0.469214 0.764774
vn 0.883085 -0.469214 0.000000
vn 0.883085 -0.469214 0.000000
vn 0.000000 -0.961024 -0.276465
vn 0.000000 -0.961024 -0.276465
vn 0.000000 -0.961024 -0.276465
vn -0.239426 -0.961024 -0.138232
vn -0.239426 -0.961024 -0.138232
vn -0.239426 -0.961024 -0.138232
vn -0.239426 -0.961024 0.138232
vn -0.239426 -0.961024 0.138232
vn -0.239426 -0.961024 0.138232
vn -0.000000 -0.961024 0.276465
vn -0.000000 -0.961024 0.276465
vn -0.000000 -0.961024 0.276465
vn 0.239426 -0.961024 0.138232
vn 0.239426 -0.961024 0.138232
vn 0.239426 -0.961024 0.138232
vn 0.239426 -0.961024 -0.138232
vn 0.239426 -0.961024 -0.138232
vn 0.239426 -0.961024 -0.138232
vn 0.500000 0.000000 -0.866025
vn -0.500000 0.000000 -0.866026
vn -0.500000 0.000000 -0.866026
vn 0.500000 0.000000 -0.866025
vn -1.000000 0.000000 -0.000000
vn -1.000000 0.000000 -0.000000
vn -0.500000 0.000000 0.866025
vn -0.500000 0.000000 0.866025
vn 0.500000 0.000000 0.866026
vn 0.500000 0.000000 0.866026
vn 1.000000 0.000000 0.000000
vn 1.000000 0.000000 0.000000
vn 0.441543 0.469214 -0.764774
vn 0.441543 0.469214 -0.764774
vn -0.441542 0.469214 -0.764774
vn -0.441542 0.469214 -0.764774
vn -0.883085 0.469214 -0.000000
vn -0.883085 0.469214 -0.000000
vn -0.441542 0.469214 0.764774
vn -0.441542 0.469214 0.764774
vn 0.441542 0.469214 0.764774
vn 0.441542 0.469214 0.764774
vn 0.883085 0.469214 0.000000
vn 0.883085 0.469214 0.000000
vn 0.000000 0.961024 -0.276464
vn 0.000000 0.961024 -0.276464
vn 0.000000 0.961024 -0.276464
vn -0.239426 0.961024 -0.138233
vn -0.239426 0.961024 -0.138233
vn -0.239426 0.961024 -0.138233
vn -0.239426 0.961024 0.138233
vn -0.239426 0.961024 0.138233
vn -0.239426 0.961024 0.138233
vn -0.000000 0.961024 0.276465
vn -0.000000 0.961024 0.276465
vn -0.000000 0.961024 0.276465
vn 0.239426 0.961024 0.138233
vn 0.239426 0.961024 0.138233
vn 0.239426 0.961024 0.138233
vn 0.239426 0.961024 -0.138233
vn 0.239426 0.961024 -0.138233
vn 0.239426 0.961024 -0.138233
s 1
g pSphere2
usemtl initialShadingGroup
f 1/39/1 2/40/2 8/41/3 7/42/4
f 2/1/2 3/2/5 9/3/6 8/4/3
f 3/2/5 4/5/7 10/6/8 9/3/6
f 4/47/7 5/48/9 11/49/10 10/50/8
f 5/13/9 6/14/11 12/15/12 11/16/10
f 6/14/11 1/17/1 7/18/4 12/15/12
s off
f 2/25/13 1/26/14 13/27/15
f 3/29/16 2/25/17 13/27/18
f 4/31/19 3/29/20 13/27/21
f 5/30/22 4/31/23 13/27/24
f 6/28/25 5/30/26 13/27/27
f 1/26/28 6/28/29 13/27/30
s 2
f 7/42/31 8/41/32 21/43/33 20/44/34
f 8/4/32 9/3/35 22/7/36 21/8/33
f 9/3/35 10/6/37 23/9/38 22/7/36
f 10/50/37 11/49/39 24/51/40 23/52/38
f 11/16/39 12/15/41 25/19/42 24/20/40
f 12/15/41 7/18/31 20/21/34 25/19/42
s 3
f 14/45/43 20/44/44 21/43/45 15/46/46
f 15/10/46 21/8/45 22/7/47 16/11/48
f 16/11/48 22/7/47 23/9/49 17/12/50
f 17/53/50 23/52/49 24/51/51 18/54/52
f 18/22/52 24/20/51 25/19/53 19/23/54
f 19/23/54 25/19/53 20/21/44 14/24/43
s off
f 15/32/55 26/33/56 14/34/57
f 16/35/58 26/33/59 15/32/60
f 17/37/61 26/33/62 16/35/63
f 18/38/64 26/33/65 17/37/66
f 19/36/67 26/33/68 18/38/69
f 14/34/70 26/33/71 19/36/72
