# This file uses centimeters as units for non-parametric coordinates.

mtllib MoniterA.mtl
g default
v -3.265017 0.776077 0.081538
v -2.909123 1.131970 0.081538
v -3.265017 0.776077 -0.081538
v -2.909123 1.131970 -0.081538
v 2.909123 1.131970 0.081538
v 3.265017 0.776077 0.081538
v 3.265017 0.776077 -0.081538
v 2.909123 1.131970 -0.081538
v -2.909123 -1.902411 0.081538
v -3.265017 -1.546518 0.081538
v -3.265017 -1.546518 -0.081538
v -2.909123 -1.902411 -0.081538
v 3.265017 -1.546518 0.081538
v 2.909123 -1.902411 0.081538
v 2.909123 -1.902411 -0.081538
v 3.265017 -1.546518 -0.081538
v 2.909123 -1.546518 -0.081538
v -2.909123 -1.546518 -0.081538
v -2.909123 0.776077 -0.081538
v 2.909123 0.776077 -0.081538
v 2.909123 0.776077 0.081538
v -2.909121 0.776077 0.081538
v -2.909123 -1.546518 0.081538
v 2.909123 -1.546518 0.081538
v 2.909123 -1.546518 0.019395
v -2.909123 -1.546518 0.019395
v -2.909123 0.776077 0.019395
v 2.909123 0.776077 0.019395
v 3.313416 -1.581791 0.003381
v 3.313416 0.793777 0.003381
v 2.952247 1.157788 0.003381
v -2.952247 1.157788 0.003381
v -3.313416 0.793777 0.003381
v -3.313416 -1.581791 0.003381
v -2.952247 -1.945801 0.003381
v 2.952247 -1.945801 0.003381
vt 0.968867 0.006287
vt 0.976832 0.001992
vt 0.976832 0.291246
vt 0.968867 0.289091
vt 0.985486 0.006287
vt 0.985486 0.289091
vt 0.968867 0.332426
vt 0.976832 0.335569
vt 0.985486 0.332426
vt 0.990043 0.340338
vt 0.998008 0.344633
vt 0.998008 0.627437
vt 0.990043 0.629593
vt 0.998008 0.670772
vt 0.990043 0.673915
vt 0.981389 0.344633
vt 0.981389 0.627437
vt 0.981389 0.670772
vt 0.975254 0.715204
vt 0.975254 0.998008
vt 0.964967 0.998008
vt 0.964967 0.715204
vt 0.948546 0.998008
vt 0.948546 0.715204
vt 0.958832 0.715204
vt 0.958832 0.998008
vt 0.651357 0.720936
vt 0.643392 0.715685
vt 0.643392 0.007243
vt 0.651357 0.001992
vt 0.660011 0.715685
vt 0.660011 0.007243
vt 0.683399 0.715686
vt 0.675434 0.720936
vt 0.675434 0.001992
vt 0.683399 0.007243
vt 0.666780 0.715686
vt 0.666780 0.007243
vt 0.944072 0.001992
vt 0.944072 0.710435
vt 0.933786 0.710435
vt 0.933786 0.001992
vt 0.951327 0.710435
vt 0.951327 0.001992
vt 0.961613 0.001992
vt 0.961613 0.710435
vt 0.274959 0.007885
vt 0.274959 0.051220
vt 0.038261 0.051220
vt 0.038261 0.007885
vt 0.311228 0.051220
vt 0.001992 0.051220
vt 0.311228 0.759662
vt 0.274959 0.759662
vt 0.278553 0.001992
vt 0.315650 0.045969
vt 0.038261 0.759662
vt 0.001992 0.759662
vt 0.274959 0.802997
vt 0.038261 0.802997
vt 0.315650 0.764913
vt 0.278553 0.808890
vt 0.599204 0.759662
vt 0.362506 0.759662
vt 0.362506 0.051220
vt 0.599204 0.051220
vt 0.362506 0.802997
vt 0.599204 0.802997
vt 0.326237 0.759662
vt 0.326237 0.051220
vt 0.599204 0.007885
vt 0.362506 0.007885
vt 0.635473 0.759662
vt 0.635473 0.051220
vt 0.358912 0.808890
vt 0.321815 0.764913
vt 0.321815 0.045969
vt 0.358912 0.001992
vt 0.926865 0.001992
vt 0.926865 0.710435
vt 0.690167 0.710435
vt 0.690167 0.001992
vn -0.000000 0.999991 -0.004349
vn -0.010714 0.259670 0.965638
vn 0.010714 0.259669 0.965638
vn -0.000000 0.999991 -0.004349
vn -0.011105 -0.243348 0.969876
vn 0.000000 -0.999983 -0.005814
vn 0.000000 -0.999983 -0.005814
vn 0.011105 -0.243348 0.969876
vn 0.241129 -0.027954 0.970090
vn 0.999988 0.000000 -0.004897
vn 0.999997 0.000000 -0.002369
vn 0.228616 0.030907 0.973026
vn -0.999988 0.000000 -0.004897
vn -0.241129 -0.027954 0.970091
vn -0.228615 0.030907 0.973026
vn -0.999997 0.000000 -0.002369
vn 0.258667 -0.030184 -0.965495
vn 0.000000 0.000000 -1.000000
vn 0.000000 0.000000 -1.000000
vn 0.245945 0.033212 -0.968715
vn -0.000000 0.000000 1.000000
vn -0.000000 0.000000 1.000000
vn 0.000000 0.000000 1.000000
vn 0.000000 0.000000 1.000000
vn -0.708503 0.705707 0.001316
vn -0.708501 0.705704 -0.002955
vn 0.708501 0.705704 -0.002954
vn 0.708503 0.705706 0.001316
vn -0.708503 -0.705707 -0.001206
vn -0.708504 -0.705707 -0.000052
vn 0.708504 -0.705707 -0.000052
vn 0.708503 -0.705707 -0.001206
vn -0.245945 0.033212 -0.968715
vn -0.000000 0.000000 -1.000000
vn -0.000000 0.000000 -1.000000
vn -0.258667 -0.030184 -0.965495
vn 0.000000 0.000000 -1.000000
vn 0.000000 0.000000 -1.000000
vn 0.000000 0.000000 -1.000000
vn 0.000000 0.000000 -1.000000
vn 0.012029 -0.260525 -0.965392
vn -0.012029 -0.260525 -0.965392
vn -0.011658 0.277134 -0.960761
vn 0.011658 0.277134 -0.960761
vn 0.000000 1.000000 0.000000
vn 0.000000 1.000000 0.000000
vn 0.000000 1.000000 0.000000
vn 0.000000 1.000000 0.000000
vn 1.000000 0.000000 0.000000
vn 1.000000 0.000000 0.000000
vn 1.000000 0.000000 0.000000
vn 1.000000 0.000000 0.000000
vn 0.000000 -1.000000 0.000000
vn 0.000000 -1.000000 0.000000
vn 0.000000 -1.000000 0.000000
vn 0.000000 -1.000000 0.000000
vn -1.000000 0.000000 0.000000
vn -1.000000 0.000000 0.000000
vn -1.000000 0.000000 0.000000
vn -1.000000 0.000000 0.000000
s 1
g pCube12
usemtl initialShadingGroup
f 32/27/1 2/28/2 5/29/3 31/30/4
f 9/33/5 35/34/6 36/35/7 14/36/8
f 13/1/9 29/2/10 30/3/11 6/4/12
f 34/10/13 10/11/14 1/12/15 33/13/16
f 16/47/17 17/48/18 20/49/19 7/50/20
f 22/63/21 23/64/22 24/65/23 21/66/24
f 1/12/15 2/14/2 32/15/25 33/13/26
f 5/7/3 6/4/12 30/3/27 31/8/28
f 9/69/5 10/67/14 34/75/29 35/76/30
f 13/72/9 14/70/8 36/77/31 29/78/32
f 3/60/33 19/57/34 18/54/35 11/59/36
s off
f 25/79/37 26/80/38 27/81/39 28/82/40
s 1
f 15/51/41 17/48/18 16/47/17
f 12/53/42 18/54/35 17/48/18 15/51/41
f 11/59/36 18/54/35 12/53/42
f 3/60/33 4/58/43 19/57/34
f 20/49/19 19/57/34 4/58/43 8/52/44
f 7/50/20 20/49/19 8/52/44
f 6/71/12 21/66/24 24/65/23 13/72/9
f 5/74/3 21/66/24 6/71/12
f 2/73/2 22/63/21 21/66/24 5/74/3
f 1/68/15 22/63/21 2/73/2
f 10/67/14 23/64/22 22/63/21 1/68/15
f 10/67/14 9/69/5 23/64/22
f 24/65/23 23/64/22 9/69/5 14/70/8
f 13/72/9 24/65/23 14/70/8
s off
f 17/39/45 18/40/46 26/41/47 25/42/48
f 18/19/49 19/20/50 27/21/51 26/22/52
f 19/43/53 20/44/54 28/45/55 27/46/56
f 20/23/57 17/24/58 25/25/59 28/26/60
s 1
f 29/2/10 16/5/17 7/6/20 30/3/11
f 31/8/28 30/3/27 7/6/20 8/9/44
f 4/31/43 32/27/1 31/30/4 8/32/44
f 33/13/26 32/15/25 4/18/43 3/17/33
f 11/16/36 34/10/13 33/13/16 3/17/33
f 35/61/30 34/62/29 11/59/36 12/53/42
f 36/35/7 35/34/6 12/37/42 15/38/41
f 29/55/32 36/56/31 15/51/41 16/47/17
