# This file uses centimeters as units for non-parametric coordinates.

mtllib RingB.mtl
g default
v 0.832350 0.000000 -0.344415
v 0.637255 0.000000 -0.636396
v 0.345274 0.000000 -0.831491
v 0.000859 0.000000 -0.900000
v -0.343556 0.000000 -0.831492
v -0.635538 0.000000 -0.636396
v -0.830633 0.000000 -0.344415
v -0.899142 0.000000 -0.000000
v -0.830633 0.000000 0.344415
v -0.635538 0.000000 0.636396
v -0.343557 0.000000 0.831491
v 0.000858 0.000000 0.900000
v 0.345273 0.000000 0.831492
v 0.637254 0.000000 0.636396
v 0.832350 0.000000 0.344415
v 0.900858 0.000000 0.000000
v 0.859410 0.101490 -0.355623
v 0.657965 0.101490 -0.657106
v 0.356482 0.101490 -0.858551
v 0.000859 0.101490 -0.929289
v -0.354765 0.101490 -0.858552
v -0.656248 0.101490 -0.657107
v -0.857693 0.101490 -0.355624
v -0.928431 0.101490 -0.000000
v -0.857693 0.101490 0.355623
v -0.656249 0.101490 0.657107
v -0.354766 0.101490 0.858551
v 0.000858 0.101490 0.929289
v 0.356482 0.101490 0.858551
v 0.657965 0.101490 0.657107
v 0.859410 0.101490 0.355624
v 0.930148 0.101490 0.000000
v 0.924738 0.091669 -0.382683
v 0.707965 0.091669 -0.707106
v 0.383542 0.091669 -0.923879
v 0.000859 0.091669 -1.000000
v -0.381825 0.091669 -0.923880
v -0.706248 0.091669 -0.707107
v -0.923021 0.091669 -0.382684
v -0.999142 0.091669 -0.000000
v -0.923021 0.091669 0.382683
v -0.706249 0.091669 0.707107
v -0.381825 0.091669 0.923879
v 0.000858 0.091669 1.000000
v 0.383542 0.091669 0.923880
v 0.707965 0.091669 0.707107
v 0.924738 0.091669 0.382683
v 1.000858 0.091669 0.000000
v 0.990066 0.064820 -0.409743
v 0.757965 0.064820 -0.757106
v 0.410602 0.064820 -0.989207
v 0.000859 0.064820 -1.070711
v -0.408885 0.064820 -0.989208
v -0.756248 0.064820 -0.757107
v -0.988349 0.064820 -0.409744
v -1.069852 0.064820 -0.000000
v -0.988350 0.064820 0.409743
v -0.756249 0.064820 0.757107
v -0.408885 0.064820 0.989208
v 0.000858 0.064820 1.070711
v 0.410601 0.064820 0.989208
v 0.757965 0.064820 0.757107
v 0.990066 0.064820 0.409743
v 1.071569 0.064820 0.000000
v 1.017126 0.000000 -0.420951
v 0.778676 0.000000 -0.777817
v 0.421811 0.000000 -1.016267
v 0.000859 0.000000 -1.100000
v -0.420093 0.000000 -1.016268
v -0.776959 0.000000 -0.777818
v -1.015409 0.000000 -0.420952
v -1.099142 0.000000 -0.000000
v -1.015409 0.000000 0.420951
v -0.776959 0.000000 0.777817
v -0.420094 0.000000 1.016267
v 0.000858 0.000000 1.100000
v 0.421810 0.000000 1.016268
v 0.778676 0.000000 0.777818
v 1.017126 0.000000 0.420952
v 1.100858 0.000000 0.000000
v 0.990066 -0.064820 -0.409743
v 0.757965 -0.064820 -0.757106
v 0.410602 -0.064820 -0.989207
v 0.000859 -0.064820 -1.070711
v -0.408885 -0.064820 -0.989208
v -0.756248 -0.064820 -0.757107
v -0.988349 -0.064820 -0.409744
v -1.069852 -0.064820 -0.000000
v -0.988350 -0.064820 0.409743
v -0.756249 -0.064820 0.757107
v -0.408885 -0.064820 0.989208
v 0.000858 -0.064820 1.070711
v 0.410601 -0.064820 0.989208
v 0.757965 -0.064820 0.757107
v 0.990066 -0.064820 0.409743
v 1.071569 -0.064820 0.000000
v 0.924738 -0.091669 -0.382683
v 0.707965 -0.091669 -0.707106
v 0.383542 -0.091669 -0.923879
v 0.000859 -0.091669 -1.000000
v -0.381825 -0.091669 -0.923880
v -0.706248 -0.091669 -0.707107
v -0.923021 -0.091669 -0.382684
v -0.999142 -0.091669 -0.000000
v -0.923021 -0.091669 0.382683
v -0.706249 -0.091669 0.707107
v -0.381825 -0.091669 0.923879
v 0.000858 -0.091669 1.000000
v 0.383542 -0.091669 0.923880
v 0.707965 -0.091669 0.707107
v 0.924738 -0.091669 0.382683
v 1.000858 -0.091669 0.000000
v 0.859410 -0.101490 -0.355623
v 0.657965 -0.101490 -0.657106
v 0.356482 -0.101490 -0.858551
v 0.000859 -0.101490 -0.929289
v -0.354765 -0.101490 -0.858552
v -0.656248 -0.101490 -0.657107
v -0.857693 -0.101490 -0.355624
v -0.928431 -0.101490 -0.000000
v -0.857693 -0.101490 0.355623
v -0.656249 -0.101490 0.657107
v -0.354766 -0.101490 0.858551
v 0.000858 -0.101490 0.929289
v 0.356482 -0.101490 0.858551
v 0.657965 -0.101490 0.657107
v 0.859410 -0.101490 0.355624
v 0.930148 -0.101490 0.000000
vt 0.300475 0.700803
vt 0.300475 0.621012
vt 0.323988 0.618415
vt 0.323988 0.700803
vt 0.276963 0.700803
vt 0.276963 0.618415
vt 0.300475 0.553368
vt 0.323988 0.548570
vt 0.300475 0.780594
vt 0.323988 0.783191
vt 0.276963 0.548570
vt 0.276963 0.783191
vt 0.300475 0.508170
vt 0.323988 0.501901
vt 0.300475 0.848238
vt 0.323988 0.853036
vt 0.276963 0.501901
vt 0.276963 0.853036
vt 0.300475 0.893436
vt 0.323988 0.899705
vt 0.276963 0.899705
vt 0.353344 0.700803
vt 0.353344 0.621012
vt 0.376856 0.618415
vt 0.376856 0.700803
vt 0.329831 0.700803
vt 0.329831 0.618415
vt 0.353344 0.553368
vt 0.376856 0.548570
vt 0.353344 0.780594
vt 0.376856 0.783191
vt 0.329831 0.548570
vt 0.329831 0.783191
vt 0.353344 0.508170
vt 0.376856 0.501901
vt 0.353344 0.848238
vt 0.376856 0.853036
vt 0.329831 0.501901
vt 0.329831 0.853036
vt 0.353344 0.893436
vt 0.376856 0.899705
vt 0.329831 0.899705
vt 0.412734 0.737342
vt 0.412734 0.832267
vt 0.397717 0.834864
vt 0.397717 0.737342
vt 0.412734 0.912742
vt 0.397717 0.917540
vt 0.382700 0.832267
vt 0.382700 0.737342
vt 0.412734 0.642416
vt 0.397717 0.639819
vt 0.412734 0.966513
vt 0.397717 0.972782
vt 0.382700 0.912742
vt 0.382700 0.642416
vt 0.412734 0.561941
vt 0.397717 0.557143
vt 0.382700 0.966513
vt 0.382700 0.561941
vt 0.412734 0.508170
vt 0.397717 0.501901
vt 0.382700 0.508170
vt 0.448611 0.737341
vt 0.448611 0.832267
vt 0.433594 0.834864
vt 0.433594 0.737341
vt 0.448611 0.912742
vt 0.433594 0.917540
vt 0.418577 0.832267
vt 0.418577 0.737341
vt 0.448611 0.642416
vt 0.433594 0.639819
vt 0.448611 0.966513
vt 0.433594 0.972782
vt 0.418577 0.912742
vt 0.418577 0.642416
vt 0.448611 0.561941
vt 0.433594 0.557143
vt 0.418577 0.966513
vt 0.418577 0.561941
vt 0.448611 0.508170
vt 0.433594 0.501901
vt 0.418577 0.508170
vt 0.402184 0.402279
vt 0.448853 0.332433
vt 0.463988 0.338702
vt 0.413768 0.413862
vt 0.465241 0.250046
vt 0.481623 0.250046
vt 0.479123 0.344971
vt 0.425351 0.425446
vt 0.332339 0.448948
vt 0.338608 0.464082
vt 0.448853 0.167658
vt 0.463988 0.161389
vt 0.498004 0.250046
vt 0.344877 0.479217
vt 0.249951 0.465336
vt 0.249951 0.481717
vt 0.402184 0.097812
vt 0.413768 0.086229
vt 0.479122 0.155120
vt 0.249951 0.498099
vt 0.167563 0.448948
vt 0.161294 0.464083
vt 0.332339 0.051143
vt 0.338608 0.036009
vt 0.425351 0.074645
vt 0.155025 0.479217
vt 0.097718 0.402279
vt 0.086134 0.413862
vt 0.249951 0.034755
vt 0.249951 0.018374
vt 0.344877 0.020874
vt 0.074551 0.425446
vt 0.051049 0.332434
vt 0.035914 0.338703
vt 0.167563 0.051143
vt 0.161294 0.036009
vt 0.249951 0.001992
vt 0.020779 0.344972
vt 0.034661 0.250046
vt 0.018279 0.250046
vt 0.097718 0.097812
vt 0.086134 0.086229
vt 0.155025 0.020874
vt 0.001897 0.250046
vt 0.051049 0.167658
vt 0.035914 0.161389
vt 0.074550 0.074645
vt 0.020779 0.155120
vt 0.527108 0.574554
vt 0.607583 0.520783
vt 0.613852 0.535917
vt 0.538692 0.586138
vt 0.702509 0.501901
vt 0.702509 0.518283
vt 0.620121 0.551052
vt 0.550275 0.597721
vt 0.473337 0.655028
vt 0.488472 0.661297
vt 0.797434 0.520783
vt 0.791166 0.535917
vt 0.702509 0.534664
vt 0.503606 0.667566
vt 0.454455 0.749954
vt 0.470837 0.749954
vt 0.877909 0.574554
vt 0.866325 0.586138
vt 0.784896 0.551052
vt 0.487218 0.749954
vt 0.473337 0.844880
vt 0.488472 0.838611
vt 0.931680 0.655028
vt 0.916545 0.661297
vt 0.854742 0.597721
vt 0.503606 0.832342
vt 0.527108 0.925355
vt 0.538692 0.913771
vt 0.950562 0.749954
vt 0.934180 0.749954
vt 0.901411 0.667566
vt 0.550275 0.902188
vt 0.607582 0.979126
vt 0.613851 0.963991
vt 0.931680 0.844880
vt 0.916545 0.838611
vt 0.917799 0.749954
vt 0.620120 0.948857
vt 0.702508 0.998008
vt 0.702508 0.981626
vt 0.877909 0.925355
vt 0.866325 0.913771
vt 0.901411 0.832342
vt 0.702508 0.965245
vt 0.797434 0.979126
vt 0.791165 0.963991
vt 0.854742 0.902188
vt 0.784896 0.948857
vt 0.175851 0.584289
vt 0.175851 0.504498
vt 0.199364 0.501901
vt 0.199364 0.584289
vt 0.152339 0.584289
vt 0.152339 0.501901
vt 0.175851 0.664080
vt 0.199364 0.666677
vt 0.152339 0.666677
vt 0.122983 0.584289
vt 0.122983 0.664080
vt 0.099471 0.666677
vt 0.099471 0.584289
vt 0.146495 0.584289
vt 0.146495 0.666677
vt 0.122983 0.504498
vt 0.099471 0.501901
vt 0.146495 0.501901
vt 0.241085 0.599424
vt 0.241085 0.504498
vt 0.256102 0.501901
vt 0.256102 0.599424
vt 0.271119 0.504498
vt 0.271119 0.599424
vt 0.241085 0.694349
vt 0.256102 0.696946
vt 0.271119 0.694349
vt 0.235241 0.599424
vt 0.235241 0.694349
vt 0.220224 0.696946
vt 0.220224 0.599424
vt 0.205207 0.694349
vt 0.205207 0.599424
vt 0.235241 0.504498
vt 0.220224 0.501901
vt 0.205207 0.504498
vn -0.707107 0.000000 0.707106
vn -0.923880 0.000000 0.382683
vn -0.887654 0.277278 0.367678
vn -0.679381 0.277277 0.679381
vn -0.382684 0.000000 0.923879
vn -0.367679 0.277277 0.887654
vn -0.000000 -0.000000 1.000000
vn -0.000000 0.277277 0.960790
vn 0.382683 -0.000000 0.923880
vn 0.367678 0.277277 0.887654
vn 0.707106 0.000000 0.707107
vn 0.679381 0.277278 0.679381
vn 0.923879 0.000000 0.382684
vn 0.887654 0.277278 0.367679
vn 1.000000 -0.000000 0.000000
vn 0.960790 0.277278 0.000000
vn 0.923880 0.000000 -0.382683
vn 0.887654 0.277278 -0.367678
vn 0.707107 0.000000 -0.707107
vn 0.679381 0.277277 -0.679381
vn 0.382684 0.000000 -0.923879
vn 0.367678 0.277277 -0.887654
vn 0.000000 0.000000 -1.000000
vn 0.000000 0.277277 -0.960790
vn -0.382683 -0.000000 -0.923880
vn -0.367678 0.277277 -0.887654
vn -0.707107 0.000000 -0.707107
vn -0.679381 0.277277 -0.679381
vn -0.923880 0.000000 -0.382684
vn -0.887654 0.277277 -0.367678
vn -1.000000 0.000000 -0.000000
vn -0.960790 0.277277 -0.000000
vn 0.097274 0.990493 -0.097273
vn 0.127094 0.990493 -0.052644
vn 0.247460 0.963461 -0.102501
vn 0.189398 0.963461 -0.189398
vn 0.052644 0.990493 -0.127094
vn 0.102502 0.963461 -0.247460
vn 0.000000 0.990493 -0.137565
vn 0.000000 0.963461 -0.267849
vn -0.052644 0.990493 -0.127094
vn -0.102501 0.963461 -0.247461
vn -0.097274 0.990493 -0.097274
vn -0.189398 0.963461 -0.189398
vn -0.127094 0.990493 -0.052644
vn -0.247460 0.963461 -0.102502
vn -0.137566 0.990493 -0.000000
vn -0.267849 0.963461 -0.000000
vn -0.127094 0.990493 0.052644
vn -0.247460 0.963461 0.102501
vn -0.097273 0.990493 0.097273
vn -0.189398 0.963461 0.189398
vn -0.052644 0.990493 0.127094
vn -0.102502 0.963461 0.247460
vn -0.000000 0.990493 0.137566
vn -0.000000 0.963461 0.267849
vn 0.052644 0.990493 0.127094
vn 0.102501 0.963461 0.247460
vn 0.097274 0.990493 0.097274
vn 0.189398 0.963461 0.189398
vn 0.127094 0.990493 0.052644
vn 0.247460 0.963461 0.102501
vn 0.137566 0.990493 0.000000
vn 0.267849 0.963461 0.000000
vn 0.654703 0.705565 -0.271187
vn 0.501088 0.705565 -0.501088
vn 0.271187 0.705565 -0.654703
vn 0.000000 0.705565 -0.708646
vn -0.271187 0.705565 -0.654703
vn -0.501088 0.705565 -0.501088
vn -0.654703 0.705565 -0.271187
vn -0.708646 0.705565 -0.000000
vn -0.654703 0.705565 0.271187
vn -0.501088 0.705565 0.501088
vn -0.271187 0.705565 0.654703
vn -0.000000 0.705565 0.708645
vn 0.271187 0.705565 0.654703
vn 0.501088 0.705565 0.501088
vn 0.654703 0.705565 0.271187
vn 0.708646 0.705565 0.000000
vn 0.923880 0.000000 -0.382683
vn 0.707107 -0.000000 -0.707107
vn 0.382684 -0.000000 -0.923879
vn 0.000001 -0.000000 -1.000000
vn -0.382683 -0.000000 -0.923880
vn -0.707107 0.000000 -0.707107
vn -0.923879 0.000000 -0.382684
vn -1.000000 -0.000000 -0.000000
vn -0.923880 0.000000 0.382683
vn -0.707107 0.000000 0.707107
vn -0.382683 0.000000 0.923880
vn -0.000000 -0.000000 1.000000
vn 0.382683 0.000000 0.923880
vn 0.707107 0.000000 0.707107
vn 0.923880 0.000000 0.382684
vn 1.000000 0.000000 0.000000
vn 0.654703 -0.705565 -0.271187
vn 0.501088 -0.705565 -0.501088
vn 0.271187 -0.705565 -0.654703
vn 0.000000 -0.705565 -0.708646
vn -0.271187 -0.705565 -0.654703
vn -0.501088 -0.705565 -0.501088
vn -0.654703 -0.705564 -0.271187
vn -0.708646 -0.705565 -0.000000
vn -0.654703 -0.705565 0.271187
vn -0.501088 -0.705565 0.501088
vn -0.271187 -0.705565 0.654703
vn -0.000000 -0.705565 0.708645
vn 0.271187 -0.705565 0.654703
vn 0.501088 -0.705565 0.501088
vn 0.654703 -0.705565 0.271187
vn 0.708646 -0.705565 0.000000
vn 0.247460 -0.963461 -0.102501
vn 0.189398 -0.963461 -0.189398
vn 0.102502 -0.963461 -0.247460
vn 0.000000 -0.963461 -0.267849
vn -0.102501 -0.963461 -0.247460
vn -0.189398 -0.963461 -0.189398
vn -0.247460 -0.963461 -0.102502
vn -0.267849 -0.963461 -0.000000
vn -0.247460 -0.963461 0.102501
vn -0.189398 -0.963461 0.189398
vn -0.102501 -0.963461 0.247460
vn -0.000000 -0.963461 0.267849
vn 0.102501 -0.963461 0.247460
vn 0.189398 -0.963461 0.189398
vn 0.247460 -0.963461 0.102501
vn 0.267849 -0.963461 0.000000
vn 0.127094 -0.990493 -0.052644
vn 0.097273 -0.990493 -0.097273
vn 0.052644 -0.990493 -0.127094
vn 0.000000 -0.990493 -0.137565
vn -0.052644 -0.990493 -0.127094
vn -0.097273 -0.990493 -0.097273
vn -0.127094 -0.990493 -0.052644
vn -0.137565 -0.990493 -0.000000
vn -0.127094 -0.990493 0.052644
vn -0.097273 -0.990493 0.097273
vn -0.052644 -0.990493 0.127094
vn -0.000000 -0.990493 0.137565
vn 0.052644 -0.990493 0.127094
vn 0.097273 -0.990493 0.097273
vn 0.127094 -0.990493 0.052644
vn 0.137565 -0.990493 0.000000
vn -0.679381 -0.277277 0.679381
vn -0.887654 -0.277278 0.367678
vn -0.367679 -0.277277 0.887654
vn -0.000000 -0.277277 0.960790
vn 0.367678 -0.277277 0.887654
vn 0.679381 -0.277278 0.679381
vn 0.887654 -0.277278 0.367679
vn 0.960790 -0.277278 0.000000
vn 0.887654 -0.277278 -0.367678
vn 0.679381 -0.277277 -0.679381
vn 0.367679 -0.277277 -0.887654
vn 0.000000 -0.277277 -0.960790
vn -0.367678 -0.277278 -0.887654
vn -0.679381 -0.277277 -0.679381
vn -0.887654 -0.277277 -0.367678
vn -0.960790 -0.277277 -0.000000
s 1
g pTorus1
usemtl initialShadingGroup
f 2/36/1 1/30/2 17/31/3 18/37/4
f 3/40/5 2/36/1 18/37/4 19/41/6
f 4/181/7 3/182/5 19/183/6 20/184/8
f 5/187/9 4/181/7 20/184/8 21/188/10
f 6/7/11 5/13/9 21/14/10 22/8/12
f 7/2/13 6/7/11 22/8/12 23/3/14
f 8/1/15 7/2/13 23/3/14 24/4/16
f 9/9/17 8/1/15 24/4/16 25/10/18
f 10/15/19 9/9/17 25/10/18 26/16/20
f 11/19/21 10/15/19 26/16/20 27/20/22
f 12/190/23 11/191/21 27/192/22 28/193/24
f 13/196/25 12/190/23 28/193/24 29/197/26
f 14/28/27 13/34/25 29/35/26 30/29/28
f 15/23/29 14/28/27 30/29/28 31/24/30
f 16/22/31 15/23/29 31/24/30 32/25/32
f 1/30/2 16/22/31 32/25/32 17/31/3
s 2
f 18/85/33 17/86/34 33/87/35 34/88/36
f 19/93/37 18/85/33 34/88/36 35/94/38
f 20/99/39 19/93/37 35/94/38 36/100/40
f 21/105/41 20/99/39 36/100/40 37/106/42
f 22/111/43 21/105/41 37/106/42 38/112/44
f 23/117/45 22/111/43 38/112/44 39/118/46
f 24/123/47 23/117/45 39/118/46 40/124/48
f 25/129/49 24/123/47 40/124/48 41/130/50
f 26/125/51 25/129/49 41/130/50 42/126/52
f 27/119/53 26/125/51 42/126/52 43/120/54
f 28/113/55 27/119/53 43/120/54 44/114/56
f 29/107/57 28/113/55 44/114/56 45/108/58
f 30/101/59 29/107/57 45/108/58 46/102/60
f 31/95/61 30/101/59 46/102/60 47/96/62
f 32/89/63 31/95/61 47/96/62 48/90/64
f 17/86/34 32/89/63 48/90/64 33/87/35
f 34/88/36 33/87/35 49/91/65 50/92/66
f 35/94/38 34/88/36 50/92/66 51/98/67
f 36/100/40 35/94/38 51/98/67 52/104/68
f 37/106/42 36/100/40 52/104/68 53/110/69
f 38/112/44 37/106/42 53/110/69 54/116/70
f 39/118/46 38/112/44 54/116/70 55/122/71
f 40/124/48 39/118/46 55/122/71 56/128/72
f 41/130/50 40/124/48 56/128/72 57/132/73
f 42/126/52 41/130/50 57/132/73 58/131/74
f 43/120/54 42/126/52 58/131/74 59/127/75
f 44/114/56 43/120/54 59/127/75 60/121/76
f 45/108/58 44/114/56 60/121/76 61/115/77
f 46/102/60 45/108/58 61/115/77 62/109/78
f 47/96/62 46/102/60 62/109/78 63/103/79
f 48/90/64 47/96/62 63/103/79 64/97/80
f 33/87/35 48/90/64 64/97/80 49/91/65
f 50/78/66 49/72/65 65/73/81 66/79/82
f 51/82/67 50/78/66 66/79/82 67/83/83
f 52/199/68 51/200/67 67/201/83 68/202/84
f 53/205/69 52/199/68 68/202/84 69/206/85
f 54/47/70 53/53/69 69/54/85 70/48/86
f 55/44/71 54/47/70 70/48/86 71/45/87
f 56/43/72 55/44/71 71/45/87 72/46/88
f 57/51/73 56/43/72 72/46/88 73/52/89
f 58/57/74 57/51/73 73/52/89 74/58/90
f 59/61/75 58/57/74 74/58/90 75/62/91
f 60/208/76 59/209/75 75/210/91 76/211/92
f 61/214/77 60/208/76 76/211/92 77/215/93
f 62/68/78 61/74/77 77/75/93 78/69/94
f 63/65/79 62/68/78 78/69/94 79/66/95
f 64/64/80 63/65/79 79/66/95 80/67/96
f 49/72/65 64/64/80 80/67/96 65/73/81
f 66/79/82 65/73/81 81/77/97 82/81/98
f 67/83/83 66/79/82 82/81/98 83/84/99
f 68/202/84 67/201/83 83/203/99 84/204/100
f 69/206/85 68/202/84 84/204/100 85/207/101
f 70/48/86 69/54/85 85/59/101 86/55/102
f 71/45/87 70/48/86 86/55/102 87/49/103
f 72/46/88 71/45/87 87/49/103 88/50/104
f 73/52/89 72/46/88 88/50/104 89/56/105
f 74/58/90 73/52/89 89/56/105 90/60/106
f 75/62/91 74/58/90 90/60/106 91/63/107
f 76/211/92 75/210/91 91/212/107 92/213/108
f 77/215/93 76/211/92 92/213/108 93/216/109
f 78/69/94 77/75/93 93/80/109 94/76/110
f 79/66/95 78/69/94 94/76/110 95/70/111
f 80/67/96 79/66/95 95/70/111 96/71/112
f 65/73/81 80/67/96 96/71/112 81/77/97
f 82/133/98 81/134/97 97/135/113 98/136/114
f 83/141/99 82/133/98 98/136/114 99/142/115
f 84/147/100 83/141/99 99/142/115 100/148/116
f 85/153/101 84/147/100 100/148/116 101/154/117
f 86/159/102 85/153/101 101/154/117 102/160/118
f 87/165/103 86/159/102 102/160/118 103/166/119
f 88/171/104 87/165/103 103/166/119 104/172/120
f 89/177/105 88/171/104 104/172/120 105/178/121
f 90/173/106 89/177/105 105/178/121 106/174/122
f 91/167/107 90/173/106 106/174/122 107/168/123
f 92/161/108 91/167/107 107/168/123 108/162/124
f 93/155/109 92/161/108 108/162/124 109/156/125
f 94/149/110 93/155/109 109/156/125 110/150/126
f 95/143/111 94/149/110 110/150/126 111/144/127
f 96/137/112 95/143/111 111/144/127 112/138/128
f 81/134/97 96/137/112 112/138/128 97/135/113
f 98/136/114 97/135/113 113/139/129 114/140/130
f 99/142/115 98/136/114 114/140/130 115/146/131
f 100/148/116 99/142/115 115/146/131 116/152/132
f 101/154/117 100/148/116 116/152/132 117/158/133
f 102/160/118 101/154/117 117/158/133 118/164/134
f 103/166/119 102/160/118 118/164/134 119/170/135
f 104/172/120 103/166/119 119/170/135 120/176/136
f 105/178/121 104/172/120 120/176/136 121/180/137
f 106/174/122 105/178/121 121/180/137 122/179/138
f 107/168/123 106/174/122 122/179/138 123/175/139
f 108/162/124 107/168/123 123/175/139 124/169/140
f 109/156/125 108/162/124 124/169/140 125/163/141
f 110/150/126 109/156/125 125/163/141 126/157/142
f 111/144/127 110/150/126 126/157/142 127/151/143
f 112/138/128 111/144/127 127/151/143 128/145/144
f 97/135/113 112/138/128 128/145/144 113/139/129
s 1
f 114/39/145 113/33/146 1/30/2 2/36/1
f 115/42/147 114/39/145 2/36/1 3/40/5
f 116/185/148 115/186/147 3/182/5 4/181/7
f 117/189/149 116/185/148 4/181/7 5/187/9
f 118/11/150 117/17/149 5/13/9 6/7/11
f 119/6/151 118/11/150 6/7/11 7/2/13
f 120/5/152 119/6/151 7/2/13 8/1/15
f 121/12/153 120/5/152 8/1/15 9/9/17
f 122/18/154 121/12/153 9/9/17 10/15/19
f 123/21/155 122/18/154 10/15/19 11/19/21
f 124/194/156 123/195/155 11/191/21 12/190/23
f 125/198/157 124/194/156 12/190/23 13/196/25
f 126/32/158 125/38/157 13/34/25 14/28/27
f 127/27/159 126/32/158 14/28/27 15/23/29
f 128/26/160 127/27/159 15/23/29 16/22/31
f 113/33/146 128/26/160 16/22/31 1/30/2
