# This file uses centimeters as units for non-parametric coordinates.

mtllib RoofTopANS.mtl
g default
v -1.897908 0.152435 2.402635
v 0.000000 0.152435 2.402635
v 1.897908 0.152435 2.402635
v -1.897908 0.152435 -2.402635
v 0.000000 0.152435 -2.402635
v 1.897908 0.152435 -2.402635
v -1.856745 -0.167320 2.350433
v -1.897908 -0.103724 2.402635
v 0.000000 -0.784552 2.402635
v 0.000000 -0.838749 2.351669
v 1.897908 -0.103724 2.402635
v 1.856745 -0.167320 2.350433
v -1.897908 -0.103724 -2.402635
v -1.856745 -0.167320 -2.350433
v -0.000000 -0.784552 -2.402635
v 0.000000 -0.838749 -2.351669
v 1.856745 -0.167320 -2.350433
v 1.897908 -0.103724 -2.402635
vt 0.001992 0.008820
vt 0.013072 0.001992
vt 0.013072 0.630543
vt 0.001992 0.623714
vt 0.057700 0.001992
vt 0.057700 0.630543
vt 0.744124 0.630543
vt 0.733044 0.623714
vt 0.733044 0.008820
vt 0.744124 0.001992
vt 0.788752 0.001992
vt 0.788752 0.630543
vt 0.064553 0.630543
vt 0.071725 0.623714
vt 0.395207 0.623876
vt 0.395207 0.630543
vt 0.071725 0.008820
vt 0.395207 0.008659
vt 0.718690 0.623714
vt 0.725861 0.630543
vt 0.064553 0.001992
vt 0.395207 0.001992
vt 0.718690 0.008820
vt 0.725861 0.001992
vt 0.914025 0.498502
vt 0.795411 0.250247
vt 0.958653 0.250247
vt 0.958653 0.498502
vt 0.914025 0.001992
vt 0.958653 0.001992
vt 0.834766 0.998008
vt 0.834766 0.749753
vt 0.998008 0.749753
vt 0.879394 0.998008
vt 0.834766 0.501498
vt 0.879394 0.501498
vn -0.368657 -0.929456 0.014292
vn -0.996404 -0.084727 0.000000
vn -0.996404 -0.084727 0.000000
vn -0.368657 -0.929456 -0.014292
vn -0.013283 -0.036849 0.999233
vn -0.000000 -0.999957 0.009227
vn -0.000000 -0.111929 0.993716
vn 0.368657 -0.929456 0.014292
vn 0.013283 -0.036849 0.999233
vn 0.996404 -0.084727 0.000000
vn 0.368657 -0.929456 -0.014292
vn 0.996404 -0.084727 0.000000
vn -0.013283 -0.036849 -0.999233
vn -0.000000 -0.111929 -0.993716
vn -0.000000 -0.999957 -0.009227
vn 0.013283 -0.036849 -0.999233
vn -0.000000 0.000000 1.000000
vn -0.000000 0.000000 1.000000
vn 0.000000 0.000000 1.000000
vn -0.000000 0.000000 -1.000000
vn -0.000000 0.000000 -1.000000
vn 0.000000 0.000000 -1.000000
vn 1.000000 0.000000 0.000000
vn 1.000000 0.000000 0.000000
vn -1.000000 0.000000 0.000000
vn -1.000000 0.000000 0.000000
s 1
g pCube11
usemtl initialShadingGroup
f 7/1/1 8/2/2 13/3/3 14/4/4
f 8/13/5 7/14/1 10/15/6 9/16/7
f 9/16/7 10/15/6 12/19/8 11/20/9
f 11/7/10 12/8/8 17/9/11 18/10/12
f 14/17/4 13/21/13 15/22/14 16/18/15
f 16/18/15 15/22/14 18/24/16 17/23/11
f 8/25/5 9/26/7 2/27/17 1/28/18
f 9/26/7 11/29/9 3/30/19 2/27/17
f 4/31/20 5/32/21 15/33/14 13/34/13
f 5/32/21 6/35/22 18/36/16 15/33/14
f 14/17/4 16/18/15 10/15/6 7/14/1
f 16/18/15 17/23/11 12/19/8 10/15/6
f 11/7/10 18/10/12 6/11/23 3/12/24
f 13/3/3 8/2/2 1/5/25 4/6/26
