# This file uses centimeters as units for non-parametric coordinates.

mtllib SideConnectorB.mtl
g default
v -0.109258 0.561481 -0.851069
v 0.109258 0.561481 -0.851069
v -0.621314 -0.500000 -0.084793
v 0.000000 -0.500000 -0.084793
v 0.621314 -0.500000 -0.084793
v -0.621314 0.287673 -0.805343
v 0.000000 0.287673 -0.805343
v 0.621314 0.287673 -0.805343
v 0.000000 0.287673 -0.992301
v -0.621314 0.287673 -0.992301
v 0.621314 0.287673 -0.992301
v -0.621314 -0.874739 -0.084793
v 0.000000 -0.874739 -0.084793
v 0.621314 -0.874739 -0.084793
v -0.584964 -0.514547 0.500000
v -0.584964 -0.489267 0.490181
v -0.621314 -0.506907 0.482217
v -0.358199 -0.513445 0.519014
v -0.358199 -0.487110 0.512914
v -0.382741 -0.489486 0.490382
v -0.381961 -0.514052 0.500000
v 0.381961 -0.514052 0.500000
v 0.382741 -0.489486 0.490382
v 0.358199 -0.487110 0.512914
v 0.358199 -0.513445 0.519014
v 0.621314 -0.506907 0.482217
v 0.584964 -0.489267 0.490181
v 0.584964 -0.514547 0.500000
v -0.585020 0.359179 -0.346026
v -0.585020 0.370095 -0.367068
v -0.621314 0.352263 -0.361176
v -0.109258 0.551757 -0.614134
v -0.109258 0.561481 -0.633917
v 0.109258 0.551757 -0.614134
v 0.109258 0.561481 -0.633917
v 0.621314 0.352263 -0.361176
v 0.585020 0.370095 -0.367068
v 0.585020 0.359179 -0.346026
v -0.579924 0.297684 -0.229707
v -0.621314 0.287673 -0.239876
v -0.579924 0.277662 -0.211391
v -0.090792 0.287673 -0.206281
v -0.095208 0.298040 -0.230033
v -0.123104 0.297889 -0.229894
v -0.127599 0.278104 -0.211796
v -0.109258 0.269994 -0.180417
v 0.109258 0.269994 -0.180417
v 0.127599 0.278104 -0.211796
v 0.122771 0.297643 -0.229670
v 0.094949 0.298231 -0.230208
v 0.090792 0.287673 -0.206281
v 0.579924 0.277662 -0.211391
v 0.621314 0.287673 -0.239876
v 0.579924 0.297684 -0.229707
v -0.621314 0.354445 -0.838913
v -0.581109 0.370095 -0.851069
v 0.581109 0.370095 -0.851069
v 0.621314 0.354445 -0.838913
v -0.297469 -0.514052 0.662602
v -0.297650 -0.489663 0.653146
v -0.327818 -0.486664 0.624841
v -0.327818 -0.513222 0.643904
v 0.327818 -0.513222 0.643904
v 0.327818 -0.486664 0.624841
v 0.297650 -0.489663 0.653146
v 0.297469 -0.514052 0.662602
v 0.090111 0.276757 -0.047961
v 0.109258 0.269840 -0.065803
v 0.090111 0.287673 -0.072742
v -0.090111 0.276757 -0.047961
v -0.090111 0.287673 -0.072742
v -0.109258 0.269840 -0.065803
v -0.581860 0.370095 -0.982579
v -0.621314 0.349731 -0.994003
v -0.109258 0.537359 -0.991083
v -0.109258 0.561481 -0.982060
v 0.109258 0.537359 -0.991083
v 0.109258 0.561481 -0.982060
v 0.581860 0.370095 -0.982579
v 0.621314 0.350587 -0.994667
v -0.358199 -0.874739 0.518639
v -0.382305 -0.874739 0.500000
v -0.358199 -0.874739 0.484091
v -0.306041 -0.874739 0.500000
v -0.621314 -0.874739 0.481361
v -0.585983 -0.874739 0.500000
v 0.358199 -0.874739 0.518639
v 0.306041 -0.874739 0.500000
v 0.358199 -0.874739 0.484091
v 0.382305 -0.874739 0.500000
v 0.585983 -0.874739 0.500000
v 0.621314 -0.874739 0.481361
v 0.297092 -0.782592 0.662602
v 0.327818 -0.782592 0.643963
v -0.327818 -0.782592 0.643963
v -0.297092 -0.782592 0.662602
vt 0.178615 0.808986
vt 0.180103 0.802561
vt 0.210572 0.802616
vt 0.205922 0.809095
vt 0.173118 0.808407
vt 0.175464 0.802413
vt 0.180012 0.714417
vt 0.210587 0.736898
vt 0.215134 0.802413
vt 0.212827 0.808363
vt 0.009465 0.993695
vt 0.037427 0.993657
vt 0.001809 0.995673
vt 0.175464 0.714417
vt 0.215134 0.736898
vt 0.041780 0.995345
vt 0.003155 0.998008
vt 0.035734 0.998008
vt 0.256536 0.802561
vt 0.258024 0.808986
vt 0.230717 0.809095
vt 0.226067 0.802616
vt 0.261175 0.802413
vt 0.263521 0.808407
vt 0.427174 0.993695
vt 0.399212 0.993657
vt 0.223812 0.808363
vt 0.221505 0.802413
vt 0.226052 0.736898
vt 0.256627 0.714417
vt 0.434830 0.995673
vt 0.261175 0.714417
vt 0.433484 0.998008
vt 0.400905 0.998008
vt 0.394859 0.995345
vt 0.221505 0.736898
vt 0.401530 0.362304
vt 0.403215 0.223972
vt 0.595382 0.048181
vt 0.595382 0.186137
vt 0.311791 0.362095
vt 0.311791 0.223972
vt 0.611672 0.039991
vt 0.611140 0.156543
vt 0.595382 0.002569
vt 0.610731 0.001992
vt 0.698074 0.504262
vt 0.696389 0.365930
vt 0.890240 0.542097
vt 0.890240 0.680052
vt 0.606649 0.504262
vt 0.606649 0.366138
vt 0.905998 0.571690
vt 0.906530 0.688242
vt 0.905380 0.726079
vt 0.890240 0.725664
vt 0.191761 0.710792
vt 0.191761 0.559211
vt 0.330550 0.646600
vt 0.334431 0.652481
vt 0.334431 0.702172
vt 0.329884 0.710792
vt 0.330550 0.471822
vt 0.334431 0.484547
vt 0.334431 0.633875
vt 0.191761 0.407631
vt 0.329884 0.407631
vt 0.334431 0.416250
vt 0.334431 0.465941
vt 0.374101 0.631692
vt 0.374101 0.486730
vt 0.338979 0.646600
vt 0.369554 0.639188
vt 0.338979 0.471822
vt 0.369554 0.479234
vt 0.425286 0.517510
vt 0.425286 0.669091
vt 0.379674 0.669091
vt 0.379674 0.517510
vt 0.601076 0.517510
vt 0.601076 0.669091
vt 0.425286 0.365930
vt 0.379674 0.365930
vt 0.601076 0.365930
vt 0.010664 0.245758
vt 0.001809 0.249454
vt 0.001809 0.219860
vt 0.011907 0.217380
vt 0.010664 0.250891
vt 0.011907 0.212911
vt 0.123357 0.217425
vt 0.126734 0.311167
vt 0.126734 0.315994
vt 0.011618 0.368972
vt 0.001809 0.366006
vt 0.001809 0.043693
vt 0.010678 0.041750
vt 0.122260 0.213010
vt 0.130162 0.217459
vt 0.180045 0.311167
vt 0.180045 0.315994
vt 0.126734 0.368972
vt 0.011435 0.401056
vt 0.001809 0.403843
vt 0.060014 0.041701
vt 0.131240 0.211664
vt 0.126734 0.205354
vt 0.176554 0.217502
vt 0.296116 0.245758
vt 0.296116 0.250891
vt 0.180045 0.368972
vt 0.126734 0.400929
vt 0.126734 0.403131
vt 0.175540 0.211664
vt 0.183342 0.217370
vt 0.294873 0.217380
vt 0.304970 0.249454
vt 0.295162 0.368972
vt 0.180045 0.400929
vt 0.131406 0.179085
vt 0.175374 0.179085
vt 0.180045 0.205354
vt 0.184520 0.213010
vt 0.294873 0.212911
vt 0.304970 0.219860
vt 0.304970 0.366006
vt 0.295345 0.401056
vt 0.175374 0.173040
vt 0.131406 0.173039
vt 0.246766 0.041701
vt 0.296102 0.041750
vt 0.304970 0.404005
vt 0.180045 0.403131
vt 0.080773 0.001992
vt 0.226007 0.001992
vt 0.304970 0.043693
vt 0.658349 0.742430
vt 0.653802 0.748311
vt 0.649920 0.742430
vt 0.653802 0.729705
vt 0.672511 0.735586
vt 0.667964 0.748311
vt 0.664083 0.735586
vt 0.667964 0.729705
vt 0.682127 0.748311
vt 0.678245 0.742430
vt 0.682127 0.729705
vt 0.686674 0.742430
vt 0.700836 0.735586
vt 0.696289 0.748311
vt 0.692408 0.735586
vt 0.696289 0.729705
vt 0.094764 0.710792
vt 0.094764 0.559211
vt 0.186188 0.559211
vt 0.186188 0.710792
vt 0.094764 0.407631
vt 0.186188 0.407631
vt 0.527786 0.760591
vt 0.518917 0.762455
vt 0.518917 0.672716
vt 0.527537 0.672716
vt 0.527786 0.766759
vt 0.577312 0.760712
vt 0.577228 0.672716
vt 0.577121 0.766706
vt 0.584609 0.823694
vt 0.584419 0.817701
vt 0.633945 0.817580
vt 0.633945 0.823748
vt 0.584503 0.729705
vt 0.634194 0.729705
vt 0.642813 0.819444
vt 0.642813 0.729705
vt 0.512489 0.817950
vt 0.506539 0.817906
vt 0.506539 0.672760
vt 0.512489 0.672716
vt 0.441024 0.817814
vt 0.441024 0.672852
vt 0.028275 0.585867
vt 0.022390 0.585867
vt 0.022390 0.532556
vt 0.028275 0.532556
vt 0.089191 0.559211
vt 0.073842 0.407631
vt 0.089191 0.407631
vt 0.074050 0.710792
vt 0.089191 0.710792
vn 0.000000 -0.755209 -0.655485
vn 0.000000 -0.755209 -0.655485
vn 0.000000 -0.526862 -0.849951
vn 0.000000 -0.526862 -0.849951
vn 0.000000 -0.755209 -0.655485
vn 0.000000 -0.526862 -0.849951
vn 0.000000 -0.526862 -0.849951
vn 0.000000 -1.000000 -0.000000
vn 0.000000 -1.000000 -0.000000
vn 0.000000 -1.000000 -0.000000
vn 0.000000 -1.000000 -0.000000
vn 0.000000 -1.000000 -0.000000
vn 0.000000 -1.000000 -0.000000
vn 0.000000 -1.000000 0.000000
vn -0.000000 -0.993236 0.116115
vn -0.000000 -0.993236 0.116116
vn 0.000000 -1.000000 0.000000
vn 0.000000 -1.000000 0.000000
vn 0.000000 -1.000000 0.000000
vn 0.000000 -1.000000 0.000000
vn 0.000000 -1.000000 0.000000
vn 0.000000 -1.000000 0.000000
vn 0.000000 -1.000000 0.000000
vn 0.000000 0.000000 -1.000000
vn 0.000000 0.000000 -1.000000
vn 0.000000 0.000000 -1.000000
vn 0.000000 0.000000 -1.000000
vn -0.000000 -0.868962 0.494880
vn -0.000000 -0.868962 0.494880
vn -0.080542 0.022374 0.996500
vn -0.995246 0.052329 0.082146
vn -0.998205 -0.000028 0.059898
vn -0.076790 -0.000070 0.997047
vn -0.048921 0.670145 0.740616
vn -0.085438 0.024372 0.996045
vn -0.050301 0.679118 0.732304
vn -0.055863 0.673847 0.736756
vn -0.998868 0.034012 0.033250
vn -0.931641 0.011062 0.363212
vn -0.082584 -0.000015 0.996584
vn -0.843561 -0.173347 0.508287
vn -0.872502 0.445138 0.201474
vn -0.926329 0.014758 0.376427
vn -0.803898 0.505907 0.312738
vn -0.770761 0.556287 0.310600
vn -0.036051 0.682063 0.730404
vn 0.085438 0.024372 0.996045
vn 0.931641 0.011062 0.363213
vn 0.843561 -0.173346 0.508287
vn 0.082584 -0.000015 0.996584
vn 0.050301 0.679118 0.732304
vn 0.080542 0.022374 0.996500
vn 0.048921 0.670145 0.740616
vn 0.872502 0.445139 0.201475
vn 0.036048 0.682061 0.730406
vn 0.770772 0.556282 0.310581
vn 0.803899 0.505907 0.312738
vn 0.926329 0.014757 0.376425
vn 0.995246 0.052329 0.082146
vn 0.076790 -0.000070 0.997047
vn 0.998205 -0.000028 0.059898
vn 0.998868 0.034013 0.033250
vn 0.055872 0.673846 0.736756
vn -0.035175 0.848591 0.527879
vn -0.954810 0.295617 0.030802
vn -0.030961 0.835303 0.548917
vn -0.357566 0.932940 0.042061
vn -0.017445 0.845837 0.533156
vn -0.306404 0.951763 0.016263
vn -0.377770 0.925898 -0.001473
vn -0.883319 0.468770 -0.001101
vn -0.021413 0.835786 0.548638
vn -0.003470 0.838475 0.544929
vn 0.017244 0.845806 0.533213
vn 0.306404 0.951763 0.016263
vn 0.003430 0.838492 0.544903
vn 0.021559 0.835862 0.548516
vn 0.035012 0.848513 0.528016
vn 0.357566 0.932940 0.042061
vn 0.954810 0.295617 0.030802
vn 0.030821 0.835307 0.548919
vn 0.883692 0.468068 -0.000848
vn 0.377541 0.925992 -0.001400
vn -0.049167 0.993611 0.101589
vn -0.865393 0.458205 0.202837
vn -0.084447 0.994344 0.064412
vn 0.049251 0.993640 0.101266
vn 0.084447 0.994344 0.064412
vn 0.865393 0.458205 0.202837
vn -0.371805 0.915080 -0.156170
vn -0.919944 0.381376 -0.090861
vn 0.918949 0.383971 -0.089996
vn 0.371218 0.916253 -0.150594
vn -0.030504 0.032840 0.998995
vn -0.905517 -0.125146 0.405435
vn -0.029848 -0.000016 0.999554
vn -0.038907 0.668975 0.742266
vn 0.030504 0.032840 0.998995
vn 0.038907 0.668975 0.742266
vn -0.041758 0.683702 0.728566
vn 0.029848 -0.000016 0.999555
vn 0.905517 -0.125146 0.405434
vn 0.041758 0.683702 0.728566
vn -0.264291 0.958499 -0.106913
vn -0.141018 0.492200 -0.858984
vn 0.264400 0.958653 -0.105249
vn 0.145791 0.507108 -0.849463
vn -0.290366 0.956915 -0.000952
vn 0.290366 0.956915 -0.000952
vn 1.000000 0.000000 0.000000
vn 1.000000 0.000000 0.000000
vn -1.000000 -0.000000 0.000000
vn -1.000000 -0.000000 0.000000
vn 0.002677 -0.000612 -0.999996
vn 0.002218 0.000330 -0.999997
vn -0.000404 -0.000919 -1.000000
vn 0.002677 -0.000612 -0.999996
vn -0.002953 -0.001177 -0.999995
vn -0.003563 -0.002427 -0.999991
vn -0.003563 -0.002427 -0.999991
vn -1.000000 0.000000 0.000000
vn 1.000000 0.000000 0.000000
vn -1.000000 -0.000000 0.000000
vn 1.000000 -0.000000 0.000000
vn 0.000000 -1.000000 0.000000
vn 0.000000 -1.000000 0.000000
vn 0.000000 -1.000000 0.000000
vn 0.000000 -1.000000 0.000000
vn 0.000000 -1.000000 0.000000
vn 0.000000 -1.000000 0.000000
vn 0.000000 -1.000000 0.000000
vn 0.000000 -1.000000 0.000000
vn 0.000000 -1.000000 -0.000003
vn 0.000000 -1.000000 -0.000003
vn 0.000000 -1.000000 -0.000003
vn 0.000000 -1.000000 -0.000003
vn 0.000000 -1.000000 0.000000
vn 0.000000 -1.000000 0.000000
vn 0.000000 -1.000000 0.000000
vn 0.000000 -1.000000 0.000000
s 1
g pCube1
usemtl initialShadingGroup
f 6/77/1 7/76/2 4/80/3 3/81/4
f 7/76/2 8/82/5 5/84/6 4/80/7
s 3
f 12/57/8 13/58/9 83/59/10 82/60/11 86/61/12 85/62/13
f 13/58/9 89/63/14 88/64/15 84/65/16 83/59/10
f 13/58/9 14/66/17 92/67/18 91/68/19 90/69/20 89/63/14
s 1
f 7/76/2 6/77/1 10/78/21 9/79/22
f 8/82/5 7/76/2 9/79/22 11/83/23
f 3/153/4 4/154/3 13/155/24 12/156/25
f 4/154/7 5/157/6 14/158/26 13/155/27
s 3
f 96/70/28 84/65/16 88/64/15 93/71/29
f 15/159/30 17/160/31 85/161/32 86/162/33
f 16/163/34 15/159/30 21/164/35 20/166/36
f 17/96/31 16/97/34 41/90/37 40/87/38
f 18/2/39 21/6/35 82/14/40 81/7/41
f 19/1/42 18/2/39 62/3/43 61/4/44
f 20/5/36 19/1/42 46/11/45 45/13/46
f 22/23/47 25/19/48 87/30/49 90/32/50
f 23/167/51 22/168/47 28/169/52 27/170/53
f 24/20/54 23/24/51 48/31/55 47/25/56
f 25/19/48 24/20/54 64/21/57 63/22/58
f 26/173/59 28/169/52 91/172/60 92/174/61
f 27/131/53 26/136/59 53/125/62 52/124/63
f 29/85/64 31/86/65 40/87/38 39/88/66
f 30/89/67 29/85/64 32/92/68 33/93/69
f 31/86/65 30/89/67 56/94/70 55/95/71
f 32/92/68 44/91/72 43/99/73
f 33/93/69 32/92/68 34/100/74 35/101/75
f 34/100/74 50/108/76 49/115/77
f 35/101/75 34/100/74 38/109/78 37/110/79
f 36/117/80 38/109/78 54/116/81 53/125/62
f 37/110/79 36/117/80 58/126/82 57/118/83
f 39/88/66 41/90/37 45/98/46 44/91/72
f 42/17/84 46/11/45 72/12/85 71/18/86
f 43/99/73 42/106/84 51/114/87 50/108/76
f 47/25/56 51/33/87 69/34/88 68/26/89
f 49/115/77 48/123/55 52/124/63 54/116/81
f 55/95/71 56/94/70 73/103/90 74/104/91
f 57/118/83 58/126/82 80/132/92 79/127/93
f 59/9/94 62/3/43 95/8/95 96/15/96
f 60/175/97 59/176/94 66/177/98 65/178/99
f 61/4/44 60/10/97 70/16/100 72/12/85
f 63/22/58 66/28/98 93/36/101 94/29/102
f 65/27/99 64/21/57 68/26/89 67/35/103
f 67/128/103 69/121/88 71/120/86 70/129/100
f 74/104/91 73/103/90 76/112/104 75/113/105
f 75/181/105 76/182/104 78/183/106 77/184/107
f 77/133/107 78/119/106 79/127/93 80/132/92
f 16/97/34 20/105/36 45/98/46 41/90/37
f 60/134/97 65/135/99 67/128/103 70/129/100
f 23/130/51 27/131/53 52/124/63 48/123/55
f 30/89/67 33/93/69 1/102/108 56/94/70
f 33/93/69 35/101/75 2/111/109 1/102/108
f 35/101/75 37/110/79 57/118/83 2/111/109
f 26/37/59 5/38/110 8/39/111 53/40/62
f 3/47/112 17/48/31 40/49/38 6/50/113
f 6/50/113 40/49/38 31/53/65 55/54/71
s 7
f 74/188/114 75/181/115 9/185/116 10/189/117
f 75/181/115 77/184/118 9/185/116
f 77/184/118 80/186/119 11/187/120 9/185/116
s 3
f 53/40/62 8/39/111 58/43/82 36/44/80
f 49/115/77 54/116/81 38/109/78 34/100/74
f 43/99/73 50/108/76 34/100/74 32/92/68
f 39/88/66 44/91/72 32/92/68 29/85/64
f 24/20/54 47/25/56 68/26/89 64/21/57
f 51/114/87 42/106/84 71/120/86 69/121/88
f 46/11/45 19/1/42 61/4/44 72/12/85
f 56/94/70 1/102/108 76/112/104 73/103/90
f 6/50/113 55/54/71 74/55/91 10/56/121
f 1/102/108 2/111/109 78/119/106 76/112/104
f 2/111/109 57/118/83 79/127/93 78/119/106
f 58/43/82 8/39/111 11/45/122 80/46/92
f 21/164/35 15/159/30 86/162/33 82/165/40
f 17/48/31 3/47/112 12/51/123 85/52/32
f 5/38/110 26/37/59 92/41/61 14/42/124
f 28/169/52 22/168/47 90/171/50 91/172/60
f 25/19/48 63/22/58 94/29/102 87/30/49
f 66/177/98 59/176/94 96/179/96 93/180/101
f 62/3/43 18/2/39 81/7/41 95/8/95
f 15/159/30 16/163/34 17/160/31
f 18/2/39 19/1/42 20/5/36 21/6/35
f 22/23/47 23/24/51 24/20/54 25/19/48
f 26/173/59 27/170/53 28/169/52
f 29/85/64 30/89/67 31/86/65
f 36/117/80 37/110/79 38/109/78
f 39/88/66 40/87/38 41/90/37
f 42/106/84 43/99/73 44/91/72 45/98/46 46/107/45
f 47/122/56 48/123/55 49/115/77 50/108/76 51/114/87
f 52/124/63 53/125/62 54/116/81
f 59/9/94 60/10/97 61/4/44 62/3/43
f 63/22/58 64/21/57 65/27/99 66/28/98
f 67/35/103 68/26/89 69/34/88
f 70/16/100 71/18/86 72/12/85
s off
f 81/137/125 82/138/126 83/139/127 84/140/128
f 87/141/129 88/142/130 89/143/131 90/144/132
f 82/145/133 83/146/134 84/147/135 81/148/136
f 87/149/137 88/150/138 89/151/139 90/152/140
s 3
f 81/72/41 84/65/16 96/70/28 95/73/95
f 93/71/29 88/64/15 87/74/49 94/75/102
