# This file uses centimeters as units for non-parametric coordinates.

mtllib SlantCylinderA.mtl
g default
v -1.000000 -1.745693 -0.386463
v -0.939693 -1.520364 -0.044443
v -0.766045 -1.304677 0.256325
v -0.500000 -1.122037 0.479563
v -0.173648 -1.002590 0.598345
v 0.173648 -1.002590 0.598345
v 0.500000 -1.122037 0.479563
v 0.766044 -1.304677 0.256325
v 0.939693 -1.520364 -0.044442
v 1.000000 -1.745693 -0.386463
v -1.000000 0.215543 -0.386463
v -0.939693 0.215543 -0.044443
v -0.766045 0.215543 0.256325
v -0.500000 0.215543 0.479563
v -0.173648 0.215543 0.598345
v 0.173648 0.215543 0.598345
v 0.500000 0.215543 0.479563
v 0.766044 0.215543 0.256325
v 0.939693 0.215543 -0.044442
v 1.000000 0.215543 -0.386463
v 0.000000 -1.751927 -0.386463
v 0.000000 0.215543 -0.386463
vt 0.845813 0.506963
vt 0.926794 0.563380
vt 0.926794 0.998008
vt 0.845813 0.998008
vt 0.998008 0.617383
vt 0.998008 0.998008
vt 0.687482 0.617383
vt 0.758696 0.563380
vt 0.758696 0.998008
vt 0.687482 0.998008
vt 0.839677 0.506963
vt 0.839677 0.998008
vt 0.082973 0.487643
vt 0.001992 0.502742
vt 0.001992 0.252367
vt 0.154187 0.444166
vt 0.207044 0.377555
vt 0.235169 0.295844
vt 0.235169 0.208890
vt 0.207044 0.127180
vt 0.154187 0.060569
vt 0.082973 0.017091
vt 0.001992 0.001992
vt 0.475085 0.502742
vt 0.394103 0.487643
vt 0.475085 0.252367
vt 0.322890 0.444166
vt 0.270033 0.377555
vt 0.241908 0.295844
vt 0.241908 0.208890
vt 0.270033 0.127180
vt 0.322889 0.060569
vt 0.394103 0.017091
vt 0.475085 0.001992
vt 0.321399 0.890560
vt 0.364643 0.823949
vt 0.681347 0.823949
vt 0.681347 0.890560
vt 0.392925 0.742239
vt 0.681347 0.742239
vt 0.392925 0.655285
vt 0.681347 0.655285
vt 0.364643 0.573574
vt 0.681347 0.573574
vt 0.321399 0.506963
vt 0.681347 0.506963
vt 0.947475 0.252367
vt 0.481629 0.252367
vt 0.481629 0.001992
vt 0.945999 0.001992
vt 0.481629 0.502742
vt 0.945999 0.502742
vn -0.984808 0.000000 0.173648
vn -0.962001 0.000000 0.273048
vn -0.943459 0.000000 0.331490
vn -0.984808 0.000000 0.173648
vn -0.807382 0.000000 0.590029
vn -0.773378 0.000000 0.633945
vn -0.544928 0.000000 0.838483
vn -0.508497 0.000000 0.861064
vn -0.194277 0.000000 0.980947
vn -0.177802 0.000000 0.984066
vn 0.194277 0.000000 0.980947
vn 0.177801 0.000000 0.984066
vn 0.544928 0.000000 0.838483
vn 0.508497 0.000000 0.861064
vn 0.807382 0.000000 0.590029
vn 0.773378 0.000000 0.633946
vn 0.962000 0.000000 0.273048
vn 0.943459 0.000000 0.331490
vn 0.984808 0.000000 0.173648
vn 0.984808 0.000000 0.173648
vn 0.003041 -0.824160 0.566350
vn -0.005203 -0.834630 0.550787
vn -0.000000 -0.809976 0.586464
vn 0.027775 -0.804711 0.593016
vn 0.055407 -0.791982 0.608025
vn 0.030776 -0.792819 0.608680
vn -0.030776 -0.792819 0.608680
vn -0.055407 -0.791982 0.608025
vn -0.027775 -0.804711 0.593016
vn -0.003041 -0.824160 0.566349
vn 0.005203 -0.834630 0.550787
vn 0.000000 1.000000 0.000000
vn 0.000000 1.000000 0.000000
vn 0.000000 1.000000 0.000000
vn 0.000000 1.000000 0.000000
vn 0.000000 1.000000 0.000000
vn 0.000000 1.000000 0.000000
vn 0.000000 1.000000 0.000000
vn 0.000000 1.000000 0.000000
vn 0.000000 1.000000 0.000000
vn 0.000000 1.000000 0.000000
vn 0.000000 1.000000 0.000000
vn 0.000000 0.000000 -1.000000
vn 0.000000 0.000000 -1.000000
vn 0.000000 0.000000 -1.000000
vn 0.000000 0.000000 -1.000000
vn 0.000000 0.000000 -1.000000
vn 0.000000 0.000000 -1.000000
s 1
g pCylinder6
usemtl initialShadingGroup
f 1/1/1 2/2/2 12/3/3 11/4/4
f 2/2/2 3/5/5 13/6/6 12/3/3
f 3/35/5 4/36/7 14/37/8 13/38/6
f 4/36/7 5/39/9 15/40/10 14/37/8
f 5/39/9 6/41/11 16/42/12 15/40/10
f 6/41/11 7/43/13 17/44/14 16/42/12
f 7/43/13 8/45/15 18/46/16 17/44/14
f 8/7/15 9/8/17 19/9/18 18/10/16
f 9/8/17 10/11/19 20/12/20 19/9/18
s 2
f 2/13/21 1/14/22 21/15/23
f 3/16/24 2/13/21 21/15/23
f 4/17/25 3/16/24 21/15/23
f 5/18/26 4/17/25 21/15/23
f 6/19/27 5/18/26 21/15/23
f 7/20/28 6/19/27 21/15/23
f 8/21/29 7/20/28 21/15/23
f 9/22/30 8/21/29 21/15/23
f 10/23/31 9/22/30 21/15/23
s 3
f 11/24/32 12/25/33 22/26/34
f 12/25/33 13/27/35 22/26/34
f 13/27/35 14/28/36 22/26/34
f 14/28/36 15/29/37 22/26/34
f 15/29/37 16/30/38 22/26/34
f 16/30/38 17/31/39 22/26/34
f 17/31/39 18/32/40 22/26/34
f 18/32/40 19/33/41 22/26/34
f 19/33/41 20/34/42 22/26/34
s 4
f 21/47/43 22/48/44 20/49/45 10/50/46
f 11/51/47 22/48/44 21/47/43 1/52/48
