# This file uses centimeters as units for non-parametric coordinates.

mtllib Barrel.mtl
g default
v 2.414809 -2.788381 -1.394191
v 1.394191 -2.788381 -2.414809
v 0.000000 -2.788381 -2.788381
v -1.394191 -2.788381 -2.414809
v -2.414809 -2.788381 -1.394191
v -2.788381 -2.788381 0.000000
v -2.414809 -2.788381 1.394191
v -1.394191 -2.788381 2.414809
v 0.000000 -2.788381 2.788381
v 1.394191 -2.788381 2.414809
v 2.414809 -2.788381 1.394191
v 2.788381 -2.788381 0.000000
v 2.414809 2.788381 -1.394191
v 1.394191 2.788381 -2.414809
v 0.000000 2.788381 -2.788381
v -1.394191 2.788381 -2.414809
v -2.414809 2.788381 -1.394191
v -2.788381 2.788381 0.000000
v -2.414809 2.788381 1.394191
v -1.394191 2.788381 2.414809
v 0.000000 2.788381 2.788381
v 1.394191 2.788381 2.414809
v 2.414809 2.788381 1.394191
v 2.788381 2.788381 0.000000
v 2.034163 3.172774 -1.174424
v 1.174424 3.172774 -2.034163
v 0.000000 3.172774 -2.348849
v -1.174424 3.172774 -2.034163
v -2.034163 3.172774 -1.174424
v -2.348849 3.172774 0.000000
v -2.034163 3.172774 1.174424
v -1.174424 3.172774 2.034163
v 0.000000 3.172774 2.348849
v 1.174424 3.172774 2.034163
v 2.034163 3.172774 1.174424
v 2.348849 3.172774 0.000000
v 1.602437 2.804345 -0.925167
v 0.925167 2.804345 -1.602437
v 0.000000 2.804344 -0.000000
v 0.000000 2.804345 -1.850335
v -0.925167 2.804345 -1.602437
v -1.602437 2.804345 -0.925167
v -1.850335 2.804345 0.000000
v -1.602437 2.804345 0.925167
v -0.925167 2.804345 1.602437
v 0.000000 2.804345 1.850335
v 0.925167 2.804345 1.602437
v 1.602437 2.804345 0.925167
v 1.850335 2.804345 0.000000
v 1.825994 -3.029199 -1.054238
v 1.054238 -3.029199 -1.825994
v 0.000000 -2.427541 -0.000000
v 0.000000 -3.029199 -2.108477
v -1.054238 -3.029199 -1.825994
v -1.825994 -3.029199 -1.054238
v -2.108477 -3.029199 -0.000000
v -1.825994 -3.029199 1.054238
v -1.054238 -3.029199 1.825994
v 0.000000 -3.029199 2.108477
v 1.054238 -3.029199 1.825994
v 1.825994 -3.029199 1.054238
v 2.108477 -3.029199 -0.000000
vt 0.413690 0.001601
vt 0.509907 0.001601
vt 0.509907 0.386471
vt 0.413690 0.386471
vt 0.606125 0.001601
vt 0.606125 0.386471
vt 0.509907 0.412999
vt 0.428857 0.412999
vt 0.343254 0.001601
vt 0.343254 0.386471
vt 0.676561 0.001601
vt 0.676561 0.386471
vt 0.590958 0.412999
vt 0.072428 0.001601
vt 0.168646 0.001601
vt 0.168646 0.386471
vt 0.072428 0.386471
vt 0.264863 0.001601
vt 0.264863 0.386471
vt 0.168646 0.412999
vt 0.087595 0.412999
vt 0.001992 0.001601
vt 0.001992 0.386471
vt 0.335299 0.001601
vt 0.335299 0.386471
vt 0.249697 0.412999
vt 0.480985 0.536669
vt 0.534246 0.483408
vt 0.607002 0.609425
vt 0.440349 0.513208
vt 0.510785 0.442772
vt 0.607002 0.463913
vt 0.461490 0.609425
vt 0.607002 0.416990
vt 0.414567 0.609425
vt 0.679759 0.483408
vt 0.480985 0.682182
vt 0.703220 0.442772
vt 0.440349 0.705643
vt 0.733020 0.536669
vt 0.534246 0.735443
vt 0.773656 0.513208
vt 0.510785 0.776079
vt 0.752515 0.609425
vt 0.607002 0.754938
vt 0.799438 0.609425
vt 0.607002 0.801861
vt 0.733020 0.682182
vt 0.679759 0.735443
vt 0.773656 0.705643
vt 0.703220 0.776079
vt 0.352368 0.673274
vt 0.305627 0.720015
vt 0.241778 0.609425
vt 0.382162 0.690476
vt 0.322829 0.749810
vt 0.241778 0.737123
vt 0.369476 0.609425
vt 0.408432 0.705643
vt 0.337996 0.776079
vt 0.241778 0.771527
vt 0.403880 0.609425
vt 0.177930 0.720015
vt 0.352368 0.545577
vt 0.241778 0.801861
vt 0.160728 0.749810
vt 0.382162 0.528375
vt 0.131189 0.673274
vt 0.305627 0.498836
vt 0.145561 0.776079
vt 0.101394 0.690476
vt 0.322829 0.469041
vt 0.114081 0.609425
vt 0.241778 0.481728
vt 0.075125 0.705643
vt 0.079677 0.609425
vt 0.337996 0.442772
vt 0.408432 0.513208
vt 0.241778 0.447324
vt 0.131189 0.545577
vt 0.177930 0.498836
vt 0.101394 0.528375
vt 0.241778 0.416990
vt 0.160728 0.469041
vt 0.145561 0.442772
vt 0.075125 0.513208
vt 0.876755 0.386471
vt 0.780538 0.386471
vt 0.780538 0.001601
vt 0.876755 0.001601
vt 0.684320 0.386471
vt 0.684320 0.001601
vt 0.805573 0.390462
vt 0.901790 0.390462
vt 0.901790 0.775332
vt 0.805573 0.775332
vt 0.998008 0.390462
vt 0.998008 0.775332
vn 0.704597 -0.084181 -0.704597
vn 0.704597 -0.084181 -0.704597
vn 0.707107 0.000000 -0.707107
vn 0.707107 0.000000 -0.707107
vn 0.257900 -0.084181 -0.962497
vn 0.257900 -0.084181 -0.962497
vn 0.258819 0.000000 -0.965926
vn 0.258819 0.000000 -0.965926
vn -0.257900 -0.084181 -0.962497
vn -0.257900 -0.084181 -0.962497
vn -0.258819 0.000000 -0.965926
vn -0.258819 0.000000 -0.965926
vn -0.704597 -0.084181 -0.704597
vn -0.704597 -0.084181 -0.704597
vn -0.707107 0.000000 -0.707107
vn -0.707107 0.000000 -0.707107
vn -0.962497 -0.084181 -0.257900
vn -0.962497 -0.084181 -0.257900
vn -0.965926 0.000000 -0.258819
vn -0.965926 0.000000 -0.258819
vn -0.962497 -0.084181 0.257900
vn -0.962497 -0.084181 0.257900
vn -0.965926 0.000000 0.258819
vn -0.965926 0.000000 0.258819
vn -0.704597 -0.084181 0.704597
vn -0.704597 -0.084181 0.704597
vn -0.707107 0.000000 0.707107
vn -0.707107 0.000000 0.707107
vn -0.257900 -0.084181 0.962497
vn -0.257900 -0.084181 0.962497
vn -0.258819 0.000000 0.965926
vn -0.258819 0.000000 0.965926
vn 0.257900 -0.084181 0.962497
vn 0.257900 -0.084181 0.962497
vn 0.258819 0.000000 0.965926
vn 0.258819 0.000000 0.965926
vn 0.704597 -0.084181 0.704597
vn 0.704597 -0.084181 0.704597
vn 0.707107 0.000000 0.707107
vn 0.707107 0.000000 0.707107
vn 0.962497 -0.084181 0.257900
vn 0.962497 -0.084181 0.257900
vn 0.965926 0.000000 0.258819
vn 0.965926 0.000000 0.258819
vn 0.962497 -0.084181 -0.257900
vn 0.962497 -0.084181 -0.257900
vn 0.965926 0.000000 -0.258819
vn 0.965926 0.000000 -0.258819
vn -0.137200 -0.961616 0.237637
vn -0.237637 -0.961616 0.137200
vn 0.000000 -1.000000 -0.000000
vn 0.000000 -0.961616 0.274399
vn 0.137200 -0.961616 0.237637
vn 0.237637 -0.961616 0.137200
vn 0.274399 -0.961616 0.000000
vn 0.237637 -0.961616 -0.137200
vn 0.137200 -0.961616 -0.237637
vn 0.000000 -0.961616 -0.274399
vn -0.137200 -0.961616 -0.237637
vn -0.237637 -0.961616 -0.137200
vn -0.274399 -0.961616 0.000000
vn -0.000000 1.000000 0.000000
vn -0.000000 1.000000 0.000001
vn 0.000000 1.000000 -0.000000
vn 0.000000 1.000000 0.000001
vn 0.000000 1.000000 0.000000
vn 0.000000 1.000000 0.000000
vn 0.000000 1.000000 0.000000
vn 0.000000 1.000000 -0.000000
vn 0.000000 1.000000 -0.000001
vn 0.000000 1.000000 -0.000001
vn -0.000000 1.000000 -0.000000
vn -0.000000 1.000000 -0.000000
vn -0.000000 1.000000 0.000000
vn 0.474591 0.741300 -0.474591
vn 0.474591 0.741300 -0.474591
vn 0.474591 0.741300 -0.474591
vn 0.474591 0.741300 -0.474591
vn 0.173713 0.741300 -0.648304
vn 0.173713 0.741300 -0.648304
vn 0.173713 0.741300 -0.648304
vn 0.173713 0.741300 -0.648304
vn -0.173713 0.741300 -0.648304
vn -0.173713 0.741300 -0.648304
vn -0.173713 0.741300 -0.648304
vn -0.173713 0.741300 -0.648304
vn -0.474591 0.741300 -0.474591
vn -0.474591 0.741300 -0.474591
vn -0.474591 0.741300 -0.474591
vn -0.474591 0.741300 -0.474591
vn -0.648304 0.741300 -0.173712
vn -0.648304 0.741300 -0.173712
vn -0.648304 0.741301 -0.173712
vn -0.648304 0.741300 -0.173712
vn -0.648304 0.741300 0.173712
vn -0.648304 0.741300 0.173712
vn -0.648304 0.741300 0.173712
vn -0.648304 0.741301 0.173712
vn -0.474591 0.741300 0.474591
vn -0.474591 0.741300 0.474591
vn -0.474591 0.741300 0.474591
vn -0.474591 0.741300 0.474591
vn -0.173713 0.741300 0.648304
vn -0.173713 0.741300 0.648304
vn -0.173713 0.741300 0.648304
vn -0.173713 0.741300 0.648304
vn 0.173713 0.741300 0.648304
vn 0.173713 0.741300 0.648304
vn 0.173713 0.741300 0.648304
vn 0.173713 0.741300 0.648304
vn 0.474591 0.741300 0.474591
vn 0.474591 0.741300 0.474591
vn 0.474591 0.741300 0.474591
vn 0.474591 0.741300 0.474591
vn 0.648304 0.741300 0.173712
vn 0.648304 0.741300 0.173712
vn 0.648304 0.741301 0.173712
vn 0.648304 0.741300 0.173712
vn 0.648304 0.741300 -0.173712
vn 0.648304 0.741300 -0.173712
vn 0.648304 0.741300 -0.173712
vn 0.648304 0.741301 -0.173712
vn -0.429681 0.794197 0.429681
vn -0.429681 0.794197 0.429681
vn -0.429681 0.794197 0.429681
vn -0.429681 0.794197 0.429681
vn -0.157274 0.794197 0.586955
vn -0.157274 0.794197 0.586955
vn -0.157274 0.794197 0.586955
vn -0.157274 0.794197 0.586955
vn 0.157274 0.794197 0.586955
vn 0.157274 0.794197 0.586955
vn 0.157274 0.794197 0.586955
vn 0.157274 0.794197 0.586955
vn 0.429681 0.794197 0.429681
vn 0.429681 0.794197 0.429681
vn 0.429681 0.794197 0.429681
vn 0.429681 0.794197 0.429681
vn 0.586955 0.794197 0.157274
vn 0.586955 0.794197 0.157274
vn 0.586955 0.794197 0.157274
vn 0.586955 0.794197 0.157274
vn 0.586955 0.794197 -0.157274
vn 0.586955 0.794197 -0.157274
vn 0.586955 0.794197 -0.157274
vn 0.586955 0.794197 -0.157274
vn 0.429681 0.794197 -0.429681
vn 0.429681 0.794197 -0.429681
vn 0.429681 0.794197 -0.429681
vn 0.429681 0.794197 -0.429681
vn 0.157274 0.794197 -0.586955
vn 0.157274 0.794197 -0.586955
vn 0.157274 0.794197 -0.586955
vn 0.157274 0.794197 -0.586955
vn -0.157274 0.794197 -0.586955
vn -0.157274 0.794197 -0.586955
vn -0.157274 0.794197 -0.586955
vn -0.157274 0.794197 -0.586955
vn -0.429681 0.794197 -0.429681
vn -0.429681 0.794197 -0.429681
vn -0.429681 0.794197 -0.429681
vn -0.429681 0.794197 -0.429681
vn -0.586955 0.794197 -0.157274
vn -0.586955 0.794197 -0.157274
vn -0.586955 0.794197 -0.157274
vn -0.586955 0.794197 -0.157274
vn -0.586955 0.794197 0.157274
vn -0.586955 0.794197 0.157274
vn -0.586955 0.794197 0.157274
vn -0.586955 0.794197 0.157274
vn 0.243438 -0.938870 -0.243438
vn 0.243438 -0.938870 -0.243438
vn 0.089104 -0.938870 -0.332542
vn 0.089104 -0.938870 -0.332542
vn -0.089104 -0.938870 -0.332542
vn -0.089104 -0.938870 -0.332542
vn -0.243438 -0.938870 -0.243438
vn -0.243438 -0.938870 -0.243438
vn -0.332542 -0.938870 -0.089104
vn -0.332542 -0.938870 -0.089104
vn -0.332542 -0.938870 0.089104
vn -0.332542 -0.938870 0.089104
vn -0.243438 -0.938870 0.243438
vn -0.243438 -0.938870 0.243438
vn -0.089104 -0.938870 0.332542
vn -0.089104 -0.938870 0.332542
vn 0.089104 -0.938870 0.332542
vn 0.089104 -0.938870 0.332542
vn 0.243438 -0.938870 0.243438
vn 0.243438 -0.938870 0.243438
vn 0.332542 -0.938870 0.089104
vn 0.332542 -0.938870 0.089104
vn 0.332542 -0.938870 -0.089104
vn 0.332542 -0.938870 -0.089104
s 1
g pCylinder2
usemtl initialShadingGroup
f 1/18/1 2/24/2 14/25/3 13/19/4
s 2
f 2/87/5 3/88/6 15/89/7 14/90/8
s 3
f 3/88/9 4/91/10 16/92/11 15/89/12
s 4
f 4/9/13 5/1/14 17/4/15 16/10/16
s 5
f 5/1/17 6/2/18 18/3/19 17/4/20
s 6
f 6/2/21 7/5/22 19/6/23 18/3/24
s 7
f 7/5/25 8/11/26 20/12/27 19/6/28
s 8
f 8/93/29 9/94/30 21/95/31 20/96/32
s 9
f 9/94/33 10/97/34 22/98/35 21/95/36
s 10
f 10/22/37 11/14/38 23/17/39 22/23/40
s 11
f 11/14/41 12/15/42 24/16/43 23/17/44
s 12
f 12/15/45 1/18/46 13/19/47 24/16/48
s 13
f 51/27/49 50/28/50 52/29/51
f 53/33/52 51/27/49 52/29/51
f 54/37/53 53/33/52 52/29/51
f 55/41/54 54/37/53 52/29/51
f 56/45/55 55/41/54 52/29/51
f 57/49/56 56/45/55 52/29/51
f 58/48/57 57/49/56 52/29/51
f 59/44/58 58/48/57 52/29/51
f 60/40/59 59/44/58 52/29/51
f 61/36/60 60/40/59 52/29/51
f 62/32/61 61/36/60 52/29/51
f 50/28/50 62/32/61 52/29/51
s 14
f 37/52/62 38/53/63 39/54/64
f 38/53/63 40/57/65 39/54/64
f 40/57/65 41/63/66 39/54/64
f 41/63/66 42/68/67 39/54/64
f 42/68/67 43/73/68 39/54/64
f 43/73/68 44/80/69 39/54/64
f 44/80/69 45/81/70 39/54/64
f 45/81/70 46/74/71 39/54/64
f 46/74/71 47/69/72 39/54/64
f 47/69/72 48/64/73 39/54/64
f 48/64/73 49/58/74 39/54/64
f 49/58/74 37/52/62 39/54/64
s off
f 13/59/75 14/60/76 26/56/77 25/55/78
f 14/60/79 15/65/80 27/61/81 26/56/82
f 15/65/83 16/70/84 28/66/85 27/61/86
f 16/70/87 17/75/88 29/71/89 28/66/90
f 17/4/91 18/3/92 30/7/93 29/8/94
f 18/3/95 19/6/96 31/13/97 30/7/98
f 19/86/99 20/85/100 32/84/101 31/82/102
f 20/85/103 21/83/104 33/79/105 32/84/106
f 21/83/107 22/77/108 34/72/109 33/79/110
f 22/77/111 23/78/112 35/67/113 34/72/114
f 23/17/115 24/16/116 36/20/117 35/21/118
f 24/16/119 13/19/120 25/26/121 36/20/122
f 25/55/123 26/56/124 38/53/125 37/52/126
f 26/56/127 27/61/128 40/57/129 38/53/130
f 27/61/131 28/66/132 41/63/133 40/57/134
f 28/66/135 29/71/136 42/68/137 41/63/138
f 29/71/139 30/76/140 43/73/141 42/68/142
f 30/76/143 31/82/144 44/80/145 43/73/146
f 31/82/147 32/84/148 45/81/149 44/80/150
f 32/84/151 33/79/152 46/74/153 45/81/154
f 33/79/155 34/72/156 47/69/157 46/74/158
f 34/72/159 35/67/160 48/64/161 47/69/162
f 35/67/163 36/62/164 49/58/165 48/64/166
f 36/62/167 25/55/168 37/52/169 49/58/170
s 1
f 2/30/2 1/31/1 50/28/171 51/27/172
s 2
f 3/35/6 2/30/5 51/27/173 53/33/174
s 3
f 4/39/10 3/35/9 53/33/175 54/37/176
s 4
f 5/43/14 4/39/13 54/37/177 55/41/178
s 5
f 6/47/18 5/43/17 55/41/179 56/45/180
s 6
f 7/51/22 6/47/21 56/45/181 57/49/182
s 7
f 8/50/26 7/51/25 57/49/183 58/48/184
s 8
f 9/46/30 8/50/29 58/48/185 59/44/186
s 9
f 10/42/34 9/46/33 59/44/187 60/40/188
s 10
f 11/38/38 10/42/37 60/40/189 61/36/190
s 11
f 12/34/42 11/38/41 61/36/191 62/32/192
s 12
f 1/31/46 12/34/45 62/32/193 50/28/194
