# This file uses centimeters as units for non-parametric coordinates.

mtllib DesertPlant.mtl
g default
v -0.472569 0.011112 -0.156776
v -0.866019 0.296800 0.098958
v -0.964922 0.530519 0.727504
v -0.072976 -0.267300 0.009431
v -0.220942 -0.125253 0.178337
v -0.530070 0.089100 0.358018
v -0.593466 0.213316 0.563536
v -0.358384 0.089100 0.508420
v -0.553772 0.213316 0.598309
v 0.144368 0.011112 0.383679
v -0.057369 0.296800 0.807359
v -0.667435 0.530519 0.988111
v -0.731422 0.142680 -0.107034
v -0.433490 -0.031497 0.189176
v -0.203718 -0.031497 0.390463
v 0.129120 0.142680 0.646826
v -0.966837 0.411086 0.360357
v -0.615937 0.176238 0.465927
v -0.454055 0.176238 0.607740
v -0.303229 0.411086 0.941698
v 0.115308 0.012525 0.410092
v 0.568346 0.295964 0.537529
v 1.107461 0.527004 0.197746
v -0.024364 -0.265195 -0.000000
v 0.200891 -0.124266 -0.000000
v 0.540806 0.088398 0.114124
v 0.737784 0.211636 0.026385
v 0.540806 0.088398 -0.114124
v 0.737784 0.211636 -0.026385
v 0.115308 0.012525 -0.334473
v 0.568346 0.295964 -0.537529
v 1.107461 0.527004 -0.197746
v 0.323945 0.143057 0.572022
v 0.349566 -0.031249 0.152735
v 0.349566 -0.031249 -0.152735
v 0.323945 0.143057 -0.496402
v 0.831968 0.408940 0.441116
v 0.678986 0.174850 0.107606
v 0.678986 0.174850 -0.107606
v 0.831968 0.408940 -0.441116
v -0.150948 0.137791 -0.282421
v -0.384729 0.354639 -0.375124
v -0.682001 0.563845 -0.186093
v -0.106127 -0.031190 -0.025154
v -0.242439 0.063366 -0.026366
v -0.437771 0.244216 -0.116392
v -0.553691 0.354790 -0.047224
v -0.441223 0.251525 0.037250
v -0.162071 0.161344 0.212650
v -0.399310 0.385511 0.273790
v -0.687365 0.575202 0.052630
v -0.257211 0.234691 -0.387431
v -0.326320 0.139175 -0.087760
v -0.330940 0.148957 0.040365
v -0.272727 0.267544 0.303124
v -0.529146 0.454936 -0.324784
v -0.517977 0.319429 -0.084522
v -0.521232 0.326320 0.005304
v -0.541112 0.480270 0.207739
v -0.198313 0.146968 0.157025
v -0.147934 0.409579 0.353922
v 0.175597 0.635504 0.464178
v -0.008243 -0.061402 0.025857
v 0.062208 0.049179 0.127402
v 0.093564 0.270035 0.298298
v 0.216900 0.387094 0.337460
v 0.226728 0.256200 0.222488
v 0.230773 0.102389 -0.087252
v 0.414490 0.351148 0.033735
v 0.382502 0.614008 0.346388
v -0.229124 0.273519 0.278450
v 0.053055 0.152010 0.207876
v 0.157464 0.133495 0.134841
v 0.369392 0.211339 -0.062283
v -0.026214 0.523844 0.428606
v 0.155177 0.334757 0.319023
v 0.223464 0.323341 0.286512
v 0.435332 0.475893 0.165848
v 0.158473 0.011939 -0.002738
v 0.309851 0.284164 -0.117844
v 0.250023 0.543169 -0.429625
v -0.053739 -0.181394 -0.122480
v -0.006151 -0.076425 -0.211876
v 0.131219 0.151634 -0.301791
v 0.106540 0.281059 -0.416196
v -0.000828 0.148173 -0.380677
v -0.267012 0.000784 -0.256926
v -0.247854 0.269543 -0.451020
v 0.044854 0.537790 -0.552194
v 0.281745 0.138711 -0.023751
v 0.083195 0.024885 -0.242834
v -0.017521 0.020252 -0.293008
v -0.311747 0.123151 -0.378308
v 0.316773 0.411763 -0.248689
v 0.133620 0.243541 -0.377496
v 0.056086 0.240277 -0.416336
v -0.140900 0.399764 -0.522106
v 0.270407 0.040421 -0.398764
v 0.179315 0.269816 -0.889581
v -0.368135 0.437250 -1.252542
v -0.027368 -0.219371 -0.069142
v -0.129942 -0.105314 -0.286098
v -0.181557 0.066801 -0.662269
v -0.350575 0.166541 -0.814489
v -0.387904 0.066801 -0.564710
v -0.398282 0.166541 -0.791933
v -0.471081 0.040421 -0.048195
v -0.792591 0.269816 -0.430072
v -0.725680 0.437250 -1.083498
v 0.321792 0.146064 -0.668927
v -0.059565 -0.030033 -0.494578
v -0.335724 -0.030033 -0.364012
v -0.712481 0.146064 -0.179932
v -0.025336 0.351690 -1.096872
v -0.250372 0.136769 -0.792573
v -0.444936 0.136769 -0.700585
v -0.822918 0.351690 -0.719783
vt 0.118552 0.806189
vt 0.001652 0.628522
vt 0.304342 0.679584
vt 0.414604 0.806189
vt 0.026553 0.420399
vt 0.332216 0.516730
vt 0.524866 0.679584
vt 0.414604 0.998008
vt 0.096155 0.215803
vt 0.336921 0.399061
vt 0.496992 0.516730
vt 0.827556 0.628522
vt 0.710656 0.806189
vt 0.271848 0.001992
vt 0.395556 0.348991
vt 0.492287 0.399061
vt 0.802655 0.420399
vt 0.433652 0.348991
vt 0.733053 0.215803
vt 0.557360 0.001992
vt 0.414604 0.998008
vt 0.118552 0.806189
vt 0.414604 0.806189
vt 0.001652 0.628522
vt 0.304342 0.679584
vt 0.026553 0.420399
vt 0.096155 0.215803
vt 0.336921 0.399061
vt 0.332216 0.516730
vt 0.524866 0.679584
vt 0.492287 0.399061
vt 0.496992 0.516730
vt 0.710656 0.806189
vt 0.827556 0.628522
vt 0.733053 0.215803
vt 0.802655 0.420399
vt 0.271848 0.001992
vt 0.395556 0.348991
vt 0.433652 0.348991
vt 0.557360 0.001992
vt 0.414604 0.998008
vt 0.118552 0.806189
vt 0.414604 0.806189
vt 0.001652 0.628522
vt 0.304342 0.679584
vt 0.026553 0.420399
vt 0.096155 0.215803
vt 0.336921 0.399061
vt 0.332216 0.516730
vt 0.524866 0.679584
vt 0.492287 0.399061
vt 0.496992 0.516730
vt 0.710656 0.806189
vt 0.827556 0.628522
vt 0.733053 0.215803
vt 0.802655 0.420399
vt 0.271848 0.001992
vt 0.414604 0.348991
vt 0.557360 0.001992
vt 0.414604 0.998008
vt 0.118552 0.806189
vt 0.414604 0.806189
vt 0.001652 0.628522
vt 0.304342 0.679584
vt 0.026553 0.420399
vt 0.096155 0.215803
vt 0.336921 0.399061
vt 0.332216 0.516730
vt 0.524866 0.679584
vt 0.492287 0.399061
vt 0.496992 0.516730
vt 0.710656 0.806189
vt 0.827556 0.628522
vt 0.733053 0.215803
vt 0.802655 0.420399
vt 0.271848 0.001992
vt 0.414604 0.348991
vt 0.557360 0.001992
vt 0.414604 0.998008
vt 0.118552 0.806189
vt 0.414604 0.806189
vt 0.001652 0.628522
vt 0.304342 0.679584
vt 0.026553 0.420399
vt 0.096155 0.215803
vt 0.336921 0.399061
vt 0.332216 0.516730
vt 0.524866 0.679584
vt 0.492287 0.399061
vt 0.496992 0.516730
vt 0.710656 0.806189
vt 0.827556 0.628522
vt 0.733053 0.215803
vt 0.802655 0.420399
vt 0.271848 0.001992
vt 0.414604 0.348991
vt 0.557360 0.001992
vt 0.414604 0.998008
vt 0.118552 0.806189
vt 0.414604 0.806189
vt 0.001652 0.628522
vt 0.304342 0.679584
vt 0.026553 0.420399
vt 0.096155 0.215803
vt 0.336921 0.399061
vt 0.332216 0.516730
vt 0.524866 0.679584
vt 0.492287 0.399061
vt 0.496992 0.516730
vt 0.710656 0.806189
vt 0.827556 0.628522
vt 0.733053 0.215803
vt 0.802655 0.420399
vt 0.271848 0.001992
vt 0.395556 0.348991
vt 0.433652 0.348991
vt 0.557360 0.001992
vn 0.352270 0.845106 -0.402122
vn 0.462392 0.886021 0.034071
vn 0.278033 0.906625 -0.317379
vn 0.571056 0.813569 -0.109545
vn 0.497209 0.858386 -0.126318
vn 0.603776 0.780947 -0.159927
vn 0.577328 0.785508 -0.222868
vn 0.551139 0.799855 -0.237653
vn 0.531678 0.811144 -0.243646
vn 0.059793 0.858386 -0.509507
vn 0.163063 0.799855 -0.577619
vn 0.171565 0.811144 -0.559116
vn -0.094620 0.886021 -0.453888
vn 0.033447 0.813569 -0.580506
vn 0.144960 0.785508 -0.601635
vn 0.079086 0.780947 -0.619571
vn 0.566310 0.771647 -0.289574
vn 0.547108 0.780948 -0.301319
vn 0.226706 0.780948 -0.582001
vn 0.212536 0.771647 -0.599491
vn -0.530312 0.847630 -0.017126
vn -0.274653 0.887398 -0.370259
vn -0.405683 0.914010 0.002504
vn -0.454641 0.815840 -0.357361
vn -0.418374 0.860478 -0.290761
vn -0.514260 0.783514 -0.348773
vn -0.544152 0.788224 -0.287405
vn -0.537945 0.802540 -0.257963
vn -0.529574 0.813788 -0.239376
vn -0.380355 0.865541 0.325836
vn -0.537945 0.802540 0.257963
vn -0.510006 0.822775 0.250868
vn -0.221220 0.871765 0.437136
vn -0.411349 0.816985 0.404138
vn -0.544153 0.788223 0.287405
vn -0.487122 0.792205 0.367590
vn -0.587137 0.774577 -0.235162
vn -0.583272 0.783858 -0.212979
vn -0.583272 0.783858 0.212979
vn -0.587137 0.774577 0.235162
vn 0.569998 0.821573 -0.010954
vn 0.435597 0.816543 0.378832
vn 0.514938 0.856837 -0.025852
vn 0.556559 0.735862 0.385680
vn 0.562874 0.772635 0.293611
vn 0.632771 0.672593 0.383691
vn 0.691436 0.638637 0.337726
vn 0.700436 0.658011 0.276425
vn 0.654304 0.695880 0.296036
vn 0.565088 0.739551 -0.365705
vn 0.715242 0.618314 -0.325756
vn 0.671283 0.659899 -0.337508
vn 0.419574 0.784571 -0.456515
vn 0.566884 0.688550 -0.452262
vn 0.709090 0.593359 -0.380942
vn 0.650197 0.619144 -0.440346
vn 0.736292 0.613102 0.286323
vn 0.782296 0.622901 -0.002487
vn 0.759961 0.567532 -0.316807
vn -0.271379 0.739065 -0.616552
vn 0.136004 0.661180 -0.737796
vn -0.244967 0.751484 -0.612588
vn 0.083782 0.575822 -0.813271
vn -0.008286 0.627080 -0.778911
vn 0.038372 0.499151 -0.865665
vn -0.040884 0.449564 -0.892312
vn -0.078599 0.476059 -0.875894
vn -0.042573 0.538634 -0.841464
vn -0.579453 0.686434 -0.439365
vn -0.629607 0.532541 -0.565681
vn -0.616566 0.598555 -0.511448
vn -0.590877 0.748011 -0.302231
vn -0.652097 0.646861 -0.395399
vn -0.677214 0.510672 -0.529713
vn -0.685488 0.574173 -0.447696
vn -0.089119 0.437840 -0.894625
vn -0.394604 0.486055 -0.779768
vn -0.654445 0.478650 -0.585318
vn -0.389220 0.693133 0.606691
vn -0.684962 0.681515 0.257611
vn -0.362829 0.729685 0.579582
vn -0.748953 0.541605 0.381751
vn -0.674167 0.598385 0.432936
vn -0.769377 0.459237 0.444027
vn -0.743196 0.421404 0.519692
vn -0.700319 0.445770 0.557532
vn -0.704079 0.487303 0.516536
vn -0.087194 0.607302 0.789672
vn -0.170500 0.459461 0.871680
vn -0.128103 0.511770 0.849518
vn 0.051906 0.679668 0.731681
vn -0.008463 0.567932 0.823032
vn -0.122309 0.435440 0.891870
vn -0.044574 0.490577 0.870257
vn -0.709240 0.378956 0.594450
vn -0.468214 0.411136 0.782140
vn -0.190604 0.401810 0.895667
vn 0.183477 0.903182 0.388071
vn -0.261789 0.913118 0.312542
vn 0.132513 0.950728 0.280279
vn -0.170187 0.862759 0.476113
vn -0.127572 0.902924 0.410431
vn -0.135519 0.837512 0.529348
vn -0.067579 0.845631 0.529472
vn -0.044301 0.859138 0.509823
vn -0.031606 0.869348 0.493190
vn 0.398153 0.902924 0.161874
vn 0.422121 0.859138 0.289303
vn 0.401209 0.869348 0.288558
vn 0.407676 0.913118 -0.003975
vn 0.475957 0.862759 0.170622
vn 0.452079 0.845631 0.283783
vn 0.495098 0.837512 0.231197
vn -0.001426 0.837024 0.547164
vn 0.016531 0.845799 0.533245
vn 0.401618 0.845799 0.351180
vn 0.423770 0.837024 0.346135
s 1
g pPlane7
usemtl initialShadingGroup
f 4/8/1 1/1/2 5/4/3
f 1/1/2 13/2/4 14/3/5 5/4/3
f 2/5/6 17/9/7 18/10/8 6/6/9
f 5/4/3 14/3/5 15/7/10
f 6/6/9 18/10/8 19/16/11 8/11/12
f 4/8/1 5/4/3 10/13/13
f 5/4/3 15/7/10 16/12/14 10/13/13
f 8/11/12 19/16/11 20/19/15 11/17/16
f 13/2/4 2/5/6 6/6/9 14/3/5
f 15/7/10 14/3/5 6/6/9 8/11/12
f 16/12/14 15/7/10 8/11/12 11/17/16
f 17/9/7 3/14/17 7/15/18 18/10/8
f 19/16/11 18/10/8 7/15/18 9/18/19
f 20/19/15 19/16/11 9/18/19 12/20/20
s 3
f 24/21/21 21/22/22 25/23/23
f 21/22/22 33/24/24 34/25/25 25/23/23
f 22/26/26 37/27/27 38/28/28 26/29/29
f 25/23/23 34/25/25 35/30/30
f 26/29/29 38/28/28 39/31/31 28/32/32
f 24/21/21 25/23/23 30/33/33
f 25/23/23 35/30/30 36/34/34 30/33/33
f 28/32/32 39/31/31 40/35/35 31/36/36
f 33/24/24 22/26/26 26/29/29 34/25/25
f 35/30/30 34/25/25 26/29/29 28/32/32
f 36/34/34 35/30/30 28/32/32 31/36/36
f 37/27/27 23/37/37 27/38/38 38/28/28
f 39/31/31 38/28/28 27/38/38 29/39/39
f 40/35/35 39/31/31 29/39/39 32/40/40
s 5
f 44/41/41 41/42/42 45/43/43
f 41/42/42 52/44/44 53/45/45 45/43/43
f 42/46/46 56/47/47 57/48/48 46/49/49
f 45/43/43 53/45/45 54/50/50
f 46/49/49 57/48/48 58/51/51 48/52/52
f 44/41/41 45/43/43 49/53/53
f 45/43/43 54/50/50 55/54/54 49/53/53
f 48/52/52 58/51/51 59/55/55 50/56/56
f 52/44/44 42/46/46 46/49/49 53/45/45
f 54/50/50 53/45/45 46/49/49 48/52/52
f 55/54/54 54/50/50 48/52/52 50/56/56
f 56/47/47 43/57/57 47/58/58 57/48/48
f 58/51/51 57/48/48 47/58/58
f 59/55/55 58/51/51 47/58/58 51/59/59
s 7
f 63/60/60 60/61/61 64/62/62
f 60/61/61 71/63/63 72/64/64 64/62/62
f 61/65/65 75/66/66 76/67/67 65/68/68
f 64/62/62 72/64/64 73/69/69
f 65/68/68 76/67/67 77/70/70 67/71/71
f 63/60/60 64/62/62 68/72/72
f 64/62/62 73/69/69 74/73/73 68/72/72
f 67/71/71 77/70/70 78/74/74 69/75/75
f 71/63/63 61/65/65 65/68/68 72/64/64
f 73/69/69 72/64/64 65/68/68 67/71/71
f 74/73/73 73/69/69 67/71/71 69/75/75
f 75/66/66 62/76/76 66/77/77 76/67/67
f 77/70/70 76/67/67 66/77/77
f 78/74/74 77/70/70 66/77/77 70/78/78
s 9
f 82/79/79 79/80/80 83/81/81
f 79/80/80 90/82/82 91/83/83 83/81/81
f 80/84/84 94/85/85 95/86/86 84/87/87
f 83/81/81 91/83/83 92/88/88
f 84/87/87 95/86/86 96/89/89 86/90/90
f 82/79/79 83/81/81 87/91/91
f 83/81/81 92/88/88 93/92/92 87/91/91
f 86/90/90 96/89/89 97/93/93 88/94/94
f 90/82/82 80/84/84 84/87/87 91/83/83
f 92/88/88 91/83/83 84/87/87 86/90/90
f 93/92/92 92/88/88 86/90/90 88/94/94
f 94/85/85 81/95/95 85/96/96 95/86/86
f 96/89/89 95/86/86 85/96/96
f 97/93/93 96/89/89 85/96/96 89/97/97
s 11
f 101/98/98 98/99/99 102/100/100
f 98/99/99 110/101/101 111/102/102 102/100/100
f 99/103/103 114/104/104 115/105/105 103/106/106
f 102/100/100 111/102/102 112/107/107
f 103/106/106 115/105/105 116/108/108 105/109/109
f 101/98/98 102/100/100 107/110/110
f 102/100/100 112/107/107 113/111/111 107/110/110
f 105/109/109 116/108/108 117/112/112 108/113/113
f 110/101/101 99/103/103 103/106/106 111/102/102
f 112/107/107 111/102/102 103/106/106 105/109/109
f 113/111/111 112/107/107 105/109/109 108/113/113
f 114/104/104 100/114/114 104/115/115 115/105/105
f 116/108/108 115/105/105 104/115/115 106/116/116
f 117/112/112 116/108/108 106/116/116 109/117/117
