# This file uses centimeters as units for non-parametric coordinates.

mtllib Pipe.mtl
g default
v 4.618957 0.809017 -0.587785
v 4.618957 0.309017 -0.951057
v 4.618957 -0.309017 -0.951057
v 4.618957 -0.809017 -0.587785
v 4.618957 -1.000000 0.000000
v 4.618957 -0.809017 0.587785
v 4.618957 -0.309017 0.951057
v 4.618957 0.309017 0.951057
v 4.618957 0.809017 0.587785
v 4.618957 1.000000 0.000000
v 5.592958 0.809017 -0.587785
v 5.592958 0.309017 -0.951057
v 5.592958 -0.309017 -0.951057
v 5.592958 -0.809017 -0.587785
v 5.592958 -1.000000 0.000000
v 5.592958 -0.809017 0.587785
v 5.592958 -0.309018 0.951057
v 5.592958 0.309016 0.951057
v 5.592958 0.809017 0.587785
v 5.592958 1.000000 -0.000000
v 4.747514 1.060078 -0.770192
v 4.747514 0.404914 -1.246196
v 5.464401 1.060078 -0.770192
v 5.464401 0.404914 -1.246196
v 4.747514 -0.404914 -1.246196
v 5.464401 -0.404914 -1.246196
v 4.747514 -1.060078 -0.770191
v 5.464401 -1.060078 -0.770191
v 4.747514 -1.310328 0.000000
v 5.464401 -1.310328 0.000000
v 4.747514 -1.060078 0.770192
v 5.464401 -1.060078 0.770192
v 4.747514 -0.404914 1.246196
v 5.464401 -0.404914 1.246196
v 4.747514 0.404914 1.246196
v 5.464401 0.404913 1.246196
v 4.747514 1.060078 0.770191
v 5.464401 1.060078 0.770191
v 4.747514 1.310328 0.000000
v 5.464401 1.310328 0.000000
v 5.592958 0.809017 -0.587785
v 5.592957 0.309017 -0.951057
v 1.635398 -0.000000 0.000000
v 5.592957 -0.309017 -0.951057
v 5.592957 -0.809017 -0.587785
v 5.592957 -1.000000 0.000000
v 5.592957 -0.809017 0.587785
v 5.592958 -0.309018 0.951057
v 5.592958 0.309016 0.951057
v 5.592957 0.809017 0.587785
v 5.592957 1.000000 0.000000
v -4.618957 0.809017 -0.587785
v -4.618957 0.309017 -0.951057
v -4.618957 -0.309017 -0.951057
v -4.618957 -0.809017 -0.587785
v -4.618957 -1.000000 0.000000
v -4.618957 -0.809017 0.587785
v -4.618957 -0.309017 0.951057
v -4.618957 0.309017 0.951057
v -4.618957 0.809017 0.587785
v -4.618957 1.000000 -0.000000
v -5.592958 0.809017 -0.587785
v -5.592958 0.309017 -0.951057
v -5.592958 -0.309017 -0.951057
v -5.592958 -0.809017 -0.587785
v -5.592958 -1.000000 0.000000
v -5.592958 -0.809017 0.587785
v -5.592958 -0.309018 0.951057
v -5.592958 0.309016 0.951057
v -5.592958 0.809017 0.587785
v -5.592958 1.000000 -0.000000
v -4.747514 1.060078 -0.770192
v -4.747514 0.404914 -1.246196
v -5.464401 1.060078 -0.770192
v -5.464401 0.404914 -1.246196
v -4.747514 -0.404914 -1.246196
v -5.464401 -0.404914 -1.246196
v -4.747514 -1.060078 -0.770191
v -5.464401 -1.060078 -0.770191
v -4.747514 -1.310328 0.000000
v -5.464401 -1.310328 0.000000
v -4.747514 -1.060078 0.770192
v -5.464401 -1.060078 0.770192
v -4.747514 -0.404914 1.246196
v -5.464401 -0.404914 1.246196
v -4.747514 0.404914 1.246196
v -5.464401 0.404913 1.246196
v -4.747514 1.060078 0.770191
v -5.464401 1.060078 0.770191
v -4.747514 1.310328 0.000000
v -5.464401 1.310328 0.000000
v -5.592958 0.809017 -0.587785
v -5.592957 0.309017 -0.951057
v -1.635398 -0.000000 0.000000
v -5.592957 -0.309017 -0.951057
v -5.592957 -0.809017 -0.587785
v -5.592957 -1.000000 0.000000
v -5.592957 -0.809017 0.587785
v -5.592958 -0.309018 0.951057
v -5.592958 0.309016 0.951057
v -5.592957 0.809017 0.587785
v -5.592957 1.000000 0.000000
vt 0.060742 0.315967
vt 0.130311 0.315967
vt 0.130311 0.552681
vt 0.060742 0.552681
vt 0.199879 0.315967
vt 0.199879 0.552681
vt 0.017747 0.315967
vt 0.017747 0.552681
vt 0.242875 0.315967
vt 0.242875 0.552681
vt 0.370707 0.315967
vt 0.440275 0.315967
vt 0.440275 0.552680
vt 0.370707 0.552680
vt 0.509843 0.315967
vt 0.509843 0.552680
vt 0.327711 0.315967
vt 0.327711 0.552680
vt 0.552839 0.315967
vt 0.552839 0.552680
vt 0.625478 0.463462
vt 0.625478 0.554620
vt 0.607109 0.554620
vt 0.607109 0.463462
vt 0.625478 0.610958
vt 0.607109 0.610958
vt 0.625478 0.372305
vt 0.607109 0.372305
vt 0.625478 0.315967
vt 0.607109 0.315967
vt 0.649691 0.463463
vt 0.649691 0.554620
vt 0.631322 0.554620
vt 0.631322 0.463463
vt 0.649691 0.610959
vt 0.631322 0.610959
vt 0.649691 0.372305
vt 0.631322 0.372305
vt 0.649691 0.315967
vt 0.631322 0.315967
vt 0.664757 0.812074
vt 0.664757 0.742505
vt 0.664757 0.742505
vt 0.664757 0.812074
vt 0.664757 0.672937
vt 0.664757 0.672937
vt 0.766166 0.742505
vt 0.664757 0.629941
vt 0.664757 0.629941
vt 0.558683 0.463462
vt 0.577052 0.463462
vt 0.577052 0.554620
vt 0.558683 0.554620
vt 0.558683 0.372305
vt 0.577052 0.372305
vt 0.577052 0.610958
vt 0.558683 0.610958
vt 0.558683 0.315967
vt 0.577052 0.315967
vt 0.582896 0.463463
vt 0.601265 0.463463
vt 0.601265 0.554620
vt 0.582896 0.554620
vt 0.582896 0.372305
vt 0.601265 0.372305
vt 0.601265 0.610959
vt 0.582896 0.610959
vt 0.582896 0.315967
vt 0.601265 0.315967
vt 0.950527 0.998008
vt 0.950527 0.998008
vt 0.950527 0.928440
vt 0.950527 0.928440
vt 0.849118 0.928440
vt 0.950527 0.858871
vt 0.950527 0.858871
vt 0.950527 0.815876
vt 0.950527 0.815876
vt 0.261957 0.120504
vt 0.218962 0.061326
vt 0.240551 0.031611
vt 0.296889 0.109154
vt 0.149393 0.038722
vt 0.149393 0.001992
vt 0.261957 0.193653
vt 0.296889 0.205003
vt 0.079825 0.061326
vt 0.058236 0.031611
vt 0.218962 0.252831
vt 0.240551 0.282546
vt 0.036829 0.120504
vt 0.001897 0.109154
vt 0.149393 0.275436
vt 0.149393 0.312165
vt 0.036829 0.193653
vt 0.001897 0.205003
vt 0.079825 0.252831
vt 0.058236 0.282546
vt 0.380719 0.061326
vt 0.337724 0.120504
vt 0.302792 0.109154
vt 0.359130 0.031611
vt 0.337724 0.193653
vt 0.302792 0.205003
vt 0.450288 0.038722
vt 0.450288 0.001992
vt 0.380719 0.252831
vt 0.359130 0.282546
vt 0.519856 0.061326
vt 0.541445 0.031611
vt 0.450288 0.275436
vt 0.450288 0.312165
vt 0.562852 0.120504
vt 0.597784 0.109154
vt 0.519856 0.252831
vt 0.541445 0.282546
vt 0.562852 0.193653
vt 0.597784 0.205003
vt 0.081901 0.781611
vt 0.141079 0.738615
vt 0.141079 0.738615
vt 0.081901 0.781611
vt 0.163684 0.669047
vt 0.163684 0.669047
vt 0.141079 0.599478
vt 0.141079 0.599478
vt 0.081901 0.556482
vt 0.081901 0.556482
vt 0.640289 0.120504
vt 0.605357 0.109154
vt 0.661696 0.031611
vt 0.683285 0.061326
vt 0.640289 0.193653
vt 0.605357 0.205003
vt 0.752853 0.001992
vt 0.752853 0.038722
vt 0.683285 0.252831
vt 0.661696 0.282546
vt 0.844011 0.031611
vt 0.822422 0.061326
vt 0.752853 0.275436
vt 0.752853 0.312165
vt 0.900349 0.109154
vt 0.865418 0.120504
vt 0.822422 0.252831
vt 0.844011 0.282546
vt 0.900349 0.205003
vt 0.865418 0.193653
vt 0.872599 0.375300
vt 0.894188 0.345585
vt 0.950527 0.423129
vt 0.915595 0.434479
vt 0.803031 0.352696
vt 0.803031 0.315967
vt 0.950527 0.518977
vt 0.915595 0.507627
vt 0.733462 0.375300
vt 0.711873 0.345585
vt 0.894188 0.596521
vt 0.872599 0.566806
vt 0.690467 0.434479
vt 0.655535 0.423129
vt 0.803031 0.626140
vt 0.803031 0.589410
vt 0.690467 0.507627
vt 0.655535 0.518978
vt 0.711873 0.596521
vt 0.733462 0.566806
vt 0.171000 0.556482
vt 0.171000 0.556482
vt 0.230178 0.599478
vt 0.230178 0.599478
vt 0.252782 0.669047
vt 0.252782 0.669047
vt 0.230178 0.738615
vt 0.230178 0.738615
vt 0.171000 0.781611
vt 0.171000 0.781611
vt 0.734735 0.815875
vt 0.734735 0.815875
vt 0.691740 0.875054
vt 0.691740 0.875054
vt 0.321867 0.552681
vt 0.248719 0.552681
vt 0.248719 0.315967
vt 0.321867 0.315967
vt 0.001897 0.556482
vt 0.075046 0.556482
vt 0.075046 0.793196
vt 0.001897 0.793196
vt 0.819061 0.911724
vt 0.819061 0.815876
vt 0.837431 0.815876
vt 0.837431 0.911724
vt 0.813218 0.815876
vt 0.813218 0.911724
vt 0.794848 0.911724
vt 0.794848 0.815876
vt 0.449434 0.688809
vt 0.449434 0.615660
vt 0.449434 0.615660
vt 0.449434 0.688809
vt 0.550843 0.652235
vt 0.449434 0.556482
vt 0.449434 0.747988
vt 0.843274 0.889024
vt 0.843274 0.948202
vt 0.843274 0.948202
vt 0.843274 0.889024
vt 0.843274 0.815876
vt 0.843274 0.815876
vt 0.789005 0.911724
vt 0.770635 0.911724
vt 0.770635 0.815876
vt 0.789005 0.815876
vt 0.746422 0.815875
vt 0.764792 0.815875
vt 0.764792 0.911724
vt 0.746422 0.911724
vt 0.658505 0.762268
vt 0.658505 0.762268
vt 0.658505 0.689120
vt 0.658505 0.689120
vt 0.557095 0.725694
vt 0.658505 0.821447
vt 0.658505 0.629941
vt 0.740579 0.815875
vt 0.740579 0.815875
vt 0.740579 0.889024
vt 0.740579 0.889024
vt 0.772418 0.742505
vt 0.772418 0.672937
vt 0.873827 0.742505
vt 0.772418 0.629941
vt 0.772418 0.812074
vt 0.772418 0.629941
vt 0.772418 0.672937
vt 0.260099 0.711414
vt 0.372663 0.674839
vt 0.303095 0.770592
vt 0.260099 0.638265
vt 0.303095 0.579087
vt 0.372663 0.556482
vt 0.442231 0.579087
vn 0.000000 0.587785 -0.809017
vn 0.000000 0.587785 -0.809017
vn 0.000000 0.587785 -0.809017
vn 0.000000 0.587785 -0.809017
vn -0.000000 -0.000000 -1.000000
vn -0.000000 -0.000000 -1.000000
vn -0.000000 -0.000000 -1.000000
vn -0.000000 -0.000000 -1.000000
vn -0.000000 -0.587785 -0.809017
vn -0.000000 -0.587785 -0.809017
vn -0.000000 -0.587785 -0.809017
vn -0.000000 -0.587785 -0.809017
vn -0.000000 -0.951057 -0.309017
vn -0.000000 -0.951057 -0.309017
vn -0.000000 -0.951057 -0.309017
vn -0.000000 -0.951057 -0.309017
vn -0.000000 -0.951057 0.309017
vn -0.000000 -0.951057 0.309017
vn -0.000000 -0.951057 0.309017
vn -0.000000 -0.951057 0.309017
vn -0.000000 -0.587785 0.809017
vn -0.000000 -0.587785 0.809017
vn -0.000000 -0.587785 0.809017
vn -0.000000 -0.587785 0.809017
vn 0.000000 0.000000 1.000000
vn 0.000000 0.000000 1.000000
vn 0.000000 0.000000 1.000000
vn 0.000000 0.000000 1.000000
vn 0.000000 0.587785 0.809017
vn 0.000000 0.587785 0.809017
vn 0.000000 0.587785 0.809017
vn 0.000000 0.587785 0.809017
vn 0.000000 0.951057 0.309017
vn 0.000000 0.951057 0.309017
vn 0.000000 0.951057 0.309017
vn 0.000000 0.951057 0.309017
vn 0.000000 0.951057 -0.309017
vn 0.000000 0.951057 -0.309017
vn 0.000000 0.951057 -0.309017
vn 0.000000 0.951057 -0.309017
vn 0.244981 -0.299601 0.922076
vn 0.244981 -0.784364 0.569874
vn 1.000000 -0.000001 -0.000000
vn 0.244981 0.299601 0.922076
vn 0.244981 0.784364 0.569874
vn 0.244981 0.969528 0.000000
vn 0.244981 0.784365 -0.569874
vn 0.244981 0.299601 -0.922076
vn 0.244981 -0.299600 -0.922076
vn 0.244981 -0.784364 -0.569875
vn 0.244981 -0.969528 0.000000
vn 0.000000 0.587785 -0.809017
vn 0.000000 0.587785 -0.809017
vn 0.000000 0.587785 -0.809017
vn 0.000000 0.587785 -0.809017
vn -0.000000 -0.000000 -1.000000
vn -0.000000 -0.000000 -1.000000
vn -0.000000 -0.000000 -1.000000
vn -0.000000 -0.000000 -1.000000
vn -0.000000 -0.587785 -0.809017
vn -0.000000 -0.587785 -0.809017
vn -0.000000 -0.587785 -0.809017
vn -0.000000 -0.587785 -0.809017
vn -0.000000 -0.951057 -0.309017
vn -0.000000 -0.951057 -0.309017
vn -0.000000 -0.951057 -0.309017
vn -0.000000 -0.951057 -0.309017
vn -0.000000 -0.951057 0.309017
vn -0.000000 -0.951056 0.309017
vn -0.000000 -0.951057 0.309017
vn -0.000000 -0.951057 0.309017
vn -0.000000 -0.587785 0.809017
vn -0.000000 -0.587785 0.809017
vn -0.000000 -0.587785 0.809017
vn -0.000000 -0.587785 0.809017
vn 0.000000 0.000000 1.000000
vn 0.000000 0.000000 1.000000
vn 0.000000 0.000000 1.000000
vn 0.000000 0.000000 1.000000
vn 0.000000 0.587785 0.809017
vn 0.000000 0.587785 0.809017
vn 0.000000 0.587785 0.809017
vn 0.000000 0.587785 0.809017
vn 0.000000 0.951057 0.309017
vn 0.000000 0.951057 0.309017
vn 0.000000 0.951057 0.309017
vn 0.000000 0.951057 0.309017
vn 0.000000 0.951057 -0.309017
vn 0.000000 0.951057 -0.309017
vn 0.000000 0.951057 -0.309017
vn 0.000000 0.951057 -0.309017
vn -0.923864 0.118267 -0.363988
vn -0.923864 0.309627 -0.224958
vn -0.923864 0.309627 -0.224958
vn -0.923864 0.118267 -0.363988
vn 0.923864 0.309627 -0.224957
vn 0.923864 0.118267 -0.363989
vn 0.923864 0.118267 -0.363989
vn 0.923864 0.309627 -0.224957
vn -0.923864 -0.118267 -0.363988
vn -0.923864 -0.118267 -0.363988
vn 0.923864 -0.118267 -0.363989
vn 0.923864 -0.118267 -0.363989
vn -0.923864 -0.309627 -0.224958
vn -0.923864 -0.309627 -0.224958
vn 0.923864 -0.309627 -0.224957
vn 0.923864 -0.309627 -0.224957
vn -0.923864 -0.382720 0.000000
vn -0.923864 -0.382720 0.000000
vn 0.923864 -0.382720 0.000000
vn 0.923864 -0.382720 0.000000
vn -0.923864 -0.309627 0.224958
vn -0.923864 -0.309627 0.224958
vn 0.923864 -0.309628 0.224957
vn 0.923864 -0.309627 0.224957
vn -0.923864 -0.118267 0.363989
vn -0.923864 -0.118267 0.363989
vn 0.923864 -0.118267 0.363989
vn 0.923864 -0.118267 0.363989
vn -0.923864 0.118267 0.363988
vn -0.923864 0.118267 0.363988
vn 0.923864 0.118267 0.363989
vn 0.923864 0.118267 0.363989
vn -0.923864 0.309627 0.224957
vn -0.923864 0.309627 0.224957
vn 0.923864 0.309627 0.224957
vn 0.923864 0.309627 0.224957
vn -0.923864 0.382720 -0.000000
vn -0.923864 0.382720 -0.000000
vn 0.923864 0.382720 0.000000
vn 0.923864 0.382720 0.000000
vn -1.000000 0.000006 0.000000
vn -1.000000 0.000006 0.000000
vn -1.000000 0.000006 0.000000
vn -1.000000 0.000006 0.000000
vn -0.066753 0.000000 0.997770
vn -0.066753 0.000000 0.997770
vn -0.066753 0.000000 0.997770
vn -0.066753 0.000000 0.997770
vn 0.000000 0.587785 0.809017
vn 0.000000 0.587785 0.809017
vn 0.000000 0.587785 0.809017
vn 0.000000 0.587785 0.809017
vn -0.170800 0.927429 0.332719
vn -0.170800 0.927429 0.332719
vn -0.170800 0.927429 0.332719
vn -0.170800 0.927429 0.332719
vn 0.000000 0.978127 -0.208011
vn 0.000000 0.978127 -0.208011
vn 0.000000 0.978127 -0.208011
vn 0.000000 0.978127 -0.208011
vn -0.104222 0.000000 0.994554
vn -0.104222 0.000000 0.994554
vn -0.104222 0.000000 0.994554
vn -0.104222 0.000000 0.994554
vn -0.098072 0.000000 0.995179
vn -0.066753 0.000000 0.997770
vn -0.066753 0.000000 0.997770
vn -0.089027 0.000000 0.996029
vn -1.000000 0.000006 0.000000
vn -1.000000 0.000006 0.000000
vn -0.170800 -0.927429 -0.332719
vn -0.170800 -0.927429 -0.332719
vn -0.170800 -0.927429 -0.332719
vn -0.170800 -0.927429 -0.332719
vn -1.000000 0.000000 0.000000
vn -1.000000 0.000000 0.000000
vn -1.000000 0.000000 0.000000
vn -1.000000 0.000000 0.000000
vn -0.244981 -0.299601 0.922076
vn -1.000000 -0.000001 -0.000000
vn -0.244981 -0.784364 0.569874
vn -0.244981 0.299601 0.922076
vn -0.244981 0.784365 0.569874
vn -0.244981 0.969528 -0.000000
vn -0.244981 0.784365 -0.569874
vn -0.244981 0.299601 -0.922076
vn -0.244981 -0.299600 -0.922076
vn -0.244981 -0.784364 -0.569875
vn -0.244981 -0.969528 0.000000
vn 0.000000 0.587785 -0.809017
vn 0.000000 0.587785 -0.809017
vn 0.000000 0.587785 -0.809017
vn 0.000000 0.587785 -0.809017
vn -0.000000 -0.000000 -1.000000
vn -0.000000 -0.000000 -1.000000
vn -0.000000 -0.000000 -1.000000
vn -0.000000 -0.000000 -1.000000
vn 0.000000 -0.587785 -0.809017
vn 0.000000 -0.587785 -0.809017
vn 0.000000 -0.587785 -0.809017
vn 0.000000 -0.587785 -0.809017
vn 0.000000 -0.951057 -0.309017
vn 0.000000 -0.951057 -0.309017
vn 0.000000 -0.951057 -0.309017
vn 0.000000 -0.951057 -0.309017
vn 0.000000 -0.951057 0.309017
vn 0.000000 -0.951057 0.309017
vn 0.000000 -0.951057 0.309017
vn 0.000000 -0.951056 0.309017
vn 0.000000 -0.587785 0.809017
vn 0.000000 -0.587785 0.809017
vn 0.000000 -0.587785 0.809017
vn 0.000000 -0.587785 0.809017
vn 0.000000 0.000000 1.000000
vn 0.000000 0.000000 1.000000
vn 0.000000 0.000000 1.000000
vn 0.000000 0.000000 1.000000
vn -0.000000 0.587785 0.809017
vn -0.000000 0.587785 0.809017
vn -0.000000 0.587785 0.809017
vn -0.000000 0.587785 0.809017
vn 0.000000 0.951057 0.309017
vn 0.000000 0.951057 0.309017
vn 0.000000 0.951057 0.309017
vn 0.000000 0.951057 0.309017
vn 0.000000 0.951057 -0.309017
vn 0.000000 0.951057 -0.309017
vn 0.000000 0.951057 -0.309017
vn 0.000000 0.951057 -0.309017
vn 0.923865 0.118267 -0.363988
vn 0.923865 0.118267 -0.363988
vn 0.923864 0.309627 -0.224957
vn 0.923864 0.309627 -0.224957
vn -0.923864 0.309627 -0.224957
vn -0.923864 0.309627 -0.224957
vn -0.923864 0.118267 -0.363989
vn -0.923864 0.118267 -0.363989
vn 0.923864 -0.118267 -0.363988
vn 0.923864 -0.118267 -0.363988
vn -0.923864 -0.118267 -0.363989
vn -0.923864 -0.118267 -0.363989
vn 0.923864 -0.309627 -0.224958
vn 0.923864 -0.309627 -0.224958
vn -0.923864 -0.309627 -0.224957
vn -0.923864 -0.309627 -0.224957
vn 0.923864 -0.382720 0.000000
vn 0.923864 -0.382720 -0.000000
vn -0.923864 -0.382720 -0.000000
vn -0.923864 -0.382720 -0.000000
vn 0.923864 -0.309627 0.224957
vn 0.923864 -0.309627 0.224957
vn -0.923864 -0.309627 0.224957
vn -0.923864 -0.309627 0.224957
vn 0.923864 -0.118267 0.363989
vn 0.923864 -0.118267 0.363989
vn -0.923864 -0.118267 0.363989
vn -0.923864 -0.118267 0.363989
vn 0.923864 0.118267 0.363989
vn 0.923864 0.118267 0.363989
vn -0.923864 0.118267 0.363989
vn -0.923864 0.118267 0.363989
vn 0.923864 0.309627 0.224958
vn 0.923864 0.309627 0.224958
vn -0.923864 0.309627 0.224957
vn -0.923864 0.309627 0.224957
vn 0.923864 0.382720 -0.000000
vn 0.923864 0.382720 -0.000000
vn -0.923864 0.382720 0.000000
vn -0.923864 0.382720 0.000000
vn 1.000000 0.000004 0.000000
vn 1.000000 0.000004 0.000000
vn 1.000000 0.000004 0.000000
vn 1.000000 0.000004 0.000000
vn 0.066753 0.000000 0.997770
vn 0.066753 0.000000 0.997770
vn 0.066753 0.000000 0.997770
vn 0.066753 0.000000 0.997770
vn 0.000000 0.587785 0.809017
vn 0.000000 0.587785 0.809017
vn 0.000000 0.587785 0.809017
vn 0.000000 0.587785 0.809017
vn 0.167090 0.907286 0.385892
vn 0.167090 0.907286 0.385892
vn 0.167090 0.907286 0.385892
vn 0.167090 0.907286 0.385892
vn 0.000000 0.978126 -0.208011
vn 0.000000 0.978126 -0.208011
vn 0.000000 0.978126 -0.208011
vn 0.000000 0.978127 -0.208011
vn 1.000000 -0.000000 0.000000
vn 1.000000 -0.000000 0.000000
vn 1.000000 -0.000000 0.000000
vn 1.000000 -0.000000 0.000000
vn 0.095875 0.000000 0.995393
vn 0.087462 0.000000 0.996168
vn 0.066753 -0.000000 0.997770
vn 0.066753 -0.000000 0.997770
vn 1.000000 0.000004 0.000000
vn 1.000000 0.000004 0.000000
vn 0.167090 -0.907286 -0.385892
vn 0.167090 -0.907286 -0.385892
vn 0.167090 -0.907286 -0.385892
vn 0.167090 -0.907286 -0.385892
vn 1.000000 -0.000000 0.000000
vn 1.000000 -0.000000 0.000000
vn 1.000000 -0.000000 0.000000
vn 1.000000 -0.000000 0.000000
s off
g pCylinder1
usemtl initialShadingGroup
f 1/15/1 2/19/2 53/20/3 52/16/4
f 2/183/5 3/184/6 54/185/7 53/186/8
f 3/7/9 4/1/10 55/4/11 54/8/12
f 4/1/13 5/2/14 56/3/15 55/4/16
f 5/2/17 6/5/18 57/6/19 56/3/20
f 6/5/21 7/9/22 58/10/23 57/6/24
f 7/187/25 8/188/26 59/189/27 58/190/28
f 8/17/29 9/11/30 60/14/31 59/18/32
f 9/11/33 10/12/34 61/13/35 60/14/36
f 10/12/37 1/15/38 52/16/39 61/13/40
s 1
f 42/201/41 41/204/42 43/203/43
f 44/202/44 42/201/41 43/203/43
f 45/205/45 44/202/44 43/203/43
f 46/43/46 45/46/45 43/47/43
f 47/44/47 46/43/46 43/47/43
f 48/236/48 47/237/47 43/233/43
f 49/234/49 48/236/48 43/233/43
f 50/232/50 49/234/49 43/233/43
f 51/231/51 50/232/50 43/233/43
f 41/235/42 51/231/51 43/233/43
s off
f 22/39/52 21/37/53 23/38/54 24/40/55
f 25/191/56 22/192/57 24/193/58 26/194/59
f 27/22/60 25/25/61 26/26/62 28/23/63
f 29/21/64 27/22/65 28/23/66 30/24/67
f 31/27/68 29/21/69 30/24/70 32/28/71
f 33/29/72 31/27/73 32/28/74 34/30/75
f 35/195/76 33/196/77 34/197/78 36/198/79
f 37/32/80 35/35/81 36/36/82 38/33/83
f 39/31/84 37/32/85 38/33/86 40/34/87
f 21/37/88 39/31/89 40/34/90 23/38/91
s 2
f 2/79/92 1/80/93 21/81/94 22/82/95
s 3
f 11/99/96 12/100/97 24/101/98 23/102/99
s 2
f 3/85/100 2/79/92 22/82/95 25/86/101
s 3
f 12/100/97 13/103/102 26/104/103 24/101/98
s 2
f 4/89/104 3/85/100 25/86/101 27/90/105
s 3
f 13/103/102 14/107/106 28/108/107 26/104/103
s 2
f 5/93/108 4/89/104 27/90/105 29/94/109
s 3
f 14/107/106 15/111/110 30/112/111 28/108/107
s 2
f 6/97/112 5/93/108 29/94/109 31/98/113
s 3
f 15/111/110 16/115/114 32/116/115 30/112/111
s 2
f 7/95/116 6/97/112 31/98/113 33/96/117
s 3
f 16/115/114 17/117/118 34/118/119 32/116/115
s 2
f 8/91/120 7/95/116 33/96/117 35/92/121
s 3
f 17/117/118 18/113/122 36/114/123 34/118/119
s 2
f 9/87/124 8/91/120 35/92/121 37/88/125
s 3
f 18/113/122 19/109/126 38/110/127 36/114/123
s 2
f 10/83/128 9/87/124 37/88/125 39/84/129
s 3
f 19/109/126 20/105/130 40/106/131 38/110/127
s 2
f 1/80/93 10/83/128 39/84/129 21/81/94
s 3
f 20/105/130 11/99/96 23/102/99 40/106/131
s off
f 12/119/132 11/120/133 41/121/134 42/122/135
f 13/199/136 12/200/137 42/201/138 44/202/139
f 14/45/140 13/48/141 44/49/142 45/46/143
f 15/42/144 14/45/145 45/46/146 46/43/147
f 16/41/148 15/42/149 46/43/150 47/44/151
f 17/206/152 16/207/153 47/208/154 48/209/155
s 4
f 18/210/156 17/206/157 48/209/158 49/211/159
f 19/125/160 18/127/156 49/128/159 50/126/161
s off
f 20/123/162 19/125/163 50/126/164 51/124/165
f 11/120/166 20/123/167 51/124/168 41/121/169
s 5
f 93/222/170 94/224/171 92/226/172
f 95/221/173 94/224/171 93/222/170
f 96/225/174 94/224/171 95/221/173
f 97/72/175 94/74/171 96/75/174
f 98/71/176 94/74/171 97/72/175
f 99/238/177 94/239/171 98/240/176
f 100/241/178 94/239/171 99/238/177
f 101/242/179 94/239/171 100/241/178
f 102/243/180 94/239/171 101/242/179
f 92/244/172 94/239/171 102/243/180
s off
f 73/68/181 75/69/182 74/65/183 72/64/184
f 76/212/185 77/213/186 75/214/187 73/215/188
f 78/53/189 79/52/190 77/56/191 76/57/192
f 80/50/193 81/51/194 79/52/195 78/53/196
f 82/54/197 83/55/198 81/51/199 80/50/200
f 84/58/201 85/59/202 83/55/203 82/54/204
f 86/216/205 87/217/206 85/218/207 84/219/208
f 88/63/209 89/62/210 87/66/211 86/67/212
f 90/60/213 91/61/214 89/62/215 88/63/216
f 72/64/217 74/65/218 91/61/219 90/60/220
s 6
f 53/129/221 73/130/222 72/131/223 52/132/224
s 7
f 62/149/225 74/150/226 75/151/227 63/152/228
s 6
f 54/133/229 76/134/230 73/130/222 53/129/221
s 7
f 63/152/228 75/151/227 77/155/231 64/156/232
s 6
f 55/137/233 78/138/234 76/134/230 54/133/229
s 7
f 64/156/232 77/155/231 79/159/235 65/160/236
s 6
f 56/141/237 80/142/238 78/138/234 55/137/233
s 7
f 65/160/236 79/159/235 81/163/239 66/164/240
s 6
f 57/145/241 82/146/242 80/142/238 56/141/237
s 7
f 66/164/240 81/163/239 83/167/243 67/168/244
s 6
f 58/148/245 84/147/246 82/146/242 57/145/241
s 7
f 67/168/244 83/167/243 85/166/247 68/165/248
s 6
f 59/144/249 86/143/250 84/147/246 58/148/245
s 7
f 68/165/248 85/166/247 87/162/251 69/161/252
s 6
f 60/140/253 88/139/254 86/143/250 59/144/249
s 7
f 69/161/252 87/162/251 89/158/255 70/157/256
s 6
f 61/136/257 90/135/258 88/139/254 60/140/253
s 7
f 70/157/256 89/158/255 91/154/259 71/153/260
s 6
f 52/132/224 72/131/223 90/135/258 61/136/257
s 7
f 71/153/260 91/154/259 74/150/226 62/149/225
s off
f 63/169/261 93/170/262 92/171/263 62/172/264
f 64/220/265 95/221/266 93/222/267 63/223/268
f 65/76/269 96/75/270 95/77/271 64/78/272
f 66/73/273 97/72/274 96/75/275 65/76/276
f 67/70/277 98/71/278 97/72/279 66/73/280
f 68/179/281 99/180/282 98/181/283 67/182/284
s 8
f 69/227/285 100/228/286 99/229/287 68/230/288
f 70/176/289 101/175/290 100/177/286 69/178/285
s off
f 71/174/291 102/173/292 101/175/293 70/176/294
f 62/172/295 92/171/296 102/173/297 71/174/298
