# This file uses centimeters as units for non-parametric coordinates.

mtllib SkyRoadRamp.mtl
g default
v -2.991923 -0.500000 -0.004785
v 2.991923 -0.500000 -0.004785
v -2.991923 0.717149 -0.004785
v 2.991923 0.717149 -0.004785
v 3.630352 -0.500000 -0.004785
v 3.907739 0.500000 -0.004785
v -3.630352 -0.500000 -0.004785
v -3.907739 0.500000 -0.004785
v 3.375109 1.594855 -0.296921
v 3.907739 1.594855 -0.296921
v -3.375109 1.594855 -0.296921
v -3.907739 1.594855 -0.296921
v 3.211974 -0.096251 -2.514113
v -3.211974 -0.096251 -2.514113
v -3.907739 -0.313400 -2.173673
v -3.630352 -0.479742 -2.815699
v -2.991923 -0.479742 -3.117484
v 2.991923 -0.479742 -3.117484
v 3.630352 -0.479742 -2.815699
v 3.907739 -0.313400 -2.173673
v -2.991923 -0.500000 5.583787
v 2.991923 -0.500000 5.583787
v -2.991923 0.717149 5.583787
v 2.991923 0.717149 5.583787
v 3.630352 -0.500000 5.583787
v 3.907739 0.500000 5.583787
v -3.630352 -0.500000 5.583787
v -3.907739 0.500000 5.583787
v 3.375109 1.594855 5.583787
v 3.375109 1.594855 0.287351
v 3.907739 1.594855 5.583787
v 3.907739 1.594855 0.287351
v -3.375109 1.594855 5.583787
v -3.375109 1.594855 0.287351
v -3.907739 1.594855 0.287351
v -3.907739 1.594855 5.583787
v 3.907739 1.594855 3.909001
v 3.375109 1.594855 3.909001
v 2.991923 0.717149 3.482253
v -2.991923 0.717149 3.482253
v -3.375109 1.594855 3.909001
v -3.907739 1.594855 3.909001
v -3.907739 0.500000 3.909001
v -3.630352 -0.500000 3.909001
v -2.991923 -0.500000 3.482254
v 2.991923 -0.500000 3.482254
v 3.630352 -0.500000 3.909001
v 3.907739 0.500000 3.909001
v 3.907739 1.594855 3.055504
v 3.375109 1.594855 3.055504
v -3.375109 1.594855 3.055504
v -3.907739 1.594855 3.055504
v -3.907739 0.500000 3.055504
v -3.630352 -0.500000 3.055506
v 3.630352 -0.500000 3.055506
v 3.907739 0.500000 3.055504
v 3.375109 2.005487 3.766138
v 3.375109 2.005487 3.197869
v 4.113055 1.800171 3.766138
v 4.113055 1.800171 3.197869
v 4.026044 -0.609759 3.766138
v 4.310900 0.445120 3.766138
v 4.026044 -0.609759 3.197870
v 4.310900 0.445120 3.197869
v -3.375109 2.005487 3.766138
v -4.113055 1.800171 3.766138
v -3.375109 2.005487 3.197869
v -4.113055 1.800171 3.197869
v -4.310900 0.445120 3.766138
v -4.310900 0.445120 3.197869
v -4.026044 -0.609759 3.197870
v -4.026044 -0.609759 3.766138
v 3.375109 2.777088 3.637454
v 3.375109 2.777088 3.325615
v 3.585678 2.778078 3.637454
v 3.585678 2.778078 3.325615
v -3.375109 2.777088 3.637454
v -3.585678 2.778078 3.637454
v -3.375109 2.777088 3.325615
v -3.585678 2.778078 3.325615
v -3.375109 1.968069 -0.135878
v -3.747583 1.968069 -0.135878
v -3.747583 1.968069 0.126308
v -3.375109 1.968069 0.126308
v 3.375109 1.968069 -0.135878
v 3.747583 1.968069 -0.135878
v 3.375109 1.968069 0.126308
v 3.747583 1.968069 0.126308
v 3.520717 1.399843 3.055504
v 3.520717 1.399843 0.287351
v 3.787032 1.399843 3.055504
v 3.787032 1.399843 0.287351
v -3.520717 1.399843 3.055504
v -3.787032 1.399843 3.055504
v -3.520717 1.399843 0.287351
v -3.787032 1.399843 0.287351
v 3.630352 -1.266105 3.482254
v 3.771436 -1.178378 3.482004
v -3.630352 -1.266105 3.482254
v -3.806084 -1.178378 3.482004
vt 0.383212 0.660819
vt 0.384364 0.500919
vt 0.393827 0.537441
vt 0.440097 0.660819
vt 0.502378 0.644200
vt 0.440097 0.834904
vt 0.383212 0.834905
vt 0.502378 0.677437
vt 0.502378 0.834904
vt 0.523609 0.653361
vt 0.523609 0.668276
vt 0.237894 0.834905
vt 0.236741 0.675005
vt 0.293627 0.675005
vt 0.247356 0.798383
vt 0.236741 0.500919
vt 0.293627 0.500919
vt 0.355908 0.691623
vt 0.355908 0.500919
vt 0.355908 0.658386
vt 0.377139 0.667547
vt 0.377139 0.682462
vt 0.824446 0.961571
vt 0.870717 0.818827
vt 0.920645 0.835445
vt 0.920645 0.802209
vt 0.870717 0.620465
vt 0.920645 0.644741
vt 0.941876 0.811370
vt 0.941876 0.826284
vt 0.920645 0.596189
vt 0.870717 0.500919
vt 0.920645 0.500919
vt 0.944004 0.604316
vt 0.944004 0.636643
vt 0.987897 0.611637
vt 0.987897 0.629376
vt 0.701192 0.643663
vt 0.654922 0.500919
vt 0.751121 0.627044
vt 0.751121 0.660281
vt 0.772352 0.636205
vt 0.772352 0.651120
vt 0.751121 0.817749
vt 0.701192 0.842024
vt 0.751121 0.866300
vt 0.701192 0.961571
vt 0.751121 0.961571
vt 0.774480 0.825847
vt 0.774480 0.858173
vt 0.818373 0.833114
vt 0.818373 0.850853
vt 0.212448 0.838856
vt 0.307719 0.838856
vt 0.307719 0.895741
vt 0.212448 0.895741
vt 0.307719 0.958022
vt 0.212448 0.958022
vt 0.314696 0.838856
vt 0.409967 0.838856
vt 0.409967 0.895741
vt 0.314696 0.895741
vt 0.409967 0.958022
vt 0.314696 0.958022
vt 0.061970 0.827278
vt 0.094296 0.827278
vt 0.094296 0.904361
vt 0.061970 0.904361
vt 0.061970 0.767271
vt 0.094296 0.767271
vt 0.086976 0.959989
vt 0.069237 0.959989
vt 0.078133 0.734925
vt 0.100554 0.827278
vt 0.100554 0.767271
vt 0.132881 0.767271
vt 0.132881 0.827278
vt 0.116717 0.734925
vt 0.100554 0.904361
vt 0.132881 0.904361
vt 0.125614 0.959989
vt 0.107875 0.959989
vt 0.533834 0.949456
vt 0.533834 0.998008
vt 0.490254 0.973732
vt 0.583994 0.949456
vt 0.583994 0.998008
vt 0.540414 0.973732
vt 0.054068 0.319900
vt 0.394462 0.319900
vt 0.406980 0.462644
vt 0.041551 0.462644
vt 0.054068 0.121539
vt 0.394462 0.121539
vt 0.394462 0.496968
vt 0.054068 0.496968
vt 0.054068 0.001992
vt 0.394462 0.001992
vt 0.430779 0.479800
vt 0.017751 0.479800
vt 0.446559 0.443278
vt 0.001972 0.443278
vt 0.416260 0.336519
vt 0.446559 0.336519
vt 0.001972 0.336519
vt 0.032271 0.336519
vt 0.489917 0.001992
vt 0.830310 0.001992
vt 0.830310 0.179059
vt 0.489917 0.179059
vt 0.866628 0.019159
vt 0.866628 0.179059
vt 0.830310 0.377421
vt 0.489917 0.377421
vt 0.453599 0.179059
vt 0.453599 0.019159
vt 0.866628 0.353145
vt 0.830310 0.496968
vt 0.489917 0.496968
vt 0.453599 0.353145
vt 0.866628 0.401697
vt 0.866628 0.496968
vt 0.453599 0.496968
vt 0.453599 0.401697
vt 0.416944 0.934126
vt 0.416944 0.838856
vt 0.447243 0.838856
vt 0.447243 0.934126
vt 0.483898 0.838856
vt 0.483898 0.934126
vt 0.453599 0.934126
vt 0.453599 0.838856
vt 0.764202 0.983261
vt 0.764202 0.965522
vt 0.776180 0.965522
vt 0.776180 0.983261
vt 0.783494 0.965522
vt 0.795472 0.965522
vt 0.795472 0.983261
vt 0.783494 0.983261
vt 0.147421 0.892392
vt 0.147421 0.734925
vt 0.162571 0.734925
vt 0.162571 0.892392
vt 0.139138 0.892392
vt 0.139138 0.734925
vt 0.169437 0.734925
vt 0.169437 0.892392
vt 0.182660 0.734925
vt 0.197809 0.734925
vt 0.197809 0.892392
vt 0.182660 0.892392
vt 0.206092 0.734925
vt 0.206092 0.892392
vt 0.175793 0.892392
vt 0.175793 0.734925
vt 0.736674 0.965522
vt 0.736674 0.986710
vt 0.721759 0.986710
vt 0.721759 0.965522
vt 0.757895 0.965522
vt 0.757895 0.986710
vt 0.742980 0.986710
vt 0.742980 0.965522
vt 0.529682 0.893409
vt 0.529682 0.553015
vt 0.598920 0.553015
vt 0.598920 0.893409
vt 0.529682 0.516698
vt 0.586567 0.500919
vt 0.586567 0.945505
vt 0.529682 0.929726
vt 0.648849 0.500919
vt 0.648849 0.531217
vt 0.648849 0.915206
vt 0.648849 0.945505
vt 0.177435 0.663665
vt 0.207734 0.663665
vt 0.219414 0.675345
vt 0.177435 0.687025
vt 0.207734 0.601384
vt 0.230668 0.598262
vt 0.189414 0.730974
vt 0.177435 0.730917
vt 0.191955 0.544499
vt 0.214464 0.538255
vt 0.191955 0.500919
vt 0.199981 0.505909
vt 0.148428 0.568227
vt 0.118129 0.568227
vt 0.118129 0.544868
vt 0.160108 0.556547
vt 0.141562 0.579320
vt 0.126412 0.579320
vt 0.118129 0.500975
vt 0.130108 0.500919
vt 0.148428 0.630508
vt 0.171362 0.633630
vt 0.132649 0.687393
vt 0.155158 0.693637
vt 0.140675 0.725983
vt 0.132649 0.730974
vt 0.081757 0.663665
vt 0.112056 0.663665
vt 0.112056 0.687025
vt 0.070078 0.675345
vt 0.112056 0.730917
vt 0.100078 0.730974
vt 0.081757 0.601384
vt 0.058823 0.598262
vt 0.097537 0.544499
vt 0.075028 0.538255
vt 0.087540 0.505909
vt 0.097537 0.500919
vt 0.055205 0.802233
vt 0.024906 0.802233
vt 0.013226 0.790553
vt 0.055205 0.778874
vt 0.046922 0.813326
vt 0.031772 0.813326
vt 0.024906 0.864514
vt 0.001972 0.867636
vt 0.043226 0.734925
vt 0.055205 0.734981
vt 0.040685 0.921399
vt 0.018176 0.927643
vt 0.040685 0.964980
vt 0.030689 0.959989
vt 0.685113 0.965522
vt 0.685113 0.995821
vt 0.663883 0.986710
vt 0.663883 0.965522
vt 0.590573 0.960550
vt 0.620872 0.960550
vt 0.620872 0.981780
vt 0.599684 0.981780
vt 0.597440 0.949456
vt 0.612589 0.949456
vt 0.714051 0.965522
vt 0.714051 0.995821
vt 0.692821 0.995821
vt 0.692821 0.974633
vt 0.627228 0.976615
vt 0.657527 0.976615
vt 0.648416 0.997846
vt 0.627228 0.997846
vt 0.635511 0.965522
vt 0.650660 0.965522
vn 0.000000 0.951271 -0.308355
vn 0.000000 0.951271 -0.308355
vn 0.000000 0.951271 -0.308355
vn 0.000000 0.951271 -0.308355
vn -0.000110 -0.999979 -0.006531
vn 0.000110 -0.999979 -0.006531
vn 0.000149 -0.999979 -0.006539
vn -0.000149 -0.999979 -0.006539
vn 0.884328 -0.461054 0.073433
vn 0.884329 -0.461054 0.073433
vn 0.884329 -0.461054 0.073433
vn 0.884329 -0.461054 0.073433
vn -0.884329 -0.461054 0.073433
vn -0.884328 -0.461054 0.073433
vn -0.884329 -0.461054 0.073433
vn -0.884329 -0.461054 0.073433
vn 0.001617 -0.999975 -0.006840
vn 0.001617 -0.999975 -0.006840
vn -0.001617 -0.999975 -0.006840
vn -0.001617 -0.999975 -0.006840
vn -0.921349 0.338794 -0.190617
vn -0.921349 0.338794 -0.190617
vn -0.921349 0.338794 -0.190617
vn 1.000000 -0.000000 0.000000
vn 1.000000 -0.000000 0.000000
vn 1.000000 -0.000000 0.000000
vn 0.921349 0.338794 -0.190617
vn 0.921349 0.338794 -0.190617
vn 0.921349 0.338794 -0.190617
vn -1.000000 0.000000 0.000000
vn -1.000000 0.000000 0.000000
vn -1.000000 0.000000 0.000000
vn -0.000000 0.000000 1.000000
vn 0.000000 0.000000 1.000000
vn 0.000000 0.000000 1.000000
vn -0.000000 0.000000 1.000000
vn 0.000000 1.000000 0.000000
vn 0.000000 1.000000 0.000000
vn 0.000000 1.000000 0.000000
vn 0.000000 1.000000 0.000000
vn 0.000000 -1.000000 0.000000
vn 0.000000 -1.000000 0.000000
vn 0.000000 -1.000000 0.000000
vn 0.000000 -1.000000 0.000000
vn 0.963615 -0.267294 0.000000
vn 0.963615 -0.267294 0.000000
vn 0.963615 -0.267294 0.000000
vn 0.963615 -0.267294 0.000000
vn -0.963615 -0.267294 0.000000
vn -0.963615 -0.267294 0.000000
vn -0.963615 -0.267294 0.000000
vn -0.963615 -0.267294 0.000000
vn 0.000000 -1.000000 0.000000
vn 0.000000 -1.000000 0.000000
vn 0.000000 1.000000 0.000000
vn 0.000000 1.000000 0.000000
vn 0.000000 1.000000 0.000000
vn 0.000000 1.000000 0.000000
vn 0.000000 0.000000 1.000000
vn 0.000000 0.000000 1.000000
vn 0.000000 -1.000000 0.000000
vn 0.000000 -1.000000 0.000000
vn -0.000001 0.000000 1.000000
vn -0.000001 0.000000 1.000000
vn 0.000000 1.000000 0.000000
vn 0.000000 1.000000 0.000000
vn 0.000000 1.000000 0.000000
vn 0.000000 1.000000 0.000000
vn -0.916468 0.400108 0.000000
vn -0.916468 0.400108 0.000000
vn -0.916468 0.400108 0.000000
vn -0.929096 0.369840 0.000000
vn 0.000000 0.000000 1.000000
vn 0.000000 0.000000 1.000000
vn 0.000000 0.000000 1.000000
vn 0.000000 0.000000 1.000000
vn 1.000000 0.000000 0.000000
vn 1.000000 0.000000 0.000000
vn 1.000000 0.000000 0.000000
vn 1.000000 0.000000 0.000000
vn 0.916468 0.400108 0.000000
vn 0.916468 0.400108 0.000000
vn 0.929096 0.369840 0.000000
vn 0.916468 0.400108 0.000000
vn -1.000000 0.000000 0.000000
vn -1.000000 0.000000 0.000000
vn -1.000000 0.000000 0.000000
vn -1.000000 0.000000 0.000000
vn 0.000000 0.000000 1.000000
vn 0.000000 0.000000 1.000000
vn 0.000000 0.000000 1.000000
vn 0.000000 0.000000 1.000000
vn -0.004700 0.999989 0.000000
vn -0.004700 0.999989 0.000000
vn -0.004700 0.999989 0.000000
vn -0.004700 0.999989 0.000000
vn -0.924806 0.380440 0.000000
vn 0.924806 0.380440 0.000000
vn 0.004700 0.999989 0.000000
vn 0.004700 0.999989 0.000000
vn 0.004700 0.999989 0.000000
vn 0.004700 0.999989 0.000000
vn -0.989509 0.144474 0.000000
vn -0.989509 0.144474 0.000000
vn -0.989509 0.144474 0.000000
vn -0.989509 0.144474 0.000000
vn -0.965420 -0.260699 0.000000
vn -0.965420 -0.260699 0.000000
vn -0.965420 -0.260699 0.000000
vn -0.965420 -0.260699 0.000000
vn 0.000000 -1.000000 0.000000
vn 0.000000 -1.000000 0.000000
vn 0.965420 -0.260699 0.000000
vn 0.965420 -0.260699 0.000000
vn 0.965420 -0.260699 0.000000
vn 0.965420 -0.260699 0.000000
vn 0.989509 0.144474 0.000000
vn 0.989509 0.144474 0.000000
vn 0.989509 0.144474 0.000000
vn 0.989509 0.144474 0.000000
vn 0.000000 1.000000 0.000000
vn 0.000000 1.000000 0.000000
vn 0.000000 1.000000 0.000000
vn 0.000000 1.000000 0.000000
vn -0.916468 0.400108 0.000000
vn -0.916468 0.400108 0.000000
vn 0.000000 1.000000 0.000000
vn 0.000000 1.000000 0.000000
vn 0.916468 0.400108 0.000000
vn 0.916468 0.400108 0.000000
vn 0.000000 1.000000 0.000000
vn 0.000000 1.000000 0.000000
vn 0.000000 1.000000 0.000000
vn 0.000000 1.000000 0.000000
vn -1.000000 -0.000000 0.000000
vn -1.000000 -0.000000 0.000000
vn -1.000000 -0.000000 0.000000
vn -1.000000 -0.000000 0.000000
vn -0.963615 -0.267293 0.000000
vn -0.963615 -0.267293 0.000000
vn -0.963615 -0.267293 0.000000
vn -0.963615 -0.267293 0.000000
vn 0.000000 -1.000000 0.000000
vn 0.000000 -1.000000 0.000000
vn 0.000000 -1.000000 0.000000
vn 0.000000 -1.000000 0.000000
vn 0.963615 -0.267293 0.000000
vn 0.963615 -0.267293 0.000000
vn 0.963615 -0.267293 0.000000
vn 0.963615 -0.267293 0.000000
vn 1.000000 -0.000000 0.000000
vn 1.000000 -0.000000 0.000000
vn 1.000000 -0.000000 0.000000
vn 1.000000 -0.000000 0.000000
vn -1.000000 -0.000000 0.000000
vn -1.000000 -0.000000 0.000000
vn 0.064964 0.402019 0.913324
vn 0.303425 0.167803 0.937964
vn 0.295041 0.176989 0.938949
vn 0.064964 0.402019 0.913324
vn 0.287313 0.158893 -0.944566
vn 0.054451 0.336963 -0.939942
vn 0.064774 0.400848 -0.913852
vn 0.294122 0.176456 -0.939338
vn 0.367605 -0.029736 0.929507
vn 0.319468 -0.087411 0.943557
vn 0.319468 -0.087411 0.943557
vn 0.365047 -0.032872 0.930409
vn 0.318474 -0.087140 -0.943918
vn 0.366495 -0.029647 -0.929947
vn 0.363942 -0.032774 -0.930845
vn 0.318474 -0.087140 -0.943918
vn -0.303425 0.167803 0.937964
vn -0.064964 0.402019 0.913324
vn -0.064964 0.402019 0.913324
vn -0.295041 0.176989 0.938949
vn 1.000000 -0.000001 0.000000
vn 1.000000 -0.000001 0.000000
vn -0.054451 0.336963 -0.939942
vn -0.287313 0.158893 -0.944566
vn -0.294122 0.176456 -0.939338
vn -0.064774 0.400848 -0.913852
vn -0.367605 -0.029736 0.929507
vn -0.365047 -0.032872 0.930409
vn -0.366495 -0.029647 -0.929948
vn -0.363942 -0.032774 -0.930845
vn -0.319468 -0.087411 0.943557
vn -0.319468 -0.087411 0.943557
vn -0.318474 -0.087140 -0.943918
vn -0.318474 -0.087140 -0.943918
vn -1.000000 0.000000 0.000000
vn -1.000000 0.000000 0.000000
vn -1.000000 0.000000 0.000000
vn -1.000000 0.000000 0.000000
vn 0.033460 0.155327 0.987296
vn 0.033460 0.155327 0.987296
vn 0.033460 0.155327 0.987296
vn 0.033460 0.155327 0.987296
vn 0.880166 0.474666 0.000000
vn 0.880166 0.474666 0.000000
vn 0.880166 0.474666 0.000000
vn 0.880166 0.474666 0.000000
vn 0.033222 0.154223 -0.987477
vn 0.033222 0.154223 -0.987477
vn 0.033222 0.154223 -0.987477
vn 0.033222 0.154223 -0.987477
vn -0.033460 0.155327 0.987296
vn -0.033460 0.155327 0.987296
vn -0.033460 0.155327 0.987296
vn -0.033460 0.155327 0.987296
vn 1.000000 0.000000 0.000000
vn 1.000000 0.000000 0.000000
vn 1.000000 0.000000 0.000000
vn 1.000000 0.000000 0.000000
vn -0.033222 0.154223 -0.987477
vn -0.033222 0.154223 -0.987477
vn -0.033222 0.154223 -0.987477
vn -0.033222 0.154223 -0.987477
vn -0.880166 0.474666 0.000000
vn -0.880166 0.474666 0.000000
vn -0.880166 0.474666 0.000000
vn -0.880166 0.474666 0.000000
vn -1.000000 0.000000 0.000000
vn -1.000000 0.000000 0.000000
vn -1.000000 0.000000 0.000000
vn 0.000000 1.000000 0.000000
vn 0.000000 1.000000 0.000000
vn 0.000000 1.000000 0.000000
vn 0.000000 1.000000 0.000000
vn 0.916468 0.400109 0.000000
vn 0.916468 0.400109 0.000000
vn 0.916468 0.400109 0.000000
vn 0.000000 1.000000 0.000000
vn 0.000000 1.000000 0.000000
vn 0.000000 1.000000 0.000000
vn 0.000000 1.000000 0.000000
vn -0.916468 0.400109 0.000000
vn -0.916468 0.400109 0.000000
vn -0.916468 0.400109 0.000000
vn 1.000000 0.000000 0.000000
vn 1.000000 0.000000 0.000000
vn 1.000000 0.000000 0.000000
vn 0.000000 0.396194 -0.918167
vn 0.000000 0.396194 -0.918167
vn 0.000000 0.396194 -0.918167
vn 0.000000 0.396194 -0.918167
vn -0.918960 0.394350 0.000000
vn -0.918960 0.394350 0.000000
vn -0.918960 0.394350 0.000000
vn -0.918960 0.394350 0.000000
vn 0.000000 0.296049 0.955173
vn 0.000000 0.321045 0.947064
vn 0.000000 0.396193 0.918167
vn 0.000000 0.396194 0.918167
vn 1.000000 0.000001 0.000000
vn 1.000000 0.000001 0.000000
vn 1.000000 0.000001 0.000000
vn 1.000000 0.000001 0.000000
vn 0.000000 0.396193 -0.918167
vn 0.000000 0.396193 -0.918167
vn 0.000000 0.396193 -0.918167
vn 0.000000 0.396194 -0.918167
vn -1.000000 0.000000 0.000000
vn -1.000000 0.000000 0.000000
vn -1.000000 0.000000 0.000000
vn -1.000000 0.000000 0.000000
vn 0.000000 0.321045 0.947064
vn 0.000000 0.296049 0.955173
vn 0.000000 0.396194 0.918167
vn 0.000000 0.396194 0.918167
vn 0.918960 0.394350 0.000000
vn 0.918960 0.394350 0.000000
vn 0.918960 0.394350 0.000000
vn 0.918960 0.394350 0.000000
vn 0.801282 0.598287 0.000000
vn 0.801282 0.598287 0.000000
vn 0.801282 0.598287 0.000000
vn 0.801282 0.598287 0.000000
vn 0.000000 0.000000 -1.000000
vn 0.000000 0.000000 -1.000000
vn -0.850295 0.526307 0.000000
vn -0.850295 0.526307 0.000000
vn -0.850295 0.526307 0.000000
vn -0.850295 0.526307 0.000000
vn 0.000000 0.000000 1.000000
vn 0.000000 0.000000 1.000000
vn 0.000000 0.000000 -1.000000
vn 0.000000 0.000000 -1.000000
vn -0.801282 0.598287 0.000000
vn -0.801282 0.598287 0.000000
vn -0.801282 0.598287 0.000000
vn -0.801282 0.598287 0.000000
vn 0.000000 0.000000 1.000000
vn 0.000000 0.000000 1.000000
vn 0.850295 0.526307 0.000000
vn 0.850295 0.526307 0.000000
vn 0.850295 0.526307 0.000000
vn 0.850295 0.526307 0.000000
vn -1.000000 0.000000 0.000000
vn -1.000000 0.000000 0.000000
vn -1.000000 0.000000 0.000000
vn 0.204212 -0.490245 -0.847324
vn 0.204212 -0.490245 -0.847324
vn 0.204212 -0.490245 -0.847324
vn 0.204212 -0.490245 -0.847324
vn 0.912684 -0.408667 0.000000
vn 0.912684 -0.408667 0.000000
vn 0.912684 -0.408667 0.000000
vn 0.205678 -0.490314 0.846929
vn 0.205678 -0.490314 0.846929
vn 0.205678 -0.490314 0.846929
vn 0.205678 -0.490314 0.846929
vn 1.000000 0.000000 0.000000
vn 1.000000 0.000000 0.000000
vn 1.000000 0.000000 0.000000
vn -0.194663 -0.485895 0.852064
vn -0.194663 -0.485895 0.852064
vn -0.194663 -0.485895 0.852064
vn -0.194663 -0.485895 0.852064
vn -0.932651 -0.360779 0.000000
vn -0.932651 -0.360779 0.000000
vn -0.932651 -0.360779 0.000000
vn -0.193263 -0.485848 -0.852409
vn -0.193263 -0.485848 -0.852409
vn -0.193263 -0.485848 -0.852409
vn -0.193263 -0.485848 -0.852409
vn 0.104788 0.814894 -0.570059
vn 0.006240 0.842913 -0.538014
vn -0.006240 0.842913 -0.538014
vn -0.104788 0.814894 -0.570059
vn -0.369313 0.789021 -0.490972
vn -0.311346 0.717256 -0.623384
vn 0.369313 0.789021 -0.490972
vn 0.301839 0.709990 -0.636245
vn 0.301839 0.709990 -0.636245
vn 0.311346 0.717256 -0.623384
vn -0.301839 0.709990 -0.636245
vn -0.301839 0.709990 -0.636245
s off
g pCube27
usemtl initialShadingGroup
f 3/89/1 4/90/2 13/91/3 14/92/4
s 1
f 17/107/5 18/108/6 2/109/7 1/110/8
s off
f 5/1/9 19/2/10 20/3/11 6/4/12
f 16/12/13 7/13/14 8/14/15 15/15/16
s 1
f 2/109/7 18/108/6 19/111/17 5/112/18
f 17/107/5 1/110/8 7/115/19 16/116/20
s off
f 13/23/21 4/24/22 9/25/23
f 6/4/24 20/3/25 10/5/26
f 3/38/27 14/39/28 11/40/29
f 15/15/30 8/14/31 12/18/32
s 2
f 21/165/33 22/166/34 24/167/35 23/168/36
s 3
f 23/97/37 24/98/38 39/94/39 40/93/40
s 4
f 45/114/41 46/113/42 22/118/43 21/119/44
s off
f 25/53/45 47/54/46 48/55/47 26/56/48
f 44/59/49 27/60/50 28/61/51 43/62/52
s 4
f 22/118/43 46/113/42 47/121/53 25/122/54
s off
f 38/125/55 29/126/56 31/127/57 37/128/58
s 2
f 24/167/35 22/166/34 25/169/59 26/170/60
s 4
f 45/114/41 21/119/44 27/123/61 44/124/62
s 2
f 21/165/33 23/168/36 28/171/63 27/172/64
s off
f 33/129/65 41/130/66 42/131/67 36/132/68
s 5
f 39/27/69 24/32/70 29/33/71 38/31/72
s off
f 24/167/73 26/170/74 31/173/75 29/174/76
f 26/56/77 48/55/78 37/57/79 31/58/80
s 6
f 23/47/81 40/45/82 41/46/83 33/48/84
s off
f 43/62/85 28/61/86 36/63/87 42/64/88
f 28/171/89 23/168/90 33/175/91 36/176/92
f 74/133/93 73/134/94 75/135/95 76/136/96
s 5
f 39/27/69 38/31/72 50/28/97
s 6
f 41/46/83 40/45/82 51/44/98
s off
f 78/137/99 77/138/100 79/139/101 80/140/102
f 70/65/103 69/66/104 66/67/105 68/68/106
f 71/69/107 72/70/108 69/66/109 70/65/110
s 4
f 45/114/41 44/124/62 54/120/111
f 47/121/53 46/113/42 55/117/112
s off
f 62/74/113 61/75/114 63/76/115 64/77/116
f 59/79/117 62/74/118 64/77/119 60/80/120
f 90/141/121 89/142/122 91/143/123 92/144/124
s 5
f 4/24/125 39/27/69 50/28/97 30/26/126
s 3
f 40/93/40 39/94/39 4/90/127 3/89/128
s 6
f 51/44/98 40/45/82 3/38/129 34/41/130
s off
f 94/149/131 93/150/132 95/151/133 96/152/134
f 8/14/135 53/17/136 52/19/137 35/20/138
f 7/13/139 54/16/140 53/17/141 8/14/142
s 4
f 1/110/143 45/114/41 54/120/111 7/115/144
f 1/110/143 2/109/145 46/113/42 45/114/41
f 55/117/112 46/113/42 2/109/145 5/112/146
s off
f 56/6/147 55/7/148 5/1/149 6/4/150
f 49/9/151 56/6/152 6/4/153 32/8/154
s 5
f 50/28/97 38/31/72 57/34/155 58/35/156
s 7
f 38/177/157 37/178/158 59/179/159 57/180/160
s 8
f 49/189/161 50/190/162 58/191/163 60/192/164
s 7
f 48/181/165 47/185/166 61/186/167 62/182/168
s 8
f 55/199/169 56/197/170 64/198/171 63/200/172
s 7
f 37/178/158 48/181/165 62/182/168 59/179/159
s 8
f 56/197/170 49/189/161 60/192/164 64/198/171
s 9
f 42/203/173 41/204/174 65/205/175 66/206/176
s 6
f 41/46/83 51/44/98 67/49/177 65/50/178
s 10
f 51/215/179 52/216/180 68/217/181 67/218/182
s 9
f 43/209/183 42/203/173 66/206/176 69/210/184
s 10
f 52/216/180 53/221/185 70/222/186 68/217/181
s 9
f 44/211/187 43/209/183 69/210/184 72/212/188
s 10
f 53/221/185 54/225/189 71/226/190 70/222/186
s off
f 58/35/191 57/34/192 73/36/193 74/37/194
f 57/180/195 59/179/196 75/183/197 73/184/198
f 59/79/199 60/80/200 76/81/201 75/82/202
f 60/192/203 58/191/204 74/195/205 76/196/206
f 66/206/207 65/205/208 77/207/209 78/208/210
f 65/50/211 67/49/212 79/51/213 77/52/214
f 67/218/215 68/217/216 80/223/217 79/224/218
f 68/68/219 66/67/220 78/71/221 80/72/222
f 12/18/223 8/14/224 35/20/225
f 81/157/226 82/158/227 83/159/228 84/160/229
f 3/38/230 11/40/231 34/41/232
f 86/161/233 85/162/234 87/163/235 88/164/236
f 9/25/237 4/24/238 30/26/239
f 6/4/240 10/5/241 32/8/242
f 11/229/243 12/230/244 82/231/245 81/232/246
f 12/18/247 35/20/248 83/21/249 82/22/250
s 11
f 35/233/251 34/234/252 84/235/253 83/236/254
s off
f 34/41/255 11/40/256 81/42/257 84/43/258
f 10/239/259 9/240/260 85/241/261 86/242/262
f 9/25/263 30/26/264 87/29/265 85/30/266
s 12
f 30/243/267 32/244/268 88/245/269 87/246/270
s off
f 32/8/271 10/5/272 86/10/273 88/11/274
f 30/145/275 50/146/276 89/142/277 90/141/278
s 8
f 50/190/162 49/189/161 91/193/279 89/194/280
s off
f 49/147/281 32/148/282 92/144/283 91/143/284
s 12
f 32/244/268 30/243/267 90/247/285 92/248/286
s 10
f 52/216/180 51/215/179 93/219/287 94/220/288
s off
f 51/153/289 34/154/290 95/151/291 93/150/292
s 11
f 34/234/252 35/233/251 96/237/293 95/238/294
s off
f 35/155/295 52/156/296 94/149/297 96/152/298
f 47/83/299 55/84/300 97/85/301
f 55/199/302 63/200/303 98/201/304 97/202/305
f 63/76/306 61/75/307 98/78/308
f 61/186/309 47/185/310 97/187/311 98/188/312
f 54/86/313 44/87/314 99/88/315
f 44/211/316 72/212/317 100/213/318 99/214/319
f 72/70/320 71/69/321 100/73/322
f 71/226/323 54/225/324 99/227/325 100/228/326
s 13
f 13/91/327 18/95/328 17/96/329 14/92/330
f 14/92/330 16/100/331 15/102/332
f 13/91/327 19/99/333 18/95/328
f 9/103/334 10/104/335 20/101/336 13/91/327
f 12/105/337 11/106/338 14/92/330 15/102/332
f 13/91/327 20/101/336 19/99/333
f 14/92/330 17/96/329 16/100/331
