# This file uses centimeters as units for non-parametric coordinates.

mtllib CoyoteHu;;.mtl
g default
v -1.598535 -0.000001 6.017036
v -0.537133 -0.000000 6.960678
v 1.176088 0.000000 6.960679
v 2.237489 0.000001 6.017036
v -2.250355 1.068750 6.017036
v -0.537133 1.068750 7.268439
v 1.176088 1.068750 7.268439
v 2.889310 1.068751 6.017036
v -2.250355 2.137500 6.017036
v -0.537133 2.137500 7.268439
v 1.176088 2.137500 7.268439
v 2.889310 2.137501 6.017036
v -2.250355 2.137500 3.962276
v -0.537133 2.137500 2.801548
v 1.176089 2.137500 2.801548
v 2.889311 2.137501 3.962276
v -3.567407 2.137500 -1.534927
v -0.976151 2.137500 -1.534927
v 1.615106 2.137500 -1.534927
v 4.206363 2.137500 -1.534927
v -3.567407 2.137500 -5.580530
v -0.976151 2.137500 -5.580530
v 1.615106 2.137500 -5.580530
v 4.206363 2.137500 -5.580530
v -3.567407 1.068750 -5.580530
v 4.206363 1.068750 -5.580530
v -2.581525 -0.000000 -5.580529
v -0.976151 0.000000 -5.580530
v 1.615106 0.000000 -5.580530
v 3.220481 0.000000 -5.580530
v -2.581525 -0.000000 -1.534927
v -0.976151 0.000000 -1.534927
v 1.615106 0.000000 -1.534927
v 3.220481 0.000000 -1.534928
v -1.598534 -0.000001 3.962276
v -0.537133 -0.000000 3.962276
v 1.176089 0.000000 3.962276
v 2.237490 0.000001 3.962276
v 4.206363 1.068750 -1.534927
v 2.889311 1.068751 3.962276
v -3.567407 1.068750 -1.534927
v -2.250355 1.068750 3.962276
v -1.656007 2.995993 5.888317
v -0.339017 2.995993 6.921936
v -0.339017 2.995993 3.148052
v -1.656007 2.995993 4.308779
v 0.977972 2.995993 6.921936
v 0.977973 2.995993 3.148052
v 2.294962 2.995994 5.888317
v 2.294963 2.995994 4.308780
v -1.948816 2.137500 -7.952328
v -0.436620 2.137500 -7.952328
v -0.436620 1.068750 -7.952329
v -1.948817 1.068749 -7.952328
v 1.075576 2.137500 -7.952329
v 1.075576 1.068750 -7.952329
v 2.587772 2.137501 -7.952329
v 2.587772 1.068751 -7.952329
v -0.436621 -0.000000 -7.386419
v -1.373479 -0.000001 -7.386418
v 1.075575 0.000000 -7.386419
v 2.012434 0.000001 -7.386420
v -1.109097 3.240289 4.987715
v -0.156714 3.240289 5.511181
v -0.156714 3.240289 3.627572
v -1.109097 3.240289 4.466953
v 0.795669 3.240289 5.511181
v 0.795670 3.240289 3.627572
v 1.748053 3.240289 4.987715
v 1.748053 3.240289 4.466954
v -1.109097 2.056052 5.609199
v -0.156714 2.056052 6.132666
v -0.156714 2.056052 3.627572
v -1.109097 2.056052 4.466953
v 0.795670 2.056052 6.132666
v 0.795670 2.056052 3.627572
v 1.748053 2.056053 5.609199
v 1.748053 2.056053 4.466954
v 1.161455 2.137500 0.025785
v -0.522499 2.137500 0.025785
v -2.206453 2.137500 0.443535
v -2.206453 1.068750 0.443534
v -1.565768 -0.000001 0.443534
v -0.522499 -0.000000 0.443534
v 1.161455 0.000000 0.443534
v 2.204724 0.000001 0.443534
v 2.845409 1.068751 0.443534
v 2.845409 2.137501 0.443534
vt 0.375000 0.000000
vt 0.458333 0.000000
vt 0.541667 0.000000
vt 0.625000 0.000000
vt 0.375000 0.125000
vt 0.458333 0.125000
vt 0.541667 0.125000
vt 0.625000 0.125000
vt 0.375000 0.250000
vt 0.458333 0.250000
vt 0.541667 0.250000
vt 0.625000 0.250000
vt 0.375000 0.333333
vt 0.458333 0.333333
vt 0.541667 0.333333
vt 0.625000 0.333333
vt 0.375000 0.416667
vt 0.458333 0.416667
vt 0.541667 0.416667
vt 0.625000 0.416667
vt 0.375000 0.500000
vt 0.458333 0.500000
vt 0.541667 0.500000
vt 0.625000 0.500000
vt 0.375000 0.625000
vt 0.458333 0.625000
vt 0.541667 0.625000
vt 0.625000 0.625000
vt 0.375000 0.750000
vt 0.458333 0.750000
vt 0.541667 0.750000
vt 0.625000 0.750000
vt 0.375000 0.833333
vt 0.458333 0.833333
vt 0.541667 0.833333
vt 0.625000 0.833333
vt 0.375000 0.916667
vt 0.458333 0.916667
vt 0.541667 0.916667
vt 0.625000 0.916667
vt 0.375000 1.000000
vt 0.458333 1.000000
vt 0.541667 1.000000
vt 0.625000 1.000000
vt 0.875000 0.000000
vt 0.791667 0.000000
vt 0.708333 0.000000
vt 0.875000 0.125000
vt 0.791667 0.125000
vt 0.708333 0.125000
vt 0.875000 0.250000
vt 0.791667 0.250000
vt 0.708333 0.250000
vt 0.125000 0.000000
vt 0.208333 0.000000
vt 0.291667 0.000000
vt 0.125000 0.125000
vt 0.208333 0.125000
vt 0.291667 0.125000
vt 0.125000 0.250000
vt 0.208333 0.250000
vt 0.291667 0.250000
vt 0.375000 0.250000
vt 0.458333 0.250000
vt 0.458333 0.333333
vt 0.375000 0.333333
vt 0.541667 0.250000
vt 0.541667 0.333333
vt 0.625000 0.250000
vt 0.625000 0.333333
vt 0.375000 0.500000
vt 0.458333 0.500000
vt 0.375000 0.625000
vt 0.541667 0.500000
vt 0.625000 0.500000
vt 0.625000 0.625000
vt 0.458333 0.750000
vt 0.375000 0.750000
vt 0.541667 0.750000
vt 0.625000 0.750000
vt 0.375000 0.250000
vt 0.458333 0.250000
vt 0.458333 0.333333
vt 0.375000 0.333333
vt 0.541667 0.250000
vt 0.541667 0.333333
vt 0.625000 0.250000
vt 0.625000 0.333333
vt 0.375000 0.250000
vt 0.458333 0.250000
vt 0.458333 0.333333
vt 0.375000 0.333333
vt 0.541667 0.250000
vt 0.541667 0.333333
vt 0.625000 0.250000
vt 0.625000 0.333333
vt 0.541667 0.386675
vt 0.458333 0.386675
vt 0.238325 0.250000
vt 0.375000 0.386675
vt 0.238325 0.125000
vt 0.238325 0.000000
vt 0.375000 0.863325
vt 0.458333 0.863325
vt 0.541667 0.863325
vt 0.625000 0.863325
vt 0.761675 0.000000
vt 0.761675 0.125000
vt 0.625000 0.386675
vt 0.761675 0.250000
vn -0.593923 -0.289207 0.750743
vn -0.335778 -0.298543 0.893379
vn -0.327069 -0.142281 0.934228
vn -0.597609 -0.112990 0.793787
vn 0.335778 -0.298543 0.893379
vn 0.327069 -0.142281 0.934228
vn 0.593924 -0.289207 0.750742
vn 0.597609 -0.112990 0.793786
vn -0.343056 0.000000 0.939315
vn -0.589842 0.000000 0.807518
vn 0.343056 -0.000000 0.939315
vn 0.589842 -0.000000 0.807518
vn -0.000000 1.000000 0.000000
vn -0.000000 1.000000 -0.000000
vn -0.000000 1.000000 -0.000000
vn -0.000000 1.000000 0.000000
vn -0.000000 1.000000 -0.000000
vn -0.000000 1.000000 -0.000000
vn -0.000000 1.000000 -0.000000
vn -0.000000 1.000000 -0.000000
vn -0.000000 1.000000 -0.000000
vn -0.000000 1.000000 -0.000000
vn -0.000000 1.000000 0.000000
vn -0.000000 1.000000 0.000000
vn -0.000000 1.000000 0.000000
vn -0.000000 1.000000 -0.000000
vn -0.000000 1.000000 0.000000
vn -0.000000 1.000000 -0.000000
vn -0.000000 1.000000 0.000000
vn -0.000000 1.000000 0.000000
vn -0.000000 1.000000 -0.000000
vn -0.000000 1.000000 -0.000000
vn -0.000000 1.000000 -0.000000
vn -0.000000 1.000000 0.000000
vn -0.000000 1.000000 -0.000000
vn -0.000000 1.000000 0.000000
vn -0.000001 0.000000 -1.000000
vn -0.000000 0.000000 -1.000000
vn -0.000000 -0.243935 -0.969792
vn -0.000001 -0.190975 -0.981595
vn 0.000000 0.000000 -1.000000
vn -0.000000 -0.243935 -0.969792
vn 0.000000 0.000000 -1.000000
vn -0.000000 -0.190975 -0.981595
vn -0.000000 -0.467953 -0.883753
vn -0.000001 -0.467953 -0.883753
vn -0.000000 -0.467953 -0.883754
vn -0.000001 -0.467953 -0.883754
vn 0.000000 -1.000000 0.000000
vn 0.000000 -1.000000 0.000000
vn 0.000000 -1.000000 -0.000000
vn 0.000000 -1.000000 -0.000000
vn 0.000000 -1.000000 -0.000000
vn 0.000000 -1.000000 0.000000
vn 0.000000 -1.000000 -0.000000
vn 0.000000 -1.000000 0.000000
vn 0.000000 -1.000000 -0.000000
vn 0.000000 -1.000000 -0.000000
vn 0.000000 -1.000000 0.000000
vn 0.000000 -1.000000 0.000000
vn 0.000000 -1.000000 0.000000
vn 0.000000 -1.000000 0.000000
vn 0.000000 -1.000000 0.000000
vn 0.000000 -1.000000 -0.000000
vn 0.000000 -1.000000 0.000000
vn 0.000000 -1.000000 0.000000
vn 0.000000 -1.000000 0.000000
vn 0.000000 -1.000000 0.000000
vn 0.746673 -0.644173 0.165898
vn 0.723236 -0.663496 -0.191578
vn 0.900434 -0.386019 -0.200519
vn 0.907240 -0.381658 0.176787
vn 0.854979 -0.518629 -0.005887
vn 0.826356 -0.541501 0.154635
vn 0.922593 -0.318200 0.218109
vn 0.957033 -0.289892 -0.007056
vn 0.853745 -0.520691 0.000000
vn 0.956514 -0.291685 0.000000
vn 0.969634 -0.000000 -0.244560
vn 0.975417 -0.000000 0.220366
vn 0.972479 -0.000000 0.232992
vn 0.999969 -0.000000 -0.007876
vn 1.000000 -0.000000 0.000000
vn -0.723237 -0.663496 -0.191578
vn -0.746673 -0.644172 0.165898
vn -0.907240 -0.381658 0.176787
vn -0.900434 -0.386019 -0.200519
vn -0.826356 -0.541501 0.154635
vn -0.854980 -0.518628 -0.005887
vn -0.957033 -0.289892 -0.007056
vn -0.922593 -0.318200 0.218109
vn -0.853745 -0.520691 -0.000000
vn -0.956515 -0.291684 -0.000000
vn -0.975417 -0.000000 0.220366
vn -0.969634 0.000000 -0.244560
vn -0.999969 0.000000 -0.007877
vn -0.972479 -0.000000 0.232992
vn -1.000000 0.000000 -0.000000
vn -0.538761 0.446409 0.714462
vn -0.538761 0.446408 0.714462
vn -0.538761 0.446408 0.714462
vn -0.538761 0.446409 0.714462
vn -0.521234 0.515182 -0.680370
vn -0.521234 0.515182 -0.680370
vn -0.521234 0.515182 -0.680370
vn -0.521234 0.515182 -0.680370
vn -0.822189 0.569214 -0.000000
vn -0.822189 0.569214 -0.000000
vn -0.822189 0.569214 -0.000000
vn -0.822189 0.569214 -0.000000
vn -0.000000 0.374281 0.927315
vn -0.000000 0.374281 0.927315
vn -0.000000 0.374281 0.927315
vn -0.000000 0.374281 0.927315
vn 0.000000 0.374281 -0.927315
vn 0.000000 0.374281 -0.927315
vn 0.000000 0.374281 -0.927315
vn 0.000000 0.374281 -0.927315
vn 0.538761 0.446408 0.714462
vn 0.538761 0.446409 0.714462
vn 0.538761 0.446408 0.714462
vn 0.538761 0.446409 0.714462
vn 0.822189 0.569214 0.000000
vn 0.822189 0.569214 0.000000
vn 0.822189 0.569214 0.000000
vn 0.822189 0.569214 0.000000
vn 0.521234 0.515182 -0.680370
vn 0.521234 0.515182 -0.680370
vn 0.521234 0.515182 -0.680370
vn 0.521234 0.515182 -0.680370
vn -0.000000 1.000000 -0.000000
vn -0.000000 1.000000 -0.000000
vn -0.825991 0.000000 -0.563683
vn -0.825991 0.000000 -0.563683
vn -0.000000 1.000000 0.000000
vn -0.000000 1.000000 0.000000
vn 0.825992 0.000000 -0.563683
vn 0.825991 0.000000 -0.563683
vn 0.000000 -1.000000 0.000000
vn 0.000000 -1.000000 0.000000
vn -0.661537 -0.601686 -0.447598
vn -0.661537 -0.601686 -0.447598
vn 0.000000 -1.000000 -0.000000
vn 0.661536 -0.601686 -0.447598
vn 0.661536 -0.601686 -0.447598
vn 0.000000 -1.000000 -0.000000
vn -0.116667 0.978507 0.170037
vn -0.116667 0.978507 0.170037
vn -0.116667 0.978507 0.170037
vn -0.116667 0.978507 0.170037
vn -0.299770 0.891321 -0.340126
vn -0.299770 0.891321 -0.340126
vn -0.299770 0.891321 -0.340126
vn -0.299770 0.891321 -0.340126
vn -0.407846 0.913051 0.000000
vn -0.407846 0.913051 0.000000
vn -0.407846 0.913051 0.000000
vn -0.407846 0.913051 0.000000
vn 0.000000 0.985336 0.170627
vn 0.000000 0.985336 0.170627
vn 0.000000 0.985336 0.170627
vn 0.000000 0.985336 0.170627
vn 0.000000 0.891030 -0.453944
vn 0.000000 0.891030 -0.453944
vn 0.000000 0.891030 -0.453944
vn 0.000000 0.891030 -0.453944
vn 0.116667 0.978507 0.170036
vn 0.116667 0.978507 0.170036
vn 0.116667 0.978507 0.170036
vn 0.116667 0.978507 0.170036
vn 0.407845 0.913051 0.000000
vn 0.407845 0.913051 0.000000
vn 0.407845 0.913051 0.000000
vn 0.407845 0.913051 0.000000
vn 0.299769 0.891321 -0.340125
vn 0.299769 0.891321 -0.340125
vn 0.299769 0.891321 -0.340125
vn 0.299769 0.891321 -0.340125
vn 0.437613 -0.417835 -0.796184
vn 0.251324 -0.449778 -0.857051
vn 0.219052 -0.453407 -0.863966
vn 0.437613 -0.417835 -0.796184
vn 0.661198 0.000000 0.750212
vn 0.661198 0.000000 0.750212
vn 0.661198 0.000000 0.750212
vn 0.661198 0.000000 0.750212
vn 1.000000 0.000000 0.000000
vn 1.000000 0.000000 0.000000
vn 1.000000 0.000000 0.000000
vn 1.000000 0.000000 0.000000
vn -0.251324 -0.449778 -0.857051
vn -0.219052 -0.453407 -0.863966
vn 0.000000 0.000000 1.000000
vn 0.000000 0.000000 1.000000
vn 0.000000 0.000000 1.000000
vn 0.000000 0.000000 1.000000
vn -0.437612 -0.417835 -0.796184
vn -0.437612 -0.417836 -0.796184
vn -1.000000 -0.000000 0.000000
vn -1.000000 -0.000000 0.000000
vn -1.000000 -0.000000 0.000000
vn -1.000000 -0.000000 0.000000
vn -0.661198 -0.000000 0.750211
vn -0.661198 -0.000000 0.750211
vn -0.661198 -0.000000 0.750211
vn -0.661198 -0.000000 0.750211
s 1
g pCube1
usemtl initialShadingGroup
f 1/1/1 2/2/2 6/6/3 5/5/4
f 2/2/2 3/3/5 7/7/6 6/6/3
f 3/3/5 4/4/7 8/8/8 7/7/6
f 5/5/4 6/6/3 10/10/9 9/9/10
f 6/6/3 7/7/6 11/11/11 10/10/9
f 7/7/6 8/8/8 12/12/12 11/11/11
s 2
f 71/89/13 72/90/14 73/91/15 74/92/16
f 72/90/14 75/93/17 76/94/18 73/91/15
f 75/93/17 77/95/19 78/96/20 76/94/18
s 3
f 13/13/21 14/14/22 80/98/23 81/100/24
f 14/14/22 15/15/25 79/97/26 80/98/23
f 15/15/25 16/16/27 88/109/28 79/97/26
f 17/17/29 18/18/30 22/22/31 21/21/32
f 18/18/30 19/19/33 23/23/34 22/22/31
f 19/19/33 20/20/35 24/24/36 23/23/34
s 4
f 51/71/37 52/72/38 53/26/39 54/73/40
f 52/72/38 55/74/41 56/27/42 53/26/39
f 55/74/41 57/75/43 58/76/44 56/27/42
f 54/73/40 53/26/39 59/77/45 60/78/46
f 53/26/39 56/27/42 61/79/47 59/77/45
f 56/27/42 58/76/44 62/80/48 61/79/47
s 5
f 27/29/49 28/30/50 32/34/51 31/33/52
f 28/30/50 29/31/53 33/35/54 32/34/51
f 29/31/53 30/32/55 34/36/56 33/35/54
f 83/103/57 84/104/58 36/38/59 35/37/60
f 84/104/58 85/105/61 37/39/62 36/38/59
f 85/105/61 86/106/63 38/40/64 37/39/62
f 35/37/60 36/38/59 2/42/65 1/41/66
f 36/38/59 37/39/62 3/43/67 2/42/65
f 37/39/62 38/40/64 4/44/68 3/43/67
s 6
f 34/46/69 30/45/70 26/48/71 39/49/72
f 38/47/73 86/107/74 87/108/75 40/50/76
f 4/4/77 38/47/73 40/50/76 8/8/78
f 39/49/72 26/48/71 24/51/79 20/52/80
f 40/50/76 87/108/75 88/110/81 16/53/82
f 8/8/78 40/50/76 16/53/82 12/12/83
s 7
f 27/54/84 31/55/85 41/58/86 25/57/87
f 83/102/88 35/56/89 42/59/90 82/101/91
f 35/56/89 1/1/92 5/5/93 42/59/90
f 25/57/87 41/58/86 17/61/94 21/60/95
f 82/101/91 42/59/90 13/62/96 81/99/97
f 42/59/90 5/5/93 9/9/98 13/62/96
s off
f 9/9/99 10/10/100 44/64/101 43/63/102
f 14/14/103 13/13/104 46/66/105 45/65/106
f 13/13/107 9/9/108 43/63/109 46/66/110
f 10/10/111 11/11/112 47/67/113 44/64/114
f 15/15/115 14/14/116 45/65/117 48/68/118
f 11/11/119 12/12/120 49/69/121 47/67/122
f 12/12/123 16/16/124 50/70/125 49/69/126
f 16/16/127 15/15/128 48/68/129 50/70/130
s 3
f 21/21/32 22/22/31 52/72/131 51/71/132
s 7
f 25/25/87 21/21/95 51/71/133 54/73/134
s 3
f 22/22/31 23/23/34 55/74/135 52/72/131
f 23/23/34 24/24/36 57/75/136 55/74/135
s 6
f 24/24/79 26/28/71 58/76/137 57/75/138
s 5
f 28/30/50 27/29/49 60/78/139 59/77/140
s 7
f 27/29/84 25/25/87 54/73/141 60/78/142
s 5
f 29/31/53 28/30/50 59/77/140 61/79/143
s 6
f 26/28/71 30/32/70 62/80/144 58/76/145
s 5
f 30/32/55 29/31/53 61/79/143 62/80/146
s off
f 43/63/147 44/64/148 64/82/149 63/81/150
f 45/65/151 46/66/152 66/84/153 65/83/154
f 46/66/155 43/63/156 63/81/157 66/84/158
f 44/64/159 47/67/160 67/85/161 64/82/162
f 48/68/163 45/65/164 65/83/165 68/86/166
f 47/67/167 49/69/168 69/87/169 67/85/170
f 49/69/171 50/70/172 70/88/173 69/87/174
f 50/70/175 48/68/176 68/86/177 70/88/178
s 9
f 63/81/179 64/82/180 72/90/181 71/89/182
s off
f 65/83/183 66/84/184 74/92/185 73/91/186
f 66/84/187 63/81/188 71/89/189 74/92/190
s 9
f 64/82/180 67/85/191 75/93/192 72/90/181
s off
f 68/86/193 65/83/194 73/91/195 76/94/196
s 9
f 67/85/191 69/87/197 77/95/198 75/93/192
s off
f 69/87/199 70/88/200 78/96/201 77/95/202
f 70/88/203 68/86/204 76/94/205 78/96/206
s 3
f 80/98/23 79/97/26 19/19/33 18/18/30
f 81/100/24 80/98/23 18/18/30 17/17/29
s 7
f 41/58/86 82/101/91 81/99/97 17/61/94
f 31/55/85 83/102/88 82/101/91 41/58/86
s 5
f 31/33/52 32/34/51 84/104/58 83/103/57
f 32/34/51 33/35/54 85/105/61 84/104/58
f 33/35/54 34/36/56 86/106/63 85/105/61
s 6
f 87/108/75 86/107/74 34/46/69 39/49/72
f 88/110/81 87/108/75 39/49/72 20/52/80
s 3
f 79/97/26 88/109/28 20/20/35 19/19/33
