# This file uses centimeters as units for non-parametric coordinates.

mtllib CoyoteTurret.mtl
g default
v 2.353963 3.521669 -1.955445
v 2.146252 3.729379 -1.955073
v 1.862514 3.805406 -1.954937
v 1.578776 3.729379 -1.955074
v 1.371066 3.521669 -1.955446
v 1.295039 3.237931 -1.955956
v 1.371066 2.954194 -1.956464
v 1.578776 2.746484 -1.956838
v 1.862514 2.670456 -1.956974
v 2.146252 2.746484 -1.956837
v 2.353963 2.954194 -1.956464
v 2.429990 3.237931 -1.955955
v 2.353963 3.515348 2.852973
v 2.146252 3.723058 2.853346
v 1.862514 3.799086 2.853482
v 1.578777 3.723058 2.853345
v 1.371066 3.515348 2.852973
v 1.295039 3.231611 2.852463
v 1.371066 2.947873 2.851954
v 1.578777 2.740163 2.851581
v 1.862514 2.664136 2.851446
v 2.146252 2.740163 2.851582
v 2.353963 2.947873 2.851954
v 2.429990 3.231611 2.852464
v 1.862514 3.237931 -1.955956
v 1.862514 3.231611 2.852464
v -0.323079 0.000000 0.745186
v 1.948736 0.000000 0.745186
v -0.115171 0.486059 0.618818
v 1.740827 0.486059 0.618818
v -0.115171 0.486059 -0.509270
v 1.740827 0.486059 -0.509270
v -0.323079 0.000000 -0.635638
v 1.948736 0.000000 -0.635638
v 0.236674 0.486059 0.404964
v 1.388983 0.486059 0.404964
v 1.388983 0.486059 -0.295417
v 0.236674 0.486059 -0.295417
v 0.236674 2.301976 0.404964
v 1.388983 2.301976 0.404964
v 1.388983 2.301976 -0.295417
v 0.236674 2.301976 -0.295417
v -0.092948 2.391492 0.577909
v 1.718605 2.391492 0.577909
v 1.718605 2.391492 -0.468361
v -0.092948 2.391492 -0.468361
v -0.092948 3.821455 0.577909
v 1.718605 3.821455 0.577909
v 1.718605 3.821455 -0.468361
v -0.092948 3.821455 -0.468361
v 0.252687 3.521669 -1.955445
v 0.044977 3.729379 -1.955073
v -0.238761 3.805406 -1.954937
v -0.522499 3.729379 -1.955074
v -0.730210 3.521669 -1.955446
v -0.806237 3.237931 -1.955956
v -0.730210 2.954194 -1.956464
v -0.522499 2.746484 -1.956838
v -0.238761 2.670456 -1.956974
v 0.044977 2.746484 -1.956837
v 0.252687 2.954194 -1.956464
v 0.328714 3.237931 -1.955955
v 0.252687 3.515348 2.852973
v 0.044977 3.723058 2.853346
v -0.238761 3.799086 2.853482
v -0.522499 3.723058 2.853345
v -0.730209 3.515348 2.852973
v -0.806236 3.231611 2.852463
v -0.730209 2.947873 2.851954
v -0.522499 2.740163 2.851581
v -0.238761 2.664136 2.851446
v 0.044977 2.740163 2.851582
v 0.252687 2.947873 2.851954
v 0.328715 3.231611 2.852464
v -0.238761 3.237931 -1.955956
v -0.238761 3.231611 2.852464
vt 0.635316 0.078125
vt 0.578125 0.020934
vt 0.500000 0.000000
vt 0.421875 0.020934
vt 0.364684 0.078125
vt 0.343750 0.156250
vt 0.364684 0.234375
vt 0.421875 0.291566
vt 0.500000 0.312500
vt 0.578125 0.291566
vt 0.635316 0.234375
vt 0.656250 0.156250
vt 0.375000 0.312500
vt 0.395833 0.312500
vt 0.416667 0.312500
vt 0.437500 0.312500
vt 0.458333 0.312500
vt 0.479167 0.312500
vt 0.500000 0.312500
vt 0.520833 0.312500
vt 0.541667 0.312500
vt 0.562500 0.312500
vt 0.583333 0.312500
vt 0.604167 0.312500
vt 0.625000 0.312500
vt 0.375000 0.688440
vt 0.395833 0.688440
vt 0.416667 0.688440
vt 0.437500 0.688440
vt 0.458333 0.688440
vt 0.479167 0.688440
vt 0.500000 0.688440
vt 0.520833 0.688440
vt 0.541667 0.688440
vt 0.562500 0.688440
vt 0.583333 0.688440
vt 0.604167 0.688440
vt 0.625000 0.688440
vt 0.635316 0.765625
vt 0.578125 0.708434
vt 0.500000 0.687500
vt 0.421875 0.708434
vt 0.364684 0.765625
vt 0.343750 0.843750
vt 0.364684 0.921875
vt 0.421875 0.979066
vt 0.500000 1.000000
vt 0.578125 0.979066
vt 0.635316 0.921875
vt 0.656250 0.843750
vt 0.500000 0.150000
vt 0.500000 0.837500
vt 0.375000 0.000000
vt 0.625000 0.000000
vt 0.625000 0.250000
vt 0.375000 0.250000
vt 0.375000 0.250000
vt 0.625000 0.250000
vt 0.625000 0.500000
vt 0.375000 0.500000
vt 0.375000 0.500000
vt 0.625000 0.500000
vt 0.625000 0.750000
vt 0.375000 0.750000
vt 0.625000 1.000000
vt 0.375000 1.000000
vt 0.875000 0.000000
vt 0.875000 0.250000
vt 0.125000 0.000000
vt 0.125000 0.250000
vt 0.625000 0.250000
vt 0.375000 0.250000
vt 0.625000 0.500000
vt 0.375000 0.500000
vt 0.625000 0.250000
vt 0.375000 0.250000
vt 0.625000 0.500000
vt 0.375000 0.500000
vt 0.625000 0.250000
vt 0.375000 0.250000
vt 0.625000 0.500000
vt 0.375000 0.500000
vt 0.375000 0.312500
vt 0.395833 0.312500
vt 0.395833 0.688440
vt 0.375000 0.688440
vt 0.416667 0.312500
vt 0.416667 0.688440
vt 0.437500 0.312500
vt 0.437500 0.688440
vt 0.458333 0.312500
vt 0.458333 0.688440
vt 0.479167 0.312500
vt 0.479167 0.688440
vt 0.500000 0.312500
vt 0.500000 0.688440
vt 0.520833 0.312500
vt 0.520833 0.688440
vt 0.541667 0.312500
vt 0.541667 0.688440
vt 0.562500 0.312500
vt 0.562500 0.688440
vt 0.583333 0.312500
vt 0.583333 0.688440
vt 0.604167 0.312500
vt 0.604167 0.688440
vt 0.625000 0.312500
vt 0.625000 0.688440
vt 0.578125 0.020934
vt 0.635316 0.078125
vt 0.500000 0.150000
vt 0.500000 0.000000
vt 0.421875 0.020934
vt 0.364684 0.078125
vt 0.343750 0.156250
vt 0.364684 0.234375
vt 0.421875 0.291566
vt 0.500000 0.312500
vt 0.578125 0.291566
vt 0.635316 0.234375
vt 0.656250 0.156250
vt 0.635316 0.921875
vt 0.578125 0.979066
vt 0.500000 0.837500
vt 0.500000 1.000000
vt 0.421875 0.979066
vt 0.364684 0.921875
vt 0.343750 0.843750
vt 0.364684 0.765625
vt 0.421875 0.708434
vt 0.500000 0.687500
vt 0.578125 0.708434
vt 0.635316 0.765625
vt 0.656250 0.843750
vn 0.707107 0.707106 0.000929
vn 0.707107 0.707106 0.000929
vn 0.707107 0.707106 0.000929
vn 0.707107 0.707107 0.000929
vn 0.258819 0.965925 0.001270
vn 0.258819 0.965925 0.001270
vn 0.258819 0.965925 0.001270
vn 0.258819 0.965925 0.001270
vn -0.258819 0.965925 0.001270
vn -0.258819 0.965925 0.001270
vn -0.258819 0.965925 0.001270
vn -0.258819 0.965925 0.001270
vn -0.707107 0.707107 0.000930
vn -0.707107 0.707107 0.000930
vn -0.707107 0.707107 0.000930
vn -0.707107 0.707107 0.000930
vn -0.965926 0.258818 0.000340
vn -0.965926 0.258818 0.000340
vn -0.965926 0.258818 0.000340
vn -0.965926 0.258818 0.000340
vn -0.965926 -0.258818 -0.000340
vn -0.965926 -0.258818 -0.000340
vn -0.965926 -0.258818 -0.000340
vn -0.965926 -0.258818 -0.000340
vn -0.707107 -0.707106 -0.000929
vn -0.707107 -0.707106 -0.000929
vn -0.707107 -0.707106 -0.000929
vn -0.707107 -0.707106 -0.000929
vn -0.258820 -0.965925 -0.001270
vn -0.258820 -0.965925 -0.001270
vn -0.258820 -0.965925 -0.001270
vn -0.258820 -0.965925 -0.001270
vn 0.258820 -0.965925 -0.001270
vn 0.258820 -0.965925 -0.001270
vn 0.258820 -0.965925 -0.001270
vn 0.258820 -0.965925 -0.001270
vn 0.707105 -0.707108 -0.000930
vn 0.707105 -0.707108 -0.000930
vn 0.707105 -0.707108 -0.000930
vn 0.707105 -0.707108 -0.000930
vn 0.965927 -0.258816 -0.000340
vn 0.965927 -0.258816 -0.000340
vn 0.965927 -0.258816 -0.000340
vn 0.965927 -0.258816 -0.000340
vn 0.965926 0.258818 0.000340
vn 0.965926 0.258818 0.000340
vn 0.965926 0.258818 0.000340
vn 0.965926 0.258818 0.000340
vn 0.000001 0.001796 -0.999998
vn 0.000001 0.001796 -0.999998
vn 0.000000 0.001795 -0.999998
vn 0.000001 0.001795 -0.999998
vn -0.000001 0.001795 -0.999998
vn -0.000001 0.001795 -0.999998
vn 0.000000 0.001795 -0.999998
vn 0.000000 0.001795 -0.999998
vn -0.000001 0.001795 -0.999998
vn -0.000000 0.001794 -0.999998
vn 0.000001 0.001794 -0.999998
vn 0.000001 0.001794 -0.999998
vn 0.000002 0.001795 -0.999998
vn 0.000000 -0.001795 0.999998
vn -0.000000 -0.001795 0.999998
vn -0.000000 -0.001795 0.999998
vn -0.000001 -0.001794 0.999998
vn -0.000001 -0.001794 0.999998
vn -0.000001 -0.001795 0.999998
vn -0.000001 -0.001795 0.999998
vn -0.000001 -0.001795 0.999998
vn -0.000002 -0.001795 0.999998
vn -0.000001 -0.001794 0.999998
vn 0.000001 -0.001795 0.999998
vn 0.000000 -0.001795 0.999998
vn 0.000000 -0.001795 0.999998
vn 0.000000 0.251620 0.967826
vn 0.000000 0.251620 0.967826
vn 0.000000 0.251620 0.967826
vn 0.000000 0.251620 0.967826
vn 0.000000 1.000000 0.000000
vn 0.000000 1.000000 0.000000
vn 0.000000 1.000000 0.000000
vn 0.000000 1.000000 0.000000
vn 0.000000 0.251620 -0.967826
vn 0.000000 0.251620 -0.967826
vn 0.000000 0.251620 -0.967826
vn 0.000000 0.251620 -0.967826
vn 0.000000 -1.000000 0.000000
vn 0.000000 -1.000000 0.000000
vn 0.000000 -1.000000 0.000000
vn 0.000000 -1.000000 0.000000
vn 0.919420 0.393276 0.000000
vn 0.919420 0.393276 0.000000
vn 0.919420 0.393276 0.000000
vn 0.919420 0.393276 0.000000
vn -0.919420 0.393277 0.000000
vn -0.919420 0.393277 0.000000
vn -0.919420 0.393277 0.000000
vn -0.919420 0.393277 0.000000
vn 0.000000 1.000000 0.000000
vn 0.000000 1.000000 0.000000
vn 0.000000 1.000000 0.000000
vn 0.000000 1.000000 0.000000
vn 0.000000 1.000000 0.000000
vn 0.000000 1.000000 0.000000
vn 0.000000 1.000000 0.000000
vn 0.000000 1.000000 0.000000
vn 0.000000 1.000000 -0.000000
vn 0.000000 1.000000 -0.000000
vn 0.000000 1.000000 -0.000000
vn 0.000000 1.000000 -0.000000
vn 0.000000 1.000000 0.000000
vn 0.000000 1.000000 0.000000
vn 0.000000 1.000000 0.000000
vn 0.000000 1.000000 0.000000
vn 0.000000 0.000000 1.000000
vn 0.000000 0.000000 1.000000
vn 0.000000 0.000000 1.000000
vn 0.000000 0.000000 1.000000
vn 1.000000 0.000000 0.000000
vn 1.000000 0.000000 0.000000
vn 1.000000 0.000000 0.000000
vn 1.000000 0.000000 0.000000
vn 0.000000 0.000000 -1.000000
vn 0.000000 0.000000 -1.000000
vn 0.000000 0.000000 -1.000000
vn 0.000000 0.000000 -1.000000
vn -1.000000 0.000000 0.000000
vn -1.000000 0.000000 0.000000
vn -1.000000 0.000000 0.000000
vn -1.000000 0.000000 0.000000
vn -0.000000 -0.888088 0.459673
vn -0.000000 -0.888088 0.459673
vn -0.000000 -0.888088 0.459673
vn -0.000000 -0.888088 0.459673
vn 0.262077 -0.965047 0.000000
vn 0.262077 -0.965047 0.000000
vn 0.262077 -0.965047 0.000000
vn 0.262077 -0.965047 0.000000
vn 0.000000 -0.888088 -0.459673
vn 0.000000 -0.888088 -0.459673
vn 0.000000 -0.888088 -0.459673
vn 0.000000 -0.888088 -0.459673
vn -0.262078 -0.965047 0.000000
vn -0.262078 -0.965047 0.000000
vn -0.262078 -0.965047 0.000000
vn -0.262078 -0.965047 0.000000
vn 0.000000 0.000000 1.000000
vn 0.000000 0.000000 1.000000
vn 0.000000 0.000000 1.000000
vn 0.000000 0.000000 1.000000
vn 1.000000 0.000000 0.000000
vn 1.000000 0.000000 0.000000
vn 1.000000 0.000000 0.000000
vn 1.000000 0.000000 0.000000
vn 0.000000 0.000000 -1.000000
vn 0.000000 0.000000 -1.000000
vn 0.000000 0.000000 -1.000000
vn 0.000000 0.000000 -1.000000
vn -1.000000 0.000000 0.000000
vn -1.000000 0.000000 0.000000
vn -1.000000 0.000000 0.000000
vn -1.000000 0.000000 0.000000
vn 0.707107 0.707106 0.000929
vn 0.707107 0.707107 0.000929
vn 0.707107 0.707106 0.000929
vn 0.707107 0.707107 0.000929
vn 0.258819 0.965925 0.001270
vn 0.258819 0.965925 0.001270
vn 0.258819 0.965925 0.001270
vn 0.258819 0.965925 0.001270
vn -0.258819 0.965925 0.001270
vn -0.258819 0.965925 0.001270
vn -0.258819 0.965925 0.001270
vn -0.258819 0.965925 0.001270
vn -0.707107 0.707107 0.000930
vn -0.707107 0.707107 0.000930
vn -0.707107 0.707107 0.000930
vn -0.707107 0.707107 0.000930
vn -0.965927 0.258816 0.000340
vn -0.965927 0.258816 0.000340
vn -0.965927 0.258816 0.000340
vn -0.965927 0.258816 0.000340
vn -0.965927 -0.258816 -0.000340
vn -0.965927 -0.258816 -0.000340
vn -0.965927 -0.258816 -0.000340
vn -0.965927 -0.258816 -0.000340
vn -0.707106 -0.707107 -0.000929
vn -0.707106 -0.707107 -0.000929
vn -0.707106 -0.707107 -0.000929
vn -0.707106 -0.707107 -0.000929
vn -0.258819 -0.965925 -0.001270
vn -0.258819 -0.965925 -0.001270
vn -0.258819 -0.965925 -0.001270
vn -0.258819 -0.965925 -0.001270
vn 0.258819 -0.965925 -0.001270
vn 0.258819 -0.965925 -0.001270
vn 0.258819 -0.965925 -0.001270
vn 0.258819 -0.965925 -0.001270
vn 0.707107 -0.707107 -0.000930
vn 0.707107 -0.707107 -0.000930
vn 0.707107 -0.707107 -0.000930
vn 0.707106 -0.707107 -0.000930
vn 0.965926 -0.258818 -0.000340
vn 0.965926 -0.258818 -0.000340
vn 0.965926 -0.258818 -0.000340
vn 0.965926 -0.258818 -0.000340
vn 0.965926 0.258817 0.000340
vn 0.965926 0.258817 0.000340
vn 0.965926 0.258817 0.000340
vn 0.965926 0.258817 0.000340
vn 0.000001 0.001796 -0.999998
vn 0.000001 0.001796 -0.999998
vn 0.000000 0.001795 -0.999998
vn 0.000001 0.001795 -0.999998
vn -0.000001 0.001795 -0.999998
vn -0.000001 0.001795 -0.999998
vn 0.000000 0.001795 -0.999998
vn 0.000000 0.001795 -0.999998
vn -0.000001 0.001795 -0.999998
vn -0.000000 0.001794 -0.999998
vn 0.000001 0.001794 -0.999998
vn 0.000001 0.001794 -0.999998
vn 0.000002 0.001795 -0.999998
vn 0.000000 -0.001795 0.999998
vn -0.000000 -0.001795 0.999998
vn -0.000000 -0.001795 0.999998
vn -0.000001 -0.001794 0.999998
vn -0.000001 -0.001794 0.999998
vn -0.000001 -0.001795 0.999998
vn -0.000001 -0.001795 0.999998
vn -0.000001 -0.001795 0.999998
vn -0.000002 -0.001795 0.999998
vn -0.000001 -0.001794 0.999998
vn 0.000001 -0.001795 0.999998
vn 0.000000 -0.001795 0.999998
vn 0.000000 -0.001795 0.999998
s off
g polySurface1
usemtl initialShadingGroup
f 1/13/1 2/14/2 14/27/3 13/26/4
f 2/14/5 3/15/6 15/28/7 14/27/8
f 3/15/9 4/16/10 16/29/11 15/28/12
f 4/16/13 5/17/14 17/30/15 16/29/16
f 5/17/17 6/18/18 18/31/19 17/30/20
f 6/18/21 7/19/22 19/32/23 18/31/24
f 7/19/25 8/20/26 20/33/27 19/32/28
f 8/20/29 9/21/30 21/34/31 20/33/32
f 9/21/33 10/22/34 22/35/35 21/34/36
f 10/22/37 11/23/38 23/36/39 22/35/40
f 11/23/41 12/24/42 24/37/43 23/36/44
f 12/24/45 1/25/46 13/38/47 24/37/48
s 1
f 2/2/49 1/1/50 25/51/51
f 3/3/52 2/2/49 25/51/51
f 4/4/53 3/3/52 25/51/51
f 5/5/54 4/4/53 25/51/51
f 6/6/55 5/5/54 25/51/51
f 7/7/56 6/6/55 25/51/51
f 8/8/57 7/7/56 25/51/51
f 9/9/58 8/8/57 25/51/51
f 10/10/59 9/9/58 25/51/51
f 11/11/60 10/10/59 25/51/51
f 12/12/61 11/11/60 25/51/51
f 1/1/50 12/12/61 25/51/51
s 2
f 13/49/62 14/48/63 26/52/64
f 14/48/63 15/47/65 26/52/64
f 15/47/65 16/46/66 26/52/64
f 16/46/66 17/45/67 26/52/64
f 17/45/67 18/44/68 26/52/64
f 18/44/68 19/43/69 26/52/64
f 19/43/69 20/42/70 26/52/64
f 20/42/70 21/41/71 26/52/64
f 21/41/71 22/40/72 26/52/64
f 22/40/72 23/39/73 26/52/64
f 23/39/73 24/50/74 26/52/64
f 24/50/74 13/49/62 26/52/64
s off
f 27/53/75 28/54/76 30/55/77 29/56/78
f 47/57/79 48/58/80 49/59/81 50/60/82
f 31/61/83 32/62/84 34/63/85 33/64/86
f 33/64/87 34/63/88 28/65/89 27/66/90
f 28/54/91 34/67/92 32/68/93 30/55/94
f 33/69/95 27/53/96 29/56/97 31/70/98
f 29/56/99 30/55/100 36/71/101 35/72/102
f 30/55/103 32/62/104 37/73/105 36/71/106
f 32/62/107 31/61/108 38/74/109 37/73/110
f 31/61/111 29/56/112 35/72/113 38/74/114
f 35/72/115 36/71/116 40/75/117 39/76/118
f 36/71/119 37/73/120 41/77/121 40/75/122
f 37/73/123 38/74/124 42/78/125 41/77/126
f 38/74/127 35/72/128 39/76/129 42/78/130
f 39/76/131 40/75/132 44/79/133 43/80/134
f 40/75/135 41/77/136 45/81/137 44/79/138
f 41/77/139 42/78/140 46/82/141 45/81/142
f 42/78/143 39/76/144 43/80/145 46/82/146
f 43/80/147 44/79/148 48/58/149 47/57/150
f 44/79/151 45/81/152 49/59/153 48/58/154
f 45/81/155 46/82/156 50/60/157 49/59/158
f 46/82/159 43/80/160 47/57/161 50/60/162
f 51/83/163 52/84/164 64/85/165 63/86/166
f 52/84/167 53/87/168 65/88/169 64/85/170
f 53/87/171 54/89/172 66/90/173 65/88/174
f 54/89/175 55/91/176 67/92/177 66/90/178
f 55/91/179 56/93/180 68/94/181 67/92/182
f 56/93/183 57/95/184 69/96/185 68/94/186
f 57/95/187 58/97/188 70/98/189 69/96/190
f 58/97/191 59/99/192 71/100/193 70/98/194
f 59/99/195 60/101/196 72/102/197 71/100/198
f 60/101/199 61/103/200 73/104/201 72/102/202
f 61/103/203 62/105/204 74/106/205 73/104/206
f 62/105/207 51/107/208 63/108/209 74/106/210
s 3
f 52/109/211 51/110/212 75/111/213
f 53/112/214 52/109/211 75/111/213
f 54/113/215 53/112/214 75/111/213
f 55/114/216 54/113/215 75/111/213
f 56/115/217 55/114/216 75/111/213
f 57/116/218 56/115/217 75/111/213
f 58/117/219 57/116/218 75/111/213
f 59/118/220 58/117/219 75/111/213
f 60/119/221 59/118/220 75/111/213
f 61/120/222 60/119/221 75/111/213
f 62/121/223 61/120/222 75/111/213
f 51/110/212 62/121/223 75/111/213
s 4
f 63/122/224 64/123/225 76/124/226
f 64/123/225 65/125/227 76/124/226
f 65/125/227 66/126/228 76/124/226
f 66/126/228 67/127/229 76/124/226
f 67/127/229 68/128/230 76/124/226
f 68/128/230 69/129/231 76/124/226
f 69/129/231 70/130/232 76/124/226
f 70/130/232 71/131/233 76/124/226
f 71/131/233 72/132/234 76/124/226
f 72/132/234 73/133/235 76/124/226
f 73/133/235 74/134/236 76/124/226
f 74/134/236 63/122/224 76/124/226
