# This file uses centimeters as units for non-parametric coordinates.

mtllib InterphaseRing.mtl
g default
v 4.135990 -0.096822 -0.086489
v 3.936624 -0.096822 -1.345235
v 3.358041 -0.096822 -2.480767
v 2.456879 -0.096822 -3.381930
v 1.321347 -0.096822 -3.960513
v 0.062601 -0.096821 -4.159879
v -1.196146 -0.096821 -3.960513
v -2.331678 -0.096821 -3.381931
v -3.232842 -0.096821 -2.480768
v -3.811425 -0.096821 -1.345236
v -4.010791 -0.096821 -0.086489
v -3.811425 -0.096821 1.172258
v -3.232843 -0.096821 2.307790
v -2.331680 -0.096821 3.208954
v -1.196147 -0.096821 3.787537
v 0.062600 -0.096821 3.986903
v 1.321347 -0.096822 3.787537
v 2.456879 -0.096822 3.208955
v 3.358043 -0.096822 2.307791
v 3.936626 -0.096822 1.172259
v 4.135990 0.107701 -0.086489
v 3.936624 0.107701 -1.345235
v 3.358041 0.107701 -2.480767
v 2.456879 0.107701 -3.381930
v 1.321347 0.107702 -3.960513
v 0.062600 0.107702 -4.159879
v -1.196146 0.107702 -3.960513
v -2.331678 0.107702 -3.381931
v -3.232842 0.107703 -2.480768
v -3.811425 0.107703 -1.345236
v -4.010791 0.107703 -0.086489
v -3.811425 0.107703 1.172258
v -3.232843 0.107703 2.307790
v -2.331680 0.107702 3.208954
v -1.196147 0.107702 3.787537
v 0.062600 0.107702 3.986903
v 1.321347 0.107702 3.787537
v 2.456879 0.107701 3.208955
v 3.358043 0.107701 2.307791
v 3.936626 0.107701 1.172259
v 4.712656 0.169877 -0.086489
v 4.485067 0.169877 -1.523435
v 3.824575 0.169878 -2.819724
v 2.795835 0.169878 -3.848464
v 1.499547 0.169878 -4.508956
v 0.062600 0.169878 -4.736546
v -1.374346 0.169878 -4.508956
v -2.670635 0.169878 -3.848464
v -3.699376 0.169878 -2.819724
v -4.359868 0.169879 -1.523436
v -4.587458 0.169879 -0.086489
v -4.359869 0.169879 1.350458
v -3.699376 0.169878 2.646747
v -2.670636 0.169878 3.675488
v -1.374347 0.169878 4.335980
v 0.062600 0.169878 4.563570
v 1.499547 0.169878 4.335980
v 2.795837 0.169878 3.675488
v 3.824578 0.169878 2.646747
v 4.485069 0.169877 1.350458
v 4.712656 -0.158998 -0.086489
v 4.485067 -0.158998 -1.523435
v 3.824575 -0.158998 -2.819724
v 2.795835 -0.158998 -3.848464
v 1.499547 -0.158998 -4.508956
v 0.062600 -0.158998 -4.736546
v -1.374346 -0.158997 -4.508956
v -2.670635 -0.158997 -3.848464
v -3.699376 -0.158997 -2.819724
v -4.359868 -0.158997 -1.523436
v -4.587458 -0.158997 -0.086489
v -4.359869 -0.158997 1.350458
v -3.699376 -0.158997 2.646747
v -2.670636 -0.158997 3.675488
v -1.374347 -0.158997 4.335980
v 0.062600 -0.158998 4.563570
v 1.499547 -0.158998 4.335980
v 2.795837 -0.158998 3.675488
v 3.824578 -0.158998 2.646747
v 4.485069 -0.158998 1.350458
v 1.401991 -0.013308 -4.208709
v 0.062600 -0.013308 -4.420849
v -1.276791 -0.013308 -4.208710
v -2.485073 -0.013307 -3.593060
v -3.443971 -0.013307 -2.634162
v -4.059622 -0.013307 -1.425880
v -4.271761 -0.013307 -0.086489
v -4.059622 -0.013307 1.252903
v -3.443972 -0.013307 2.461185
v -2.485074 -0.013307 3.420083
v -1.276791 -0.013308 4.035734
v 0.062600 -0.013308 4.247873
v 1.401992 -0.013308 4.035734
v 2.610275 -0.013308 3.420084
v 3.569173 -0.013308 2.461185
v 4.184824 -0.013308 1.252903
v 4.396959 -0.013308 -0.086489
v 4.184821 -0.013308 -1.425879
v 3.569170 -0.013308 -2.634161
v 2.610273 -0.013308 -3.593059
v 4.024265 0.166608 -0.086489
v 3.830367 0.166608 -1.310710
v 4.585115 0.227079 -0.086489
v 4.363767 0.227079 -1.484022
v 3.267654 0.166608 -2.415097
v 3.721391 0.227079 -2.744756
v 2.391209 0.166608 -3.291543
v 2.720868 0.227079 -3.745280
v 1.286822 0.166609 -3.854256
v 1.460134 0.227079 -4.387656
v 0.062600 0.166609 -4.048154
v 0.062600 0.227079 -4.609004
v -1.161622 0.166609 -3.854256
v -1.334934 0.227080 -4.387656
v -2.266008 0.166609 -3.291543
v -2.595668 0.227080 -3.745280
v -3.142455 0.166609 -2.415098
v -3.596192 0.227080 -2.744757
v -3.705168 0.166609 -1.310711
v -4.238568 0.227080 -1.484023
v -3.899066 0.166610 -0.086489
v -4.459916 0.227080 -0.086489
v -3.705168 0.166609 1.137733
v -4.238569 0.227080 1.311046
v -3.142456 0.166609 2.242120
v -3.596193 0.227080 2.571780
v -2.266009 0.166609 3.118567
v -2.595668 0.227080 3.572304
v -1.161622 0.166609 3.681280
v -1.334934 0.227080 4.214680
v 0.062600 0.166609 3.875178
v 0.062600 0.227079 4.436028
v 1.286822 0.166609 3.681280
v 1.460135 0.227079 4.214681
v 2.391209 0.166608 3.118567
v 2.720869 0.227079 3.572305
v 3.267656 0.166608 2.242121
v 3.721394 0.227079 2.571780
v 3.830369 0.166608 1.137734
v 4.363770 0.227079 1.311046
vt 0.000000 1.000000
vt 0.050000 1.000000
vt 0.100000 1.000000
vt 0.150000 1.000000
vt 0.200000 1.000000
vt 0.250000 1.000000
vt 0.300000 1.000000
vt 0.350000 1.000000
vt 0.400000 1.000000
vt 0.450000 1.000000
vt 0.500000 1.000000
vt 0.550000 1.000000
vt 0.600000 1.000000
vt 0.650000 1.000000
vt 0.700000 1.000000
vt 0.750000 1.000000
vt 0.800000 1.000000
vt 0.850000 1.000000
vt 0.900000 1.000000
vt 0.950000 1.000000
vt 1.000000 1.000000
vt 0.000000 0.750000
vt 0.050000 0.750000
vt 0.100000 0.750000
vt 0.150000 0.750000
vt 0.200000 0.750000
vt 0.250000 0.750000
vt 0.300000 0.750000
vt 0.350000 0.750000
vt 0.400000 0.750000
vt 0.450000 0.750000
vt 0.500000 0.750000
vt 0.550000 0.750000
vt 0.600000 0.750000
vt 0.650000 0.750000
vt 0.700000 0.750000
vt 0.750000 0.750000
vt 0.800000 0.750000
vt 0.850000 0.750000
vt 0.900000 0.750000
vt 0.950000 0.750000
vt 1.000000 0.750000
vt 0.000000 0.500000
vt 0.050000 0.500000
vt 0.100000 0.500000
vt 0.150000 0.500000
vt 0.200000 0.500000
vt 0.250000 0.500000
vt 0.300000 0.500000
vt 0.350000 0.500000
vt 0.400000 0.500000
vt 0.450000 0.500000
vt 0.500000 0.500000
vt 0.550000 0.500000
vt 0.600000 0.500000
vt 0.650000 0.500000
vt 0.700000 0.500000
vt 0.750000 0.500000
vt 0.800000 0.500000
vt 0.850000 0.500000
vt 0.900000 0.500000
vt 0.950000 0.500000
vt 1.000000 0.500000
vt 0.000000 0.250000
vt 0.050000 0.250000
vt 0.100000 0.250000
vt 0.150000 0.250000
vt 0.200000 0.250000
vt 0.250000 0.250000
vt 0.300000 0.250000
vt 0.350000 0.250000
vt 0.400000 0.250000
vt 0.450000 0.250000
vt 0.500000 0.250000
vt 0.550000 0.250000
vt 0.600000 0.250000
vt 0.650000 0.250000
vt 0.700000 0.250000
vt 0.750000 0.250000
vt 0.800000 0.250000
vt 0.850000 0.250000
vt 0.900000 0.250000
vt 0.950000 0.250000
vt 1.000000 0.250000
vt 0.000000 0.000000
vt 0.050000 0.000000
vt 0.100000 0.000000
vt 0.150000 0.000000
vt 0.200000 0.000000
vt 0.250000 0.000000
vt 0.300000 0.000000
vt 0.350000 0.000000
vt 0.400000 0.000000
vt 0.450000 0.000000
vt 0.500000 0.000000
vt 0.550000 0.000000
vt 0.600000 0.000000
vt 0.650000 0.000000
vt 0.700000 0.000000
vt 0.750000 0.000000
vt 0.800000 0.000000
vt 0.850000 0.000000
vt 0.900000 0.000000
vt 0.950000 0.000000
vt 1.000000 0.000000
vt 0.200000 0.360748
vt 0.250000 0.360748
vt 0.300000 0.360748
vt 0.350000 0.360748
vt 0.400000 0.360748
vt 0.450000 0.360748
vt 0.500000 0.360748
vt 0.550000 0.360748
vt 0.600000 0.360748
vt 0.650000 0.360748
vt 0.700000 0.360748
vt 0.750000 0.360748
vt 0.800000 0.360748
vt 0.850000 0.360748
vt 0.900000 0.360748
vt 0.950000 0.360748
vt 0.000000 0.360748
vt 1.000000 0.360748
vt 0.050000 0.360748
vt 0.100000 0.360748
vt 0.150000 0.360748
vt 0.050000 0.750000
vt 0.000000 0.750000
vt 0.000000 0.500000
vt 0.050000 0.500000
vt 0.100000 0.750000
vt 0.100000 0.500000
vt 0.150000 0.750000
vt 0.150000 0.500000
vt 0.200000 0.750000
vt 0.200000 0.500000
vt 0.250000 0.750000
vt 0.250000 0.500000
vt 0.300000 0.750000
vt 0.300000 0.500000
vt 0.350000 0.750000
vt 0.350000 0.500000
vt 0.400000 0.750000
vt 0.400000 0.500000
vt 0.450000 0.750000
vt 0.450000 0.500000
vt 0.500000 0.750000
vt 0.500000 0.500000
vt 0.550000 0.750000
vt 0.550000 0.500000
vt 0.600000 0.750000
vt 0.600000 0.500000
vt 0.650000 0.750000
vt 0.650000 0.500000
vt 0.700000 0.750000
vt 0.700000 0.500000
vt 0.750000 0.750000
vt 0.750000 0.500000
vt 0.800000 0.750000
vt 0.800000 0.500000
vt 0.850000 0.750000
vt 0.850000 0.500000
vt 0.900000 0.750000
vt 0.900000 0.500000
vt 0.950000 0.750000
vt 0.950000 0.500000
vt 1.000000 0.750000
vt 1.000000 0.500000
vn -0.951057 0.000000 0.309017
vn -1.000000 0.000000 0.000001
vn -1.000000 0.000000 0.000001
vn -0.951057 0.000000 0.309017
vn -0.809017 0.000000 0.587785
vn -0.809017 0.000000 0.587785
vn -0.587785 0.000000 0.809017
vn -0.587785 0.000000 0.809017
vn -0.309017 0.000000 0.951056
vn -0.309017 0.000000 0.951056
vn -0.000000 0.000000 1.000000
vn -0.000000 0.000000 1.000000
vn 0.309017 0.000000 0.951057
vn 0.309017 0.000000 0.951057
vn 0.587785 0.000000 0.809017
vn 0.587785 0.000000 0.809017
vn 0.809017 0.000000 0.587785
vn 0.809017 0.000000 0.587785
vn 0.951056 0.000000 0.309017
vn 0.951056 0.000000 0.309017
vn 1.000000 0.000000 0.000000
vn 1.000000 0.000000 0.000000
vn 0.951057 0.000000 -0.309017
vn 0.951057 0.000000 -0.309017
vn 0.809017 0.000000 -0.587785
vn 0.809017 0.000000 -0.587785
vn 0.587785 0.000000 -0.809017
vn 0.587786 0.000000 -0.809017
vn 0.309017 0.000000 -0.951056
vn 0.309017 0.000000 -0.951056
vn -0.000000 0.000000 -1.000000
vn 0.000000 0.000000 -1.000000
vn -0.309017 0.000000 -0.951057
vn -0.309017 0.000000 -0.951057
vn -0.587785 0.000000 -0.809017
vn -0.587785 0.000000 -0.809017
vn -0.809017 0.000000 -0.587785
vn -0.809017 0.000000 -0.587785
vn -0.951057 0.000000 -0.309016
vn -0.951057 0.000000 -0.309016
vn -0.101952 0.994238 0.033126
vn -0.107199 0.994238 0.000000
vn -0.107199 0.994238 0.000000
vn -0.101952 0.994238 0.033126
vn -0.086726 0.994238 0.063010
vn -0.086726 0.994238 0.063010
vn -0.063010 0.994238 0.086726
vn -0.063010 0.994238 0.086726
vn -0.033126 0.994238 0.101952
vn -0.033126 0.994238 0.101952
vn 0.000000 0.994238 0.107198
vn 0.000000 0.994238 0.107198
vn 0.033126 0.994238 0.101952
vn 0.033126 0.994238 0.101952
vn 0.063010 0.994238 0.086725
vn 0.063010 0.994238 0.086725
vn 0.086725 0.994238 0.063009
vn 0.086725 0.994238 0.063009
vn 0.101951 0.994238 0.033126
vn 0.101951 0.994238 0.033126
vn 0.107198 0.994238 0.000000
vn 0.107198 0.994238 -0.000000
vn 0.101951 0.994238 -0.033126
vn 0.101951 0.994238 -0.033126
vn 0.086725 0.994238 -0.063009
vn 0.086725 0.994238 -0.063009
vn 0.063010 0.994238 -0.086725
vn 0.063010 0.994238 -0.086725
vn 0.033126 0.994238 -0.101952
vn 0.033126 0.994238 -0.101952
vn 0.000000 0.994238 -0.107198
vn 0.000000 0.994238 -0.107198
vn -0.033126 0.994238 -0.101952
vn -0.033126 0.994238 -0.101952
vn -0.063010 0.994238 -0.086726
vn -0.063010 0.994238 -0.086726
vn -0.086726 0.994238 -0.063010
vn -0.086726 0.994238 -0.063010
vn -0.101952 0.994238 -0.033126
vn -0.101952 0.994238 -0.033126
vn 0.477321 -0.864935 -0.155091
vn 0.501885 -0.864934 -0.000000
vn 0.999993 0.003818 -0.000001
vn 0.951050 0.003818 -0.309015
vn 0.406033 -0.864935 -0.295000
vn 0.809011 0.003818 -0.587781
vn 0.295000 -0.864934 -0.406033
vn 0.587781 0.003818 -0.809011
vn 0.155091 -0.864935 -0.477320
vn 0.309015 0.003818 -0.951050
vn -0.000000 -0.864935 -0.501884
vn 0.000000 0.003818 -0.999993
vn -0.155091 -0.864935 -0.477321
vn -0.309015 0.003818 -0.951050
vn -0.295001 -0.864934 -0.406033
vn -0.587781 0.003818 -0.809011
vn -0.406033 -0.864935 -0.295001
vn -0.809011 0.003818 -0.587781
vn -0.477321 -0.864934 -0.155091
vn -0.951050 0.003818 -0.309015
vn -0.501885 -0.864934 -0.000000
vn -0.999993 0.003818 -0.000000
vn -0.477321 -0.864935 0.155091
vn -0.951050 0.003818 0.309015
vn -0.406033 -0.864935 0.295000
vn -0.809011 0.003818 0.587781
vn -0.295000 -0.864935 0.406033
vn -0.587781 0.003818 0.809011
vn -0.155091 -0.864934 0.477321
vn -0.309015 0.003818 0.951050
vn -0.000000 -0.864934 0.501885
vn -0.000000 0.003818 0.999993
vn 0.155091 -0.864934 0.477321
vn 0.309015 0.003818 0.951050
vn 0.295000 -0.864934 0.406033
vn 0.587781 0.003818 0.809011
vn 0.406033 -0.864934 0.295001
vn 0.809011 0.003818 0.587781
vn 0.477321 -0.864935 0.155090
vn 0.951050 0.003818 0.309013
vn -0.101952 -0.994238 0.033126
vn -0.107198 -0.994238 0.000000
vn -0.107198 -0.994238 0.000000
vn -0.101952 -0.994238 0.033126
vn -0.086725 -0.994238 0.063009
vn -0.086725 -0.994238 0.063009
vn -0.063010 -0.994238 0.086725
vn -0.063010 -0.994238 0.086725
vn -0.033126 -0.994238 0.101952
vn -0.033126 -0.994238 0.101952
vn -0.000000 -0.994238 0.107199
vn -0.000000 -0.994238 0.107199
vn 0.033126 -0.994238 0.101952
vn 0.033126 -0.994238 0.101952
vn 0.063010 -0.994238 0.086726
vn 0.063010 -0.994238 0.086726
vn 0.086726 -0.994238 0.063010
vn 0.086726 -0.994238 0.063010
vn 0.101952 -0.994238 0.033126
vn 0.101952 -0.994238 0.033126
vn 0.107199 -0.994238 0.000000
vn 0.107199 -0.994238 0.000000
vn 0.101952 -0.994238 -0.033126
vn 0.101952 -0.994238 -0.033126
vn 0.086726 -0.994238 -0.063010
vn 0.086726 -0.994238 -0.063010
vn 0.063010 -0.994238 -0.086726
vn 0.063010 -0.994238 -0.086726
vn 0.033126 -0.994238 -0.101952
vn 0.033126 -0.994238 -0.101952
vn -0.000000 -0.994238 -0.107199
vn -0.000000 -0.994238 -0.107198
vn -0.033126 -0.994238 -0.101952
vn -0.033126 -0.994238 -0.101952
vn -0.063010 -0.994238 -0.086725
vn -0.063010 -0.994238 -0.086725
vn -0.086725 -0.994238 -0.063009
vn -0.086725 -0.994238 -0.063009
vn -0.101951 -0.994238 -0.033126
vn -0.101951 -0.994238 -0.033126
vn 0.129484 0.907978 -0.398510
vn 0.000000 0.907978 -0.419019
vn -0.129484 0.907977 -0.398511
vn -0.246293 0.907977 -0.338994
vn -0.338993 0.907978 -0.246293
vn -0.398511 0.907977 -0.129484
vn -0.419019 0.907977 -0.000000
vn -0.398510 0.907978 0.129484
vn -0.338993 0.907978 0.246293
vn -0.246293 0.907978 0.338993
vn -0.129484 0.907977 0.398511
vn 0.000000 0.907977 0.419019
vn 0.129484 0.907977 0.398511
vn 0.246293 0.907977 0.338994
vn 0.338994 0.907977 0.246293
vn 0.398511 0.907977 0.129484
vn 0.419019 0.907977 -0.000000
vn 0.398511 0.907977 -0.129484
vn 0.338994 0.907977 -0.246293
vn 0.246293 0.907978 -0.338993
vn -0.465126 -0.882174 0.073669
vn -0.465126 -0.882174 0.073669
vn -0.465126 -0.882174 0.073669
vn -0.465126 -0.882174 0.073669
vn 0.408362 0.910526 -0.064678
vn 0.408362 0.910526 -0.064678
vn 0.408362 0.910526 -0.064678
vn 0.408362 0.910526 -0.064678
vn -0.419596 -0.882174 0.213795
vn -0.419596 -0.882174 0.213795
vn -0.419596 -0.882174 0.213795
vn -0.419596 -0.882174 0.213795
vn 0.368389 0.910525 -0.187704
vn 0.368389 0.910525 -0.187704
vn 0.368389 0.910526 -0.187704
vn 0.368389 0.910525 -0.187704
vn -0.332994 -0.882174 0.332993
vn -0.332994 -0.882174 0.332993
vn -0.332994 -0.882174 0.332993
vn -0.332994 -0.882174 0.332993
vn 0.292356 0.910525 -0.292356
vn 0.292356 0.910525 -0.292356
vn 0.292356 0.910525 -0.292356
vn 0.292356 0.910525 -0.292356
vn -0.213795 -0.882174 0.419596
vn -0.213795 -0.882174 0.419596
vn -0.213795 -0.882174 0.419595
vn -0.213795 -0.882174 0.419595
vn 0.187704 0.910525 -0.368390
vn 0.187704 0.910525 -0.368390
vn 0.187704 0.910525 -0.368390
vn 0.187704 0.910525 -0.368389
vn -0.073669 -0.882174 0.465125
vn -0.073669 -0.882174 0.465125
vn -0.073669 -0.882174 0.465125
vn -0.073669 -0.882174 0.465125
vn 0.064679 0.910525 -0.408363
vn 0.064679 0.910525 -0.408363
vn 0.064679 0.910525 -0.408363
vn 0.064679 0.910525 -0.408363
vn 0.073668 -0.882174 0.465126
vn 0.073668 -0.882174 0.465126
vn 0.073668 -0.882174 0.465126
vn 0.073668 -0.882174 0.465126
vn -0.064678 0.910525 -0.408363
vn -0.064678 0.910525 -0.408363
vn -0.064678 0.910525 -0.408363
vn -0.064678 0.910525 -0.408363
vn 0.213795 -0.882174 0.419596
vn 0.213794 -0.882174 0.419596
vn 0.213794 -0.882174 0.419596
vn 0.213794 -0.882174 0.419596
vn -0.187704 0.910525 -0.368390
vn -0.187704 0.910525 -0.368390
vn -0.187704 0.910525 -0.368390
vn -0.187704 0.910525 -0.368390
vn 0.332993 -0.882174 0.332993
vn 0.332993 -0.882174 0.332993
vn 0.332993 -0.882174 0.332993
vn 0.332993 -0.882174 0.332993
vn -0.292356 0.910525 -0.292356
vn -0.292356 0.910525 -0.292356
vn -0.292356 0.910525 -0.292356
vn -0.292356 0.910525 -0.292356
vn 0.419595 -0.882174 0.213795
vn 0.419595 -0.882174 0.213795
vn 0.419595 -0.882174 0.213795
vn 0.419595 -0.882174 0.213795
vn -0.368389 0.910526 -0.187704
vn -0.368389 0.910526 -0.187704
vn -0.368389 0.910526 -0.187704
vn -0.368389 0.910526 -0.187704
vn 0.465124 -0.882175 0.073669
vn 0.465124 -0.882175 0.073669
vn 0.465124 -0.882175 0.073669
vn 0.465124 -0.882175 0.073669
vn -0.408364 0.910525 -0.064678
vn -0.408364 0.910525 -0.064678
vn -0.408364 0.910525 -0.064678
vn -0.408364 0.910525 -0.064678
vn 0.465126 -0.882174 -0.073669
vn 0.465126 -0.882174 -0.073669
vn 0.465127 -0.882174 -0.073669
vn 0.465126 -0.882174 -0.073669
vn -0.408361 0.910526 0.064678
vn -0.408361 0.910526 0.064678
vn -0.408361 0.910526 0.064678
vn -0.408361 0.910526 0.064678
vn 0.419595 -0.882174 -0.213794
vn 0.419595 -0.882174 -0.213794
vn 0.419595 -0.882174 -0.213794
vn 0.419595 -0.882174 -0.213794
vn -0.368389 0.910526 0.187703
vn -0.368389 0.910526 0.187703
vn -0.368389 0.910526 0.187703
vn -0.368389 0.910526 0.187703
vn 0.332993 -0.882174 -0.332993
vn 0.332993 -0.882174 -0.332993
vn 0.332993 -0.882174 -0.332993
vn 0.332993 -0.882174 -0.332993
vn -0.292356 0.910525 0.292356
vn -0.292356 0.910525 0.292356
vn -0.292356 0.910525 0.292356
vn -0.292356 0.910525 0.292356
vn 0.213794 -0.882174 -0.419596
vn 0.213794 -0.882174 -0.419596
vn 0.213794 -0.882174 -0.419596
vn 0.213795 -0.882174 -0.419596
vn -0.187703 0.910526 0.368389
vn -0.187703 0.910526 0.368389
vn -0.187703 0.910526 0.368389
vn -0.187703 0.910526 0.368389
vn 0.073669 -0.882174 -0.465125
vn 0.073669 -0.882174 -0.465126
vn 0.073669 -0.882174 -0.465126
vn 0.073669 -0.882174 -0.465125
vn -0.064679 0.910525 0.408363
vn -0.064679 0.910525 0.408363
vn -0.064679 0.910525 0.408363
vn -0.064679 0.910525 0.408363
vn -0.073669 -0.882174 -0.465125
vn -0.073669 -0.882174 -0.465125
vn -0.073669 -0.882174 -0.465125
vn -0.073669 -0.882174 -0.465125
vn 0.064679 0.910525 0.408363
vn 0.064679 0.910525 0.408363
vn 0.064679 0.910525 0.408363
vn 0.064679 0.910525 0.408363
vn -0.213795 -0.882174 -0.419596
vn -0.213795 -0.882174 -0.419596
vn -0.213795 -0.882174 -0.419596
vn -0.213795 -0.882174 -0.419596
vn 0.187704 0.910525 0.368389
vn 0.187704 0.910526 0.368389
vn 0.187704 0.910526 0.368389
vn 0.187704 0.910525 0.368389
vn -0.332993 -0.882174 -0.332993
vn -0.332993 -0.882174 -0.332993
vn -0.332993 -0.882174 -0.332993
vn -0.332993 -0.882174 -0.332993
vn 0.292356 0.910525 0.292355
vn 0.292356 0.910525 0.292355
vn 0.292356 0.910525 0.292355
vn 0.292356 0.910525 0.292355
vn -0.419595 -0.882174 -0.213795
vn -0.419595 -0.882174 -0.213794
vn -0.419595 -0.882174 -0.213794
vn -0.419595 -0.882174 -0.213794
vn 0.368389 0.910526 0.187704
vn 0.368389 0.910526 0.187704
vn 0.368389 0.910526 0.187704
vn 0.368389 0.910526 0.187704
vn -0.465126 -0.882174 -0.073668
vn -0.465126 -0.882174 -0.073668
vn -0.465126 -0.882174 -0.073668
vn -0.465126 -0.882174 -0.073668
vn 0.408363 0.910525 0.064677
vn 0.408363 0.910525 0.064677
vn 0.408363 0.910525 0.064677
vn 0.408363 0.910525 0.064677
s 1
g pPipe1
usemtl initialShadingGroup
f 2/2/1 1/1/2 21/22/3 22/23/4
f 3/3/5 2/2/1 22/23/4 23/24/6
f 4/4/7 3/3/5 23/24/6 24/25/8
f 5/5/9 4/4/7 24/25/8 25/26/10
f 6/6/11 5/5/9 25/26/10 26/27/12
f 7/7/13 6/6/11 26/27/12 27/28/14
f 8/8/15 7/7/13 27/28/14 28/29/16
f 9/9/17 8/8/15 28/29/16 29/30/18
f 10/10/19 9/9/17 29/30/18 30/31/20
f 11/11/21 10/10/19 30/31/20 31/32/22
f 12/12/23 11/11/21 31/32/22 32/33/24
f 13/13/25 12/12/23 32/33/24 33/34/26
f 14/14/27 13/13/25 33/34/26 34/35/28
f 15/15/29 14/14/27 34/35/28 35/36/30
f 16/16/31 15/15/29 35/36/30 36/37/32
f 17/17/33 16/16/31 36/37/32 37/38/34
f 18/18/35 17/17/33 37/38/34 38/39/36
f 19/19/37 18/18/35 38/39/36 39/40/38
f 20/20/39 19/19/37 39/40/38 40/41/40
f 1/21/2 20/20/39 40/41/40 21/42/3
s 2
f 102/127/41 101/128/42 103/129/43 104/130/44
f 105/131/45 102/127/41 104/130/44 106/132/46
f 107/133/47 105/131/45 106/132/46 108/134/48
f 109/135/49 107/133/47 108/134/48 110/136/50
f 111/137/51 109/135/49 110/136/50 112/138/52
f 113/139/53 111/137/51 112/138/52 114/140/54
f 115/141/55 113/139/53 114/140/54 116/142/56
f 117/143/57 115/141/55 116/142/56 118/144/58
f 119/145/59 117/143/57 118/144/58 120/146/60
f 121/147/61 119/145/59 120/146/60 122/148/62
f 123/149/63 121/147/61 122/148/62 124/150/64
f 125/151/65 123/149/63 124/150/64 126/152/66
f 127/153/67 125/151/65 126/152/66 128/154/68
f 129/155/69 127/153/67 128/154/68 130/156/70
f 131/157/71 129/155/69 130/156/70 132/158/72
f 133/159/73 131/157/71 132/158/72 134/160/74
f 135/161/75 133/159/73 134/160/74 136/162/76
f 137/163/77 135/161/75 136/162/76 138/164/78
f 139/165/79 137/163/77 138/164/78 140/166/80
f 101/167/42 139/165/79 140/166/80 103/168/43
s 3
f 42/44/81 41/43/82 97/122/83 98/124/84
f 43/45/85 42/44/81 98/124/84 99/125/86
f 44/46/87 43/45/85 99/125/86 100/126/88
f 45/47/89 44/46/87 100/126/88 81/106/90
f 46/48/91 45/47/89 81/106/90 82/107/92
f 47/49/93 46/48/91 82/107/92 83/108/94
f 48/50/95 47/49/93 83/108/94 84/109/96
f 49/51/97 48/50/95 84/109/96 85/110/98
f 50/52/99 49/51/97 85/110/98 86/111/100
f 51/53/101 50/52/99 86/111/100 87/112/102
f 52/54/103 51/53/101 87/112/102 88/113/104
f 53/55/105 52/54/103 88/113/104 89/114/106
f 54/56/107 53/55/105 89/114/106 90/115/108
f 55/57/109 54/56/107 90/115/108 91/116/110
f 56/58/111 55/57/109 91/116/110 92/117/112
f 57/59/113 56/58/111 92/117/112 93/118/114
f 58/60/115 57/59/113 93/118/114 94/119/116
f 59/61/117 58/60/115 94/119/116 95/120/118
f 60/62/119 59/61/117 95/120/118 96/121/120
f 41/63/82 60/62/119 96/121/120 97/123/83
s 4
f 62/65/121 61/64/122 1/85/123 2/86/124
f 63/66/125 62/65/121 2/86/124 3/87/126
f 64/67/127 63/66/125 3/87/126 4/88/128
f 65/68/129 64/67/127 4/88/128 5/89/130
f 66/69/131 65/68/129 5/89/130 6/90/132
f 67/70/133 66/69/131 6/90/132 7/91/134
f 68/71/135 67/70/133 7/91/134 8/92/136
f 69/72/137 68/71/135 8/92/136 9/93/138
f 70/73/139 69/72/137 9/93/138 10/94/140
f 71/74/141 70/73/139 10/94/140 11/95/142
f 72/75/143 71/74/141 11/95/142 12/96/144
f 73/76/145 72/75/143 12/96/144 13/97/146
f 74/77/147 73/76/145 13/97/146 14/98/148
f 75/78/149 74/77/147 14/98/148 15/99/150
f 76/79/151 75/78/149 15/99/150 16/100/152
f 77/80/153 76/79/151 16/100/152 17/101/154
f 78/81/155 77/80/153 17/101/154 18/102/156
f 79/82/157 78/81/155 18/102/156 19/103/158
f 80/83/159 79/82/157 19/103/158 20/104/160
f 61/84/122 80/83/159 20/104/160 1/105/123
s 3
f 82/107/92 81/106/90 65/68/161 66/69/162
f 83/108/94 82/107/92 66/69/162 67/70/163
f 84/109/96 83/108/94 67/70/163 68/71/164
f 85/110/98 84/109/96 68/71/164 69/72/165
f 86/111/100 85/110/98 69/72/165 70/73/166
f 87/112/102 86/111/100 70/73/166 71/74/167
f 88/113/104 87/112/102 71/74/167 72/75/168
f 89/114/106 88/113/104 72/75/168 73/76/169
f 90/115/108 89/114/106 73/76/169 74/77/170
f 91/116/110 90/115/108 74/77/170 75/78/171
f 92/117/112 91/116/110 75/78/171 76/79/172
f 93/118/114 92/117/112 76/79/172 77/80/173
f 94/119/116 93/118/114 77/80/173 78/81/174
f 95/120/118 94/119/116 78/81/174 79/82/175
f 96/121/120 95/120/118 79/82/175 80/83/176
f 97/123/83 96/121/120 80/83/176 61/84/177
f 98/124/84 97/122/83 61/64/177 62/65/178
f 99/125/86 98/124/84 62/65/178 63/66/179
f 100/126/88 99/125/86 63/66/179 64/67/180
f 81/106/90 100/126/88 64/67/180 65/68/161
s off
f 22/23/181 21/22/182 101/128/183 102/127/184
f 41/43/185 42/44/186 104/130/187 103/129/188
f 23/24/189 22/23/190 102/127/191 105/131/192
f 42/44/193 43/45/194 106/132/195 104/130/196
f 24/25/197 23/24/198 105/131/199 107/133/200
f 43/45/201 44/46/202 108/134/203 106/132/204
f 25/26/205 24/25/206 107/133/207 109/135/208
f 44/46/209 45/47/210 110/136/211 108/134/212
f 26/27/213 25/26/214 109/135/215 111/137/216
f 45/47/217 46/48/218 112/138/219 110/136/220
f 27/28/221 26/27/222 111/137/223 113/139/224
f 46/48/225 47/49/226 114/140/227 112/138/228
f 28/29/229 27/28/230 113/139/231 115/141/232
f 47/49/233 48/50/234 116/142/235 114/140/236
f 29/30/237 28/29/238 115/141/239 117/143/240
f 48/50/241 49/51/242 118/144/243 116/142/244
f 30/31/245 29/30/246 117/143/247 119/145/248
f 49/51/249 50/52/250 120/146/251 118/144/252
f 31/32/253 30/31/254 119/145/255 121/147/256
f 50/52/257 51/53/258 122/148/259 120/146/260
f 32/33/261 31/32/262 121/147/263 123/149/264
f 51/53/265 52/54/266 124/150/267 122/148/268
f 33/34/269 32/33/270 123/149/271 125/151/272
f 52/54/273 53/55/274 126/152/275 124/150/276
f 34/35/277 33/34/278 125/151/279 127/153/280
f 53/55/281 54/56/282 128/154/283 126/152/284
f 35/36/285 34/35/286 127/153/287 129/155/288
f 54/56/289 55/57/290 130/156/291 128/154/292
f 36/37/293 35/36/294 129/155/295 131/157/296
f 55/57/297 56/58/298 132/158/299 130/156/300
f 37/38/301 36/37/302 131/157/303 133/159/304
f 56/58/305 57/59/306 134/160/307 132/158/308
f 38/39/309 37/38/310 133/159/311 135/161/312
f 57/59/313 58/60/314 136/162/315 134/160/316
f 39/40/317 38/39/318 135/161/319 137/163/320
f 58/60/321 59/61/322 138/164/323 136/162/324
f 40/41/325 39/40/326 137/163/327 139/165/328
f 59/61/329 60/62/330 140/166/331 138/164/332
f 21/42/333 40/41/334 139/165/335 101/167/336
f 60/62/337 41/63/338 103/168/339 140/166/340
