# This file uses centimeters as units for non-parametric coordinates.

mtllib Beetle.mtl
g default
v -0.345600 -0.133618 0.207389
v -0.210748 -0.133839 0.371383
v -0.119603 -0.126208 0.355337
v 0.210748 -0.152820 0.498390
v 0.421496 -0.144914 0.326945
v -0.375490 -0.041695 0.207389
v -0.210748 0.034494 0.371383
v -0.119603 0.000000 0.355337
v 0.210748 -0.012305 0.498390
v 0.479535 0.000000 0.326945
v -0.345600 0.014552 0.129896
v -0.210748 0.101615 0.232612
v -0.119603 0.045817 0.222561
v 0.210748 0.208600 0.312161
v 0.452339 0.064523 0.204778
v -0.345600 0.014552 -0.129896
v -0.210748 0.101615 -0.232612
v -0.119603 0.045817 -0.222561
v 0.210748 0.208600 -0.312161
v 0.452339 0.064523 -0.204778
v -0.375490 -0.041695 -0.207389
v -0.210748 0.034494 -0.371383
v -0.119603 0.000000 -0.355337
v 0.210748 0.068086 -0.498390
v 0.479535 0.000000 -0.326945
v -0.345600 -0.133618 -0.207389
v -0.210748 -0.133839 -0.371383
v -0.119603 -0.126208 -0.355337
v 0.210748 -0.152820 -0.498390
v 0.421496 -0.144914 -0.326945
v 0.210748 0.288991 0.009982
v -0.119603 0.126208 0.007117
v -0.210748 0.161132 0.007438
v -0.345600 0.050227 0.004154
v -0.405029 -0.041695 0.004154
v -0.374316 -0.133618 0.004154
v -0.210748 -0.133839 0.007438
v -0.119603 -0.126208 0.007117
v 0.210748 -0.152820 0.009982
v 0.525302 -0.144914 0.006548
v 0.583341 0.000000 0.006548
v 0.525302 0.144914 0.006548
vt 0.375000 0.000000
vt 0.437500 0.000000
vt 0.500000 0.000000
vt 0.562500 0.000000
vt 0.625000 0.000000
vt 0.375000 0.125000
vt 0.437500 0.125000
vt 0.500000 0.125000
vt 0.562500 0.125000
vt 0.625000 0.125000
vt 0.375000 0.250000
vt 0.437500 0.250000
vt 0.500000 0.250000
vt 0.562500 0.250000
vt 0.625000 0.250000
vt 0.375000 0.500000
vt 0.437500 0.500000
vt 0.500000 0.500000
vt 0.562500 0.500000
vt 0.625000 0.500000
vt 0.375000 0.625000
vt 0.437500 0.625000
vt 0.500000 0.625000
vt 0.562500 0.625000
vt 0.625000 0.625000
vt 0.375000 0.750000
vt 0.437500 0.750000
vt 0.500000 0.750000
vt 0.562500 0.750000
vt 0.625000 0.750000
vt 0.375000 1.000000
vt 0.437500 1.000000
vt 0.500000 1.000000
vt 0.562500 1.000000
vt 0.625000 1.000000
vt 0.875000 0.000000
vt 0.875000 0.125000
vt 0.875000 0.250000
vt 0.125000 0.000000
vt 0.125000 0.125000
vt 0.125000 0.250000
vt 0.562500 0.372497
vt 0.500000 0.372497
vt 0.437500 0.372497
vt 0.252503 0.250000
vt 0.375000 0.372497
vt 0.252503 0.125000
vt 0.252503 0.000000
vt 0.375000 0.877503
vt 0.437500 0.877503
vt 0.500000 0.877503
vt 0.562500 0.877503
vt 0.625000 0.877503
vt 0.747497 0.000000
vt 0.747497 0.125000
vt 0.625000 0.372497
vt 0.747497 0.250000
vn -0.726079 -0.083391 0.682536
vn -0.510832 -0.065210 0.857204
vn -0.406351 0.566163 0.717173
vn -0.768645 0.266410 0.581558
vn -0.278134 0.000000 0.960542
vn -0.289509 0.521435 0.802676
vn 0.084282 -0.065414 0.994292
vn 0.038747 0.433491 0.900324
vn 0.580868 -0.118114 0.805383
vn 0.555739 0.453110 0.697026
vn -0.370620 0.852478 0.368675
vn -0.651054 0.694525 0.306209
vn -0.233297 0.778167 0.583120
vn 0.024283 0.762749 0.646239
vn 0.483364 0.663314 0.571291
vn -0.630037 0.749479 0.203308
vn -0.116804 0.952376 0.281668
vn -0.187042 0.982352 0.000520
vn -0.640488 0.767968 -0.000734
vn -0.322263 0.903740 0.281782
vn -0.320434 0.947271 0.000239
vn -0.046915 0.942044 0.332194
vn -0.033068 0.999453 0.000496
vn 0.485272 0.809369 0.330806
vn 0.510928 0.859623 -0.001129
vn -0.651054 0.694525 -0.306209
vn -0.370620 0.852478 -0.368675
vn -0.406351 0.566163 -0.717173
vn -0.768645 0.266410 -0.581559
vn -0.274681 0.842735 -0.462978
vn -0.345203 0.462999 -0.816374
vn 0.021777 0.860723 -0.508607
vn 0.029370 0.538748 -0.841955
vn 0.537502 0.723307 -0.433495
vn 0.620885 0.356815 -0.697987
vn -0.510832 -0.065210 -0.857204
vn -0.726079 -0.083391 -0.682536
vn -0.301684 0.000000 -0.953408
vn 0.079040 -0.050037 -0.995615
vn 0.571696 -0.090702 -0.815437
vn -0.001522 -0.999999 -0.000001
vn 0.036044 -0.999350 0.000001
vn 0.053417 -0.998572 0.000027
vn -0.001524 -0.999999 0.000077
vn -0.049254 -0.998786 0.000000
vn -0.052697 -0.998611 0.000000
vn -0.033040 -0.999454 0.000014
vn -0.041581 -0.999134 0.001402
vn 0.031372 -0.999508 -0.000055
vn 0.031427 -0.999498 0.004033
vn 0.888976 -0.356041 0.288021
vn 0.928314 -0.371796 0.000182
vn 0.999524 -0.030859 -0.000236
vn 0.930313 -0.171845 0.324017
vn 0.835011 0.550222 -0.003402
vn 0.780688 0.519939 0.346683
vn -0.949729 -0.313072 0.000033
vn -0.941052 -0.310212 0.134871
vn -0.986771 -0.068890 0.146753
vn -0.998424 0.056124 -0.000053
vn -0.816069 0.562149 0.134236
vn -0.824392 0.566017 -0.001156
vn -0.047978 0.948469 -0.313216
vn -0.320289 0.909229 -0.265927
vn -0.111400 0.957596 -0.265705
vn -0.625771 0.755919 -0.192348
vn -0.987716 -0.068015 -0.140684
vn -0.818439 0.560204 -0.127784
vn -0.941711 -0.310429 -0.129666
vn -0.001520 -0.999999 -0.000074
vn 0.053375 -0.998575 -0.000026
vn -0.052697 -0.998610 0.000000
vn -0.041531 -0.999136 -0.001345
vn 0.031320 -0.999502 -0.003862
vn 0.891829 -0.357184 -0.277599
vn 0.934199 -0.173666 -0.311628
vn 0.789929 0.515330 -0.332335
vn 0.482399 0.818275 -0.312597
s 1
g pCube14
usemtl initialShadingGroup
f 1/1/1 2/2/2 7/7/3 6/6/4
f 2/2/2 3/3/5 8/8/6 7/7/3
f 3/3/5 4/4/7 9/9/8 8/8/6
f 4/4/7 5/5/9 10/10/10 9/9/8
f 6/6/4 7/7/3 12/12/11 11/11/12
f 7/7/3 8/8/6 13/13/13 12/12/11
f 8/8/6 9/9/8 14/14/14 13/13/13
f 9/9/8 10/10/10 15/15/15 14/14/14
s 2
f 11/11/16 12/12/17 33/44/18 34/46/19
f 12/12/17 13/13/20 32/43/21 33/44/18
f 13/13/20 14/14/22 31/42/23 32/43/21
f 14/14/22 15/15/24 42/56/25 31/42/23
s 3
f 16/16/26 17/17/27 22/22/28 21/21/29
f 17/17/27 18/18/30 23/23/31 22/22/28
f 18/18/30 19/19/32 24/24/33 23/23/31
f 19/19/32 20/20/34 25/25/35 24/24/33
f 21/21/29 22/22/28 27/27/36 26/26/37
f 22/22/28 23/23/31 28/28/38 27/27/36
f 23/23/31 24/24/33 29/29/39 28/28/38
f 24/24/33 25/25/35 30/30/40 29/29/39
s 4
f 36/49/41 37/50/42 2/32/43 1/31/44
f 37/50/42 38/51/45 3/33/46 2/32/43
f 38/51/45 39/52/47 4/34/48 3/33/46
f 39/52/47 40/53/49 5/35/50 4/34/48
s 5
f 5/5/51 40/54/52 41/55/53 10/10/54
f 10/10/54 41/55/53 42/57/55 15/15/56
s 6
f 36/48/57 1/1/58 6/6/59 35/47/60
f 35/47/60 6/6/59 11/11/61 34/45/62
s 2
f 32/43/21 31/42/23 19/19/63 18/18/64
f 33/44/18 32/43/21 18/18/64 17/17/65
f 34/46/19 33/44/18 17/17/65 16/16/66
s 6
f 21/40/67 35/47/60 34/45/62 16/41/68
f 26/39/69 36/48/57 35/47/60 21/40/67
s 4
f 26/26/70 27/27/71 37/50/42 36/49/41
f 27/27/71 28/28/72 38/51/45 37/50/42
f 28/28/72 29/29/73 39/52/47 38/51/45
f 29/29/73 30/30/74 40/53/49 39/52/47
s 5
f 41/55/53 40/54/52 30/36/75 25/37/76
f 42/57/55 41/55/53 25/37/76 20/38/77
s 2
f 31/42/23 42/56/25 20/20/78 19/19/63
