# This file uses centimeters as units for non-parametric coordinates.

mtllib BiggerDesertPlant.mtl
g default
v -0.645098 0.578740 -0.665899
v -1.595010 1.305021 -0.680881
v -2.471381 1.899182 0.263237
v -0.161642 -0.129040 0.064828
v -0.601061 0.232074 0.181372
v -1.323386 0.777003 0.133913
v -1.662108 1.092786 0.407521
v -1.204924 0.777003 0.580566
v -1.634719 1.092786 0.510787
v -0.219415 0.578740 0.939102
v -1.037046 1.305021 1.422876
v -2.266116 1.899182 1.037169
v -1.136143 0.913213 -0.874830
v -0.970361 0.470419 -0.040589
v -0.811819 0.470419 0.557178
v -0.542374 0.913213 1.363925
v -2.059740 1.595559 -0.355684
v -1.589562 0.998525 0.218160
v -1.477864 0.998525 0.639305
v -1.601854 1.595559 1.370736
v -0.298078 0.582334 0.950638
v 0.318969 1.302896 1.676626
v 1.608547 1.890248 1.715011
v -0.069323 -0.123689 0.103915
v 0.309075 0.234581 0.358442
v 0.751131 0.775219 0.934242
v 1.181169 1.088515 1.009430
v 1.009040 0.775219 0.550817
v 1.240797 1.088515 0.920783
v 0.543246 0.582334 -0.300131
v 1.533733 1.302896 -0.129326
v 2.055435 1.890248 1.050637
v -0.130568 0.914173 1.458408
v 0.386245 0.471049 0.783011
v 0.731411 0.471049 0.269864
v 1.076701 0.914173 -0.336402
v 0.870758 1.590105 1.812545
v 0.990621 0.994997 1.079432
v 1.233801 0.994997 0.717903
v 1.867639 1.590105 0.330513
v 0.037155 0.900787 -0.513548
v -0.250816 1.452060 -0.933440
v -0.963790 1.983905 -0.951797
v -0.178252 0.471200 -0.030729
v -0.405868 0.711581 -0.186792
v -0.632274 1.171340 -0.558740
v -0.905161 1.452442 -0.573530
v -0.811682 1.189922 -0.304542
v -0.540938 0.960662 0.305535
v -1.008552 1.530541 0.140173
v -1.242546 2.012777 -0.556835
v -0.022696 1.147127 -0.810023
v -0.477404 0.904303 -0.384707
v -0.629941 0.929172 -0.174695
v -0.829056 1.230645 0.332484
v -0.550300 1.707035 -1.012060
v -0.803021 1.362547 -0.595830
v -0.909988 1.380067 -0.448613
v -1.172126 1.771440 -0.131013
v -0.538966 0.924114 0.171141
v -0.676819 1.591727 0.558827
v -0.257916 2.166076 1.109618
v -0.071459 0.394395 0.165567
v -0.067853 0.675515 0.415755
v -0.208284 1.236977 0.738268
v -0.045347 1.534565 0.943420
v 0.101076 1.201807 0.761386
v 0.457863 0.810787 0.245635
v 0.629775 1.443184 0.656469
v 0.222755 2.111430 1.145539
v -0.727928 1.245834 0.340305
v -0.174160 0.936935 0.540598
v 0.083758 0.889865 0.535887
v 0.662510 1.087759 0.444213
v -0.556736 1.882213 0.821824
v -0.128200 1.401516 0.842704
v 0.023250 1.372494 0.865251
v 0.515503 1.760313 0.901953
v 0.240912 0.580844 0.305913
v 0.625271 1.272897 0.283600
v 0.877066 1.931341 -0.307754
v 0.019728 0.089351 -0.135028
v 0.200682 0.356205 -0.231428
v 0.533044 0.935979 -0.227253
v 0.620860 1.265003 -0.447324
v 0.400361 0.927178 -0.508977
v -0.186625 0.552486 -0.601866
v 0.064876 1.235727 -0.906272
v 0.670907 1.917667 -0.745485
v 0.471737 0.903124 0.409905
v 0.385752 0.613755 -0.182478
v 0.273257 0.601977 -0.380568
v -0.124619 0.863568 -0.856322
v 0.784747 1.597280 0.071620
v 0.622622 1.169626 -0.351713
v 0.536261 1.161327 -0.504569
v 0.324867 1.566777 -0.904834
v 0.876437 0.653251 -0.232878
v 1.278014 1.236422 -1.160315
v 0.768501 1.662074 -2.388634
v 0.003758 -0.007196 -0.015628
v 0.076596 0.282762 -0.495990
v 0.414947 0.720315 -1.186229
v 0.303019 0.973874 -1.632921
v -0.041926 0.720315 -1.255505
v 0.197391 0.973874 -1.648937
v -0.765290 0.653251 -0.481816
v -0.873880 1.236422 -1.486610
v -0.023139 1.662074 -2.508671
v 1.268029 0.921818 -0.628654
v 0.430393 0.474142 -0.766685
v -0.181051 0.474142 -0.859400
v -1.021953 0.921818 -0.975887
v 1.168458 1.444561 -1.739783
v 0.446583 0.898187 -1.482881
v 0.015801 0.898187 -1.548202
v -0.597466 1.444561 -2.007553
vt 0.499557 0.592355
vt 0.453592 0.637179
vt 0.408344 0.578084
vt 0.434938 0.545798
vt 0.390031 0.683341
vt 0.394748 0.591264
vt 0.532611 0.541259
vt 0.455649 0.501273
vt 0.539992 0.496725
vt 0.466524 0.465684
vt 0.497928 0.428809
vt 0.584911 0.404180
vt 0.493979 0.386706
vt 0.598639 0.282650
vt 0.673305 0.286458
vt 0.446696 0.314343
vt 0.564712 0.223337
vt 0.679356 0.211940
vt 0.725285 0.345793
vt 0.411280 0.222516
vt 0.534548 0.185430
vt 0.625024 0.170503
vt 0.796279 0.121882
vt 0.801635 0.214323
vt 0.411953 0.093541
vt 0.542442 0.151141
vt 0.591415 0.135613
vt 0.730767 0.065488
vt 0.556386 0.138926
vt 0.644399 0.018297
vt 0.516457 0.001992
vt 0.746689 0.805520
vt 0.602628 0.756455
vt 0.746689 0.726390
vt 0.545744 0.683162
vt 0.693035 0.674162
vt 0.864186 0.756455
vt 0.557861 0.597307
vt 0.706599 0.606982
vt 0.800343 0.674162
vt 0.921070 0.683162
vt 0.591730 0.504699
vt 0.708888 0.558440
vt 0.786780 0.606982
vt 0.935518 0.597307
vt 0.677223 0.407921
vt 0.737420 0.537785
vt 0.784490 0.558440
vt 0.901649 0.504699
vt 0.755958 0.537785
vt 0.816156 0.407921
vt 0.429815 0.892778
vt 0.392485 0.929667
vt 0.368208 0.824396
vt 0.397675 0.802829
vt 0.347689 0.925344
vt 0.329056 0.834454
vt 0.366585 0.779387
vt 0.445560 0.802403
vt 0.296957 0.907660
vt 0.300881 0.823258
vt 0.327844 0.780481
vt 0.387035 0.687082
vt 0.425907 0.718865
vt 0.243261 0.858939
vt 0.288335 0.810156
vt 0.299737 0.791703
vt 0.342567 0.697387
vt 0.292754 0.720590
vt 0.241376 0.775078
vt 0.385942 0.125143
vt 0.403993 0.220049
vt 0.270026 0.158802
vt 0.245303 0.085565
vt 0.353942 0.297563
vt 0.227171 0.217710
vt 0.173014 0.112935
vt 0.281336 0.009351
vt 0.282050 0.370382
vt 0.202997 0.263485
vt 0.154683 0.183439
vt 0.040663 0.048270
vt 0.125464 0.001992
vt 0.161628 0.425067
vt 0.167797 0.271183
vt 0.134649 0.231170
vt 0.012521 0.136142
vt 0.151038 0.263260
vt 0.001867 0.237914
vt 0.036026 0.365684
vt 0.030389 0.764558
vt 0.073147 0.724418
vt 0.136868 0.790842
vt 0.115224 0.813578
vt 0.144042 0.685193
vt 0.158551 0.772457
vt 0.160857 0.794852
vt 0.162003 0.818438
vt 0.001867 0.812354
vt 0.100994 0.855039
vt 0.137672 0.861543
vt 0.012691 0.856811
vt 0.104209 0.891163
vt 0.235284 0.741262
vt 0.216725 0.692744
vt 0.079461 0.930009
vt 0.337049 0.544582
vt 0.357043 0.576938
vt 0.287844 0.632964
vt 0.250272 0.587219
vt 0.383436 0.545798
vt 0.384280 0.578084
vt 0.374767 0.591264
vt 0.353097 0.681451
vt 0.227827 0.535793
vt 0.331185 0.499645
vt 0.366566 0.501273
vt 0.335180 0.465684
vt 0.243542 0.492806
vt 0.318463 0.428809
vt 0.491206 0.809261
vt 0.526878 0.848107
vt 0.451472 0.866800
vt 0.529491 0.877727
vt 0.460243 0.905073
vt 0.560281 0.920832
vt 0.493974 0.954186
vt 0.582772 0.944418
vt 0.540384 0.998008
vn 0.601200 0.783028 -0.159452
vn 0.431056 0.836061 0.339402
vn 0.492572 0.860410 -0.130641
vn 0.620718 0.740132 0.258677
vn 0.560963 0.803023 0.201184
vn 0.668050 0.706857 0.232512
vn 0.687823 0.709943 0.151264
vn 0.672457 0.728781 0.129152
vn 0.663500 0.740167 0.109187
vn 0.387526 0.803023 -0.452745
vn 0.520063 0.728781 -0.445436
vn 0.522178 0.740166 -0.423656
vn 0.206195 0.836061 -0.508416
vn 0.410934 0.740132 -0.532295
vn 0.522451 0.709943 -0.472256
vn 0.465012 0.706857 -0.533026
vn 0.714052 0.694827 0.085706
vn 0.706220 0.705110 0.063824
vn 0.581764 0.705110 -0.405426
vn 0.577722 0.694827 -0.428314
vn -0.500339 0.786169 -0.362766
vn -0.024400 0.837890 -0.545293
vn -0.410814 0.870015 -0.272591
vn -0.210759 0.742926 -0.635328
vn -0.214343 0.805658 -0.552243
vn -0.261907 0.709829 -0.653871
vn -0.336044 0.713150 -0.615217
vn -0.342564 0.731956 -0.588974
vn -0.351601 0.743365 -0.569021
vn -0.579257 0.812260 0.068522
vn -0.674660 0.731956 -0.095257
vn -0.650159 0.754847 -0.086595
vn -0.501032 0.817853 0.282990
vn -0.656320 0.745406 0.116677
vn -0.696509 0.713150 -0.079325
vn -0.693609 0.719419 0.036637
vn -0.402872 0.698205 -0.591781
vn -0.414141 0.708506 -0.571407
vn -0.685373 0.708506 -0.168175
vn -0.699995 0.698205 -0.150057
vn 0.550516 0.753974 0.358406
vn 0.172492 0.747842 0.641076
vn 0.517774 0.796222 0.312954
vn 0.278753 0.650775 0.706250
vn 0.341039 0.698462 0.629161
vn 0.341779 0.585119 0.735407
vn 0.423868 0.549207 0.720213
vn 0.460746 0.573087 0.677705
vn 0.417201 0.612169 0.671709
vn 0.748402 0.663113 0.013205
vn 0.836089 0.532423 0.132218
vn 0.812511 0.573757 0.103097
vn 0.684486 0.710205 -0.164582
vn 0.800057 0.596957 -0.059592
vn 0.858606 0.503949 0.093972
vn 0.847280 0.531144 -0.001675
vn 0.485767 0.525735 0.698307
vn 0.701733 0.535260 0.470179
vn 0.859627 0.481200 0.171718
vn 0.125353 0.658672 -0.741915
vn 0.572322 0.574616 -0.585033
vn 0.151764 0.672770 -0.724119
vn 0.557670 0.484654 -0.673880
vn 0.460052 0.543232 -0.702318
vn 0.538772 0.413455 -0.734016
vn 0.477016 0.370738 -0.796875
vn 0.448002 0.396389 -0.801355
vn 0.459166 0.456228 -0.762248
vn -0.257822 0.602238 -0.755537
vn -0.223287 0.451049 -0.864117
vn -0.240178 0.513421 -0.823841
vn -0.360754 0.667636 -0.651244
vn -0.347861 0.557071 -0.754098
vn -0.273528 0.424156 -0.863293
vn -0.339835 0.485301 -0.805603
vn 0.441118 0.361591 -0.821381
vn 0.111942 0.404750 -0.907550
vn -0.226023 0.398234 -0.889001
vn -0.727691 0.608084 0.317331
vn -0.781704 0.595595 -0.184948
vn -0.697029 0.646379 0.310395
vn -0.886836 0.450264 -0.103853
vn -0.856436 0.515927 -0.018359
vn -0.922689 0.380387 -0.062845
vn -0.939093 0.342567 0.027413
vn -0.925928 0.371795 0.066529
vn -0.912642 0.406882 0.039142
vn -0.549969 0.522781 0.651333
vn -0.648526 0.383479 0.657540
vn -0.611555 0.430343 0.663932
vn -0.400778 0.593619 0.697849
vn -0.499351 0.477869 0.722696
vn -0.628635 0.355828 0.691523
vn -0.548829 0.406866 0.730237
vn -0.945443 0.310042 0.100062
vn -0.852153 0.337734 0.399713
vn -0.678390 0.329878 0.656482
vn -0.076829 0.858702 0.506683
vn -0.469580 0.872620 0.134274
vn -0.057594 0.923263 0.379828
vn -0.476939 0.802635 0.358200
vn -0.397757 0.860596 0.318062
vn -0.473073 0.774384 0.420157
vn -0.406780 0.783310 0.470059
vn -0.377655 0.801312 0.463978
vn -0.355287 0.813068 0.461185
vn 0.285589 0.860596 0.421679
vn 0.223134 0.801312 0.555077
vn 0.202600 0.813068 0.545778
vn 0.408667 0.872620 0.267444
vn 0.349312 0.802635 0.483485
vn 0.249147 0.783310 0.569518
vn 0.327253 0.774384 0.541512
vn -0.355490 0.772943 0.525533
vn -0.331195 0.783565 0.525677
vn 0.160472 0.783565 0.600229
vn 0.183718 0.772943 0.607294
s 1
g pPlane7
usemtl initialShadingGroup
f 4/19/1 1/12/2 5/15/3
f 1/12/2 13/13/4 14/14/5 5/15/3
f 2/16/6 17/20/7 18/21/8 6/17/9
f 5/15/3 14/14/5 15/18/10
f 6/17/9 18/21/8 19/27/11 8/22/12
f 4/19/1 5/15/3 10/24/13
f 5/15/3 15/18/10 16/23/14 10/24/13
f 8/22/12 19/27/11 20/30/15 11/28/16
f 13/13/4 2/16/6 6/17/9 14/14/5
f 15/18/10 14/14/5 6/17/9 8/22/12
f 16/23/14 15/18/10 8/22/12 11/28/16
f 17/20/7 3/25/17 7/26/18 18/21/8
f 19/27/11 18/21/8 7/26/18 9/29/19
f 20/30/15 19/27/11 9/29/19 12/31/20
s 3
f 24/32/21 21/33/22 25/34/23
f 21/33/22 33/35/24 34/36/25 25/34/23
f 22/38/26 37/42/27 38/43/28 26/39/29
f 25/34/23 34/36/25 35/40/30
f 26/39/29 38/43/28 39/48/31 28/44/32
f 24/32/21 25/34/23 30/37/33
f 25/34/23 35/40/30 36/41/34 30/37/33
f 28/44/32 39/48/31 40/49/35 31/45/36
f 33/35/24 22/38/26 26/39/29 34/36/25
f 35/40/30 34/36/25 26/39/29 28/44/32
f 36/41/34 35/40/30 28/44/32 31/45/36
f 37/42/27 23/46/37 27/47/38 38/43/28
f 39/48/31 38/43/28 27/47/38 29/50/39
f 40/49/35 39/48/31 29/50/39 32/51/40
s 5
f 44/59/41 41/52/42 45/55/43
f 41/52/42 52/53/44 53/54/45 45/55/43
f 42/56/46 56/60/47 57/61/48 46/57/49
f 45/55/43 53/54/45 54/58/50
f 46/57/49 57/61/48 58/67/51 48/62/52
f 44/59/41 45/55/43 49/64/53
f 45/55/43 54/58/50 55/63/54 49/64/53
f 48/62/52 58/67/51 59/69/55 50/68/56
f 52/53/44 42/56/46 46/57/49 53/54/45
f 54/58/50 53/54/45 46/57/49 48/62/52
f 55/63/54 54/58/50 48/62/52 50/68/56
f 56/60/47 43/65/57 47/66/58 57/61/48
f 58/67/51 57/61/48 47/66/58
f 59/69/55 58/67/51 47/66/58 51/70/59
s 7
f 63/106/60 60/102/61 64/103/62
f 60/102/61 71/99/63 72/100/64 64/103/62
f 61/91/65 75/92/66 76/93/67 65/94/68
f 64/103/62 72/100/64 73/101/69
f 65/94/68 76/93/67 77/97/70 67/98/71
f 63/121/60 64/122/62 68/123/72
f 64/122/62 73/124/69 74/125/73 68/123/72
f 67/126/71 77/128/70 78/129/74 69/127/75
f 71/99/63 61/91/65 65/94/68 72/100/64
f 73/101/69 72/100/64 65/94/68 67/98/71
f 74/125/73 73/124/69 67/126/71 69/127/75
f 75/92/66 62/95/76 66/96/77 76/93/67
f 77/97/70 76/93/67 66/96/77
f 78/104/74 77/97/70 66/96/77 70/105/78
s 9
f 82/11/79 79/9/80 83/10/81
f 79/9/80 90/7/82 91/8/83 83/10/81
f 80/1/84 94/2/85 95/3/86 84/4/87
f 83/118/81 91/117/83 92/116/88
f 84/111/87 95/112/86 96/108/89 86/107/90
f 82/120/79 83/118/81 87/119/91
f 83/118/81 92/116/88 93/115/92 87/119/91
f 86/107/90 96/108/89 97/109/93 88/110/94
f 90/7/82 80/1/84 84/4/87 91/8/83
f 92/116/88 91/117/83 84/111/87 86/107/90
f 93/115/92 92/116/88 86/107/90 88/110/94
f 94/2/85 81/5/95 85/6/96 95/3/86
f 96/108/89 95/112/86 85/113/96
f 97/109/93 96/108/89 85/113/96 89/114/97
s 11
f 101/78/98 98/71/99 102/74/100
f 98/71/99 110/72/101 111/73/102 102/74/100
f 99/75/103 114/79/104 115/80/105 103/76/106
f 102/74/100 111/73/102 112/77/107
f 103/76/106 115/80/105 116/86/108 105/81/109
f 101/78/98 102/74/100 107/83/110
f 102/74/100 112/77/107 113/82/111 107/83/110
f 105/81/109 116/86/108 117/89/112 108/87/113
f 110/72/101 99/75/103 103/76/106 111/73/102
f 112/77/107 111/73/102 103/76/106 105/81/109
f 113/82/111 112/77/107 105/81/109 108/87/113
f 114/79/104 100/84/114 104/85/115 115/80/105
f 116/86/108 115/80/105 104/85/115 106/88/116
f 117/89/112 116/86/108 106/88/116 109/90/117
