# This file uses centimeters as units for non-parametric coordinates.

mtllib DesertPlant.mtl
g default
v -0.444019 0.169091 -0.156776
v -0.837470 0.454779 0.098958
v -0.936372 0.688498 0.727504
v -0.044426 -0.109321 0.009431
v -0.192392 0.032726 0.178337
v -0.501520 0.247079 0.358018
v -0.564916 0.371295 0.563536
v -0.329834 0.247079 0.508420
v -0.525222 0.371295 0.598309
v 0.172918 0.169091 0.383679
v -0.028819 0.454779 0.807359
v -0.638885 0.688498 0.988111
v -0.702872 0.300658 -0.107034
v -0.404940 0.126481 0.189176
v -0.175168 0.126481 0.390463
v 0.157670 0.300658 0.646826
v -0.938288 0.569065 0.360357
v -0.587387 0.334216 0.465927
v -0.425505 0.334216 0.607740
v -0.274679 0.569065 0.941698
v 0.143858 0.170504 0.410092
v 0.596896 0.453943 0.537529
v 1.136011 0.684983 0.197746
v 0.004186 -0.107216 -0.000000
v 0.229441 0.033713 -0.000000
v 0.569355 0.246377 0.114124
v 0.766334 0.369615 0.026385
v 0.569355 0.246377 -0.114124
v 0.766334 0.369615 -0.026385
v 0.143858 0.170504 -0.334473
v 0.596896 0.453943 -0.537529
v 1.136011 0.684983 -0.197746
v 0.352495 0.301036 0.572022
v 0.378115 0.126729 0.152735
v 0.378115 0.126729 -0.152735
v 0.352495 0.301036 -0.496402
v 0.860517 0.566919 0.441116
v 0.707536 0.332829 0.107606
v 0.707536 0.332829 -0.107606
v 0.860517 0.566919 -0.441116
v -0.122398 0.295770 -0.282421
v -0.356180 0.512618 -0.375124
v -0.653452 0.721824 -0.186093
v -0.077577 0.126789 -0.025154
v -0.213889 0.221345 -0.026366
v -0.409221 0.402195 -0.116392
v -0.525141 0.512769 -0.047224
v -0.412673 0.409504 0.037250
v -0.133522 0.319323 0.212650
v -0.370760 0.543490 0.273790
v -0.658816 0.733181 0.052630
v -0.228661 0.392670 -0.387431
v -0.297770 0.297154 -0.087760
v -0.302390 0.306936 0.040365
v -0.244177 0.425523 0.303124
v -0.500597 0.612915 -0.324784
v -0.489427 0.477408 -0.084522
v -0.492682 0.484299 0.005304
v -0.512562 0.638249 0.207739
v -0.169763 0.304946 0.157025
v -0.119384 0.567558 0.353922
v 0.204147 0.793483 0.464178
v 0.020307 0.096577 0.025857
v 0.090758 0.207158 0.127402
v 0.122113 0.428014 0.298298
v 0.245450 0.545072 0.337460
v 0.255277 0.414179 0.222488
v 0.259323 0.260368 -0.087252
v 0.443040 0.509127 0.033735
v 0.411052 0.771987 0.346388
v -0.200574 0.431498 0.278450
v 0.081605 0.309989 0.207876
v 0.186014 0.291474 0.134841
v 0.397941 0.369318 -0.062283
v 0.002335 0.681823 0.428606
v 0.183727 0.492736 0.319023
v 0.252014 0.481320 0.286512
v 0.463882 0.633872 0.165848
v 0.187023 0.169918 -0.002738
v 0.338401 0.442143 -0.117844
v 0.278573 0.701148 -0.429625
v -0.025189 -0.023415 -0.122480
v 0.022399 0.081554 -0.211876
v 0.159768 0.309613 -0.301791
v 0.135090 0.439038 -0.416196
v 0.027722 0.306151 -0.380677
v -0.238462 0.158763 -0.256926
v -0.219304 0.427522 -0.451020
v 0.073404 0.695769 -0.552194
v 0.310295 0.296690 -0.023751
v 0.111744 0.182864 -0.242834
v 0.011029 0.178231 -0.293008
v -0.283197 0.281130 -0.378308
v 0.345323 0.569742 -0.248689
v 0.162170 0.401520 -0.377496
v 0.084635 0.398256 -0.416336
v -0.112350 0.557743 -0.522106
v 0.298957 0.198400 -0.398764
v 0.207864 0.427795 -0.889581
v -0.339585 0.595229 -1.252542
v 0.001182 -0.061392 -0.069142
v -0.101393 0.052665 -0.286098
v -0.153007 0.224780 -0.662269
v -0.322025 0.324520 -0.814489
v -0.359354 0.224780 -0.564710
v -0.369733 0.324520 -0.791933
v -0.442531 0.198400 -0.048195
v -0.764041 0.427795 -0.430072
v -0.697130 0.595229 -1.083498
v 0.350342 0.304043 -0.668927
v -0.031015 0.127946 -0.494578
v -0.307175 0.127946 -0.364012
v -0.683931 0.304043 -0.179932
v 0.003213 0.509669 -1.096872
v -0.221823 0.294748 -0.792573
v -0.416386 0.294748 -0.700585
v -0.794368 0.509669 -0.719783
vt 0.499557 0.592355
vt 0.453592 0.637179
vt 0.408344 0.578084
vt 0.434938 0.545798
vt 0.390031 0.683341
vt 0.394748 0.591264
vt 0.532611 0.541259
vt 0.455649 0.501273
vt 0.539992 0.496725
vt 0.466524 0.465684
vt 0.497928 0.428809
vt 0.584911 0.404180
vt 0.493979 0.386706
vt 0.598639 0.282650
vt 0.673305 0.286458
vt 0.446696 0.314343
vt 0.564712 0.223337
vt 0.679356 0.211940
vt 0.725285 0.345793
vt 0.411280 0.222516
vt 0.534548 0.185430
vt 0.625024 0.170503
vt 0.796279 0.121882
vt 0.801635 0.214323
vt 0.411953 0.093541
vt 0.542442 0.151141
vt 0.591415 0.135613
vt 0.730767 0.065488
vt 0.556386 0.138926
vt 0.644399 0.018297
vt 0.516457 0.001992
vt 0.746689 0.805520
vt 0.602628 0.756455
vt 0.746689 0.726390
vt 0.545744 0.683162
vt 0.693035 0.674162
vt 0.864186 0.756455
vt 0.557861 0.597307
vt 0.706599 0.606982
vt 0.800343 0.674162
vt 0.921070 0.683162
vt 0.591730 0.504699
vt 0.708888 0.558440
vt 0.786780 0.606982
vt 0.935518 0.597307
vt 0.677223 0.407921
vt 0.737420 0.537785
vt 0.784490 0.558440
vt 0.901649 0.504699
vt 0.755958 0.537785
vt 0.816156 0.407921
vt 0.429815 0.892778
vt 0.392485 0.929667
vt 0.368208 0.824396
vt 0.397675 0.802829
vt 0.347689 0.925344
vt 0.329056 0.834454
vt 0.366585 0.779387
vt 0.445560 0.802403
vt 0.296957 0.907660
vt 0.300881 0.823258
vt 0.327844 0.780481
vt 0.387035 0.687082
vt 0.425907 0.718865
vt 0.243261 0.858939
vt 0.288335 0.810156
vt 0.299737 0.791703
vt 0.342567 0.697387
vt 0.292754 0.720590
vt 0.241376 0.775078
vt 0.385942 0.125143
vt 0.403993 0.220049
vt 0.270026 0.158802
vt 0.245303 0.085565
vt 0.353942 0.297563
vt 0.227171 0.217710
vt 0.173014 0.112935
vt 0.281336 0.009351
vt 0.282050 0.370382
vt 0.202997 0.263485
vt 0.154683 0.183439
vt 0.040663 0.048270
vt 0.125464 0.001992
vt 0.161628 0.425067
vt 0.167797 0.271183
vt 0.134649 0.231170
vt 0.012521 0.136142
vt 0.151038 0.263260
vt 0.001867 0.237914
vt 0.036026 0.365684
vt 0.030389 0.764558
vt 0.073147 0.724418
vt 0.136868 0.790842
vt 0.115224 0.813578
vt 0.144042 0.685193
vt 0.158551 0.772457
vt 0.160857 0.794852
vt 0.162003 0.818438
vt 0.001867 0.812354
vt 0.100994 0.855039
vt 0.137672 0.861543
vt 0.012691 0.856811
vt 0.104209 0.891163
vt 0.235284 0.741262
vt 0.216725 0.692744
vt 0.079461 0.930009
vt 0.337049 0.544582
vt 0.357043 0.576938
vt 0.287844 0.632964
vt 0.250272 0.587219
vt 0.383436 0.545798
vt 0.384280 0.578084
vt 0.374767 0.591264
vt 0.353097 0.681451
vt 0.227827 0.535793
vt 0.331185 0.499645
vt 0.366566 0.501273
vt 0.335180 0.465684
vt 0.243542 0.492806
vt 0.318463 0.428809
vt 0.491206 0.809261
vt 0.526878 0.848107
vt 0.451472 0.866800
vt 0.529491 0.877727
vt 0.460243 0.905073
vt 0.560281 0.920832
vt 0.493974 0.954186
vt 0.582772 0.944418
vt 0.540384 0.998008
vn 0.352270 0.845106 -0.402122
vn 0.462392 0.886021 0.034071
vn 0.278033 0.906625 -0.317379
vn 0.571056 0.813569 -0.109545
vn 0.497209 0.858386 -0.126318
vn 0.603776 0.780947 -0.159927
vn 0.577328 0.785508 -0.222868
vn 0.551139 0.799855 -0.237653
vn 0.531678 0.811144 -0.243646
vn 0.059793 0.858386 -0.509507
vn 0.163063 0.799855 -0.577619
vn 0.171565 0.811144 -0.559116
vn -0.094620 0.886021 -0.453888
vn 0.033447 0.813569 -0.580506
vn 0.144960 0.785508 -0.601635
vn 0.079086 0.780947 -0.619571
vn 0.566310 0.771647 -0.289574
vn 0.547108 0.780948 -0.301319
vn 0.226706 0.780948 -0.582001
vn 0.212536 0.771647 -0.599491
vn -0.530312 0.847630 -0.017126
vn -0.274653 0.887398 -0.370259
vn -0.405683 0.914010 0.002504
vn -0.454641 0.815840 -0.357361
vn -0.418374 0.860478 -0.290761
vn -0.514260 0.783514 -0.348773
vn -0.544152 0.788224 -0.287405
vn -0.537945 0.802540 -0.257963
vn -0.529574 0.813788 -0.239376
vn -0.380355 0.865541 0.325836
vn -0.537945 0.802540 0.257963
vn -0.510006 0.822775 0.250868
vn -0.221220 0.871765 0.437136
vn -0.411349 0.816985 0.404138
vn -0.544153 0.788223 0.287405
vn -0.487122 0.792205 0.367590
vn -0.587137 0.774577 -0.235162
vn -0.583272 0.783858 -0.212979
vn -0.583272 0.783858 0.212979
vn -0.587137 0.774577 0.235162
vn 0.569998 0.821573 -0.010954
vn 0.435597 0.816543 0.378832
vn 0.514938 0.856837 -0.025852
vn 0.556559 0.735862 0.385680
vn 0.562874 0.772635 0.293611
vn 0.632771 0.672593 0.383691
vn 0.691436 0.638637 0.337726
vn 0.700436 0.658011 0.276425
vn 0.654304 0.695880 0.296036
vn 0.565088 0.739551 -0.365705
vn 0.715242 0.618314 -0.325756
vn 0.671283 0.659899 -0.337508
vn 0.419574 0.784571 -0.456515
vn 0.566884 0.688550 -0.452262
vn 0.709090 0.593359 -0.380942
vn 0.650197 0.619144 -0.440346
vn 0.736292 0.613102 0.286323
vn 0.782296 0.622901 -0.002487
vn 0.759961 0.567532 -0.316807
vn -0.271379 0.739065 -0.616552
vn 0.136004 0.661180 -0.737796
vn -0.244967 0.751484 -0.612588
vn 0.083782 0.575822 -0.813271
vn -0.008286 0.627080 -0.778911
vn 0.038372 0.499151 -0.865665
vn -0.040884 0.449564 -0.892312
vn -0.078599 0.476059 -0.875894
vn -0.042573 0.538634 -0.841464
vn -0.579453 0.686434 -0.439365
vn -0.629607 0.532541 -0.565681
vn -0.616566 0.598555 -0.511448
vn -0.590877 0.748011 -0.302231
vn -0.652097 0.646861 -0.395399
vn -0.677214 0.510672 -0.529713
vn -0.685488 0.574173 -0.447696
vn -0.089119 0.437840 -0.894625
vn -0.394604 0.486055 -0.779768
vn -0.654445 0.478650 -0.585318
vn -0.389220 0.693133 0.606691
vn -0.684962 0.681515 0.257611
vn -0.362829 0.729685 0.579582
vn -0.748953 0.541605 0.381751
vn -0.674167 0.598385 0.432936
vn -0.769377 0.459237 0.444027
vn -0.743196 0.421404 0.519692
vn -0.700319 0.445770 0.557532
vn -0.704079 0.487303 0.516536
vn -0.087194 0.607302 0.789672
vn -0.170500 0.459461 0.871680
vn -0.128103 0.511770 0.849518
vn 0.051906 0.679668 0.731681
vn -0.008463 0.567932 0.823032
vn -0.122309 0.435440 0.891870
vn -0.044574 0.490577 0.870257
vn -0.709240 0.378956 0.594450
vn -0.468214 0.411136 0.782140
vn -0.190604 0.401810 0.895667
vn 0.183477 0.903182 0.388071
vn -0.261789 0.913118 0.312542
vn 0.132513 0.950728 0.280279
vn -0.170187 0.862759 0.476113
vn -0.127572 0.902924 0.410431
vn -0.135519 0.837512 0.529348
vn -0.067579 0.845631 0.529472
vn -0.044301 0.859138 0.509823
vn -0.031606 0.869348 0.493190
vn 0.398153 0.902924 0.161874
vn 0.422121 0.859138 0.289303
vn 0.401209 0.869348 0.288558
vn 0.407676 0.913118 -0.003975
vn 0.475957 0.862759 0.170622
vn 0.452079 0.845631 0.283783
vn 0.495098 0.837512 0.231197
vn -0.001426 0.837024 0.547164
vn 0.016531 0.845799 0.533245
vn 0.401618 0.845799 0.351180
vn 0.423770 0.837024 0.346135
s 1
g pPlane7
usemtl initialShadingGroup
f 4/19/1 1/12/2 5/15/3
f 1/12/2 13/13/4 14/14/5 5/15/3
f 2/16/6 17/20/7 18/21/8 6/17/9
f 5/15/3 14/14/5 15/18/10
f 6/17/9 18/21/8 19/27/11 8/22/12
f 4/19/1 5/15/3 10/24/13
f 5/15/3 15/18/10 16/23/14 10/24/13
f 8/22/12 19/27/11 20/30/15 11/28/16
f 13/13/4 2/16/6 6/17/9 14/14/5
f 15/18/10 14/14/5 6/17/9 8/22/12
f 16/23/14 15/18/10 8/22/12 11/28/16
f 17/20/7 3/25/17 7/26/18 18/21/8
f 19/27/11 18/21/8 7/26/18 9/29/19
f 20/30/15 19/27/11 9/29/19 12/31/20
s 3
f 24/32/21 21/33/22 25/34/23
f 21/33/22 33/35/24 34/36/25 25/34/23
f 22/38/26 37/42/27 38/43/28 26/39/29
f 25/34/23 34/36/25 35/40/30
f 26/39/29 38/43/28 39/48/31 28/44/32
f 24/32/21 25/34/23 30/37/33
f 25/34/23 35/40/30 36/41/34 30/37/33
f 28/44/32 39/48/31 40/49/35 31/45/36
f 33/35/24 22/38/26 26/39/29 34/36/25
f 35/40/30 34/36/25 26/39/29 28/44/32
f 36/41/34 35/40/30 28/44/32 31/45/36
f 37/42/27 23/46/37 27/47/38 38/43/28
f 39/48/31 38/43/28 27/47/38 29/50/39
f 40/49/35 39/48/31 29/50/39 32/51/40
s 5
f 44/59/41 41/52/42 45/55/43
f 41/52/42 52/53/44 53/54/45 45/55/43
f 42/56/46 56/60/47 57/61/48 46/57/49
f 45/55/43 53/54/45 54/58/50
f 46/57/49 57/61/48 58/67/51 48/62/52
f 44/59/41 45/55/43 49/64/53
f 45/55/43 54/58/50 55/63/54 49/64/53
f 48/62/52 58/67/51 59/69/55 50/68/56
f 52/53/44 42/56/46 46/57/49 53/54/45
f 54/58/50 53/54/45 46/57/49 48/62/52
f 55/63/54 54/58/50 48/62/52 50/68/56
f 56/60/47 43/65/57 47/66/58 57/61/48
f 58/67/51 57/61/48 47/66/58
f 59/69/55 58/67/51 47/66/58 51/70/59
s 7
f 63/106/60 60/102/61 64/103/62
f 60/102/61 71/99/63 72/100/64 64/103/62
f 61/91/65 75/92/66 76/93/67 65/94/68
f 64/103/62 72/100/64 73/101/69
f 65/94/68 76/93/67 77/97/70 67/98/71
f 63/121/60 64/122/62 68/123/72
f 64/122/62 73/124/69 74/125/73 68/123/72
f 67/126/71 77/128/70 78/129/74 69/127/75
f 71/99/63 61/91/65 65/94/68 72/100/64
f 73/101/69 72/100/64 65/94/68 67/98/71
f 74/125/73 73/124/69 67/126/71 69/127/75
f 75/92/66 62/95/76 66/96/77 76/93/67
f 77/97/70 76/93/67 66/96/77
f 78/104/74 77/97/70 66/96/77 70/105/78
s 9
f 82/11/79 79/9/80 83/10/81
f 79/9/80 90/7/82 91/8/83 83/10/81
f 80/1/84 94/2/85 95/3/86 84/4/87
f 83/118/81 91/117/83 92/116/88
f 84/111/87 95/112/86 96/108/89 86/107/90
f 82/120/79 83/118/81 87/119/91
f 83/118/81 92/116/88 93/115/92 87/119/91
f 86/107/90 96/108/89 97/109/93 88/110/94
f 90/7/82 80/1/84 84/4/87 91/8/83
f 92/116/88 91/117/83 84/111/87 86/107/90
f 93/115/92 92/116/88 86/107/90 88/110/94
f 94/2/85 81/5/95 85/6/96 95/3/86
f 96/108/89 95/112/86 85/113/96
f 97/109/93 96/108/89 85/113/96 89/114/97
s 11
f 101/78/98 98/71/99 102/74/100
f 98/71/99 110/72/101 111/73/102 102/74/100
f 99/75/103 114/79/104 115/80/105 103/76/106
f 102/74/100 111/73/102 112/77/107
f 103/76/106 115/80/105 116/86/108 105/81/109
f 101/78/98 102/74/100 107/83/110
f 102/74/100 112/77/107 113/82/111 107/83/110
f 105/81/109 116/86/108 117/89/112 108/87/113
f 110/72/101 99/75/103 103/76/106 111/73/102
f 112/77/107 111/73/102 103/76/106 105/81/109
f 113/82/111 112/77/107 105/81/109 108/87/113
f 114/79/104 100/84/114 104/85/115 115/80/105
f 116/86/108 115/80/105 104/85/115 106/88/116
f 117/89/112 116/86/108 106/88/116 109/90/117
